<svg
  width="1440"
  height="221"
  viewBox="0 0 1440 221"
  fill="none"
  xmlns="http://www.w3.org/2000/svg"
>
<path
    d="M-197.747 54.0974C-93.4368 -21.753 6.33757 -64.4874 137.436 -60.9159C247.052 -57.932 256.181 86.4562 311.396 153.061C355.944 206.793 442.155 213.235 498.139 178.107C559.553 139.578 590.232 67.536 646.33 23.1062C698.4 -18.1363 771.195 -82.6617 842.802 -49.41C910.268 -18.0684 963.956 39.28 1026.66 78.228C1150.05 154.881 1303.27 90.7398 1414.23 21.7047C1449.25 -0.0863184 1483.19 -34.9995 1526.26 -38.571"
    stroke="white"
    stroke-miterlimit="10"
  />
<path
    d="M-200.971 49.8025C-175.609 31.2552 -150.043 15.3076 -124.568 1.22476C-55.7441 -36.74 15.0594 -59.2996 97.526 -61.8992C109.234 -62.2609 121.157 -62.2043 133.341 -61.7409C179.472 -60.023 207.742 -33.2363 229.359 2.03852C256.35 46.0727 272.923 103.297 300.344 141.849C302.64 145.07 305.005 148.167 307.459 151.106C351.984 204.453 437.166 211.63 493.105 178.028C554.214 141.058 585.504 71.3336 641.556 28.2149C672.439 4.54765 710.391 -27.1556 750.98 -42.5043C778.978 -53.0833 808.209 -55.8976 837.213 -42.8885C904.295 -12.9259 957.78 41.9925 1019.88 78.8271C1033.02 86.637 1046.47 92.8534 1060.17 97.6343C1174.1 137.159 1303.94 77.9568 1404.66 22.1681C1426.67 9.97282 1448.79 -4.6412 1472.65 -16.7348C1489.52 -25.3246 1507.23 -32.1513 1526.47 -33.7223"
    stroke="white"
    stroke-miterlimit="10"
  />
<path
    d="M-204.195 45.5189C-179.037 27.0281 -153.211 11.7247 -127.815 -2.00775C-59.0927 -39.0457 11.7222 -61.1758 93.6457 -63.0746C105.309 -63.3233 117.153 -63.1425 129.234 -62.5547C174.913 -60.396 203.002 -33.6206 224.71 1.40558C251.814 45.1233 268.816 101.658 296.396 139.984C298.692 143.183 301.056 146.246 303.522 149.173C348.014 202.125 432.279 210.229 488.071 177.972C548.976 142.742 580.775 75.1425 636.782 33.3575C667.733 10.4249 705.572 -20.4307 745.968 -35.4855C773.83 -45.8724 802.869 -48.7658 831.648 -36.3332C898.345 -7.73807 951.614 44.739 1013.13 79.46C1026.12 86.8292 1039.42 92.6838 1052.96 97.0692C1165.64 133.61 1293.15 72.9724 1395.11 22.6541C1418.77 10.9787 1442.79 -0.94532 1468.73 -12.3494C1487.02 -20.3968 1506.12 -27.1895 1526.71 -28.8397"
    stroke="white"
    stroke-miterlimit="10"
  />
<path
    d="M-207.419 41.224C-182.465 22.7784 -156.378 8.13051 -131.062 -5.26284C-62.4525 -41.3853 8.39629 -63.0633 89.7655 -64.2727C101.383 -64.4083 113.159 -64.1145 125.128 -63.3911C170.354 -60.7802 198.262 -34.0275 220.06 0.750042C247.266 44.1513 264.71 99.9852 292.448 138.086C294.744 141.262 297.12 144.302 299.586 147.207C344.054 199.763 427.347 208.703 483.037 177.87C543.693 144.291 575.945 78.7705 632.008 38.4436C662.97 16.1778 700.753 -13.7509 740.946 -28.5232C768.672 -38.718 797.484 -41.634 826.071 -29.8343C892.327 -2.48244 945.449 47.429 1006.38 80.0364C1019.23 86.9761 1032.36 92.4352 1045.75 96.4475C1157.23 129.857 1282.79 68.2932 1385.58 23.0949C1410.96 11.9281 1436.81 2.67145 1464.82 -8.00932C1484.52 -15.5254 1505.01 -22.273 1526.96 -23.9909"
    stroke="white"
    stroke-miterlimit="10"
  />
<path
    d="M-210.643 36.9404C-185.892 18.5513 -159.546 4.54766 -134.297 -8.49531C-65.7895 -43.691 5.07058 -65.1091 85.8968 -65.4481C97.4693 -65.4933 109.166 -65.0525 121.044 -64.1936C165.818 -61.1419 193.545 -34.3891 215.422 0.117124C242.742 43.2132 260.615 98.3463 288.511 136.221C290.819 139.363 293.194 142.392 295.649 145.274C340.084 197.435 422.392 207.211 477.992 177.814C538.388 145.884 571.171 82.5343 627.223 43.5862C658.242 22.0325 695.923 -7.01469 735.923 -21.5044C763.514 -31.4957 792.123 -34.4908 820.482 -23.2789C886.343 2.73929 939.341 50.0285 999.601 80.6581C1012.33 87.1343 1025.29 92.243 1038.52 95.8711C1148.8 126.15 1272.73 64.0322 1375.99 23.5809C1403.18 12.9341 1430.77 6.33345 1460.87 -3.62397C1481.99 -10.6089 1503.87 -17.3112 1527.16 -19.1083"
    stroke="white"
    stroke-miterlimit="10"
  />
<path
    d="M-213.867 32.6454C-189.32 14.3129 -162.713 0.953483 -137.543 -11.7391C-69.1379 -46.008 1.73357 -67.0192 82.0168 -66.6236C93.544 -66.5671 105.162 -65.9681 116.938 -65.0074C161.248 -61.4019 188.805 -34.7734 210.773 -0.515829C238.205 42.2638 256.509 96.7075 284.552 134.356C286.86 137.475 289.247 140.47 291.701 143.341C336.113 195.106 417.437 205.719 472.947 177.757C533.071 147.478 566.409 86.3092 622.438 48.7174C653.513 27.8758 691.093 -0.289784 730.889 -14.4969C758.356 -24.2961 786.749 -27.359 814.894 -16.7461C880.358 7.93837 933.176 52.7185 992.825 81.2684C1005.42 87.2926 1018.22 92.0396 1031.29 95.2834C1140.38 122.42 1262.95 60.099 1366.44 24.0556C1395.5 13.9286 1424.74 9.9841 1456.93 0.750035C1479.46 -5.71494 1502.74 -12.3607 1527.39 -14.2369"
    stroke="white"
    stroke-miterlimit="10"
  />
<path
    d="M-217.091 28.3618C-192.747 10.0745 -165.881 -2.62936 -140.79 -14.9829C-72.4864 -48.325 -1.59238 -68.9406 78.1366 -67.8103C89.6185 -67.6521 101.157 -66.9174 112.843 -65.8324C156.689 -61.7635 184.087 -35.169 206.135 -1.16005C233.669 41.3031 252.414 95.046 280.615 132.468C282.934 135.565 285.31 138.538 287.776 141.386C332.154 192.755 412.494 204.205 467.924 177.678C527.777 149.049 561.669 90.0504 617.676 53.8375C648.807 33.7079 686.285 6.42387 725.889 -7.5007C753.22 -17.1077 781.41 -20.2385 809.34 -10.2133C874.408 13.1375 927.033 55.4085 986.083 81.8787C998.538 87.4621 1011.2 91.8248 1024.08 94.6957C1131.99 118.702 1253.43 56.4935 1356.89 24.5303C1387.88 14.9572 1418.73 13.6235 1453.01 5.11278C1476.95 -0.82098 1501.62 -7.42158 1527.61 -9.3769"
    stroke="white"
    stroke-miterlimit="10"
  />
<path
    d="M-220.315 24.0782C-196.175 5.84744 -169.037 -6.21223 -144.037 -18.2154C-75.835 -50.6307 -4.91824 -70.8394 74.2564 -68.9858C85.6931 -68.7145 97.1525 -67.8556 108.736 -66.6462C152.13 -62.1139 179.347 -35.5533 201.486 -1.79299C229.133 40.3537 248.307 93.4072 276.667 130.603C278.986 133.666 281.373 136.628 283.839 139.453C328.183 190.427 407.528 202.701 462.89 177.621C522.46 150.631 556.918 93.8254 612.902 58.98C644.09 39.5625 681.466 13.1601 720.866 -0.481911C748.061 -9.89681 776.048 -13.0954 803.763 -3.65789C868.435 18.3592 920.879 58.1098 979.318 82.5117C991.637 87.6542 1004.14 91.644 1016.86 94.1305C1123.6 114.995 1244.06 53.2045 1347.34 25.0276C1380.32 16.0309 1412.73 17.2855 1449.09 9.50941C1474.43 4.09556 1500.52 -2.44853 1527.86 -4.48296"
    stroke="white"
    stroke-miterlimit="10"
  />
<path
    d="M-223.528 19.7833C-199.591 1.59776 -172.227 -9.86289 -147.272 -21.4592C-79.2513 -53.0946 -8.24405 -72.7495 70.3876 -70.1612C81.7791 -69.7882 93.1705 -68.7936 104.652 -67.4599C147.583 -62.4756 174.63 -35.9375 196.859 -2.43721C224.619 39.4043 244.291 91.6892 272.742 128.727C275.072 131.756 277.459 134.695 279.914 137.509C324.235 188.099 402.573 201.198 457.867 177.554C517.155 152.214 552.178 97.5891 608.14 64.1001C639.395 45.3946 676.658 19.8737 715.855 6.5143C742.914 -2.69716 770.697 -5.97485 798.186 2.87493C862.462 23.5583 914.714 60.7997 972.565 83.122C984.748 87.8238 997.09 91.4406 1009.66 93.5428C1115.24 111.265 1234.85 50.1642 1337.79 25.5023C1372.78 17.116 1406.71 20.9249 1445.17 13.8835C1471.91 8.98953 1499.4 2.50195 1528.09 0.388395"
    stroke="white"
    stroke-miterlimit="10"
  />
<path
    d="M-226.752 15.4997C-203.019 -2.62938 -175.394 -13.4458 -150.518 -24.703C-82.5996 -55.4342 -11.5698 -74.6596 66.5076 -71.348C77.8538 -70.862 89.1661 -69.7431 100.546 -68.2738C143.024 -62.826 169.891 -36.3219 192.198 -3.07018C220.06 38.4549 240.185 90.039 268.771 126.862C271.102 129.869 273.488 132.785 275.955 135.565C320.242 185.759 397.584 199.684 452.811 177.486C511.816 153.773 547.415 101.353 603.343 69.2313C634.656 51.2492 671.816 26.5986 710.821 13.5218C737.744 4.50243 765.324 1.15693 792.598 9.41898C856.489 28.7574 908.537 63.501 965.789 83.7436C977.836 88.0046 990.02 91.2371 1002.42 92.9664C1106.83 107.546 1225.72 47.3725 1328.22 25.9883C1365.26 18.2575 1400.68 24.5755 1441.23 18.2688C1469.38 13.8834 1498.27 7.46366 1528.31 5.27099"
    stroke="white"
    stroke-miterlimit="10"
  />
<path
    d="M-229.976 11.2048C-206.447 -6.86778 -178.562 -17.0399 -153.765 -27.9468C-85.9594 -57.7625 -14.8957 -76.5697 62.6274 -72.5347C73.9284 -71.947 85.1614 -70.6925 96.4398 -69.0988C138.454 -63.1877 165.162 -36.7174 187.549 -3.7144C215.524 37.4942 236.09 88.3889 264.823 124.975C267.165 127.959 269.552 130.841 272.018 133.61C316.283 183.408 392.607 198.158 447.777 177.407C506.487 155.333 542.675 105.105 598.569 74.34C629.95 57.0699 666.997 33.2897 705.798 20.5066C732.586 11.6795 759.962 8.26614 787.021 15.9405C850.516 33.9452 902.372 66.1797 959.024 84.3313C970.936 88.1515 982.972 90.9997 995.201 92.356C1098.47 103.783 1221.58 62.6081 1318.66 26.4404C1358.4 26.4856 1394.65 28.1923 1437.3 22.6202C1466.84 18.7548 1497.14 12.3915 1528.53 10.131"
    stroke="white"
    stroke-miterlimit="10"
  />
<path
    d="M-233.2 6.92119C-209.874 -11.1061 -181.729 -20.6341 -157.012 -31.1792C-89.3077 -60.0908 -18.2214 -78.4572 58.7474 -73.6989C70.0031 -72.9981 81.157 -71.6192 92.3449 -69.9013C133.895 -63.538 160.434 -37.0904 182.911 -4.33601C210.999 36.5561 231.995 86.7501 260.887 123.121C263.228 126.071 265.626 128.942 268.092 131.688C312.323 181.091 387.641 196.655 442.754 177.361C501.159 156.915 537.947 108.891 593.807 79.4939C625.244 62.9359 662.19 40.0372 700.799 27.5368C727.45 18.913 754.634 15.4206 781.466 22.5072C844.578 39.167 896.218 68.9036 952.282 84.9756C964.058 88.355 975.947 90.8303 988.006 91.8023C1090.13 100.064 1212.24 60.5624 1309.14 26.9378C1350.81 28.2601 1388.65 31.8543 1433.39 27.0169C1464.35 23.6714 1496.04 17.3646 1528.79 15.025"
    stroke="white"
    stroke-miterlimit="10"
  />
<path
    d="M-236.424 2.62624C-213.302 -15.3446 -184.897 -24.2283 -160.258 -34.4344C-92.6676 -62.4304 -21.5473 -80.3786 54.8672 -74.897C66.0776 -74.0945 77.1524 -72.58 88.2384 -70.7377C129.336 -63.911 155.694 -37.4973 178.262 -5.00289C206.452 35.584 227.889 85.066 256.938 121.222C259.291 124.15 261.678 126.998 264.156 129.722C308.364 178.729 382.652 195.106 437.72 177.271C495.82 158.453 533.218 112.644 589.033 84.5913C620.538 68.7566 657.37 46.7282 695.776 34.5103C722.292 26.0787 749.272 22.5185 775.878 29.0061C838.605 44.3208 890.03 71.5596 945.506 85.552C957.135 88.4906 968.877 90.5816 980.766 91.1806C1081.76 96.278 1202.86 58.4601 1299.56 27.3785C1343.15 29.9781 1382.61 35.4484 1429.45 31.3456C1461.81 28.5087 1494.9 22.2698 1528.99 19.8511"
    stroke="white"
    stroke-miterlimit="10"
  />
<path
    d="M-239.648 -1.65736C-216.741 -19.5717 -188.064 -27.8111 -163.505 -37.6668C-96.0159 -64.7474 -24.873 -82.2661 50.9985 -76.0724C62.1637 -75.1569 73.1592 -73.5181 84.1548 -71.5401C124.788 -64.2614 150.976 -37.859 173.635 -5.62451C201.938 34.646 223.816 83.4271 253.002 119.369C255.355 122.274 257.753 125.088 260.219 127.8C304.394 176.412 377.663 193.603 432.686 177.226C490.481 160.024 528.479 116.441 584.259 89.7452C615.832 74.6339 652.563 53.4758 690.765 41.5404C717.145 33.301 743.932 29.6616 770.312 35.5728C832.654 49.5425 883.865 74.2835 938.752 86.1962C950.246 88.6941 961.841 90.4007 973.56 90.6268C1073.44 92.5482 1193.52 56.4257 1290.02 27.8871C1335.54 31.7639 1376.61 39.1104 1425.53 35.7536C1459.3 33.4366 1493.79 27.2542 1529.24 24.7564"
    stroke="white"
    stroke-miterlimit="10"
  />
<path
    d="M-242.872 -5.95229C-220.168 -23.8214 -191.232 -31.4053 -166.752 -40.9106C-99.3645 -67.0757 -28.2103 -84.1536 47.1182 -77.2592C58.2382 -76.2419 69.1546 -74.4675 80.0483 -72.3652C120.23 -64.6344 146.236 -38.2546 168.974 -6.26875C197.379 33.6852 219.698 81.777 249.042 117.481C251.407 120.352 253.805 123.155 256.271 125.845C300.412 174.061 372.652 192.066 427.641 177.147C485.118 161.561 523.739 120.205 579.474 94.8539C611.126 80.4546 647.732 60.1781 685.73 48.5253C711.975 40.4893 738.559 36.7708 764.724 42.0942C826.693 54.7077 877.666 76.9735 931.988 86.7952C943.345 88.8523 954.804 90.559 966.332 90.0277C1064.99 85.4729 1184.14 54.3461 1280.45 28.3505C1327.91 33.5044 1370.58 42.7385 1421.59 40.1163C1456.76 38.3079 1492.66 32.1933 1529.47 29.6164"
    stroke="white"
    stroke-miterlimit="10"
  />
<path
    d="M-246.096 -10.2359C-223.596 -28.0485 -194.399 -34.9881 -169.987 -44.1544C-102.701 -69.404 -31.5246 -86.0524 43.2496 -78.4346C54.3243 -77.3044 65.1614 -75.4055 75.9647 -73.179C115.682 -64.996 141.531 -38.6388 164.348 -6.90166C192.866 32.7472 215.615 80.1269 245.117 115.616C247.482 118.465 249.88 121.245 252.357 123.912C296.475 171.744 367.675 190.54 422.63 177.09C477.585 163.64 519.033 123.991 574.723 99.9965C606.443 86.3206 642.936 66.9143 680.742 55.5441C706.851 47.7003 733.242 43.9026 759.17 48.6497C820.754 59.9182 871.512 79.6974 925.246 87.4282C936.456 89.0444 947.757 89.9826 959.137 89.4626C1056.77 84.9869 1174.81 52.289 1270.93 28.8478C1320.3 35.2902 1364.58 46.3892 1417.69 44.513C1454.28 43.2245 1491.56 37.1664 1529.72 34.5103"
    stroke="white"
    stroke-miterlimit="10"
  />
<path
    d="M-249.32 -14.5308C-227.024 -32.2982 -197.555 -38.5936 -173.234 -47.3982C-106.05 -71.7323 -34.8505 -87.9399 39.3694 -79.6213C50.3988 -78.3894 61.1681 -76.3549 71.8582 -74.004C111.112 -65.369 136.791 -39.0344 159.698 -7.5572C188.329 31.7752 211.52 78.4541 241.158 113.729C243.533 116.555 245.932 119.301 248.409 121.957C292.493 169.393 362.663 188.98 417.584 177.011C474.417 164.624 514.304 127.767 569.938 105.105C601.725 92.1639 638.106 73.6167 675.708 62.529C701.681 54.8773 727.88 51.0119 753.582 55.1712C814.792 65.0834 865.313 82.3873 918.469 88.0159C929.544 89.1914 940.698 89.7452 951.908 88.8523C1048.44 81.1667 1165.44 50.1981 1261.36 29.2999C1312.66 37.0195 1358.55 49.9946 1413.74 48.8644C1451.73 48.0845 1490.42 42.0943 1529.93 39.3591"
    stroke="white"
    stroke-miterlimit="10"
  />
<path
    d="M-252.544 -18.8144C-230.451 -36.5253 -200.722 -42.1765 -176.48 -50.6307C-109.41 -74.038 -38.1762 -89.8161 35.4893 -80.7968C46.4736 -79.4518 57.1637 -77.2931 67.752 -74.8178C106.553 -65.7307 132.051 -39.4187 155.049 -8.19016C183.782 30.8257 207.413 76.8152 237.21 111.853C239.586 114.644 241.995 117.38 244.461 120.013C288.522 167.054 357.652 187.432 412.528 176.943C469.033 166.149 509.553 131.553 565.142 110.236C597.008 98.0185 633.264 80.3416 670.663 69.5365C696.5 62.0882 722.507 58.1323 747.982 61.7152C808.819 70.2711 859.102 85.0999 911.682 88.6375C922.61 89.3722 933.628 89.5304 944.657 88.2759C1040.09 77.369 1156.04 48.141 1251.77 29.7859C1305 38.7826 1352.51 53.634 1409.8 53.2497C1449.19 52.9785 1489.28 47.056 1530.14 44.253"
    stroke="white"
    stroke-miterlimit="10"
  />
<path
    d="M-255.768 -23.098C-233.879 -40.7524 -203.89 -45.7593 -179.727 -53.8745C-112.758 -76.3663 -41.5022 -91.7036 31.6091 -81.9723C42.5481 -80.5142 53.159 -78.2312 63.6568 -75.6203C101.994 -66.0811 127.322 -39.7917 150.411 -8.81178C179.257 29.8877 203.318 75.1764 233.273 109.999C235.649 112.768 238.07 115.469 240.536 118.092C284.563 164.737 352.652 185.895 407.505 176.898C463.682 167.687 504.847 135.362 560.379 115.379C592.314 103.885 628.456 87.0665 665.663 76.5553C691.364 69.2991 717.167 65.2642 742.428 68.2593C802.892 75.4476 852.926 87.8238 904.94 89.2592C915.72 89.5531 926.603 89.327 937.463 87.6995C1031.8 73.5488 1151.56 -3.69179 1242.24 30.2719C1294.77 49.9494 1346.5 57.2734 1405.88 57.6238C1446.68 57.8724 1488.18 52.0065 1530.38 49.1243"
    stroke="white"
    stroke-miterlimit="10"
  />
<path
    d="M-258.992 -27.3929C-237.306 -45.0021 -207.057 -49.3535 -182.973 -57.1183C-116.107 -78.6832 -44.8278 -93.5911 27.7291 -83.159C38.6229 -81.588 49.1546 -79.1919 59.5506 -76.4454C97.4354 -66.454 122.594 -40.1873 145.75 -9.46732C174.71 28.927 199.201 73.5149 229.314 108.112C231.701 110.858 234.11 113.537 236.588 116.136C280.593 162.386 347.629 184.312 402.46 176.819C457.29 169.325 500.119 139.137 555.594 120.499C587.608 109.739 623.626 93.7802 660.629 83.5515C686.194 76.4875 711.805 72.3734 736.828 74.7921C796.919 80.6129 846.716 90.5364 898.164 89.8695C908.809 89.7339 919.544 89.101 930.234 87.1117C1023.46 69.7173 1142.89 -3.95174 1232.68 30.7353C1287 51.7239 1340.49 60.8902 1401.96 61.9865C1444.16 62.7438 1487.06 56.9456 1530.61 53.9844"
    stroke="white"
    stroke-miterlimit="10"
  />
<path
    d="M-262.216 -31.6766C-240.734 -49.2292 -210.225 -52.9364 -186.22 -60.3508C-119.444 -81.0003 -48.1538 -95.456 23.8489 -84.3345C34.6974 -82.6617 45.1499 -80.13 55.4554 -77.2592C92.8764 -66.827 117.865 -40.5716 141.112 -10.1003C170.173 27.9775 195.106 71.8648 225.366 106.247C227.753 108.959 230.174 111.627 232.651 114.192C276.622 160.046 342.606 182.741 397.426 176.751C452.935 170.682 495.401 142.934 550.82 125.619C582.913 115.594 618.807 100.494 655.617 90.5477C681.047 83.6758 706.466 79.4713 731.262 81.3249C790.98 85.778 840.528 93.2602 891.41 90.4798C901.908 89.9034 912.508 88.8862 923.017 86.524C1015.14 65.8519 1134.13 -4.06478 1223.12 31.21C1279.25 53.4532 1334.46 64.5182 1398.02 66.3605C1441.63 67.6264 1485.93 61.896 1530.84 58.8557"
    stroke="white"
    stroke-miterlimit="10"
  />
<path
    d="M-265.44 -35.9715C-244.162 -53.4789 -213.392 -56.5193 -189.467 -63.6059C-122.792 -83.3286 -51.4795 -97.3436 19.9689 -85.5212C30.7721 -83.7355 41.1455 -81.0794 51.3492 -78.0843C88.3177 -67.2113 113.126 -40.9672 136.463 -10.7445C165.637 27.0168 190.999 70.2146 221.418 104.359C223.816 107.049 226.237 109.683 228.714 112.237C272.651 157.695 337.595 181.148 392.392 176.672C447.189 172.196 490.684 146.721 546.047 130.739C578.219 121.448 613.988 107.207 650.595 97.5438C675.889 90.8754 701.115 86.5805 725.686 87.8577C785.03 90.9432 834.34 95.9841 884.646 91.0902C894.997 90.0842 905.46 88.6601 915.8 85.9363C1006.82 61.9865 1125.24 -4.0422 1213.57 31.6847C1271.55 55.1372 1328.45 68.022 1394.09 70.7345C1439.12 72.4186 1484.81 66.8465 1531.06 63.727"
    stroke="white"
    stroke-miterlimit="10"
  />
<path
    d="M-268.664 -40.2551C-247.589 -57.706 -216.56 -60.1021 -192.713 -66.8384C-126.141 -85.6343 -54.8167 -99.2084 16.0887 -86.6967C26.8467 -84.7979 37.1522 -82.0288 47.254 -78.898C83.7588 -67.573 108.397 -41.3514 131.825 -11.3774C161.112 26.0674 186.904 68.5645 217.481 102.494C219.879 105.162 222.3 107.773 224.778 110.304C268.692 155.378 332.572 179.565 387.358 176.615C442.188 173.654 485.978 150.541 541.273 135.87C573.524 127.314 609.169 113.932 645.583 104.551C670.742 98.0751 695.776 93.701 720.108 94.4018C779.079 96.1085 828.141 98.7306 877.881 91.7005C888.096 90.2538 898.413 88.4228 908.571 85.3486C998.481 58.0985 1116.22 -3.91786 1204.01 32.1594C1263.87 56.7535 1322.43 71.65 1390.17 75.1086C1436.59 77.3126 1483.69 71.797 1531.3 68.5984"
    stroke="white"
    stroke-miterlimit="10"
  />
<path
    d="M-271.888 -44.55C-251.017 -61.9444 -219.716 -63.6963 -195.96 -70.0821C-129.489 -87.9512 -58.1424 -101.085 12.2087 -87.8834C22.9214 -85.8716 33.1477 -82.9782 43.1478 -79.7118C79.2 -67.946 103.657 -41.7244 127.175 -12.0217C156.565 25.118 182.798 66.9143 213.533 100.618C215.943 103.252 218.364 105.851 220.841 108.36C264.721 153.039 327.561 177.96 382.324 176.548C436.815 175.135 481.261 154.35 536.499 141.002C568.829 133.192 604.35 120.657 640.561 111.559C665.595 105.275 690.425 101.308 714.532 100.946C773.129 100.053 821.953 101.477 871.116 92.3221C881.184 90.4459 891.365 88.2081 901.354 84.7721C990.155 54.2104 1107.1 -3.68049 1194.46 32.6454C1256.22 58.3245 1316.41 75.2894 1386.23 79.4939C1434.07 82.2065 1482.56 76.7587 1531.52 73.481"
    stroke="white"
    stroke-miterlimit="10"
  />
<path
    d="M-275.112 -48.8336C-254.445 -66.1828 -222.883 -67.2791 -199.207 -73.3259C-132.837 -90.2682 -61.4683 -102.961 8.32846 -89.0589C18.9959 -86.934 29.1431 -83.9276 39.0413 -80.5255C74.6298 -68.3189 98.9285 -42.1087 122.515 -12.6546C152.017 24.1686 178.669 65.2755 209.563 98.7532C211.972 101.364 214.404 103.93 216.882 106.428C260.739 150.71 322.572 178.706 377.267 176.491C431.385 174.287 476.521 158.17 531.702 146.133C564.112 139.058 599.508 127.382 635.515 118.566C660.414 112.486 685.052 107.919 708.932 107.49C767.156 106.428 815.742 104.224 864.329 92.9438C874.25 90.6381 884.284 87.9933 894.114 84.1957C981.796 50.3111 1097.86 -3.36401 1184.88 33.1315C1248.58 59.8503 1310.38 78.9401 1382.3 83.8679C1431.54 87.1004 1481.42 81.7092 1531.74 78.3637"
    stroke="white"
    stroke-miterlimit="10"
  />
<path
    d="M-278.336 -53.1285C-257.883 -70.4212 -226.051 -70.8733 -202.442 -76.5697C-136.175 -92.5852 -64.794 -104.826 4.45976 -90.2456C15.082 -88.0077 25.1499 -84.877 34.9577 -81.3506C70.0936 -68.7145 94.2114 -42.5042 117.888 -13.2988C147.492 23.2079 174.585 63.6254 205.637 96.8657C208.047 99.454 210.479 101.997 212.968 104.472C256.791 148.359 317.527 174.739 372.256 176.412C426.08 178.051 471.838 161.979 526.951 151.253C559.44 144.924 594.712 134.096 630.527 125.563C655.289 119.674 679.735 115.017 703.389 114.011C761.24 111.559 809.577 106.959 857.609 93.5428C867.395 90.8076 877.281 87.7447 886.931 83.5967C973.481 46.3666 1082.18 19.7833 1175.36 33.5949C1245.87 44.0496 1304.39 82.5569 1378.39 88.2307C1429.04 91.9718 1480.33 86.6484 1531.99 83.2237"
    stroke="white"
    stroke-miterlimit="10"
  />
<path
    d="M-281.56 -57.4121C-261.311 -74.6596 -229.218 -74.4449 -205.689 -79.8022C-139.512 -94.8796 -68.1199 -106.679 0.579543 -91.4211C11.1565 -89.0702 21.1453 -85.8264 30.8512 -82.1644C65.5347 -69.0875 89.4714 -42.8886 113.239 -13.9318C142.956 22.2698 170.479 61.9752 201.689 95.0008C204.11 97.5552 206.542 100.076 209.031 102.54C252.821 146.031 312.516 173.123 367.222 176.356C420.718 179.509 467.121 165.81 522.177 156.384C554.746 150.801 589.893 140.809 625.504 132.57C650.131 126.874 674.384 122.127 697.801 120.556C755.278 116.713 803.39 109.728 850.833 94.1644C860.471 90.9998 870.223 87.5299 879.702 83.0203C965.11 42.4333 1073 18.5739 1165.8 34.0808C1238.29 46.1857 1298.37 86.1962 1374.46 92.616C1426.52 96.877 1479.2 91.6101 1532.22 88.1063"
    stroke="white"
    stroke-miterlimit="10"
  />
<path
    d="M-284.784 -61.7071C-264.739 -78.898 -232.374 -78.039 -208.935 -83.0573C-142.86 -97.1966 -71.4569 -108.556 -3.28914 -92.6192C7.24259 -90.1552 17.1635 -86.7871 26.7676 -83.0008C60.9872 -69.4831 84.7543 -43.2954 108.612 -14.5986C138.442 21.2865 166.384 60.3024 197.764 93.102C200.185 95.6337 202.628 98.1315 205.106 100.573C248.873 143.669 307.527 171.462 362.199 176.254C415.356 180.922 462.426 169.608 517.415 161.482C550.062 156.655 585.085 147.5 620.504 139.544C644.995 134.051 669.056 129.202 692.246 127.066C749.351 121.821 797.224 112.463 844.091 94.7408C853.593 91.1466 863.186 87.2586 872.508 82.3986C956.75 38.4435 1063.8 17.3419 1156.26 34.5216C1230.69 48.3444 1292.37 89.8017 1370.55 96.9561C1424.02 101.726 1478.1 96.5266 1532.48 92.9437"
    stroke="white"
    stroke-miterlimit="10"
  />
<path
    d="M-288.008 -65.9906C-268.166 -83.1251 -235.542 -81.6106 -212.182 -86.2898C-146.209 -99.5023 -74.7829 -110.398 -7.16938 -93.7833C3.31711 -91.2063 13.1588 -87.7252 22.6611 -83.7919C56.4283 -69.8448 80.0144 -43.6571 103.962 -15.2089C133.895 20.3597 162.277 58.6862 193.805 91.2484C196.225 93.7576 198.669 96.2328 201.158 98.6515C244.891 141.352 302.504 169.834 357.154 176.209C409.994 182.368 457.698 173.462 512.63 166.624C545.356 162.555 580.255 154.237 615.47 146.562C639.825 141.262 663.683 136.311 686.658 133.621C743.389 126.975 791.036 115.243 837.315 95.3738C846.682 91.3501 856.116 87.0439 865.268 81.8335C948.345 34.5103 1054.51 16.1779 1146.69 35.0077C1223.03 50.605 1286.34 93.4411 1366.61 101.341C1421.48 106.631 1476.96 101.488 1532.68 97.8264"
    stroke="white"
    stroke-miterlimit="10"
  />
<path
    d="M-291.232 -70.2743C-271.594 -87.3635 -238.709 -85.1935 -215.428 -89.5223C-149.546 -101.797 -78.1199 -112.24 -11.0494 -94.9587C-0.608117 -92.2688 9.15436 -88.6633 18.5662 -84.6057C51.8808 -70.2178 75.2973 -44.0414 99.3132 -15.8419C129.359 19.4103 158.16 57.0473 189.857 89.3835C192.289 91.8587 194.732 94.3114 197.221 96.7188C240.932 139.035 297.504 168.195 352.12 176.152C406.736 184.109 452.992 177.305 507.856 171.767C540.662 168.455 575.436 160.973 610.459 153.581C634.678 148.472 658.344 143.432 681.081 140.177C737.439 132.118 784.86 118.024 830.55 96.0067C839.77 91.5649 849.057 86.8292 858.051 81.2684C939.951 30.5545 1045.2 15.0363 1137.14 35.5049C1215.35 52.922 1280.32 97.0918 1362.68 105.738C1418.96 111.536 1475.85 106.461 1532.92 102.72"
    stroke="white"
    stroke-miterlimit="10"
  />
<path
    d="M-294.456 -74.5692C-275.022 -91.6019 -241.877 -88.7763 -218.675 -92.7774C-152.894 -104.102 -81.4571 -114.105 -14.9296 -96.1568C-4.5336 -93.3538 5.14969 -89.6353 14.4597 -85.4421C47.3219 -70.6247 70.5573 -44.4483 94.6638 -16.4974C124.822 18.4496 154.053 55.3972 185.909 87.496C188.341 89.9486 190.796 92.3786 193.284 94.7634C236.961 136.684 292.516 166.522 347.075 176.073C399.27 185.217 448.263 181.136 503.071 176.875C535.956 174.321 570.605 167.675 605.425 160.566C629.508 155.65 652.981 150.507 675.493 146.698C731.466 137.227 778.683 120.782 823.786 96.6057C832.869 91.7344 841.998 86.5805 850.822 80.6693C931.524 26.576 1035.83 13.8608 1127.58 35.9683C1207.65 55.2615 1274.3 100.72 1358.74 110.09C1416.42 116.408 1474.72 111.389 1533.13 107.569"
    stroke="white"
    stroke-miterlimit="10"
  />
<path
    d="M-297.68 -78.8528C-278.449 -95.8403 -245.033 -92.3592 -221.922 -96.0098C-156.242 -106.397 -84.7941 -115.947 -18.8096 -97.3209C-8.47017 -94.4049 1.15658 -90.5734 10.3535 -86.2446C42.7631 -70.9976 65.8176 -44.8212 90.0146 -17.1303C120.275 17.5002 149.936 53.7583 181.961 85.6311C184.404 88.0611 186.859 90.4685 189.336 92.8194C232.99 134.344 287.516 164.85 342.03 176.005C393.919 186.618 443.535 184.979 498.286 182.007C531.25 180.21 565.775 174.4 600.402 167.574C624.35 162.86 647.619 157.605 669.916 153.242C725.505 142.358 772.518 123.562 817.021 97.2274C825.969 91.9266 834.94 86.3545 843.605 80.0929C923.096 22.5976 1026.45 12.7193 1118.02 36.4544C1199.91 57.669 1268.28 104.359 1354.81 114.475C1413.9 121.302 1473.59 116.351 1533.36 112.463"
    stroke="white"
    stroke-miterlimit="10"
  />
<path
    d="M-300.904 -83.1477C-281.877 -100.079 -248.2 -95.942 -225.168 -99.2536C-159.58 -108.702 -88.1314 -117.801 -22.6898 -98.5077C-12.3956 -95.4673 -2.84808 -91.5228 6.25831 -87.0583C38.2268 -71.3819 61.0889 -45.2055 85.3764 -17.7633C115.75 16.5508 145.773 52.176 178.013 83.7549C180.456 86.1623 182.911 88.5358 185.4 90.8754C229.02 132.005 282.527 163.177 336.995 175.937C388.579 188.031 438.817 188.833 493.512 187.127C526.544 186.098 560.956 181.114 595.379 174.57C619.192 170.049 642.269 164.691 664.339 159.764C719.543 147.455 766.364 126.32 810.256 97.8264C819.068 92.1074 827.881 86.1058 836.387 79.4939C914.657 18.5966 1017.01 11.5665 1108.47 36.9178C1192.15 60.1103 1262.27 107.976 1350.89 118.838C1411.39 126.184 1472.48 121.29 1533.6 117.323"
    stroke="white"
    stroke-miterlimit="10"
  />
<path
    d="M-304.128 -87.4313C-285.304 -104.306 -251.367 -99.5136 -228.415 -102.497C-162.928 -110.997 -91.4684 -119.643 -26.5698 -99.6944C-16.3209 -96.541 -6.84119 -92.4835 2.15208 -87.8834C33.6681 -71.7775 56.3605 -45.5898 80.7272 -18.4075C111.214 15.5901 141.666 50.5259 174.065 81.8787C176.508 84.2636 178.974 86.6144 181.463 88.9314C225.049 129.665 277.55 161.493 331.962 175.87C383.251 189.421 434.089 192.688 488.739 192.258C521.85 191.998 556.137 187.839 590.357 181.577C614.033 177.248 636.907 171.789 658.751 166.308C713.57 152.575 760.199 129.1 803.48 98.4368C812.157 92.2883 820.811 85.8685 829.148 78.9062C906.173 14.6181 1007.51 10.4249 1098.89 37.3925C1184.31 62.5968 1256.22 111.615 1346.93 123.212C1408.85 131.067 1471.32 126.241 1533.8 122.194"
    stroke="white"
    stroke-miterlimit="10"
  />
<path
    d="M-307.352 -91.7262C-288.732 -108.556 -254.524 -103.063 -231.662 -105.741C-166.265 -113.189 -94.8169 -121.485 -30.45 -100.87C-20.2463 -97.6035 -10.8459 -93.4329 -1.94311 -88.6972C29.1204 -72.1731 51.6319 -45.9741 76.0777 -19.0404C106.666 14.652 137.56 48.887 170.117 80.0138C172.56 82.3647 175.038 84.693 177.526 86.9987C221.09 127.337 272.583 159.809 326.928 175.813C377.923 190.834 429.372 196.553 483.965 197.389C517.143 197.898 551.318 194.552 585.345 188.585C608.886 184.459 631.556 178.876 653.185 172.852C707.608 157.695 754.068 131.881 796.726 99.0584C805.267 92.4804 813.752 85.6424 821.942 78.3298C897.711 10.6397 997.995 9.29467 1089.35 37.8785C1180.71 66.4622 1250.22 115.255 1343.03 127.597C1406.35 135.972 1470.23 131.202 1534.05 127.077"
    stroke="white"
    stroke-miterlimit="10"
  />
<path
    d="M-310.576 -96.0099C-292.16 -112.783 -257.691 -106.645 -234.897 -108.974C-169.602 -115.495 -98.1426 -123.316 -34.3187 -102.045C-24.1603 -98.6659 -14.8277 -94.3823 -6.03802 -89.511C24.5843 -72.5574 46.9034 -46.3584 71.4398 -19.6847C102.141 13.6913 133.465 47.2255 166.18 78.1376C168.635 80.4659 171.101 82.7716 173.601 85.0547C217.131 124.997 267.64 158.113 321.905 175.745C372.618 192.224 424.654 200.418 479.202 202.521C512.46 203.798 546.51 201.277 580.334 195.592C603.739 191.659 626.205 185.974 647.62 179.396C701.647 162.804 747.937 134.661 789.973 99.68C798.39 92.6838 806.693 85.4163 814.736 77.7533C889.239 6.66117 988.436 8.1644 1079.81 38.3644C1168.63 67.7281 1244.22 118.894 1339.11 131.982C1403.82 140.866 1469.11 136.164 1534.29 131.96"
    stroke="white"
    stroke-miterlimit="10"
  />
<path
    d="M-313.8 -100.305C-295.587 -117.021 -260.859 -110.24 -238.144 -112.229C-172.951 -117.823 -101.525 -125.08 -38.1989 -103.243C-28.0971 -99.7283 -18.821 -95.3656 -10.1332 -90.3473C20.0706 -73.0094 42.1748 -46.7652 66.8017 -20.3402C97.6163 12.7193 129.37 45.5641 162.232 76.2388C164.687 78.5445 167.164 80.8276 169.653 83.0881C213.16 122.647 262.674 156.395 316.86 175.655C367.301 193.58 419.915 204.25 474.417 207.618C507.743 209.675 541.68 207.968 575.311 202.566C598.581 198.825 620.843 193.027 642.042 185.906C695.674 167.879 741.873 137.487 783.22 100.268C791.512 92.8647 799.645 85.1564 807.518 77.1317C880.732 2.63758 978.832 6.9777 1070.26 38.8053C1160.73 70.2938 1238.21 122.5 1335.18 136.311C1401.31 145.715 1467.99 141.069 1534.51 136.786"
    stroke="white"
    stroke-miterlimit="10"
  />
<path
    d="M-317.024 -104.588C-299.026 -121.259 -264.026 -113.822 -241.39 -115.461C-176.299 -120.129 -104.851 -126.956 -42.0789 -104.408C-32.0223 -100.779 -22.8254 -96.2924 -14.2394 -91.1385C15.5119 -73.3598 37.4351 -47.127 62.1524 -20.9506C93.0689 11.7925 125.264 43.9365 158.284 74.3965C160.75 76.6683 163.228 78.9288 165.716 81.1779C209.189 120.341 257.73 154.723 311.826 175.621C361.996 195.004 415.175 208.228 469.632 212.783C503.026 215.665 536.85 214.727 570.277 209.607C593.411 206.07 615.459 200.124 636.443 192.484C689.645 172.953 735.674 140.256 776.432 100.923C784.589 93.0794 792.53 84.9529 800.279 76.5892C872.066 -1.42004 969.16 5.87002 1060.68 39.3138C1152.77 72.9724 1232.16 126.162 1331.23 140.719C1398.77 150.631 1466.84 146.054 1534.73 141.702"
    stroke="white"
    stroke-miterlimit="10"
  />
<path
    d="M-320.248 -108.883C-302.454 -125.498 -267.193 -117.417 -244.637 -118.705C-179.659 -122.446 -108.188 -128.832 -45.9592 -105.594C-1.40011 -88.9571 25.5231 -55.0386 57.5029 -21.6061C88.5325 10.8318 121.157 42.2751 154.336 72.509C199.789 113.921 249.699 151.716 306.792 175.542C387.392 209.178 477.992 229.296 565.266 216.592C658.457 203.029 732.62 145.545 793.061 75.9902C863.684 -5.28543 959.476 4.7059 1051.13 39.7773C1144.81 75.6285 1226.15 129.778 1327.31 145.082C1396.25 155.514 1465.72 150.993 1534.95 146.562"
    stroke="white"
    stroke-miterlimit="10"
  />
<path
    d="M-324.309 -101.311C-306.662 -117.823 -271.978 -110.262 -249.648 -111.822C-185.451 -116.196 -114.794 -123.023 -53.0632 -100.825C-8.9114 -84.9109 18.091 -52.0887 50.0256 -19.6395C81.0552 11.8377 113.363 42.7724 146.734 72.023C169.461 91.9379 192.821 111.887 218.036 128.874C244.868 147.082 273.941 162.533 304.088 174.287C380.129 203.933 461.974 220.005 544.304 211.495C549.87 210.918 555.436 210.229 560.99 209.426C597.664 204.114 631.545 192.62 662.687 176.469C710.855 151.615 752.756 115.684 789.849 75.1538C821.614 40.2067 858.333 22.8462 897.587 17.1498C946.015 10.0971 998.051 20.8231 1048.56 39.0765C1113.65 62.5968 1172.55 94.933 1236.68 117.244C1264.1 126.806 1292.5 134.638 1322.66 139.159C1391.16 149.444 1460.34 145.636 1528.88 141.567"
    stroke="white"
    stroke-miterlimit="10"
  />
<path
    d="M-328.37 -93.7494C-310.87 -110.149 -276.775 -103.119 -254.659 -104.939C-191.254 -109.934 -121.401 -117.213 -60.1673 -96.0663C-16.4227 -80.8759 10.659 -49.1614 42.5483 -17.6955C73.5779 12.821 105.603 43.2245 139.133 71.5257C162.696 91.4066 186.52 112.101 212.617 129.044C240.23 146.969 270.649 161.877 301.362 173.021C377.946 200.825 457.415 213.326 539.972 204.352C545.549 203.753 551.114 203.052 556.68 202.249C593.366 196.96 627.393 186.042 658.626 170.783C706.964 147.173 749.226 113.311 786.602 74.3174C818.684 40.851 855.426 24.1234 894.951 18.4948C943.549 11.5439 995.642 21.2639 1045.98 38.3645C1110.55 60.3137 1168.81 90.898 1232.54 112.079C1259.76 121.177 1288.01 128.761 1318.01 133.226C1386.09 143.375 1454.94 140.256 1522.79 136.56"
    stroke="white"
    stroke-miterlimit="10"
  />
<path
    d="M-332.431 -86.1768C-315.078 -102.475 -281.571 -96.0211 -259.659 -98.0443C-197.057 -103.842 -127.996 -111.392 -67.2602 -91.2854C-23.9229 -76.8297 3.23791 -46.2001 35.0707 -15.7176C66.1003 13.8382 97.8651 43.6879 131.53 71.051C155.942 90.898 180.196 112.384 207.198 129.236C235.558 146.935 267.357 161.233 298.647 171.789C375.751 197.774 452.856 206.68 535.662 197.242C541.239 196.609 546.816 195.909 552.393 195.106C589.101 189.839 623.275 179.532 654.576 165.144C703.106 142.833 745.629 110.903 783.378 73.5149C815.72 41.4839 852.541 25.4345 892.327 19.8737C941.082 13.0245 993.243 21.7386 1043.4 37.6976C1107.45 58.0758 1165.08 86.9083 1228.4 106.97C1255.42 115.594 1283.52 122.94 1313.35 127.348C1380.98 137.362 1449.54 134.944 1516.7 131.609"
    stroke="white"
    stroke-miterlimit="10"
  />
<path
    d="M-336.492 -78.6154C-319.298 -94.8005 -286.356 -88.9006 -264.671 -91.1611C-202.86 -97.6374 -134.602 -105.583 -74.3643 -86.5158C-31.4342 -72.7834 -4.19417 -43.2615 27.5933 -13.7622C58.6229 14.8329 90.1616 44.1174 123.929 70.565C149.212 90.3781 173.861 112.666 201.791 129.417C229.721 146.167 264.065 160.589 295.943 170.535C373.534 194.722 448.32 200.011 531.363 190.111C536.94 189.455 542.528 188.732 548.117 187.94C584.836 182.696 619.18 172.987 650.538 159.47C699.271 138.459 742.043 108.473 780.166 72.6899C812.756 42.083 849.668 26.7117 889.714 21.23C938.639 14.4825 990.834 22.1907 1040.83 37.0082C1104.34 55.8267 1161.36 82.8846 1224.27 101.827C1251.08 109.988 1279.04 117.086 1308.71 121.437C1375.92 131.304 1444.16 129.597 1510.63 126.625"
    stroke="white"
    stroke-miterlimit="10"
  />
<path
    d="M-340.553 -71.0428C-323.506 -87.1149 -291.153 -81.7575 -269.682 -84.278C-208.675 -91.4211 -141.208 -99.7736 -81.4796 -81.7462C-38.9681 -68.7372 -11.6941 -40.2438 20.1047 -11.7956C51.9035 16.6525 82.4805 44.5243 116.316 70.079C142.481 89.8469 167.515 112.938 196.361 129.597C226.214 146.834 260.74 159.956 293.217 169.28C371.294 191.693 443.75 193.332 527.042 182.979C532.63 182.289 538.218 181.566 543.807 180.763C580.549 175.542 615.04 166.443 646.477 153.785C695.403 134.073 738.423 106.043 776.919 71.8422C809.758 42.6707 846.772 27.9775 887.078 22.5637C936.162 15.9179 988.413 22.6202 1038.26 36.2848C1101.22 53.5436 1157.61 78.8384 1220.13 96.6623C1246.74 104.359 1274.55 111.208 1304.05 115.492C1370.81 125.223 1438.76 124.206 1504.54 121.607"
    stroke="white"
    stroke-miterlimit="10"
  />
<path
    d="M-344.615 -63.4815C-327.714 -79.4518 -295.949 -74.637 -274.694 -77.3948C-214.478 -85.216 -147.77 -94.0997 -88.5839 -76.9766C-46.457 -64.7926 -19.1378 -37.2825 12.6157 -9.84027C43.5775 16.9125 74.822 44.8973 108.702 69.593C135.773 89.3157 161.157 113.22 190.931 129.79C221.52 146.811 257.414 159.334 290.491 168.037C369.02 188.698 439.179 186.675 522.72 175.87C528.309 175.157 533.908 174.412 539.508 173.62C576.261 168.421 610.922 159.933 642.416 148.145C691.556 129.744 734.803 103.647 773.683 71.0397C806.772 43.2923 843.876 29.2886 884.442 23.9426C933.696 17.3985 985.97 23.1062 1035.66 35.618C1098.07 51.317 1153.9 74.7017 1215.98 91.5423C1242.4 98.708 1270.04 105.376 1299.39 109.604C1365.72 119.199 1433.35 118.883 1498.44 116.645"
    stroke="white"
    stroke-miterlimit="10"
  />
<path
    d="M-348.676 -55.9089C-331.934 -71.7662 -300.734 -67.4939 -279.693 -70.5003C-220.281 -78.9884 -154.365 -88.3016 -95.6766 -72.207C-53.9569 -60.7576 -26.5699 -34.3213 5.14977 -7.87366C36.8694 18.574 67.2089 45.2703 101.112 69.107C129.087 88.7845 154.834 113.503 185.535 129.97C216.859 146.766 254.11 158.713 287.798 166.782C366.781 185.714 434.654 180.006 518.422 168.738C524.021 168.003 529.621 167.246 535.232 166.455C572.008 161.278 606.827 153.4 638.377 142.471C687.721 125.37 731.195 101.217 770.459 70.2147C803.785 43.9027 840.992 30.5658 881.818 25.2989C931.23 18.8452 983.538 23.5809 1033.09 34.9172C1094.94 49.0792 1150.17 70.6555 1211.85 86.3997C1238.06 93.0907 1265.56 99.5218 1294.75 103.692C1360.64 113.141 1427.97 113.525 1492.38 111.661"
    stroke="white"
    stroke-miterlimit="10"
  />
<path
    d="M-352.748 -48.3476C-336.153 -64.1032 -305.542 -60.3734 -284.716 -63.6285C-226.096 -72.7947 -160.983 -82.5261 -102.792 -67.4487C-61.4797 -56.7453 -34.0248 -31.3827 -2.3391 -5.92969C29.3466 19.5233 59.607 45.598 93.4985 68.6097C122.401 88.2307 148.476 113.774 180.105 130.14C212.164 146.721 250.773 158.091 285.072 165.528C364.484 182.741 430.084 173.326 514.1 161.606C519.7 160.837 525.311 160.069 530.933 159.289C567.721 154.135 602.71 146.879 634.316 136.797C683.875 121.008 727.563 98.7871 767.224 69.3782C800.776 44.5017 838.096 31.843 879.193 26.6551C928.775 20.3032 981.094 24.0443 1030.52 34.2278C1091.8 46.8525 1146.45 66.6205 1207.72 81.2571C1233.73 87.4734 1261.08 93.6558 1290.1 97.7812C1355.56 107.094 1422.58 108.179 1486.29 106.676"
    stroke="white"
    stroke-miterlimit="10"
  />
<path
    d="M-356.809 -40.775C-340.361 -56.4175 -310.338 -53.2302 -289.728 -56.734C-231.91 -66.5671 -167.589 -76.7166 -109.896 -62.6677C-68.991 -52.699 -41.4569 -28.4101 -9.82776 -3.95173C21.1113 19.9642 52.0165 45.9371 85.8855 68.135C115.727 87.6995 142.119 114.079 174.687 130.332C207.47 146.698 247.436 157.492 282.357 164.285C362.188 179.814 425.525 166.669 509.791 154.485C515.39 153.694 521.012 152.914 526.646 152.123C563.456 146.992 598.615 140.346 630.278 131.135C680.052 116.656 723.943 96.3797 764.012 68.5645C797.79 45.112 835.222 33.1428 876.58 28.0228C926.32 21.7725 978.662 24.5303 1027.95 33.5384C1088.65 44.626 1142.72 62.5855 1203.6 76.1258C1229.4 81.8674 1256.6 87.8125 1285.46 91.8701C1350.49 101.036 1417.19 102.833 1480.21 101.692"
    stroke="white"
    stroke-miterlimit="10"
  />
<path
    d="M-360.87 -33.2137C-344.569 -48.7545 -315.135 -46.0984 -294.739 -49.8508C-237.725 -60.3394 -174.184 -70.9298 -117.012 -57.8981C-76.5136 -48.6754 -48.9116 -25.4489 -17.3164 -1.99643C13.6114 20.9701 44.4374 46.2309 78.2724 67.649C109.064 87.1456 135.761 114.373 169.257 130.513C202.775 146.664 244.088 156.893 279.631 163.03C359.88 176.898 420.967 160.001 505.469 147.354C511.08 146.528 516.702 145.737 522.336 144.957C559.157 139.849 594.486 133.825 626.205 125.461C676.194 112.294 720.278 93.9497 760.754 67.7281C794.758 45.711 832.315 34.4086 873.922 29.3677C923.831 23.2192 976.173 25.005 1025.34 32.8376C1085.46 42.4107 1138.96 58.5393 1199.42 70.9719C1225.02 76.2388 1252.08 81.9465 1280.77 85.9476C1345.36 94.9782 1411.76 97.4647 1474.09 96.6962"
    stroke="white"
    stroke-miterlimit="10"
  />
<path
    d="M-364.932 -25.6411C-348.789 -41.0688 -319.931 -38.9553 -299.739 -42.9563C-243.517 -54.1005 -180.779 -65.1317 -124.104 -53.1172C-84.0138 -44.6291 -56.3326 -22.4877 -24.7827 -0.0185092C6.14511 21.9986 36.9032 46.5248 70.6817 67.1856C102.435 86.5918 129.426 114.69 163.85 130.716C198.092 146.664 240.751 156.316 276.916 161.798C357.561 174.016 416.408 153.344 501.159 140.244C506.77 139.397 512.404 138.594 518.048 137.814C554.893 132.728 590.391 127.314 622.155 119.81C672.359 107.953 716.636 91.5423 757.53 66.9256C791.749 46.3327 829.43 35.7197 871.308 30.7466C921.376 24.6999 973.73 25.5136 1022.78 32.1594C1082.3 40.2294 1135.24 54.5269 1195.3 65.8519C1220.7 70.6441 1247.61 76.1145 1276.14 80.059C1340.29 88.954 1406.39 92.1413 1468.03 91.7344"
    stroke="white"
    stroke-miterlimit="10"
  />
<path
    d="M-368.993 -18.0798C-352.997 -33.3945 -324.716 -31.8235 -304.75 -36.0845C-249.331 -47.8955 -187.385 -59.3449 -131.209 -48.3702C-91.525 -40.6168 -63.7647 -19.5491 -32.2713 1.91418C-1.35485 22.9819 29.3693 46.7621 63.0686 66.6657C96.7679 86.5692 123.058 114.95 158.431 130.863C193.409 146.608 237.413 155.706 274.201 160.521C355.242 171.123 411.849 146.653 496.838 133.09C502.449 132.208 508.094 131.395 513.75 130.615C550.605 125.551 586.284 120.759 618.106 114.113C668.536 103.568 712.982 89.0783 754.305 66.0666C788.729 46.8978 826.546 36.9742 868.684 32.069C918.922 26.1239 971.264 25.977 1020.2 31.4361C1079.13 38.0028 1131.5 50.458 1191.16 60.6754C1216.36 64.9929 1243.12 70.2259 1271.48 74.1139C1335.19 82.862 1400.98 86.7613 1461.93 86.7161"
    stroke="white"
    stroke-miterlimit="10"
  />
<path
    d="M-373.054 -10.5072C-357.205 -25.7202 -329.513 -24.6804 -309.761 -29.19C-255.146 -41.6453 -193.992 -53.5354 -138.313 -43.5893C-99.0476 -36.5705 -71.1968 -16.5879 -39.7487 3.89209C-8.83219 24.0217 21.8467 47.0221 55.4668 66.2023C89.0869 85.3824 116.711 115.266 153.013 131.067C188.714 146.608 234.065 155.152 271.486 159.289C352.923 168.286 407.301 140.007 492.528 125.992C498.15 125.088 503.795 124.263 509.463 123.483C546.341 118.442 582.189 114.271 614.056 108.473C664.712 99.2505 709.317 86.6822 751.07 65.2755C785.697 47.5194 823.65 38.2853 866.048 33.4592C916.444 27.6045 968.786 26.5195 1017.61 30.7692C1075.94 35.8553 1127.75 46.457 1187.01 55.5667C1212 59.4095 1238.62 64.4052 1266.82 68.2254C1330.1 76.8378 1395.59 81.4266 1455.84 81.7544"
    stroke="white"
    stroke-miterlimit="10"
  />
<path
    d="M-377.115 -2.94583C-361.425 -18.0458 -334.309 -17.5485 -314.773 -22.3069C-260.96 -35.4177 -200.609 -47.7373 -145.417 -38.8197C-106.559 -32.5355 -78.6402 -13.6266 -47.226 5.84744C-16.3096 25.0276 14.3467 47.2482 47.865 65.705C82.5598 84.806 110.354 115.56 147.594 131.236C184.02 146.574 230.717 154.576 268.771 158.023C350.593 165.437 402.743 133.327 488.218 118.849C493.84 117.911 499.496 117.074 505.175 116.306C542.065 111.288 578.094 107.739 610.006 102.788C660.878 94.8991 705.651 84.2296 747.846 64.4278C782.665 48.0845 820.765 39.5512 863.435 34.7929C914.001 29.04 966.32 27.0055 1015.05 30.0572C1072.77 33.6627 1124.02 42.3994 1182.89 50.4015C1207.67 53.7696 1234.15 58.5279 1262.18 62.2917C1325.02 70.7685 1390.2 76.058 1449.77 76.7474"
    stroke="white"
    stroke-miterlimit="10"
  />
<path
    d="M-381.176 4.62677C-365.633 -10.3715 -339.106 -10.4054 -319.773 -15.4124C-266.764 -29.1674 -207.204 -41.9278 -152.521 -34.0388C-114.082 -28.4893 -86.0726 -10.6654 -54.7149 7.82535C-23.7985 26.0561 6.84653 47.4742 40.2517 65.2416C75.9533 84.2183 103.996 115.888 142.175 131.44C180.354 146.992 227.357 154.045 266.056 156.791C348.251 162.634 398.195 126.67 483.908 111.74C489.53 110.779 495.198 109.931 500.876 109.163C537.777 104.167 573.988 101.251 605.945 97.1483C657.054 90.5816 701.975 81.8109 744.6 63.6253C779.611 48.6948 817.858 40.8623 860.788 36.1718C911.512 30.5206 963.82 27.5594 1012.45 29.379C1069.54 31.5265 1120.27 38.3871 1178.73 45.2815C1203.3 48.1749 1229.64 52.6959 1257.51 56.4031C1319.92 64.733 1384.78 70.7345 1443.66 71.797"
    stroke="white"
    stroke-miterlimit="10"
  />
<path
    d="M-385.237 12.1881C-369.841 -2.69721 -343.902 -3.26234 -324.784 -8.54056C-272.567 -22.9398 -213.811 -36.141 -159.625 -29.2918C-121.593 -24.4769 -93.4933 -7.72678 -62.1922 9.75804C-31.2758 27.0281 -0.630842 47.6437 32.6612 64.7216C69.3809 83.5514 97.6503 116.159 136.768 131.598C175.886 147.037 224.02 153.468 263.353 155.514C345.932 159.82 393.647 119.979 479.609 104.585C485.243 103.602 490.91 102.732 496.601 101.963C533.524 96.99 569.904 94.7069 601.918 91.4405C653.253 86.2075 698.31 79.3243 741.398 62.7663C776.591 49.2373 815.007 42.1055 858.186 37.4941C909.08 31.9447 961.513 24.6546 1009.9 28.6557C1066.19 33.3122 1116.55 34.3295 1174.61 40.105C1198.98 42.535 1225.17 46.8073 1252.87 50.458C1314.84 58.6522 1379.41 65.3433 1437.59 66.7787"
    stroke="white"
    stroke-miterlimit="10"
  />
<path
    d="M-389.298 19.7607C-374.049 4.97714 -348.698 3.88081 -329.795 -1.64606C-278.381 -16.6783 -220.417 -30.3316 -166.729 -24.5108C-129.116 -20.4307 -100.925 -4.76553 -69.6696 11.736C-38.7531 28.0567 -8.10819 47.8472 25.0594 64.2583C62.7972 82.9298 91.2929 116.487 131.361 131.801C169.947 146.551 220.683 152.948 260.649 154.293C343.602 157.074 389.1 113.345 475.3 97.4873C480.933 96.4701 486.612 95.5998 492.313 94.8313C529.248 89.8808 565.809 88.2307 597.868 85.8007C649.429 81.9013 694.633 76.8943 738.174 61.9639C773.548 49.8364 812.123 43.4166 855.573 38.8731C906.625 33.4253 958.967 25.1293 1007.34 27.9775C1063.1 31.2665 1112.83 30.3171 1170.5 34.985C1194.66 36.9403 1220.7 40.9753 1248.25 44.5582C1309.78 52.6168 1374.04 60.0086 1431.54 61.8056"
    stroke="white"
    stroke-miterlimit="10"
  />
<path
    d="M-393.359 27.322C-378.269 12.6515 -353.484 11.0239 -334.807 5.23711C-284.196 -10.4393 -227.035 -24.5334 -173.833 -19.7412C-136.627 -16.3957 -108.358 -1.81558 -77.1585 13.6913C-46.2307 29.0626 -15.5857 48.0054 17.4461 63.761C56.2133 82.263 84.9238 116.792 125.931 131.971C165.241 146.528 217.447 149.727 257.923 153.027C340.989 159.798 384.541 106.654 470.978 90.3442C476.612 89.3044 482.302 88.4115 488.014 87.6543C524.972 82.7264 561.714 81.7092 593.807 80.1269C645.594 77.5725 690.923 74.4191 734.927 61.1388C770.471 50.4015 809.215 44.7051 852.926 40.2294C904.137 34.872 956.365 29.1756 1004.74 27.2881C1059.96 25.1294 1109.06 26.2935 1166.33 29.8424C1190.28 31.3231 1216.17 35.1207 1243.56 38.647C1304.66 46.5587 1368.61 54.6512 1425.42 56.8213"
    stroke="white"
    stroke-miterlimit="10"
  />
<path
    d="M-397.42 34.8946C-382.477 20.3371 -358.28 18.1784 -339.807 12.1316C-289.999 -4.17778 -233.63 -18.7127 -180.926 -14.9603C-144.138 -12.3381 -115.767 1.14566 -84.6245 15.6693C-53.4818 30.1928 -23.0292 48.175 9.8556 63.2976C49.6635 81.6075 78.589 117.12 120.524 132.174C160.558 146.54 214.054 149.23 255.219 151.795C338.772 157.006 379.993 100.008 466.679 83.2463C472.324 82.1726 478.014 81.2797 483.738 80.5225C520.707 75.6172 557.63 75.2329 589.78 74.487C641.805 73.2776 687.258 71.9778 731.726 60.3364C767.45 50.9893 806.353 46.0049 850.324 41.6196C901.705 36.3639 953.899 29.7747 1002.18 26.6213C1056.77 23.061 1105.35 22.2925 1162.22 24.7338C1185.96 25.751 1211.71 29.3 1238.93 32.7698C1299.6 40.5459 1363.25 49.3391 1419.35 51.8709"
    stroke="white"
    stroke-miterlimit="10"
  />
<path
    d="M-401.481 42.4559C-386.685 28.0001 -363.076 25.3102 -344.818 19.0034C-295.802 2.07241 -240.248 -12.9259 -188.041 -10.202C-151.661 -8.3145 -123.211 4.08424 -92.1132 17.6132C-61.0157 31.1422 -30.4952 48.2879 2.24256 62.7889C43.0912 80.8841 72.2204 117.413 115.105 132.333C155.863 146.506 210.649 148.71 252.493 150.518C336.532 154.158 375.423 93.3167 462.358 76.0919C468.003 74.9955 473.705 74.08 479.429 73.3228C516.42 68.4401 553.524 67.9767 585.707 68.7792C637.947 70.1016 683.536 69.4573 728.468 59.4773C764.362 51.4978 803.435 47.2594 847.677 42.9419C899.216 37.788 951.388 30.3171 999.59 25.8979C1053.56 20.9474 1101.59 18.2461 1158.06 19.5572C1181.6 20.111 1207.2 23.4113 1234.26 26.8247C1294.49 34.4651 1357.83 43.9591 1413.26 46.8525"
    stroke="white"
    stroke-miterlimit="10"
  />
<path
    d="M-405.543 50.0172C-390.893 35.6745 -367.873 32.4533 -349.83 25.8866C-301.617 8.33394 -246.854 -7.11644 -195.146 -5.44369C-159.184 -4.27954 -130.632 7.02286 -99.6021 19.5685C-68.5725 32.1142 -37.9502 48.4123 -5.37079 62.3029C36.5299 80.1607 65.8513 117.73 109.675 132.513C151.146 146.506 207.266 150.857 249.766 149.275C334.258 146.11 370.864 86.6483 458.037 68.9714C463.682 67.8411 469.394 66.9256 475.13 66.1683C512.132 61.3083 549.417 62.2125 581.646 63.128C634.124 64.6199 679.825 66.9821 725.233 58.6635C761.296 52.0629 800.55 48.5592 845.041 44.3095C896.75 39.2573 948.888 30.9275 996.999 25.2084C1050.34 18.8791 1097.84 13.6009 1153.91 14.4259C1177.24 14.765 1202.7 17.568 1229.6 20.9135C1289.4 28.407 1352.42 38.6018 1407.16 41.8682"
    stroke="white"
    stroke-miterlimit="10"
  />
<path
    d="M-409.604 57.5898C-395.113 43.3488 -372.658 39.619 -354.841 32.7811C-307.42 14.6068 -253.472 -1.29569 -202.25 -0.662759C-166.706 -0.221965 -138.064 9.97281 -107.079 21.5352C-76.129 33.0862 -45.3936 48.5253 -12.9726 61.8169C29.9915 79.4261 59.4939 118.046 104.257 132.694C146.451 146.495 203.918 150.36 247.051 148.02C331.928 143.409 366.306 79.9799 453.716 61.8395C459.372 60.6867 465.084 59.7486 470.831 59.0026C507.856 54.1652 545.311 55.7136 577.596 57.4542C630.312 60.3024 676.126 64.473 722.009 57.8272C758.242 52.5829 797.665 49.8251 842.417 45.6545C894.284 40.7041 946.411 31.5152 994.42 24.5077C1047.14 16.8108 1094.09 10.2102 1149.77 9.28336C1172.89 8.89908 1198.21 11.7134 1224.94 15.0024C1284.3 22.3602 1347.02 33.2558 1401.06 36.8838"
    stroke="white"
    stroke-miterlimit="10"
  />
<path
    d="M-413.665 65.1511C-399.321 51.0231 -377.454 46.7621 -359.852 39.6642C-313.223 20.8683 -260.078 4.51374 -209.354 4.10685C-174.218 3.82429 -145.485 12.9227 -114.557 23.5018C-83.6064 34.0921 -52.837 48.6383 -20.5744 61.3422C23.453 78.6801 53.1365 118.385 98.8494 132.886C141.768 146.506 200.581 149.885 244.348 146.777C329.62 140.73 361.758 73.3228 449.417 54.719C455.073 53.5323 460.797 52.5942 466.555 51.8482C503.591 47.0334 541.227 49.226 573.558 51.7917C626.499 55.9962 672.439 61.9639 718.785 57.0134C755.188 53.1254 794.781 51.1249 839.804 47.0221C891.84 42.1733 943.933 32.1481 991.863 23.8182C1043.96 14.765 1090.37 6.19779 1145.65 4.14076C1168.57 3.29308 1193.74 5.85873 1220.32 9.09122C1279.24 16.3022 1341.65 27.9097 1395.01 31.8995"
    stroke="white"
    stroke-miterlimit="10"
  />
<path
    d="M-417.726 72.7238C-403.529 58.6975 -382.251 53.9166 -364.852 46.5474C-319.026 27.1412 -266.684 10.3345 -216.446 8.87647C-181.729 7.87056 -152.894 15.8614 -122.034 25.4571C-91.0724 35.0868 -60.2804 48.7175 -28.1761 60.8449C16.9147 77.889 46.7791 118.691 93.4309 133.056C137.062 146.495 197.232 149.388 241.633 145.511C327.301 138.04 357.211 66.6318 445.107 47.5759C450.763 46.3665 456.499 45.4058 462.268 44.6599C499.327 39.8564 537.133 42.7046 569.508 46.1066C622.676 51.6787 668.74 59.4321 715.561 56.1657C752.134 53.6227 791.896 52.3907 837.18 48.3558C889.374 43.5975 941.456 32.7585 989.285 23.1062C1040.77 12.7193 1086.63 2.16284 1141.51 -1.01313C1164.22 -2.32421 1189.25 -0.0185246 1215.65 3.16875C1274.14 10.2441 1336.24 22.5411 1388.91 26.9038"
    stroke="white"
    stroke-miterlimit="10"
  />
<path
    d="M-421.787 80.2851C-407.749 66.3718 -387.036 61.071 -369.864 53.4306C-324.83 33.414 -273.291 16.1439 -223.562 13.6461C-189.263 11.9169 -160.326 18.8 -129.523 27.4237C-98.55 36.0814 -67.724 48.7966 -35.7895 60.3703C10.3873 77.0978 40.4101 119.03 88.0121 133.248C132.368 146.506 193.895 148.925 238.918 144.268C324.993 135.384 352.652 59.9747 440.797 40.4667C446.464 39.2348 452.2 38.2628 457.969 37.5168C495.039 32.7359 533.026 36.2396 565.447 40.4554C618.841 47.3951 665.04 56.9117 712.314 55.3633C749.057 54.1539 788.989 53.6905 834.532 49.7347C886.897 45.0781 938.956 33.414 986.682 22.4281C1037.55 10.7188 1082.86 -1.83818 1137.35 -6.1444C1159.85 -7.91887 1184.74 -5.86183 1210.98 -2.74237C1269.04 4.19731 1330.84 17.1951 1382.8 21.9195"
    stroke="white"
    stroke-miterlimit="10"
  />
<path
    d="M-425.848 87.8577C-411.957 74.0575 -391.832 68.2254 -374.875 60.325C-330.621 39.6981 -279.908 21.976 -230.666 18.4157C-196.774 15.9631 -167.758 21.7386 -137 29.3791C-106.016 37.076 -75.1674 48.8531 -43.3912 59.8729C3.86015 76.2614 34.0526 119.346 82.5936 133.429C127.662 146.506 190.558 148.45 236.203 143.025C322.685 132.74 348.104 53.3175 436.487 33.3462C442.154 32.0803 447.901 31.097 453.682 30.3624C490.775 25.604 528.931 29.7633 561.409 34.7929C615.017 43.1002 661.398 56.4031 709.102 54.5382C745.991 53.0915 786.127 54.979 831.93 51.091C884.453 46.5361 936.513 34.0695 984.137 21.7386C1034.4 8.71825 1079.15 -5.83925 1133.24 -11.2757C1155.54 -13.5136 1180.28 -11.7052 1206.37 -8.64224C1263.98 -1.84949 1325.47 11.8603 1376.75 16.9464"
    stroke="white"
    stroke-miterlimit="10"
  />
<path
    d="M-429.909 95.419C-416.165 81.7205 -396.617 75.3798 -379.886 67.2082C-336.424 45.9823 -286.515 27.7967 -237.77 23.1853C-204.297 20.0206 -175.179 24.6772 -144.489 31.3457C-113.505 38.0706 -82.6108 48.9209 -51.0043 59.3982C-2.66694 75.425 27.6839 119.674 77.1638 133.621C122.956 146.517 187.21 147.998 233.477 141.781C320.367 130.095 343.534 46.6604 432.154 26.2257C437.833 24.9372 443.58 23.9426 449.372 23.2079C486.476 18.4722 524.813 23.287 557.336 29.1417C611.171 38.8278 657.654 51.8482 705.855 53.7357C742.948 55.1824 783.22 56.2901 829.283 52.4699C881.976 48.0167 934.024 34.7703 981.535 21.0605C1031.21 6.74032 1075.39 -9.82901 1129.08 -16.407C1151.17 -19.1083 1175.77 -17.5486 1201.68 -14.5421C1258.87 -7.88499 1320.04 6.51427 1370.64 11.9733"
    stroke="white"
    stroke-miterlimit="10"
  />
<path
    d="M-433.982 102.992C-420.384 89.4061 -401.414 82.5456 -384.898 74.0914C-342.216 52.2664 -293.132 33.6175 -244.874 27.955C-211.808 24.0782 -182.6 27.6159 -151.967 33.301C-120.971 39.0539 -90.0544 48.9548 -58.6063 58.9009C-9.18293 74.5435 21.3263 119.99 71.7564 133.791C118.273 146.506 183.884 147.534 230.773 140.516C318.081 127.45 338.986 39.9694 427.856 19.0826C433.534 17.7602 439.292 16.7543 445.096 16.0196C482.223 11.3065 520.73 16.7769 553.298 23.4453C607.348 34.5104 653.977 49.26 702.631 52.8768C739.905 55.6458 780.335 57.5333 826.659 53.7923C879.51 49.4408 931.58 35.4145 978.956 20.3371C1028.04 4.72851 1071.65 -13.8639 1124.94 -21.5722C1146.82 -24.7369 1171.28 -23.4258 1197.03 -20.4759C1253.78 -13.9544 1314.66 1.14565 1364.56 6.96639"
    stroke="white"
    stroke-miterlimit="10"
  />
<path
    d="M-438.043 110.553C-424.604 97.0692 -406.21 89.7 -389.909 80.9745C-348.008 58.5506 -299.739 39.4495 -251.978 32.7246C-219.331 28.1245 -190.021 30.5432 -159.444 35.2676C-128.437 40.0485 -97.4978 49 -66.208 58.4262C-15.6987 73.6506 14.9689 120.341 66.3379 133.983C113.567 146.528 180.558 147.094 228.047 139.272C315.785 124.839 334.428 33.3123 423.535 11.962C429.213 10.6171 434.983 9.59983 440.797 8.86517C477.935 4.17467 516.612 10.3006 549.248 17.7828C603.524 30.2267 650.301 46.7056 699.407 52.063C736.873 56.1431 777.45 58.8331 824.046 55.1711C877.066 50.9214 929.148 36.1266 976.4 19.659C1024.9 2.76188 1067.93 -17.8537 1120.82 -26.7035C1142.5 -30.3316 1166.81 -29.2691 1192.4 -26.387C1248.71 -20.0125 1309.27 -4.21171 1358.48 1.98201"
    stroke="white"
    stroke-miterlimit="10"
  />
<path
    d="M-442.104 118.126C-428.812 104.755 -410.995 96.8657 -394.92 87.869C-353.8 64.8573 -306.345 45.2815 -259.094 37.5055C-226.854 32.1933 -197.453 33.4818 -166.944 37.2342C-136.435 40.9866 -104.964 49.0339 -73.8327 57.9402C-22.2261 72.7238 8.57727 120.669 60.9079 134.164C108.861 146.528 177.221 146.641 225.321 138.029C313.488 122.228 329.857 26.6552 419.213 4.84151C424.903 3.46262 430.672 2.4341 436.487 1.71074C473.648 -2.95715 512.494 3.83559 545.175 12.1316C599.667 25.9544 646.613 44.1513 696.16 51.2492C733.819 56.6404 774.543 60.1329 821.399 56.5387C874.578 52.3794 926.693 36.8386 973.798 18.9808C1020.9 1.12302 1064.17 -21.8435 1116.66 -31.8235C1138.13 -35.9037 1162.29 -35.1012 1187.72 -32.2756C1243.6 -26.0367 1303.86 -9.53515 1352.39 -2.97975"
    stroke="white"
    stroke-miterlimit="10"
  />
<path
    d="M-446.165 125.687C-433.02 112.418 -415.78 104.02 -399.932 94.7522C-359.592 71.1528 -312.952 51.1136 -266.198 42.2638C-234.377 36.2396 -204.885 36.3979 -174.421 39.1895C-143.957 41.9812 -112.407 49.0452 -81.4345 57.4542C-28.7305 71.7744 2.21986 120.996 55.4894 134.344C104.155 146.54 173.906 146.201 222.606 136.775C311.215 119.617 325.299 19.9755 414.903 -2.29028C420.593 -3.69178 426.374 -4.73161 432.2 -5.46626C469.372 -10.1116 508.388 -2.66327 541.126 6.44647C595.82 21.6595 642.947 41.5517 692.925 50.4015C730.776 57.1039 771.647 61.3875 818.763 57.8724C872.112 53.8149 924.25 37.5281 971.207 18.2688C1018.57 -1.16005 1060.42 -25.8558 1112.51 -36.9887C1133.78 -41.5322 1157.79 -40.9784 1183.05 -38.2093C1238.49 -32.106 1298.45 -14.9038 1346.28 -7.9867"
    stroke="white"
    stroke-miterlimit="10"
  />
<path
    d="M-450.226 133.259C-437.228 120.103 -420.554 111.186 -404.932 101.635C-365.361 77.4482 -319.547 56.9456 -273.291 47.0334C-241.876 40.2972 -212.295 39.3252 -181.887 41.1449C-151.48 42.9646 -119.84 49.0453 -89.0249 56.9682C-35.2237 70.7911 -4.12625 121.335 50.0822 134.525C99.4716 146.551 170.592 145.771 219.902 135.52C308.964 117.007 320.762 13.3071 410.593 -9.41078C416.283 -10.8349 422.075 -11.8973 427.912 -12.6207C465.107 -17.2433 504.282 -9.12823 537.076 0.783983C591.986 17.3872 639.294 38.9748 689.701 49.5878C727.756 57.5899 768.774 62.6873 816.15 59.24C869.657 55.2842 921.852 38.2515 968.651 17.5794C1015.47 -3.10404 1056.71 -29.8455 1108.39 -42.1199C1129.45 -47.1269 1153.32 -46.8217 1178.43 -44.1092C1233.43 -38.1528 1293.08 -20.2498 1340.21 -12.9484"
    stroke="white"
    stroke-miterlimit="10"
  />
<path
    d="M-454.287 140.821C-441.448 127.778 -425.339 118.352 -409.943 108.518C-371.142 83.7436 -326.153 62.7777 -280.395 51.803C-249.388 44.366 -219.727 42.2525 -189.376 43.1115C-159.025 43.9705 -127.306 49.0565 -96.638 56.4822C-41.7395 69.7852 -10.495 121.663 44.6637 134.706C94.7771 146.562 167.277 145.342 217.187 134.265C306.701 114.407 316.204 6.63861 406.283 -16.5426C411.985 -18.0006 417.777 -19.0631 423.625 -19.7864C460.831 -24.3865 500.175 -15.6045 533.037 -4.87854C588.151 13.1149 635.651 36.3978 686.477 48.7627C724.747 58.0759 765.889 63.9757 813.525 60.5963C867.202 56.7422 919.454 38.9861 966.072 16.8899C1012.69 -5.20631 1052.97 -33.8353 1104.25 -47.2626C1125.11 -52.7216 1148.83 -52.6764 1173.76 -50.0317C1228.34 -44.2109 1287.67 -25.6072 1334.13 -17.9441"
    stroke="white"
    stroke-miterlimit="10"
  />
<path
    d="M-458.348 148.393C-445.656 135.452 -430.124 125.517 -414.954 115.413C-376.911 90.0617 -332.759 68.6323 -287.51 56.5839C-256.911 48.4349 -227.159 45.1911 -196.865 45.0781C-166.571 44.9651 -134.772 49.0452 -104.251 56.0075C-48.2669 68.7566 -16.864 122.014 39.2336 134.898C90.0597 146.574 163.963 144.924 214.461 133.022C304.427 111.819 311.645 -0.0298134 401.962 -23.6631C407.663 -25.1438 413.467 -26.2288 419.326 -26.9408C456.555 -31.5183 496.057 -22.0695 528.976 -10.541C584.293 8.84258 631.997 33.8209 683.242 47.9489C721.715 58.5619 762.993 65.2642 810.89 61.9639C864.725 58.2115 917.055 39.7321 963.481 16.2005C1009.91 -7.33116 1049.23 -37.8251 1100.1 -52.3939C1120.76 -58.305 1144.33 -58.5198 1169.1 -55.9315C1223.23 -50.2464 1282.27 -30.9419 1328.03 -22.9172"
    stroke="white"
    stroke-miterlimit="10"
  />
<path
    d="M-462.409 155.955C-449.864 143.126 -434.898 132.683 -419.966 122.296C-382.68 96.3684 -339.354 74.4644 -294.614 61.3536C-264.422 52.5038 -234.591 48.1071 -204.342 47.0447C-173.301 45.9484 -142.238 49.0452 -111.853 55.5215C-54.7714 67.6942 -23.2327 122.432 33.8151 135.079C85.3425 146.664 160.648 144.505 211.746 131.779C302.188 109.242 307.086 -6.68692 397.652 -30.7837C403.353 -32.2982 409.168 -33.3832 415.028 -34.1066C452.268 -38.6614 491.94 -28.5571 524.915 -16.2148C580.436 4.55898 628.355 31.2213 680.007 47.1125C718.706 59.014 760.097 66.5414 808.265 63.3089C862.27 59.6582 914.68 40.4554 960.913 15.4997C1006.16 -8.9361 1045.54 -41.7357 1095.97 -57.5477C1116.43 -63.8771 1139.85 -64.3857 1164.45 -61.854C1218.15 -56.3158 1276.88 -36.3105 1321.94 -27.9128"
    stroke="white"
    stroke-miterlimit="10"
  />
<path
    d="M-466.47 163.527C-454.084 150.801 -439.672 139.86 -424.966 129.179C-388.438 102.675 -345.915 80.3755 -301.707 66.1119C-271.899 56.5952 -242.012 50.9553 -211.82 48.9887C-180.779 46.8526 -149.704 49.0113 -119.455 55.0242C-61.2759 66.5865 -29.5902 122.737 28.4079 135.26C80.6706 146.653 157.357 144.087 209.042 130.524C299.959 106.665 302.538 -13.3554 393.353 -37.9155C399.066 -39.4526 404.881 -40.5603 410.752 -41.2723C448.003 -45.8046 487.811 -34.9656 520.888 -21.8774C576.567 0.38837 624.746 28.6331 676.794 46.2987C715.719 59.4999 757.224 67.8411 805.652 64.6764C859.815 61.1162 912.327 41.2127 958.345 14.8102C1004.36 -11.5922 1041.82 -45.7481 1091.84 -62.6791C1112.1 -69.4831 1135.37 -70.2291 1159.82 -67.7538C1213.08 -62.3513 1271.49 -41.6453 1315.88 -32.8859"
    stroke="white"
    stroke-miterlimit="10"
  />
<path
    d="M-470.532 171.089C-458.292 158.475 -444.434 147.037 -429.977 136.062C-394.163 109.038 -352.522 86.1849 -308.811 70.8815C-279.422 60.6415 -249.445 53.9053 -219.297 50.9554C-188.256 47.8585 -157.17 48.9887 -127.057 54.5382C-67.7919 65.4676 -35.9365 123.042 22.9891 135.441C75.9759 146.642 154.053 143.68 206.327 129.27C297.719 104.077 297.991 -20.0351 389.032 -45.0473C394.745 -46.6183 400.57 -47.726 406.453 -48.438C443.727 -52.9477 483.704 -41.4757 516.827 -27.5512C572.721 -3.92913 621.149 25.9318 673.558 45.4624C712.733 59.8843 754.339 69.107 803.016 66.0215C857.349 62.5629 909.963 41.9586 955.755 14.1095C1000.01 -12.8015 1038.06 -49.7717 1087.69 -67.8329C1107.75 -75.1004 1130.87 -76.095 1155.14 -73.6876C1207.96 -68.432 1266.08 -47.0139 1309.77 -37.8929"
    stroke="white"
    stroke-miterlimit="10"
  />
<path
    d="M-474.593 178.661C-392.217 93.4524 -254.739 33.6401 -134.659 54.0635C-74.3077 64.3261 -42.2939 123.37 17.582 135.633C71.2927 146.642 150.773 143.285 203.612 128.026C295.491 101.511 293.432 -26.6922 384.722 -52.1565C426.577 -63.8319 474.349 -50.3029 512.777 -33.2024C610.707 10.3684 685.776 74.4531 800.392 67.4004C854.883 64.0435 907.621 42.7272 953.187 13.4314C996.965 -14.7229 1034.34 -53.7727 1083.56 -72.9529C1146.52 -97.4905 1240.89 -56.7114 1303.7 -42.8546"
    stroke="white"
    stroke-miterlimit="10"
  />
</svg>
