<svg
  width="1440"
  height="195"
  viewBox="0 0 1440 195"
  fill="none"
  xmlns="http://www.w3.org/2000/svg"
>
<path
    d="M1486.24 15.2978C1381.25 90.2082 1281.1 132.045 1150.04 127.296C1040.45 123.327 1032.62 -21.1373 978.008 -88.2357C933.945 -142.365 847.795 -149.582 791.497 -114.958C729.739 -76.9816 698.414 -5.21859 641.92 38.7055C589.481 79.4785 516.11 143.347 444.805 109.454C377.623 77.5075 324.452 19.6791 262.1 -19.8306C139.4 -97.5889 -14.384 -34.8267 -125.962 33.2089C-161.179 54.6844 -195.428 89.2913 -238.524 92.4758"
    stroke="white"
    stroke-miterlimit="10"
  />
<path
    d="M1489.43 19.6216C1463.9 37.9402 1438.19 53.6576 1412.59 67.511C1343.43 104.856 1272.42 126.779 1189.94 128.637C1178.23 128.894 1166.31 128.73 1154.13 128.157C1108.01 126.025 1079.98 98.9855 1058.68 63.518C1032.09 19.2431 1016.03 -38.1275 988.959 -76.9248C986.692 -80.1665 984.355 -83.2845 981.927 -86.245C937.883 -139.99 852.769 -147.932 796.53 -114.834C735.092 -78.4142 703.177 -8.97353 646.74 33.6399C615.646 57.0288 577.41 88.3898 536.685 103.373C508.593 113.7 479.338 116.252 450.452 102.983C383.642 72.4188 330.653 17.0222 268.882 -20.3688C255.819 -28.2964 242.425 -34.6333 228.769 -39.5371C115.191 -80.0835 -15.1662 -22.0501 -116.388 32.8315C-138.51 44.8285 -160.756 59.2433 -184.721 71.1221C-201.676 79.5599 -219.44 86.2273 -238.696 87.6254"
    stroke="white"
    stroke-miterlimit="10"
  />
<path
    d="M1492.61 23.934C1467.29 42.198 1441.33 57.2688 1415.81 70.7726C1346.76 107.192 1275.74 128.685 1193.81 129.848C1182.14 129.992 1170.3 129.704 1158.23 129.008C1112.57 126.439 1084.72 99.4124 1063.33 64.1927C1036.62 20.2332 1020.12 -36.4518 992.89 -75.0245C990.622 -78.2436 988.286 -81.3277 985.846 -84.277C941.832 -137.626 857.643 -146.487 801.564 -114.732C740.344 -80.0511 707.939 -12.7398 651.559 28.5404C620.404 51.194 582.289 81.7084 541.759 96.3998C513.805 106.536 484.741 109.168 456.076 96.4778C389.638 67.2847 336.842 14.3312 275.64 -20.941C262.721 -28.4265 249.47 -34.4004 235.97 -38.9072C123.621 -76.4587 -4.43094 -16.9691 -106.836 32.4313C-130.594 43.8937 -154.728 55.6014 -180.768 66.7721C-199.132 74.6548 -218.287 81.2757 -238.889 82.7408"
    stroke="white"
    stroke-miterlimit="10"
  />
<path
    d="M1495.8 28.2577C1470.68 46.4783 1444.46 60.8913 1419.03 74.0567C1350.09 109.561 1279.05 130.602 1197.68 131.08C1186.06 131.112 1174.29 130.712 1162.32 129.881C1117.12 126.864 1089.46 99.8619 1067.97 64.8899C1041.16 21.2461 1024.22 -34.7423 996.821 -73.0903C994.553 -76.2868 992.205 -79.3483 989.765 -82.2751C945.77 -135.229 862.562 -144.917 806.596 -114.585C745.641 -81.552 712.802 -16.3243 656.379 23.4974C625.218 45.4841 587.168 75.0723 546.844 89.4829C519.027 99.4282 490.19 102.085 461.711 90.0292C395.703 62.0833 343.031 11.6967 282.399 -21.4567C269.611 -28.5115 256.527 -34.0884 243.17 -38.2209C132.003 -72.6308 5.88883 -12.197 -97.2964 32.0762C-122.78 43.0145 -148.711 52.0386 -176.815 62.4673C-196.588 69.8061 -217.134 76.3693 -239.095 77.8901"
    stroke="white"
    stroke-miterlimit="10"
  />
<path
    d="M1498.98 32.5701C1474.07 50.736 1447.6 64.5024 1422.23 77.3181C1353.41 111.897 1282.36 132.678 1201.54 132.291C1189.96 132.232 1178.27 131.686 1166.4 130.72C1121.66 127.267 1094.17 100.266 1072.6 65.5645C1045.67 22.2247 1028.3 -33.0668 1000.74 -71.1902C998.461 -74.3529 996.113 -77.4031 993.684 -80.3072C949.72 -132.865 867.503 -143.38 811.641 -114.483C750.961 -83.098 717.61 -20.045 661.21 18.398C629.999 39.6721 592.059 68.3797 551.93 82.5094C524.251 92.2525 495.616 94.9905 467.358 83.5242C401.734 56.9155 349.163 9.1521 289.18 -22.0175C276.513 -28.6078 263.595 -33.8328 250.404 -37.5795C140.397 -68.8481 15.9181 -7.84581 -87.711 31.6762C-114.989 42.0784 -142.638 48.4309 -172.828 58.1176C-194.01 64.9124 -215.947 71.418 -239.254 73.0058"
    stroke="white"
    stroke-miterlimit="10"
  />
<path
    d="M1502.17 36.8938C1477.46 55.005 1450.73 68.1249 1425.45 80.5909C1356.74 114.244 1285.68 134.618 1205.4 133.501C1193.88 133.341 1182.27 132.637 1170.5 131.571C1126.22 127.568 1098.91 100.693 1077.25 66.2392C1050.2 23.2149 1032.39 -31.391 1004.68 -69.2898C1002.4 -72.4298 1000.04 -75.4463 997.614 -78.339C953.669 -130.501 872.444 -141.844 816.686 -114.382C756.291 -84.6438 722.406 -23.7771 666.041 13.3099C634.78 33.8716 596.949 61.6984 557.026 75.5475C529.473 85.0996 501.053 87.9073 473.004 77.042C407.765 51.7704 355.352 6.51765 295.961 -22.5669C283.425 -28.7039 270.663 -33.5658 257.627 -36.9268C148.779 -65.0428 25.656 -3.82489 -78.1483 31.2874C-107.299 41.1529 -136.576 44.8346 -168.852 53.7791C-191.432 60.0415 -214.772 66.4779 -239.437 68.1326"
    stroke="white"
    stroke-miterlimit="10"
  />
<path
    d="M1505.35 41.2062C1480.85 59.2741 1453.87 71.7361 1428.67 83.8638C1360.07 116.591 1288.99 136.569 1209.27 134.722C1197.79 134.461 1186.26 133.623 1174.59 132.433C1130.78 127.97 1103.62 101.131 1081.88 66.925C1054.73 24.2163 1036.47 -29.6929 1008.6 -67.367C1006.31 -70.4845 1003.96 -73.4783 1001.52 -76.3485C957.607 -128.115 877.374 -140.285 821.707 -114.257C761.599 -86.1672 727.179 -27.4755 670.849 8.23289C639.538 28.082 601.817 55.0283 562.089 68.5965C534.673 77.9576 506.456 80.8351 478.617 70.5593C413.761 46.625 361.519 3.88297 302.709 -23.1166C290.304 -28.8117 277.686 -33.288 264.827 -36.2744C157.139 -61.2491 35.1482 -0.134001 -68.5969 30.8985C-99.6773 40.1928 -130.537 41.2494 -164.888 49.4518C-188.877 55.1703 -213.607 61.549 -239.62 63.2707"
    stroke="white"
    stroke-miterlimit="10"
  />
<path
    d="M1508.54 45.5186C1484.24 63.5317 1456.99 75.3471 1431.88 87.1252C1363.39 118.927 1292.3 138.497 1213.14 135.933C1201.71 135.559 1190.26 134.597 1178.69 133.283C1135.33 128.362 1108.36 101.557 1086.52 67.5997C1059.26 25.2064 1040.56 -28.0172 1012.53 -65.4667C1010.24 -68.5504 1007.88 -71.5329 1005.44 -74.3806C961.557 -125.751 882.326 -138.737 826.741 -114.156C766.93 -87.7017 731.964 -31.2076 675.669 3.13336C644.308 22.2699 606.696 48.3356 567.175 61.6231C539.896 70.7933 511.882 73.7404 484.253 64.0543C419.781 41.4571 367.697 1.23705 309.479 -23.6888C297.207 -28.9419 284.743 -33.0437 272.039 -35.6445C165.5 -57.4667 44.485 3.23897 -59.0451 30.487C-92.0999 39.1871 -124.497 37.6414 -160.934 45.0905C-186.322 50.2765 -212.465 56.586 -239.824 58.3747"
    stroke="white"
    stroke-miterlimit="10"
  />
<path
    d="M1511.71 49.8422C1487.61 67.812 1460.15 79.0264 1435.09 90.398C1366.79 121.421 1295.61 140.437 1217 137.143C1205.61 136.668 1194.23 135.571 1182.76 134.134C1139.88 128.764 1113.07 101.984 1091.14 68.2855C1063.76 26.1963 1044.56 -26.2632 1016.44 -63.5553C1014.14 -66.6051 1011.78 -69.5651 1009.35 -72.4013C965.484 -123.387 887.267 -137.19 831.763 -114.043C772.25 -89.2363 736.738 -34.9286 680.477 -1.9436C649.055 16.4804 611.564 41.6654 572.249 54.6722C545.108 63.6402 517.297 66.6682 489.889 57.5719C425.801 36.3119 373.886 -1.39739 316.238 -24.2384C304.097 -29.0495 291.788 -32.777 279.24 -34.992C173.826 -53.6619 53.6658 6.36195 -49.4933 30.0981C-84.5561 38.1698 -118.446 34.0563 -156.97 40.7519C-183.755 45.4054 -211.301 51.6458 -240.006 53.5016"
    stroke="white"
    stroke-miterlimit="10"
  />
<path
    d="M1514.9 54.1546C1491 72.0697 1463.28 82.6375 1438.31 93.6708C1370.11 123.791 1298.92 142.377 1220.87 138.364C1209.53 137.777 1198.23 136.556 1186.86 134.985C1144.43 129.155 1117.81 102.411 1095.8 68.9603C1068.31 27.1866 1048.65 -24.5763 1020.4 -61.6548C1018.09 -64.682 1015.73 -67.6194 1013.29 -70.4218C969.456 -121.012 892.242 -135.63 836.819 -113.929C777.603 -90.748 741.534 -38.6494 685.32 -7.03161C653.847 10.6685 616.466 34.9843 577.346 47.7102C550.342 56.4873 522.734 59.585 495.535 51.0782C431.82 31.1667 380.086 -4.04307 323.019 -24.7991C311.01 -29.1682 298.856 -32.51 286.474 -34.3506C182.197 -49.868 62.7692 9.23553 -39.9193 29.6981C-77.0237 37.0959 -112.384 30.4599 -152.994 36.4021C-181.177 40.5345 -210.125 46.6944 -240.189 48.6171"
    stroke="white"
    stroke-miterlimit="10"
  />
<path
    d="M1518.08 58.4783C1494.39 76.3388 1466.42 86.26 1441.52 96.9437C1373.45 126.149 1302.22 144.317 1224.74 139.586C1213.44 138.897 1202.22 137.541 1190.96 135.846C1149 129.558 1122.53 102.849 1100.44 69.6463C1072.84 28.1881 1052.73 -22.8894 1024.33 -59.7319C1022.01 -62.7366 1019.65 -65.6401 1017.21 -68.4312C973.394 -118.625 897.206 -134.06 841.851 -113.805C782.945 -92.2598 746.307 -42.359 690.139 -12.0972C658.605 4.89029 621.345 28.3368 582.431 40.7708C555.565 49.357 528.16 52.5242 501.171 44.6071C437.839 26.0327 386.275 -6.66624 329.789 -25.3261C317.912 -29.2531 305.901 -32.2093 293.685 -33.6754C190.522 -46.0294 67.0461 -5.96227 -30.3569 29.3319C-70.0949 28.9297 -106.323 26.8975 -149.018 32.0863C-178.6 35.6861 -208.95 41.777 -240.36 43.7554"
    stroke="white"
    stroke-miterlimit="10"
  />
<path
    d="M1521.27 62.7907C1497.78 80.6078 1469.55 89.8825 1444.74 100.205C1376.78 128.507 1305.53 146.234 1228.61 140.785C1217.36 139.983 1206.22 138.504 1195.05 136.686C1153.56 129.949 1127.26 103.265 1105.07 70.3095C1077.35 29.1668 1056.81 -21.2138 1028.25 -57.843C1025.93 -60.8139 1023.56 -63.7061 1021.12 -66.4746C977.332 -116.273 902.158 -132.512 846.873 -113.715C788.287 -93.7942 751.069 -46.1027 694.947 -17.2081C663.363 -0.933154 626.213 21.6327 587.493 33.7858C560.765 42.1698 533.552 45.4179 506.784 38.0906C443.825 20.8646 392.453 -9.33473 336.536 -25.9097C324.791 -29.3948 312.924 -31.9767 300.875 -33.057C198.826 -42.2362 76.3711 -3.83271 -20.8281 28.9201C-62.489 27.2234 -100.295 23.2895 -145.076 27.7249C-176.067 30.7921 -207.808 36.814 -240.577 38.8593"
    stroke="white"
    stroke-miterlimit="10"
  />
<path
    d="M1524.45 67.1144C1501.17 84.8767 1472.69 93.5049 1447.96 103.489C1380.12 130.877 1308.84 148.186 1232.48 142.018C1221.28 141.115 1210.21 139.501 1199.15 137.559C1158.11 130.363 1131.99 103.714 1109.72 71.0181C1081.89 30.1795 1060.9 -19.493 1032.18 -55.9089C1029.85 -58.8572 1027.49 -61.7268 1025.04 -64.4728C981.27 -113.875 907.132 -130.919 851.906 -113.579C793.64 -95.2834 755.831 -49.8125 699.767 -22.2625C668.121 -6.71143 631.092 14.9852 592.578 26.8576C565.988 35.0507 538.977 38.3684 512.43 31.6421C449.843 15.7645 398.665 -11.9352 343.317 -26.4253C331.715 -29.4683 319.992 -31.6646 308.109 -32.3704C207.162 -38.3749 85.7298 -1.64635 -11.2429 28.5654C-54.8153 25.5743 -94.2219 19.7497 -141.09 23.4316C-173.478 25.9777 -206.621 31.9191 -240.737 34.0315"
    stroke="white"
    stroke-miterlimit="10"
  />
<path
    d="M1527.64 71.4268C1504.57 89.1346 1475.82 97.1161 1451.18 106.751C1383.45 133.224 1312.15 150.103 1236.34 143.228C1225.18 142.212 1214.2 140.475 1203.22 138.398C1162.66 130.755 1136.71 104.118 1114.34 71.6812C1086.4 31.1581 1064.96 -17.8176 1036.1 -54.02C1033.77 -56.9457 1031.4 -59.7814 1028.96 -62.5161C985.22 -111.523 912.107 -129.371 856.939 -113.489C798.993 -96.8064 760.605 -53.5674 704.587 -27.3732C672.879 -12.5462 635.96 8.28113 597.653 19.8728C571.199 27.875 544.38 31.2736 518.054 25.1257C455.84 10.5964 404.854 -14.6035 350.076 -27.0088C338.606 -29.6098 327.026 -31.4206 315.309 -31.7519C215.455 -34.5704 95.055 0.471944 -1.70255 28.1425C-47.1865 23.857 -88.1825 16.1418 -137.136 19.059C-170.923 21.0726 -205.468 26.9449 -240.942 29.1242"
    stroke="white"
    stroke-miterlimit="10"
  />
<path
    d="M1530.83 75.7505C1507.96 93.4149 1478.96 100.739 1454.39 110.024C1386.77 135.582 1315.47 152.02 1240.21 144.45C1229.1 143.332 1218.2 141.46 1207.32 139.26C1167.21 131.168 1141.44 104.556 1118.99 72.3674C1090.95 32.1598 1069.06 -16.1305 1040.04 -52.097C1037.7 -54.9889 1035.33 -57.8133 1032.89 -60.5253C989.181 -109.136 917.105 -127.789 861.984 -113.364C804.369 -98.2952 765.379 -57.2883 709.418 -32.4387C677.638 -18.3244 640.851 1.62251 602.75 12.9335C576.434 20.7334 549.818 24.2129 523.701 18.6547C461.848 5.48505 411.077 -17.2377 356.846 -27.547C345.507 -29.706 334.064 -31.5156 322.532 -31.0879C223.841 -27.4194 104.414 2.63578 7.87157 27.7651C-39.5352 22.1851 -82.1204 12.5681 -133.16 14.7319C-168.345 16.2243 -204.292 22.0162 -241.124 24.2624"
    stroke="white"
    stroke-miterlimit="10"
  />
<path
    d="M1534.01 80.0629C1511.35 97.6726 1482.09 104.35 1457.6 113.296C1390.09 137.94 1318.77 153.949 1244.06 145.66C1233 144.43 1222.18 142.434 1211.4 140.11C1171.76 131.571 1146.14 104.983 1123.61 73.0418C1095.45 33.1383 1073.13 -14.4438 1043.95 -50.1969C1041.61 -53.0662 1039.24 -55.8681 1036.78 -58.5576C993.096 -106.784 922.069 -126.218 866.995 -113.263C811.921 -100.307 770.119 -61.0322 714.215 -37.5385C682.374 -24.1481 645.707 -5.07042 607.801 5.95973C581.623 13.5688 555.198 17.1291 529.314 12.1494C467.834 0.328156 417.255 -19.9062 363.594 -28.1194C352.398 -29.8363 341.106 -30.8759 329.722 -30.4582C232.049 -26.8597 113.728 4.77652 17.4007 27.3533C-31.9175 20.4676 -76.0923 8.97139 -129.218 10.3704C-165.812 11.3302 -203.15 17.0531 -241.329 19.3663"
    stroke="white"
    stroke-miterlimit="10"
  />
<path
    d="M1537.2 84.3866C1514.74 101.953 1485.22 107.983 1460.82 116.569C1393.42 140.299 1322.08 155.866 1247.93 146.881C1236.92 145.55 1226.16 143.419 1215.5 140.972C1176.32 131.985 1150.88 105.421 1128.26 73.7391C1099.98 34.1511 1077.21 -12.7343 1047.89 -48.2739C1045.54 -51.1207 1043.17 -53.8886 1040.71 -56.5669C997.057 -104.397 927.066 -124.614 872.039 -113.138C815.097 -101.262 774.881 -64.7646 719.046 -42.604C687.143 -29.9488 650.598 -11.7291 612.898 -0.97962C586.857 6.43849 560.624 10.0684 534.961 5.6784C473.841 -4.78326 423.478 -22.5404 370.375 -28.6462C359.311 -29.9211 348.162 -30.5751 336.944 -29.783C240.352 -22.9648 123.075 6.95155 26.9744 26.9872C-24.2554 18.8072 -70.0308 5.42027 -125.231 6.05467C-163.223 6.49327 -201.964 12.1358 -241.5 14.5159"
    stroke="white"
    stroke-miterlimit="10"
  />
<path
    d="M1540.38 88.699C1518.13 106.211 1488.35 111.595 1464.03 119.831C1396.76 142.635 1325.38 157.772 1251.8 148.091C1240.83 146.648 1230.16 144.393 1219.6 141.823C1180.88 132.388 1155.62 105.848 1132.9 74.4137C1104.52 35.1413 1081.3 -11.0586 1051.82 -46.3623C1049.47 -49.1752 1047.09 -51.932 1044.64 -54.5875C1001.01 -102.022 932.063 -123.02 877.095 -113.025C820.495 -102.739 779.666 -68.5081 723.888 -47.6919C691.913 -35.7608 655.499 -18.4102 618.006 -7.94152C592.102 -0.725635 566.061 2.99644 540.619 -0.81512C479.861 -9.9172 429.713 -25.1971 377.167 -29.2069C366.247 -30.0397 355.23 -30.2969 344.19 -29.1414C248.666 -19.0923 132.457 9.09296 36.56 26.5873C-16.5813 17.1129 -63.9576 1.83529 -121.244 1.70497C-160.634 1.62238 -200.777 7.18447 -241.66 9.62031"
    stroke="white"
    stroke-miterlimit="10"
  />
<path
    d="M1543.57 93.0114C1521.52 110.468 1491.49 115.206 1467.25 123.104C1400.08 144.993 1328.69 159.689 1255.67 149.302C1244.75 147.746 1234.16 145.367 1223.68 142.662C1185.43 132.779 1160.34 106.263 1137.53 75.077C1109.03 36.12 1085.38 -9.38301 1055.74 -44.4734C1053.39 -47.2637 1050.99 -49.9866 1048.55 -52.6308C1004.94 -99.6695 937.049 -121.438 882.117 -112.935C825.859 -104.228 784.405 -72.2745 728.696 -52.7915C696.659 -41.5843 660.367 -25.0917 623.068 -14.9151C597.302 -7.89011 571.464 -4.0871 546.232 -7.30903C485.835 -15.0402 435.914 -27.8653 383.915 -29.7679C373.137 -30.1586 362.253 -30.0303 351.379 -28.5004C256.923 -15.1977 136.471 60.964 46.1 26.187C-6.25534 6.03841 -57.9184 -1.74995 -117.291 -2.6337C-158.091 -3.24888 -199.635 2.2441 -241.865 4.74696"
    stroke="white"
    stroke-miterlimit="10"
  />
<path
    d="M1546.75 97.3351C1524.91 114.749 1494.62 118.828 1470.47 126.376C1403.41 147.34 1332 161.607 1259.54 150.523C1248.66 148.854 1238.15 146.364 1227.78 143.524C1189.99 133.193 1165.07 106.701 1142.19 75.7744C1113.57 37.1215 1089.48 -7.68467 1059.68 -42.5504C1057.32 -45.3183 1054.94 -48.0185 1052.48 -50.6402C1008.89 -97.2831 942.057 -119.811 887.161 -112.81C832.265 -105.81 789.168 -76.0069 733.527 -57.8684C701.418 -47.3965 665.258 -31.7617 628.165 -21.8658C602.537 -15.0317 576.89 -11.1479 551.89 -13.7913C491.854 -20.1516 442.148 -30.522 390.696 -30.3174C380.05 -30.2774 369.31 -29.7409 358.602 -27.8478C265.225 -11.2915 145.133 61.3017 55.6627 25.8095C1.53188 4.33378 -51.8681 -5.31254 -113.327 -6.96102C-155.524 -8.09739 -198.471 -2.68483 -242.048 -0.114944"
    stroke="white"
    stroke-miterlimit="10"
  />
<path
    d="M1549.94 101.647C1528.3 119.006 1497.76 122.439 1473.69 129.638C1406.73 149.687 1335.31 163.501 1263.41 151.734C1252.58 149.963 1242.15 147.338 1231.87 144.375C1194.54 133.607 1169.79 107.128 1146.82 76.4489C1118.1 38.1116 1093.56 -5.99781 1063.61 -40.6502C1061.25 -43.3841 1058.85 -46.0731 1056.4 -48.6609C1012.84 -94.9079 947.065 -118.195 892.195 -112.697C836.633 -107.127 793.919 -79.762 738.347 -62.9453C706.165 -53.2087 670.137 -38.4318 633.239 -28.8167C607.748 -22.1736 582.293 -18.1976 557.514 -20.2738C497.839 -25.2632 448.36 -33.1902 397.455 -30.867C386.952 -30.3849 376.344 -29.463 365.814 -27.1953C273.505 -7.35157 153.899 61.4935 65.2257 25.4206C9.29619 2.67418 -45.8061 -8.8863 -109.351 -11.2995C-152.946 -12.9571 -197.295 -7.62492 -242.23 -4.98812"
    stroke="white"
    stroke-miterlimit="10"
  />
<path
    d="M1553.12 105.971C1531.69 123.287 1500.89 126.051 1476.9 132.922C1410.06 152.045 1338.62 165.419 1267.28 152.955C1256.49 151.072 1246.14 148.323 1235.97 145.237C1199.1 134.032 1174.53 107.566 1151.46 77.135C1122.63 39.1131 1097.66 -4.3108 1067.54 -38.7272C1065.17 -41.4387 1062.77 -44.0938 1060.32 -46.6702C1016.79 -92.5214 952.062 -116.556 897.228 -112.573C842.393 -108.59 798.67 -83.5058 743.167 -68.0221C710.912 -59.0209 675.016 -45.1018 638.324 -35.7675C612.971 -29.3265 587.707 -25.2584 563.15 -26.7562C503.835 -30.3747 454.572 -35.8584 404.225 -31.4165C393.865 -30.5036 383.389 -29.1736 373.026 -26.5427C281.796 -3.41147 162.79 61.5508 74.7773 25.0318C17.0149 1.05945 -39.768 -12.3359 -105.386 -15.6381C-150.392 -17.7265 -196.131 -12.5651 -242.413 -9.86126"
    stroke="white"
    stroke-miterlimit="10"
  />
<path
    d="M1556.31 110.284C1535.08 127.544 1504.03 129.662 1480.12 136.184C1413.38 154.381 1341.94 167.314 1271.15 154.165C1260.41 152.17 1250.13 149.308 1240.06 146.087C1203.65 134.435 1179.25 107.993 1156.09 77.8095C1127.14 40.1031 1101.74 -2.62397 1071.46 -36.8271C1069.09 -39.5159 1066.69 -42.1484 1064.24 -44.7023C1020.73 -90.169 957.07 -114.929 902.261 -112.471C847.406 -110.003 803.41 -87.2836 747.986 -73.1104C715.659 -64.8445 679.895 -51.7832 643.398 -42.7297C618.182 -36.4797 593.11 -32.3307 568.785 -33.25C509.832 -35.4863 460.796 -38.5491 410.995 -31.9661C400.767 -30.6112 390.434 -28.873 380.249 -25.8901C290.097 0.551253 171.807 61.5074 84.3397 24.6429C24.7098 -0.487771 -33.7178 -15.9098 -101.422 -19.9767C-147.826 -22.5976 -194.967 -17.5053 -242.607 -14.7346"
    stroke="white"
    stroke-miterlimit="10"
  />
<path
    d="M1559.49 114.607C1538.47 131.814 1507.15 133.284 1483.34 139.456C1416.71 156.728 1345.25 169.22 1275.02 155.387C1264.32 153.279 1254.12 150.294 1244.15 146.938C1208.21 134.849 1183.99 108.408 1160.74 78.4955C1131.68 41.0933 1105.83 -0.936966 1075.4 -34.9155C1073.01 -37.5705 1070.61 -40.1917 1068.16 -42.7229C1024.68 -87.7937 962.067 -113.279 907.294 -112.358C852.792 -111.435 808.161 -91.0499 752.806 -78.1985C720.406 -70.6793 684.775 -58.4645 648.484 -49.6917C623.394 -43.6327 598.529 -39.8888 574.42 -39.7437C515.817 -39.3772 467.008 -41.2398 417.765 -32.5269C407.68 -30.7412 397.48 -28.5949 387.46 -25.2488C298.388 4.51395 180.926 61.352 93.9026 24.2429C32.3707 -1.99001 -27.667 -19.495 -97.4458 -24.3265C-145.259 -27.4687 -193.791 -22.4567 -242.778 -19.6189"
    stroke="white"
    stroke-miterlimit="10"
  />
<path
    d="M1562.68 118.92C1541.86 136.083 1510.29 136.895 1486.56 142.729C1420.04 159.075 1348.56 171.126 1278.89 156.597C1268.24 154.377 1258.12 151.279 1248.25 147.788C1212.78 135.263 1188.71 108.835 1165.39 79.1703C1136.22 42.0835 1109.94 0.738894 1079.35 -33.015C1076.96 -35.6474 1074.55 -38.2348 1072.1 -40.7548C1028.64 -85.4298 967.063 -113.98 912.35 -112.256C858.214 -110.539 812.935 -94.8274 757.648 -83.2866C725.176 -76.5027 689.677 -65.1457 653.592 -56.6536C628.64 -50.7969 603.962 -46.4522 580.079 -46.2372C521.847 -45.6979 473.243 -43.9305 424.558 -33.0876C414.616 -30.8711 404.559 -28.3166 394.695 -24.6074C306.712 8.48818 190.171 61.1185 103.477 23.8428C40.0201 -3.44722 -21.6049 -23.0913 -93.4699 -28.665C-142.681 -32.3397 -192.615 -27.3968 -242.96 -24.5034"
    stroke="white"
    stroke-miterlimit="10"
  />
<path
    d="M1565.86 123.243C1545.26 140.352 1513.42 140.518 1489.76 146.002C1423.35 161.421 1351.87 173.02 1282.75 157.819C1272.14 155.485 1262.11 152.264 1252.33 148.65C1217.31 135.699 1193.43 109.273 1170.01 79.8561C1140.74 43.0848 1114.01 2.42568 1083.26 -31.0923C1080.87 -33.7021 1078.46 -36.2669 1076 -38.7643C1032.57 -83.0435 972.072 -109.968 917.36 -112.132C863.553 -114.254 817.653 -98.5941 762.445 -88.3636C729.901 -82.3264 694.533 -71.816 658.643 -63.6047C633.829 -57.9388 609.342 -53.502 585.68 -52.7086C527.809 -50.7758 479.433 -46.6101 431.282 -33.6262C421.473 -30.979 411.559 -28.005 401.873 -23.9438C314.991 12.5073 206.057 38.113 113.006 23.465C42.593 12.3773 -15.5771 -26.6541 -89.5281 -32.9925C-140.138 -37.1883 -191.473 -32.3259 -243.165 -29.3655"
    stroke="white"
    stroke-miterlimit="10"
  />
<path
    d="M1569.05 127.556C1548.65 144.621 1516.56 144.118 1492.98 149.263C1426.67 163.746 1355.18 174.904 1286.62 159.029C1276.06 156.583 1266.1 153.25 1256.43 149.501C1221.86 136.113 1198.16 109.7 1174.66 80.5308C1145.27 44.0637 1118.1 4.11266 1087.19 -29.192C1084.79 -31.768 1082.38 -34.3102 1079.91 -36.7964C1036.52 -80.6796 977.068 -108.307 922.393 -112.03C868.928 -115.664 822.404 -102.383 767.265 -93.4518C734.648 -88.1612 699.412 -78.486 663.728 -70.5668C639.051 -65.0918 614.756 -60.5629 591.327 -59.2023C533.817 -55.8759 485.645 -49.3235 438.063 -34.1869C428.397 -31.1089 418.615 -27.7268 409.095 -23.3025C323.326 16.5156 215.231 39.4049 122.568 23.0649C50.1909 10.3094 -9.5269 -30.2393 -85.5526 -37.3422C-137.571 -42.0707 -190.298 -37.2772 -243.348 -34.2499"
    stroke="white"
    stroke-miterlimit="10"
  />
<path
    d="M1572.23 131.88C1552.04 148.89 1519.68 147.74 1496.2 152.548C1430 166.093 1358.5 176.81 1290.47 160.262C1279.96 157.703 1270.07 154.246 1260.5 150.374C1226.41 136.549 1202.88 110.149 1179.28 81.2391C1149.77 45.0875 1122.18 5.82215 1091.1 -27.258C1088.7 -29.8114 1086.28 -32.3311 1083.82 -34.7945C1040.44 -78.282 982.042 -106.6 927.415 -111.884C874.303 -117.029 827.132 -106.138 772.073 -98.5062C739.383 -93.9736 704.28 -85.1336 668.791 -77.4952C644.251 -72.2224 620.148 -67.59 596.939 -65.6623C539.79 -60.9312 491.834 -52.0032 444.81 -34.7027C435.276 -31.1941 425.649 -27.3924 416.284 -22.6163C331.65 20.5803 224.417 40.7194 132.108 22.7098C57.8119 8.21897 -3.49903 -33.7907 -81.6108 -41.6471C-135.028 -46.8968 -189.156 -42.1837 -243.564 -39.0895"
    stroke="white"
    stroke-miterlimit="10"
  />
<path
    d="M1575.42 136.192C1555.43 153.147 1522.82 151.34 1499.41 155.809C1433.33 168.428 1361.8 178.682 1294.34 161.461C1283.88 158.79 1274.07 155.22 1264.6 151.202C1230.96 136.952 1207.61 110.553 1183.92 81.8912C1154.31 46.0551 1126.27 7.47522 1095.04 -25.3689C1092.64 -27.8997 1090.22 -30.3968 1087.75 -32.8377C1044.41 -75.9294 987.05 -104.928 932.46 -111.793C879.678 -118.427 831.896 -109.95 776.904 -103.606C744.142 -99.8309 709.171 -91.8262 673.888 -84.4685C649.486 -79.3866 625.585 -74.6507 602.586 -72.1672C545.798 -66.0313 498.047 -54.7279 451.592 -35.2748C442.19 -31.3354 432.717 -27.1141 423.519 -21.9861C340.019 24.5889 233.694 41.9669 141.683 22.3098C65.4905 6.02737 2.56299 -37.3758 -77.6234 -45.9968C-132.45 -51.7791 -187.969 -47.135 -243.724 -43.9738"
    stroke="white"
    stroke-miterlimit="10"
  />
<path
    d="M1578.61 140.504C1558.81 157.416 1525.95 154.951 1502.63 159.071C1436.64 170.753 1365.12 180.554 1298.21 162.671C1287.8 159.887 1278.07 156.194 1268.69 152.052C1235.51 137.366 1212.33 110.98 1188.56 82.5658C1158.84 47.0451 1130.38 9.15092 1098.97 -23.4687C1096.56 -25.9657 1094.14 -28.4401 1091.67 -30.8698C1048.34 -73.577 992.035 -103.244 937.493 -111.691C882.951 -120.139 836.636 -113.75 781.724 -108.705C748.89 -105.688 714.05 -98.5189 678.962 -91.442C654.697 -86.5511 630.988 -81.723 608.222 -78.6723C551.794 -71.1203 504.248 -57.4527 458.362 -35.847C449.103 -31.4881 439.773 -26.836 430.73 -21.3563C348.377 28.6199 242.993 43.192 151.245 21.8983C73.1918 3.77941 8.62475 -40.9722 -73.659 -50.3581C-129.883 -56.6615 -186.816 -52.098 -243.918 -48.8697"
    stroke="white"
    stroke-miterlimit="10"
  />
<path
    d="M1581.79 144.828C1562.2 161.685 1529.09 158.562 1505.85 162.355C1439.97 173.088 1368.44 182.449 1302.08 163.904C1291.71 161.007 1282.06 157.202 1272.79 152.926C1240.06 137.813 1217.06 111.429 1193.21 83.2631C1163.36 48.0466 1134.47 10.8379 1102.9 -21.5458C1100.49 -24.0201 1098.06 -26.4721 1095.59 -28.8792C1052.29 -71.1904 997.008 -101.527 942.537 -111.567C890.426 -121.179 841.398 -117.539 786.554 -113.771C753.648 -111.512 718.94 -105.178 684.058 -98.3814C659.931 -93.6814 636.413 -88.7498 613.868 -85.1433C557.812 -76.1751 510.449 -60.1549 465.132 -36.3852C456.004 -31.5956 446.829 -26.5239 437.953 -20.6923C356.769 32.6739 252.348 44.4516 160.808 21.5209C80.916 1.50917 14.6751 -44.546 -69.6835 -54.6739C-127.306 -61.5098 -185.641 -57.0154 -244.089 -53.7201"
    stroke="white"
    stroke-miterlimit="10"
  />
<path
    d="M1584.98 149.14C1565.59 165.954 1532.21 162.173 1509.07 165.616C1443.3 175.413 1371.77 184.321 1305.95 165.103C1295.64 162.094 1286.05 158.176 1276.89 153.765C1244.62 138.227 1221.8 111.845 1197.85 83.9378C1167.9 49.0368 1138.57 12.5137 1106.83 -19.6455C1104.41 -22.0974 1101.98 -24.5267 1099.52 -26.8998C1056.24 -68.8153 1001.99 -99.809 947.582 -111.454C895.79 -122.532 846.161 -121.339 791.385 -118.859C758.406 -117.358 723.83 -111.859 689.144 -105.343C665.154 -100.846 641.839 -95.7993 619.504 -91.6371C563.82 -81.2526 516.639 -62.8798 471.902 -36.946C462.906 -31.7258 453.886 -26.2345 445.165 -20.0511C365.16 36.7279 261.727 45.6774 170.371 21.1207C88.675 -0.828684 20.7256 -48.1312 -65.7076 -59.0237C-124.739 -66.381 -184.465 -61.9668 -244.272 -58.6159"
    stroke="white"
    stroke-miterlimit="10"
  />
<path
    d="M1588.16 153.464C1568.98 170.223 1535.34 165.784 1512.28 168.889C1446.61 177.748 1375.09 186.205 1309.82 166.324C1299.55 163.192 1290.04 159.161 1280.98 154.615C1249.15 138.652 1226.52 112.272 1202.48 84.6124C1172.42 50.0268 1142.72 14.1333 1110.76 -17.7339C1108.34 -20.1632 1105.91 -22.5586 1103.44 -24.9205C1060.19 -66.4401 1006.97 -98.0916 952.615 -111.341C901.142 -123.897 850.913 -125.151 796.205 -123.936C763.165 -123.204 728.71 -118.529 694.229 -112.294C670.377 -107.987 647.253 -102.838 625.139 -98.1082C569.827 -86.2963 522.818 -65.5822 478.672 -37.4843C469.809 -31.8447 460.943 -25.9225 452.377 -19.3873C373.563 40.8045 271.151 46.9149 179.922 20.7431C96.4571 -3.20021 26.7652 -51.6939 -61.7541 -63.3511C-122.184 -71.2409 -183.312 -66.8959 -244.465 -63.4779"
    stroke="white"
    stroke-miterlimit="10"
  />
<path
    d="M1591.35 157.777C1572.37 174.481 1538.48 169.384 1515.5 172.162C1449.94 180.073 1378.41 188.077 1313.69 167.546C1303.47 164.301 1294.03 160.158 1285.07 155.477C1253.7 139.089 1231.25 112.698 1207.13 85.2984C1176.95 51.0282 1146.81 15.8203 1114.69 -15.8223C1112.27 -18.229 1109.83 -20.6019 1107.36 -22.9412C1064.14 -64.0649 1011.93 -96.3628 957.648 -111.228C906.482 -125.239 855.676 -128.962 801.024 -129.024C767.912 -129.061 733.589 -125.21 699.314 -119.256C675.6 -115.14 652.678 -109.887 630.786 -104.602C575.845 -91.3624 529.007 -68.3071 485.453 -38.0337C476.721 -31.9634 468.01 -25.6216 459.611 -18.7345C382.011 44.8591 280.642 48.1418 189.507 20.3545C104.318 -5.61618 32.8494 -55.2787 -57.756 -67.6894C-119.595 -76.1004 -182.114 -71.8357 -244.625 -68.3509"
    stroke="white"
    stroke-miterlimit="10"
  />
<path
    d="M1594.53 162.1C1575.76 178.762 1541.6 172.962 1518.72 175.435C1453.26 182.295 1381.74 189.949 1317.56 168.756C1307.38 165.398 1298.02 161.143 1289.16 156.328C1258.25 139.525 1235.97 113.125 1211.77 85.973C1181.49 52.0071 1150.9 17.496 1118.63 -13.922C1116.2 -16.2948 1113.75 -18.6452 1111.28 -20.9732C1068.08 -61.7012 1016.88 -94.6342 962.681 -111.126C911.822 -126.604 860.428 -132.785 805.844 -134.112C772.671 -134.919 738.468 -131.88 704.389 -126.219C680.812 -122.305 658.093 -116.925 636.41 -111.096C581.853 -96.4286 535.163 -71.0323 492.212 -38.5946C483.612 -32.0936 475.067 -25.3321 466.811 -18.0934C390.437 48.9134 290.145 49.3575 199.048 19.9542C107.95 -9.44912 38.8773 -58.8641 -53.8141 -72.0395C-117.051 -80.983 -180.972 -76.7874 -244.83 -73.2355"
    stroke="white"
    stroke-miterlimit="10"
  />
<path
    d="M1597.72 166.413C1579.15 183.019 1544.74 176.573 1521.92 178.696C1456.57 184.631 1385.05 191.81 1321.42 169.966C1311.29 166.496 1302 162.128 1293.25 157.178C1262.78 139.95 1240.7 113.552 1216.4 86.6589C1186 53.0084 1154.98 19.1942 1122.55 -12.0106C1120.11 -14.3608 1117.67 -16.6886 1115.19 -18.994C1072.02 -59.3261 1021.81 -92.8946 967.703 -111.013C917.14 -127.947 865.18 -136.608 810.653 -139.2C777.408 -140.776 743.336 -138.562 709.463 -133.181C686.023 -129.458 663.507 -123.975 642.035 -117.589C587.86 -101.484 541.32 -73.7575 498.971 -39.1556C490.492 -32.2353 482.124 -25.0427 474.012 -17.4522C398.874 52.9678 299.694 50.5735 208.6 19.5539C120.043 -10.6064 44.9168 -62.4494 -49.8492 -76.3894C-114.484 -85.8541 -179.807 -81.7389 -245.024 -78.1201"
    stroke="white"
    stroke-miterlimit="10"
  />
<path
    d="M1600.9 170.736C1582.54 187.288 1547.87 180.195 1525.14 181.98C1459.9 186.989 1388.41 193.603 1325.29 171.199C1315.22 167.593 1305.98 163.148 1297.34 158.051C1267.29 140.443 1245.42 114.001 1221.03 87.3561C1190.52 54.0211 1159.06 20.8923 1126.48 -10.0764C1124.04 -12.404 1121.59 -14.7092 1119.12 -16.992C1075.97 -56.9396 1026.76 -91.132 972.748 -110.877C922.469 -129.255 869.954 -140.397 815.484 -144.255C782.177 -146.611 748.227 -145.209 714.548 -140.109C691.246 -136.577 668.932 -130.979 647.67 -124.049C593.879 -106.504 547.408 -76.5285 505.729 -39.6826C497.371 -32.3543 489.169 -24.7195 481.223 -16.7658C407.344 57.0677 309.287 51.8465 218.151 19.1989C127.962 -13.1011 50.956 -66.0007 -45.8849 -80.6828C-111.929 -90.6801 -178.643 -86.6339 -245.206 -82.9481"
    stroke="white"
    stroke-miterlimit="10"
  />
<path
    d="M1604.09 175.049C1585.94 191.557 1551.01 183.806 1528.36 185.242C1463.23 189.325 1391.72 195.509 1329.16 172.398C1319.13 168.68 1309.98 164.11 1301.44 158.879C1271.85 140.834 1250.16 114.405 1225.68 88.0081C1195.06 54.9886 1163.15 22.5567 1130.41 -8.19868C1127.96 -10.4925 1125.5 -12.7752 1123.04 -15.0466C1079.92 -54.5984 1031.69 -89.415 977.781 -110.798C927.787 -130.632 874.729 -144.333 820.315 -149.377C786.948 -152.559 753.117 -151.924 719.645 -147.105C696.48 -143.775 674.38 -138.028 653.328 -130.577C599.953 -111.525 553.632 -79.2418 512.522 -40.2772C504.296 -32.5069 496.282 -24.4521 488.458 -16.1583C415.972 61.2029 318.948 53.0409 227.736 18.7764C135.949 -15.7081 57.0404 -69.6082 -41.8978 -85.0551C-109.34 -95.5736 -177.456 -91.6078 -245.377 -87.8664"
    stroke="white"
    stroke-miterlimit="10"
  />
<path
    d="M1607.27 179.372C1589.33 195.826 1554.14 187.429 1531.58 188.515C1466.57 191.672 1395.04 197.415 1333.03 173.62C1288.62 156.583 1262 122.424 1230.32 88.7054C1199.58 55.9901 1167.24 24.255 1134.34 -6.27577C1089.26 -48.0944 1039.69 -86.3365 982.814 -110.674C902.52 -145.032 812.104 -165.964 724.719 -154.044C631.41 -141.319 556.734 -84.5037 495.67 -15.4944C424.32 65.1435 328.621 54.2921 237.288 18.3988C143.937 -18.2925 63.0797 -73.1709 -37.9331 -89.3824C-106.785 -100.433 -176.292 -96.5367 -245.56 -92.7282"
    stroke="white"
    stroke-miterlimit="10"
  />
<path
    d="M1611.4 171.837C1593.61 188.19 1558.99 180.318 1536.65 181.677C1472.42 185.474 1401.7 191.666 1340.17 168.914C1296.16 152.604 1269.46 119.541 1237.82 86.8061C1207.07 55.0514 1175.04 23.8278 1141.93 -5.72147C1119.39 -25.8397 1096.21 -45.9974 1071.15 -63.2108C1044.48 -81.6593 1015.55 -97.3702 985.506 -109.395C909.734 -139.723 828.038 -156.53 745.634 -148.759C740.063 -148.233 734.491 -147.593 728.93 -146.841C692.209 -141.858 658.227 -130.668 626.941 -114.798C578.552 -90.3773 536.33 -54.8248 498.874 -14.6292C466.797 20.0311 429.923 37.061 390.62 42.4046C342.13 49.022 290.192 37.829 239.849 19.1226C174.972 -4.98144 116.362 -37.8454 52.4354 -60.7316C25.1014 -70.5393 -3.22091 -78.6267 -33.3376 -83.4183C-101.75 -94.3185 -170.956 -91.1312 -239.531 -87.6782"
    stroke="white"
    stroke-miterlimit="10"
  />
<path
    d="M1615.53 164.312C1597.88 180.554 1563.85 173.218 1541.72 174.839C1478.28 179.265 1408.36 185.916 1347.32 164.22C1303.71 148.637 1276.92 116.68 1245.31 84.9293C1214.56 54.1353 1182.81 23.4454 1149.53 -5.15589C1126.15 -25.2477 1102.51 -46.1556 1076.57 -63.3316C1049.12 -81.5046 1018.83 -96.6851 988.221 -108.105C911.89 -136.595 832.536 -149.809 749.902 -141.577C744.32 -141.028 738.748 -140.378 733.176 -139.625C696.444 -134.665 662.32 -124.053 630.951 -109.076C582.403 -85.9007 539.838 -52.4197 502.113 -13.7637C469.732 19.4132 432.841 35.81 393.267 41.0833C344.609 47.5975 292.606 37.4099 242.422 19.8578C178.051 -2.67061 120.07 -33.777 56.5293 -55.5294C29.3947 -64.872 1.21718 -72.7093 -28.7417 -77.4431C-96.7251 -88.2037 -165.608 -85.703 -233.49 -82.6167"
    stroke="white"
    stroke-miterlimit="10"
  />
<path
    d="M1619.66 156.776C1602.16 172.918 1568.71 166.163 1546.78 167.99C1484.13 173.225 1415.01 180.154 1354.45 159.503C1311.25 144.658 1284.36 113.786 1252.81 83.0186C1222.04 53.1853 1190.55 23.0515 1157.13 -4.61295C1132.9 -24.6785 1108.84 -46.3813 1081.99 -63.4751C1053.79 -81.4287 1022.12 -96.0113 990.925 -106.848C914.057 -133.524 837.035 -143.123 754.148 -134.43C748.565 -133.847 742.982 -133.196 737.398 -132.444C700.644 -127.507 666.379 -117.506 634.95 -103.4C586.222 -81.5261 543.414 -49.9801 505.33 -12.9323C472.702 18.8069 435.738 34.5249 395.904 39.7281C347.089 46.1391 295.008 36.9567 244.995 20.5478C181.13 -0.404998 123.767 -29.7539 60.6234 -50.3837C33.6883 -59.2498 5.65573 -66.8485 -24.134 -71.5242C-91.6774 -82.1453 -160.249 -80.3425 -227.437 -77.6117"
    stroke="white"
    stroke-miterlimit="10"
  />
<path
    d="M1623.79 149.252C1606.45 165.282 1573.56 159.086 1551.86 161.152C1489.99 167.072 1421.66 174.405 1361.6 154.797C1318.8 140.68 1291.82 110.914 1260.3 81.1305C1229.53 52.2579 1198.25 22.6912 1164.73 -4.05867C1139.62 -24.0981 1115.17 -46.607 1087.4 -63.6074C1059.62 -80.6078 1025.4 -95.3375 993.617 -105.57C916.246 -130.453 841.511 -136.414 758.382 -127.259C752.8 -126.654 747.205 -125.981 741.61 -125.24C704.845 -120.326 670.415 -110.926 638.937 -97.6903C590.017 -77.1178 546.978 -47.5179 508.535 -12.0784C475.671 18.2345 438.623 33.2736 398.529 38.3953C349.545 44.7031 297.422 36.5263 247.556 21.2603C184.221 1.87202 127.452 -25.697 64.7062 -45.2043C37.9705 -53.6051 10.0826 -60.9538 -19.5493 -65.5716C-86.6642 -76.0419 -154.924 -74.9484 -221.419 -72.5731"
    stroke="white"
    stroke-miterlimit="10"
  />
<path
    d="M1627.92 141.716C1610.73 157.634 1578.42 151.986 1556.93 154.314C1495.86 160.909 1428.32 168.655 1368.76 150.092C1326.37 136.701 1299.35 107.964 1267.81 79.2313C1236.26 50.4986 1205.94 22.3533 1172.34 -3.50431C1146.35 -23.5065 1121.52 -46.8212 1092.83 -63.7394C1063.13 -81.2431 1028.72 -94.6748 996.332 -104.291C918.459 -127.404 846.021 -129.693 762.639 -120.089C757.045 -119.45 751.451 -118.777 745.855 -118.024C709.068 -113.133 674.496 -104.345 642.947 -91.969C593.846 -72.6979 550.576 -45.0555 511.774 -11.2016C478.674 17.6737 441.53 32.0338 401.177 37.0854C352.035 43.29 299.846 36.1185 250.129 22.0068C187.322 4.18308 131.16 -21.6173 68.7998 -40.0021C42.2636 -47.9377 14.5206 -55.0365 -14.9422 -59.5849C-81.6172 -69.9157 -149.565 -69.5088 -215.367 -67.5003"
    stroke="white"
    stroke-miterlimit="10"
  />
<path
    d="M1632.05 134.191C1615 150.009 1583.28 144.909 1562 147.476C1501.72 154.756 1434.93 163.04 1375.91 145.386C1333.89 132.824 1306.82 105.07 1275.31 77.3433C1244.59 50.3135 1213.6 22.0492 1179.94 -2.94995C1153.05 -22.915 1127.88 -47.0467 1098.26 -63.8828C1067.82 -81.1783 1032.04 -94.0233 999.047 -103.023C920.706 -124.388 850.532 -122.996 766.897 -112.941C761.302 -112.279 755.696 -111.584 750.09 -110.843C713.291 -105.974 678.555 -97.7979 646.957 -86.2928C597.653 -68.3347 554.174 -42.627 515.002 -10.3701C481.666 17.0789 444.437 30.7488 403.825 35.7302C354.515 41.8316 302.294 35.6545 252.713 22.6968C190.447 6.43779 134.833 -17.4474 72.9053 -34.845C46.5566 -42.2477 18.9703 -49.1642 -10.3346 -53.6548C-76.581 -63.846 -144.206 -64.137 -209.314 -62.484"
    stroke="white"
    stroke-miterlimit="10"
  />
<path
    d="M1636.18 126.656C1619.29 142.362 1588.13 137.809 1567.07 140.627C1507.58 148.581 1441.58 157.301 1383.04 140.68C1341.43 128.857 1314.28 102.175 1282.8 75.4439C1251.32 48.7124 1221.22 21.7446 1187.53 -2.39575C1159.73 -22.3237 1134.21 -47.2724 1103.66 -64.0151C1072.48 -81.0912 1035.34 -93.372 1001.73 -101.744C922.919 -121.384 854.997 -116.287 771.131 -105.771C765.525 -105.087 759.919 -104.38 754.302 -103.639C717.48 -98.7932 682.592 -91.2285 650.945 -80.583C601.449 -63.9264 557.761 -40.1646 518.219 -9.51607C484.658 16.4955 447.334 29.4976 406.462 34.3975C356.994 40.4071 304.73 35.2017 255.287 23.4207C193.561 8.70376 138.53 -13.3678 76.9882 -29.6655C50.8388 -36.5917 23.3976 -43.2696 -5.74941 -47.7022C-71.5559 -57.7425 -138.881 -58.7316 -203.296 -57.4453"
    stroke="white"
    stroke-miterlimit="10"
  />
<path
    d="M1640.32 119.131C1623.58 134.737 1593 130.732 1572.15 133.8C1513.45 142.44 1448.25 151.586 1390.2 135.986C1348.98 124.912 1321.76 99.3038 1290.3 73.5672C1258.85 47.8305 1228.82 21.4851 1195.14 -1.8301C1166.41 -21.7099 1140.57 -47.4866 1109.09 -64.1359C1077.18 -81.0039 1038.67 -92.7204 1004.44 -100.465C925.188 -118.391 859.507 -109.566 775.388 -98.6008C769.782 -97.8826 764.165 -97.1644 758.536 -96.4351C721.703 -91.6119 686.651 -84.6703 654.955 -74.8729C605.256 -59.5293 561.37 -37.7021 521.446 -8.65071C487.672 15.9235 450.241 28.2464 409.098 33.0649C359.461 38.9712 307.178 34.7602 257.848 24.1332C196.685 10.9585 142.215 -9.29957 81.0706 -24.4861C55.1206 -30.9358 27.8242 -37.3636 -1.15359 -41.7495C-66.5315 -51.6504 -133.533 -53.3373 -197.255 -52.4065"
    stroke="white"
    stroke-miterlimit="10"
  />
<path
    d="M1644.45 111.595C1627.86 127.089 1597.86 123.633 1577.22 126.951C1519.32 136.264 1454.91 145.836 1397.35 131.269C1356.53 120.933 1329.22 96.3981 1297.81 71.6566C1267.09 47.4637 1236.41 21.2142 1202.75 -1.28704C1173.08 -21.1188 1146.93 -47.7346 1114.51 -64.2794C1081.87 -80.9391 1042.01 -92.0915 1007.15 -99.1976C927.458 -115.444 864.006 -102.868 779.634 -91.4419C774.028 -90.701 768.399 -89.9717 762.758 -89.2312C725.904 -84.4307 690.687 -78.101 658.942 -69.1744C609.04 -55.1437 564.968 -35.2623 524.652 -7.80811C490.664 15.34 453.126 26.9725 411.724 31.7208C361.929 37.524 309.614 34.2961 260.41 24.8457C199.81 13.2132 145.901 -5.23134 85.1535 -19.3179C59.4028 -25.2911 32.2513 -31.4803 3.43128 -35.7969C-61.5068 -45.5469 -128.196 -47.9432 -191.225 -47.3678"
    stroke="white"
    stroke-miterlimit="10"
  />
<path
    d="M1648.57 104.071C1632.13 119.464 1602.72 116.544 1582.3 120.113C1525.19 130.089 1461.56 140.108 1404.5 126.564C1364.09 116.977 1336.7 93.504 1305.31 69.7686C1274.59 46.5252 1244 20.9885 1210.35 -0.732666C1179.74 -20.5051 1153.29 -47.9714 1119.94 -64.4114C1086.57 -80.863 1045.35 -91.4624 1009.86 -97.9186C929.74 -112.507 868.504 -96.1593 783.891 -84.2715C778.273 -83.4969 772.644 -82.7563 767.004 -82.027C730.138 -77.2493 694.757 -71.5427 662.963 -63.4642C612.858 -50.7465 568.611 -32.7994 527.902 -6.94251C493.701 14.7682 456.044 25.7328 414.394 30.3997C364.431 36.0996 312.107 33.8437 263.016 25.5699C202.98 15.457 149.631 -1.15142 89.2809 -14.1267C63.7296 -19.6234 36.7231 -25.5739 8.07224 -29.8325C-56.4372 -39.443 -122.815 -42.526 -185.15 -42.3173"
    stroke="white"
    stroke-miterlimit="10"
  />
<path
    d="M1652.7 96.535C1636.42 111.817 1607.58 109.444 1587.36 113.264C1531.04 123.903 1468.2 134.37 1411.64 121.847C1371.63 112.999 1344.14 90.6096 1312.8 67.8579C1282.07 45.5639 1251.53 20.7623 1217.94 -0.20108C1186.36 -19.8918 1159.63 -48.2309 1125.35 -64.5663C1091.25 -80.8209 1048.68 -90.856 1012.56 -96.6623C932.033 -109.604 873.003 -89.4615 788.137 -77.1239C782.519 -76.3266 776.878 -75.5748 771.227 -74.8456C734.338 -70.0907 698.793 -64.996 666.962 -57.7768C616.654 -46.3721 572.232 -30.3594 531.118 -6.11107C496.715 14.1737 458.94 24.4477 417.019 29.0444C366.899 34.6412 314.555 33.3571 265.567 26.271C206.116 17.6667 153.317 2.89424 93.3526 -8.9699C68.0006 -13.9901 41.1389 -19.702 12.6459 -23.9026C-51.4235 -33.3735 -117.49 -37.1544 -179.132 -37.3013"
    stroke="white"
    stroke-miterlimit="10"
  />
<path
    d="M1656.83 89.0104C1640.7 104.181 1612.43 102.356 1592.43 106.437C1536.91 117.75 1474.86 128.642 1418.79 117.164C1379.17 109.054 1351.6 87.7378 1320.3 65.9925C1289.58 44.648 1259.07 20.5927 1225.55 0.387214C1192.03 -19.8182 1166 -48.4336 1130.77 -64.6645C1095.93 -80.7223 1052.01 -90.2157 1015.27 -95.3608C934.326 -106.69 877.502 -82.7298 792.394 -69.9309C786.776 -69.0997 781.124 -68.3367 775.461 -67.6077C738.561 -62.8755 702.841 -58.404 670.961 -52.0443C620.438 -41.9526 575.864 -27.8627 534.335 -5.22316C499.741 13.6357 461.836 23.2191 419.656 27.7456C369.366 33.2392 317.025 32.9159 268.139 27.0175C209.275 19.9217 157.013 6.99649 97.4463 -3.75641C72.2937 -8.30006 45.5769 -13.7733 17.2531 -17.9159C-46.3765 -27.2359 -112.131 -31.7261 -173.08 -32.2284"
    stroke="white"
    stroke-miterlimit="10"
  />
<path
    d="M1660.96 81.4746C1644.98 96.5447 1617.29 95.2561 1597.5 99.5882C1542.78 111.552 1481.52 122.893 1425.93 112.447C1386.73 105.075 1359.06 84.8435 1327.8 64.0818C1297.06 43.6753 1266.59 20.4003 1233.15 0.918868C1199.7 -18.5625 1172.35 -48.6931 1136.19 -64.8193C1100.63 -80.6802 1055.35 -89.6318 1017.97 -94.1045C936.619 -103.832 881.989 -76.0434 796.64 -62.7946C791.01 -61.9409 785.358 -61.1666 779.684 -60.4377C742.762 -55.7283 706.877 -51.8799 674.96 -46.3682C624.223 -37.6009 579.507 -25.4338 537.563 -4.40298C502.778 13.0413 464.744 21.9341 422.304 26.3792C371.857 31.7809 319.507 32.3957 270.724 27.7075C212.446 22.0977 160.733 11.0311 101.552 1.38934C76.5986 -2.6778 50.0267 -7.91237 21.8606 -11.9858C-41.3403 -21.1663 -106.783 -26.3432 -167.027 -27.2121"
    stroke="white"
    stroke-miterlimit="10"
  />
<path
    d="M1665.09 73.9501C1649.26 88.9085 1622.15 88.1677 1602.58 92.7503C1548.65 105.377 1488.19 117.154 1433.08 107.741C1394.28 101.108 1366.53 81.9492 1335.29 62.1938C1304.55 42.7367 1274.09 20.2416 1240.74 1.48445C1206.22 -17.9275 1178.71 -48.9298 1141.61 -64.9401C1105.32 -80.6041 1058.7 -89.0253 1020.68 -92.8143C938.924 -100.963 886.488 -69.323 800.886 -55.613C795.255 -54.7254 789.592 -53.9399 783.907 -53.2224C746.974 -48.5357 710.914 -45.3105 678.958 -40.647C628.018 -33.2152 583.15 -22.9483 540.779 -3.52635C505.815 12.5035 467.64 20.6942 424.929 25.069C374.313 30.3675 321.978 31.9319 273.274 28.4426C215.593 24.3188 164.418 15.1219 105.623 6.59135C80.8805 3.00082 54.4421 -1.99519 26.4453 -6.01055C-36.3158 -15.0515 -101.447 -20.9263 -161.009 -22.1509"
    stroke="white"
    stroke-miterlimit="10"
  />
<path
    d="M1669.22 66.4143C1653.54 81.2723 1627.01 81.0679 1607.64 85.901C1554.51 99.1793 1494.84 111.404 1440.23 103.024C1401.84 97.1297 1373.99 79.0549 1342.8 60.2832C1312.05 41.7754 1281.6 20.083 1248.35 2.01621C1212.82 -17.2805 1185.07 -49.2004 1147.03 -65.0949C1108.99 -80.9893 1062.05 -88.464 1023.38 -91.558C941.24 -98.1395 890.976 -62.6253 805.132 -48.4654C799.501 -47.5552 793.826 -46.7585 788.141 -46.041C751.197 -41.377 714.961 -38.7863 682.969 -34.9708C631.803 -28.8635 586.805 -20.4967 544.018 -2.69475C508.874 11.9206 470.559 19.4093 427.588 23.714C376.815 28.9093 324.483 31.4005 275.869 29.144C218.798 26.4838 168.137 19.1679 109.74 11.7485C85.1965 8.6345 58.9031 3.87716 31.064 -0.0802668C-31.2685 -8.97043 -96.0764 -15.5545 -154.945 -17.1458"
    stroke="white"
    stroke-miterlimit="10"
  />
<path
    d="M1673.35 58.8897C1657.82 73.6361 1631.88 73.9682 1612.71 79.0745C1560.37 93.0041 1501.49 105.677 1447.37 98.3412C1409.38 93.185 1381.44 76.183 1350.29 58.4178C1319.53 40.8706 1289.08 19.9806 1255.94 2.6043C1219.39 -16.5546 1191.41 -49.4147 1152.44 -65.2045C1113.46 -80.9944 1065.38 -87.8576 1026.07 -90.2566C943.534 -95.3044 895.463 -55.8937 809.366 -41.2726C803.724 -40.3399 798.048 -39.5206 792.352 -38.8032C755.385 -34.162 718.986 -32.2058 686.944 -29.2271C635.564 -24.4555 590.447 -17.9773 547.212 -1.80704C511.899 11.4053 473.42 18.1917 430.201 22.415C379.26 27.5071 326.764 34.3259 278.419 29.8903C222.173 24.7283 171.822 23.2587 113.811 16.9618C89.4667 14.313 63.3181 9.80561 35.6483 5.90622C-26.2443 -2.84436 -90.752 -10.1151 -148.916 -12.0731"
    stroke="white"
    stroke-miterlimit="10"
  />
<path
    d="M1677.48 51.3539C1662.1 65.9999 1636.74 66.8684 1617.78 72.2253C1566.24 86.795 1508.15 99.9271 1454.52 93.6243C1416.94 89.2064 1388.9 73.2887 1357.79 56.507C1327.02 39.9093 1296.55 19.8443 1263.54 3.13594C1225.97 -15.8739 1197.77 -49.6853 1157.84 -65.3594C1119.39 -80.4551 1068.72 -87.3077 1028.76 -89.0117C945.839 -92.5371 899.95 -49.2186 813.612 -34.1363C807.969 -33.1697 802.283 -32.3505 796.575 -31.6332C759.597 -27.0147 723.023 -25.6931 690.943 -23.5511C639.349 -20.1151 594.102 -15.5144 550.429 -0.975667C514.948 10.8336 476.317 16.9065 432.827 21.0596C381.728 26.0486 329.313 33.874 280.97 30.5914C225.243 26.8016 175.508 27.3043 117.882 22.1185C93.7377 19.9463 67.7342 15.6775 40.2221 11.8474C-21.2419 3.23628 -85.4267 -4.73238 -142.909 -7.04592"
    stroke="white"
    stroke-miterlimit="10"
  />
<path
    d="M1681.61 43.8294C1666.38 58.3638 1641.58 59.7686 1622.86 65.3874C1572.11 80.6086 1514.82 94.1886 1461.67 88.9187C1424.49 85.2391 1396.35 70.4057 1365.29 54.6191C1334.51 38.9706 1304.03 19.7533 1271.14 3.70163C1232.54 -15.1479 1204.14 -49.9332 1163.28 -65.4801C1124.1 -80.3902 1071.92 -84.0576 1031.48 -87.7214C948.477 -95.2374 904.449 -42.4869 817.869 -26.9546C812.226 -25.9654 806.528 -25.1237 800.809 -24.4178C763.809 -19.8221 727.059 -19.135 694.953 -17.841C643.145 -15.752 597.79 -13.0059 553.668 -0.121431C518.029 10.2961 479.235 15.6443 435.486 19.7272C384.229 24.6243 331.951 29.8513 283.565 31.3042C228.321 32.9668 179.238 31.3617 121.999 27.2984C98.0647 25.6027 72.2062 21.5726 44.8519 17.8004C-16.1721 9.34019 -80.0452 0.67354 -136.834 -2.00676"
    stroke="white"
    stroke-miterlimit="10"
  />
<path
    d="M1685.73 36.2936C1670.66 50.7162 1646.45 52.6575 1627.92 58.5381C1577.97 74.3994 1521.47 88.4274 1468.8 84.2017C1432.04 81.2492 1403.79 67.5111 1372.78 52.7083C1341.77 37.9056 1311.48 19.6506 1278.73 4.23319C1239.09 -14.4336 1210.48 -50.2041 1168.69 -65.635C1128.78 -80.3594 1075.31 -83.5298 1034.17 -86.4652C950.669 -92.4259 908.937 -35.8005 822.104 -19.8184C816.449 -18.7954 810.752 -17.9537 805.021 -17.2479C768.01 -12.6749 731.085 -12.6223 698.93 -12.1652C646.896 -11.4232 601.433 -10.5318 556.862 0.709741C521.055 9.73554 482.109 14.3703 438.101 18.3604C386.675 23.1543 334.423 29.2744 286.116 31.994C231.493 35.0637 182.913 35.3959 126.07 32.4438C102.336 31.2133 76.6223 27.4332 49.4259 23.7189C-11.1696 15.3982 -74.7309 6.03361 -130.815 2.99795"
    stroke="white"
    stroke-miterlimit="10"
  />
<path
    d="M1689.86 28.769C1674.94 43.0913 1651.31 45.5691 1632.99 51.7116C1583.83 68.2016 1528.14 82.7002 1475.96 79.5075C1439.6 77.2932 1411.26 64.6394 1380.28 50.8316C1349.31 37.0239 1318.94 19.6046 1286.34 4.81015C1245.65 -13.6512 1216.85 -50.4408 1174.1 -65.7446C1133.48 -80.2834 1078.71 -82.9794 1036.89 -85.1636C952.883 -89.5577 913.446 -29.0687 826.36 -12.6254C820.706 -11.5799 814.997 -10.7156 809.266 -10.0098C772.232 -5.45966 735.125 -5.32958 702.951 -6.42112C650.724 -8.21272 605.132 -7.97804 560.112 1.59796C524.148 9.2547 485.039 13.1419 440.759 17.0618C389.176 21.7526 336.939 28.7545 288.7 32.7406C234.686 37.206 186.632 39.4757 130.175 37.6574C106.64 36.8921 81.0713 33.362 54.0441 29.7057C-6.1114 21.5246 -69.361 11.462 -124.763 8.07078"
    stroke="white"
    stroke-miterlimit="10"
  />
<path
    d="M1693.99 21.2445C1679.21 35.4551 1656.17 38.4693 1638.06 44.8737C1589.7 61.9925 1534.8 76.9503 1483.11 74.8132C1447.16 73.326 1418.71 61.7676 1387.79 48.9437C1356.87 36.1198 1326.4 19.5473 1293.95 5.36453C1252.21 -12.8689 1223.23 -50.7 1179.54 -65.8767C1138.19 -80.241 1082.11 -85.0964 1039.6 -83.8959C955.084 -81.4903 917.945 -22.3596 830.618 -5.46642C824.963 -4.38693 819.242 -3.52277 813.5 -2.81706C776.456 1.71038 739.18 0.471295 706.961 -0.733673C654.499 -2.69694 608.82 -5.46958 563.34 2.44076C527.218 8.71714 487.935 11.8681 443.407 15.718C391.655 20.3055 339.444 28.1666 291.284 33.4532C237.892 39.3032 190.346 44.1545 134.281 42.8258C110.959 42.2772 85.521 39.2455 58.6515 35.6585C-1.07546 27.6282 -64.002 16.8677 -118.711 13.1097"
    stroke="white"
    stroke-miterlimit="10"
  />
<path
    d="M1698.12 13.7086C1683.5 27.8189 1661.02 31.3469 1643.14 38.0245C1595.56 55.772 1541.47 71.1893 1490.25 70.0962C1454.71 69.3362 1426.16 58.8845 1395.29 47.0443C1364.44 35.2157 1333.84 19.5011 1301.54 5.91878C1258.74 -12.0756 1229.59 -50.9594 1184.96 -66.0088C1142.89 -80.1875 1085.46 -84.569 1042.3 -82.617C957.391 -78.7682 922.444 -15.6505 834.875 1.70393C829.208 2.80592 823.488 3.69266 817.734 4.38697C780.667 8.89161 743.228 7.00678 710.96 4.97626C658.272 1.65463 612.497 -2.92735 566.556 3.30604C530.277 8.22466 490.831 10.6282 446.044 14.3966C394.135 18.881 341.927 27.6012 293.857 34.1771C241.075 41.4002 194.06 47.5787 138.375 48.0053C115.25 48.1819 89.9594 45.1403 63.2591 41.6113C3.97202 33.7205 -58.6542 22.262 -112.658 18.1486"
    stroke="white"
    stroke-miterlimit="10"
  />
<path
    d="M1702.25 6.18414C1687.78 20.1827 1665.88 24.2471 1648.21 31.1866C1601.41 49.5629 1548.12 65.4394 1497.4 65.3907C1462.26 65.3576 1433.61 56.0014 1402.78 45.145C1371.93 34.277 1341.29 19.455 1309.14 6.46177C1265.27 -11.2709 1235.95 -51.2413 1190.36 -66.1523C1147.57 -80.1567 1088.79 -84.0643 1045 -81.3495C959.674 -76.0689 926.931 -8.95278 839.109 8.86279C833.442 9.99868 827.71 10.8853 821.946 11.5795C784.868 16.0615 747.253 13.5308 714.947 10.6748C662.045 5.99495 616.161 -0.385164 569.772 4.14876C533.336 7.70962 493.727 9.35442 448.669 13.0526C396.591 17.4337 344.41 26.9906 296.407 34.8895C244.235 43.4745 197.745 51.6244 142.446 53.1847C119.52 53.8265 94.3746 51.0349 67.8321 47.5638C8.9736 39.8238 -53.3294 27.6561 -106.651 23.1872"
    stroke="white"
    stroke-miterlimit="10"
  />
<path
    d="M1706.38 -1.3517C1692.06 12.5465 1670.74 17.1361 1653.27 24.3487C1607.27 43.3425 1554.78 59.6783 1504.53 60.6849C1469.81 61.3789 1441.05 53.1294 1410.27 43.2569C1379.4 33.3495 1348.73 19.4427 1316.74 7.02733C1271.8 -10.4211 1242.31 -51.4894 1195.78 -66.2732C1152.28 -80.1032 1092.13 -83.537 1047.7 -80.0593C961.968 -73.3582 931.419 -2.22119 843.355 16.0443C837.688 17.2028 831.944 18.112 826.168 18.8061C789.068 23.2765 751.289 20.0888 718.945 16.3961C665.83 10.3466 619.838 2.17969 572.989 5.02535C536.395 7.23976 496.622 8.11449 451.305 11.7425C399.069 16.0318 346.892 26.4025 298.979 35.6247C247.406 45.5487 201.453 55.6928 146.539 58.3756C123.825 59.4827 98.8124 56.9522 72.4392 53.5279C14.0206 45.9275 -47.9707 33.0731 -100.599 28.2374"
    stroke="white"
    stroke-miterlimit="10"
  />
<path
    d="M1710.51 -8.87619C1696.34 4.9104 1675.59 10.0249 1658.35 17.5108C1613.13 37.122 1561.44 53.9284 1511.69 55.9794C1477.38 57.4005 1448.51 50.2577 1417.78 41.3576C1386.89 32.4221 1356.18 19.4305 1324.35 7.57042C1278.32 -9.57127 1248.68 -51.7712 1201.2 -66.4167C1156.97 -80.0723 1095.47 -83.0436 1050.4 -78.7916C964.253 -70.6815 935.918 4.47663 847.601 23.192C841.923 24.373 836.179 25.2934 830.403 25.9875C793.291 30.4353 755.338 26.5904 722.956 22.0836C669.626 14.6645 623.514 4.73329 576.228 5.85699C539.477 6.73624 499.542 6.84091 453.965 10.3875C401.561 14.5735 349.399 25.7695 301.575 36.3262C250.601 47.5781 205.184 59.7276 150.657 63.5441C128.141 65.1164 103.274 62.8359 77.0585 59.4808C19.0685 52.0199 -42.6112 38.4675 -94.5353 33.2764"
    stroke="white"
    stroke-miterlimit="10"
  />
<path
    d="M1714.64 -16.412C1700.62 -2.73712 1680.45 2.91391 1663.42 10.6616C1618.98 30.8902 1568.11 48.1561 1518.84 51.2738C1484.93 53.4219 1455.96 47.386 1425.28 39.4696C1394.36 31.4946 1363.62 19.4409 1331.94 8.13601C1284.84 -8.67628 1255.04 -52.0305 1206.62 -66.5488C1161.68 -80.03 1098.8 -82.5389 1053.11 -77.524C966.536 -68.0161 940.405 11.1743 851.847 30.3509C846.168 31.5659 840.413 32.4975 834.626 33.1802C797.492 37.6051 759.374 33.1032 726.943 27.7821C673.411 18.9936 627.152 5.2746 579.433 6.71089C542.533 7.82617 502.415 5.5782 456.579 9.05462C404.017 13.1375 351.848 25.1359 304.114 37.0385C253.739 49.6069 208.858 63.7618 154.716 68.7121C132.401 70.7496 107.678 68.719 81.6206 65.4219C24.0705 58.1119 -37.2974 43.8502 -88.5282 38.3037"
    stroke="white"
    stroke-miterlimit="10"
  />
<path
    d="M1718.77 -23.9365C1704.9 -10.362 1685.29 -4.19722 1668.49 3.82379C1624.84 24.6584 1574.77 42.3949 1525.99 46.5683C1492.49 49.4321 1463.41 44.5141 1432.78 37.5703C1401.86 30.5673 1371.06 19.4399 1339.55 8.67908C1291.36 -7.7813 1261.41 -52.3011 1212.06 -66.6922C1166.38 -79.999 1102.14 -82.0568 1055.82 -76.2563C968.832 -65.3506 944.915 17.8723 856.115 37.5101C850.425 38.7475 844.67 39.6905 838.871 40.3731C801.726 44.7753 763.433 39.6163 730.965 33.4697C677.219 23.3003 630.855 9.86293 582.673 7.54251C545.594 5.76266 505.334 4.2933 459.238 7.69957C406.507 11.6792 354.343 24.4575 306.71 37.74C256.911 51.6134 212.578 67.7851 158.833 73.8806C136.717 76.3833 112.139 74.6027 86.2506 71.3636C29.1291 64.193 -31.9159 49.2448 -82.4647 43.3314"
    stroke="white"
    stroke-miterlimit="10"
  />
<path
    d="M1722.91 -31.4722C1709.19 -18.0094 1690.16 -11.3196 1673.56 -3.01409C1630.69 18.4266 1581.44 36.6339 1533.13 41.8627C1500.03 45.4422 1470.86 41.6423 1440.28 35.6822C1409.33 29.6511 1378.51 19.4729 1347.15 9.24466C1297.87 -6.84121 1267.77 -52.5604 1217.46 -66.8131C1171.06 -79.9456 1105.47 -81.5635 1058.51 -74.9662C971.093 -62.6854 949.403 24.6039 860.349 44.6916C854.659 45.9629 848.892 46.917 843.083 47.5995C805.915 51.9789 767.459 46.1629 734.952 39.2021C681.003 27.652 634.508 12.4841 585.889 8.43042C548.641 5.32661 508.23 3.076 461.874 6.40082C408.986 10.2773 356.792 23.8353 309.283 38.4865C260.06 53.6536 216.286 71.8536 162.927 79.0828C141.022 82.0508 116.577 80.52 90.8466 77.3389C34.1651 70.3079 -26.5796 54.6616 -76.4238 48.3929"
    stroke="white"
    stroke-miterlimit="10"
  />
<path
    d="M1727.03 -38.9968C1713.47 -25.6343 1695.02 -18.4307 1678.64 -9.85201C1636.54 12.1947 1588.1 30.8614 1540.28 37.157C1507.59 41.4636 1478.3 38.7817 1447.77 33.7828C1416.81 28.7236 1385.95 19.4945 1354.75 9.78758C1304.38 -5.88987 1274.13 -52.8537 1222.88 -66.9566C1175.77 -79.926 1108.79 -81.0929 1061.23 -73.6985C973.365 -60.0541 953.901 31.3016 864.606 51.8506C858.916 53.1445 853.138 54.1098 847.317 54.7922C810.138 59.1489 771.518 52.6758 738.95 44.9008C684.788 31.9698 638.161 15.0713 589.105 9.27307C551.677 4.85651 511.126 1.80214 464.499 5.04541C411.443 8.81866 359.23 23.1451 311.833 39.1875C263.187 55.6483 219.972 75.8765 166.998 84.2508C145.292 87.684 120.993 86.4032 95.4311 83.2914C39.1781 76.4112 -21.2436 60.067 -70.3944 53.4315"
    stroke="white"
    stroke-miterlimit="10"
  />
<path
    d="M1731.16 -46.5326C1717.75 -33.2818 1699.87 -25.5531 1683.71 -16.7012C1642.39 5.94022 1594.76 25.0889 1547.44 32.4402C1515.15 37.4625 1485.76 35.91 1455.29 31.8837C1424.81 27.8573 1393.42 19.5277 1362.37 10.3421C1310.89 -4.90446 1280.52 -53.124 1228.32 -67.0887C1180.48 -79.8837 1112.12 -80.6108 1063.94 -72.4308C975.639 -57.4227 958.412 37.9995 868.864 59.0096C863.162 60.3373 857.383 61.314 851.563 61.9851C814.361 66.319 775.577 59.1775 742.972 50.5883C688.607 36.2766 641.827 17.6587 592.345 10.116C554.736 4.38667 514.045 0.528536 467.159 3.70165C413.945 7.38306 361.691 22.4551 314.429 39.889C267.166 57.323 223.692 79.8999 171.115 89.408C149.609 93.2951 125.454 92.2756 100.05 89.2217C44.2372 82.4811 -15.8728 65.439 -64.3416 58.4479"
    stroke="white"
    stroke-miterlimit="10"
  />
<path
    d="M1735.29 -54.0571C1722.03 -40.9067 1704.71 -32.6642 1688.78 -23.539C1648.23 -0.302899 1601.41 19.3165 1554.58 27.7459C1522.71 33.484 1493.22 33.0609 1462.78 29.9956C1432.34 26.9304 1400.86 19.5833 1369.96 10.8964C1317.39 -3.89663 1286.88 -53.3946 1233.74 -67.2208C1185.18 -79.8527 1115.43 -80.1402 1066.65 -71.1519C977.888 -54.7915 962.91 44.72 873.109 66.1799C867.407 67.5302 861.617 68.5181 855.785 69.2004C818.572 73.5116 779.625 65.7131 746.97 56.3096C692.414 40.6059 645.468 20.2911 595.572 10.9927C557.783 3.95067 516.951 -0.699918 469.806 2.39175C416.423 5.96992 364.141 21.7877 317.012 40.6244C269.475 59.627 227.411 83.9458 175.22 94.6103C153.913 98.9626 129.903 98.1931 104.668 95.1972C49.2839 88.5961 -10.5143 70.856 -58.2785 63.5096"
    stroke="white"
    stroke-miterlimit="10"
  />
<path
    d="M1739.42 -61.593C1726.31 -48.5542 1709.55 -39.7868 1693.84 -30.377C1654.06 -6.54627 1608.06 13.5439 1561.72 23.0402C1530.24 29.494 1500.66 30.2002 1470.27 28.1075C1439.88 26.0147 1408.29 19.65 1377.55 11.4505C1323.87 -2.85504 1293.23 -53.6767 1239.14 -67.353C1189.87 -79.822 1118.74 -79.681 1069.34 -69.8731C980.116 -52.1605 967.386 51.4289 877.355 73.3388C871.652 74.7118 865.851 75.7221 860.008 76.393C822.773 80.6814 783.673 72.2147 750.969 62.0083C696.211 44.9125 649.099 22.9008 598.788 11.8354C560.807 3.4918 519.836 -1.97385 472.431 1.04767C418.891 4.52269 366.545 21.0859 319.562 41.3368C272.557 61.5987 231.085 87.9687 179.291 99.7784C158.184 104.596 134.318 104.076 109.242 101.138C54.2973 94.6882 -5.18916 76.2501 -52.2599 68.5256"
    stroke="white"
    stroke-miterlimit="10"
  />
<path
    d="M1743.55 -69.1175C1730.59 -56.1904 1714.4 -46.9093 1698.92 -37.2149C1659.9 -12.7896 1614.72 7.77142 1568.87 18.3346C1537.79 25.4927 1508.11 27.3397 1477.77 26.2082C1447.43 25.0766 1415.76 19.7057 1385.16 12.0049C1330.38 -1.79067 1299.6 -53.9473 1244.56 -67.4852C1194.56 -79.7911 1122.05 -79.2218 1072.04 -68.5942C982.355 -49.5408 971.885 58.1379 881.601 80.509C875.887 81.9158 870.086 82.9261 864.231 83.5969C826.985 87.8626 787.721 78.7275 754.957 67.7068C700.007 49.219 652.718 25.5103 602.005 12.6894C563.821 3.03281 522.733 -3.23639 475.068 -0.28502C421.359 3.08677 368.95 20.3728 322.136 42.0493C275.321 63.7259 234.783 91.9918 183.385 104.958C162.477 110.229 138.757 109.971 113.849 107.102C59.3335 100.792 0.170099 81.6557 -46.2187 73.5757"
    stroke="white"
    stroke-miterlimit="10"
  />
<path
    d="M1747.68 -76.6533C1734.87 -63.8266 1719.25 -54.0317 1703.99 -44.064C1665.72 -19.0555 1621.38 1.97636 1576.02 13.6178C1545.35 21.4916 1515.57 24.468 1485.28 24.3089C1454.98 24.1498 1423.22 19.7841 1392.77 12.548C1336.9 -0.703556 1305.98 -54.2404 1250 -67.6286C1199.28 -79.76 1125.36 -78.7738 1074.76 -67.3265C984.606 -46.9322 976.384 64.847 885.858 87.6681C880.144 89.0974 874.331 90.1303 868.465 90.7897C831.197 95.0325 791.781 85.2293 758.967 73.4056C703.826 53.5258 656.348 28.12 605.233 13.5322C566.857 2.57407 525.64 -4.49878 477.716 -1.62886C423.849 1.63978 371.355 19.6484 324.72 42.762C278.085 65.8756 238.491 96.0151 187.491 110.126C166.782 115.852 143.206 115.855 118.457 113.044C64.3807 106.873 5.51769 87.0387 -40.1666 78.6033"
    stroke="white"
    stroke-miterlimit="10"
  />
<path
    d="M1751.81 -84.1778C1739.15 -71.4628 1724.09 -61.1543 1709.06 -50.9019C1671.55 -25.3102 1628.03 -3.7962 1583.17 8.91216C1552.9 17.4904 1523.03 21.6189 1492.77 22.4095C1461.72 23.227 1430.69 19.8512 1400.36 13.1022C1343.39 0.417265 1312.35 -54.6014 1255.42 -67.7607C1203.99 -79.8081 1128.67 -78.3259 1077.46 -66.0589C986.822 -44.3353 980.883 71.5448 890.104 94.827C884.389 96.2903 878.565 97.323 872.699 97.9937C835.42 102.214 795.84 91.7536 762.977 79.1156C707.645 57.8439 659.968 30.7521 608.461 14.3976C569.87 2.14903 528.547 -5.74989 480.353 -2.95022C426.317 0.215181 373.737 18.9464 327.281 43.4858C281.815 67.5141 242.143 99.9587 191.573 115.317C171.053 121.462 147.633 121.761 123.053 119.008C69.4053 112.988 10.8654 92.4556 -34.1255 83.6534"
    stroke="white"
    stroke-miterlimit="10"
  />
<path
    d="M1755.94 -91.7136C1743.44 -79.0989 1728.93 -68.2881 1714.13 -57.7399C1677.36 -31.5649 1634.64 -9.64816 1590.31 4.21778C1560.41 13.4663 1530.48 18.8375 1500.27 20.5328C1469.21 22.39 1438.15 19.9522 1407.96 13.6678C1349.89 1.58332 1318.71 -54.8494 1260.82 -67.893C1208.67 -79.7548 1131.96 -77.8781 1080.15 -64.7801C989.027 -41.7384 985.37 78.2539 894.338 101.997C888.612 103.483 882.788 104.538 876.91 105.198C839.62 109.395 799.911 98.1989 766.953 84.8141C711.476 62.0491 663.553 33.3727 611.666 15.2403C572.86 1.6899 531.432 -7.02378 482.978 -4.29426C428.785 -1.2207 376.096 18.2103 329.843 44.1983C283.589 70.1863 245.829 104.004 195.656 120.485C175.335 127.107 152.06 127.644 127.637 124.949C74.4298 119.068 16.2016 97.8385 -28.1073 88.6808"
    stroke="white"
    stroke-miterlimit="10"
  />
<path
    d="M1760.07 -99.2382C1747.71 -86.7352 1733.75 -75.4221 1719.2 -64.5778C1683.14 -37.8765 1641.3 -15.398 1597.45 -0.487821C1567.97 9.48774 1537.93 15.9544 1507.76 18.6334C1476.69 21.4513 1445.62 20.0418 1415.56 14.2221C1356.39 2.76072 1325.06 -55.0976 1266.24 -68.0251C1213.36 -79.7013 1135.26 -77.4416 1082.86 -63.5012C991.244 -39.1301 989.858 84.9742 898.595 109.168C892.869 110.687 887.033 111.742 881.145 112.402C843.832 116.576 803.959 104.746 770.963 90.5242C715.283 66.401 667.125 36.1062 614.893 16.1056C575.85 1.33244 534.328 -8.26371 485.625 -5.61554C431.264 -2.64521 378.467 17.4856 332.427 44.9223C287.933 71.4347 249.548 108.062 199.761 125.676C179.64 132.763 156.509 133.55 132.256 130.925C79.4881 125.195 21.5604 103.256 -22.0439 93.7424"
    stroke="white"
    stroke-miterlimit="10"
  />
<path
    d="M1764.2 -106.774C1681.06 -22.3086 1543.05 36.2664 1423.16 14.7651C1362.9 3.96076 1331.42 -55.3682 1271.65 -68.1687C1218.04 -79.6593 1138.54 -77.0166 1085.56 -62.2336C993.45 -36.5446 994.357 91.672 902.841 116.315C860.883 127.614 813.235 113.657 774.962 96.2115C677.427 51.7628 602.937 -12.9936 488.262 -6.97079C433.743 -4.10361 380.816 16.7381 334.989 45.6235C290.959 73.3834 253.234 112.096 203.844 130.833C140.662 154.804 46.6651 113.179 -16.0137 98.7585"
    stroke="white"
    stroke-miterlimit="10"
  />
</svg>
