<svg
  width="414"
  height="130"
  viewBox="0 0 414 130"
  fill="none"
  xmlns="http://www.w3.org/2000/svg"
>
<path
    d="M-438.528 32.1417C-377.777 -12.0337 -319.669 -36.9222 -243.317 -34.8421C-179.476 -33.1043 -174.16 50.9875 -142.002 89.7784C-116.058 121.072 -65.8483 124.824 -33.2428 104.365C2.52497 81.9254 20.3924 39.9684 53.0637 14.0924C83.3896 -9.92724 125.785 -47.5069 167.489 -28.1411C206.782 -9.88775 238.05 23.512 274.568 46.1954C346.433 90.8382 435.665 53.4823 500.29 13.2762C520.687 0.585063 540.452 -19.7484 565.533 -21.8285"
    stroke="white"
    stroke-miterlimit="10"
  />
<path
    d="M-440.405 29.6404C-425.634 18.8384 -410.745 9.55048 -395.908 1.34864C-355.825 -20.7621 -314.589 -33.9008 -266.56 -35.4148C-259.741 -35.6255 -252.797 -35.5925 -245.702 -35.3227C-218.835 -34.3221 -202.37 -18.7215 -189.78 1.82258C-174.061 27.4681 -164.409 60.7955 -148.439 83.2485C-147.101 85.1245 -145.724 86.9282 -144.295 88.6396C-118.363 119.709 -68.7535 123.889 -36.1744 104.319C-0.584507 82.7877 17.6387 42.1801 50.2837 17.0677C68.2697 3.2839 90.3734 -15.1801 114.012 -24.1192C130.318 -30.2804 147.342 -31.9195 164.235 -24.343C203.303 -6.8927 234.453 25.0918 270.622 46.5443C278.271 51.0929 286.105 54.7132 294.083 57.4977C360.44 80.5168 436.054 46.0375 494.716 13.5461C507.537 6.44352 520.417 -2.0677 534.312 -9.11101C544.142 -14.1137 554.452 -18.0896 565.659 -19.0046"
    stroke="white"
    stroke-miterlimit="10"
  />
<path
    d="M-442.283 27.1456C-427.631 16.3766 -412.59 7.46382 -397.799 -0.533965C-357.775 -22.1049 -316.533 -34.9935 -268.82 -36.0994C-262.028 -36.2442 -255.13 -36.1389 -248.093 -35.7966C-221.49 -34.5393 -205.131 -18.9453 -192.488 1.45396C-176.703 26.9152 -166.801 59.841 -150.738 82.1624C-149.401 84.0253 -148.024 85.8091 -146.588 87.514C-120.676 118.353 -71.5999 123.073 -39.1065 104.286C-3.63514 83.7686 14.8846 44.3984 47.5032 20.0628C65.5287 6.70682 87.5665 -11.2635 111.093 -20.0314C127.32 -26.0808 144.232 -27.7659 160.993 -20.5251C199.837 -3.87131 230.862 26.6914 266.689 46.913C274.252 51.2048 282 54.6145 289.886 57.1685C355.512 78.4499 429.775 43.1346 489.156 13.8291C502.932 7.02937 516.925 0.0847927 532.032 -6.55699C542.685 -11.2437 553.806 -15.1999 565.797 -16.1609"
    stroke="white"
    stroke-miterlimit="10"
  />
<path
    d="M-444.161 24.6442C-429.627 13.9015 -414.434 5.37056 -399.69 -2.42974C-359.732 -23.4675 -318.469 -36.0928 -271.08 -36.7971C-264.314 -36.8761 -257.455 -36.705 -250.485 -36.2837C-224.145 -34.7631 -207.892 -19.1823 -195.196 1.07217C-179.351 26.3491 -169.192 58.8668 -153.037 81.0565C-151.7 82.9062 -150.317 84.6769 -148.88 86.3686C-122.982 116.977 -74.4721 122.184 -42.038 104.227C-6.71163 84.6704 12.0716 46.5114 44.7231 23.0249C62.7553 10.0573 84.7601 -7.37322 108.168 -15.9766C124.316 -21.914 141.097 -23.6123 157.745 -16.7402C196.333 -0.810435 227.271 28.258 262.756 47.2486C270.24 51.2903 277.889 54.4697 285.69 56.8065C350.611 76.2645 423.741 40.4094 483.602 14.0858C498.386 7.58229 513.44 2.1912 529.753 -4.0293C541.229 -8.40668 553.161 -12.3365 565.942 -13.337"
    stroke="white"
    stroke-miterlimit="10"
  />
<path
    d="M-446.039 22.1494C-431.623 11.4397 -416.279 3.2839 -401.574 -4.31234C-361.676 -24.8104 -320.407 -37.2843 -273.333 -37.4817C-266.593 -37.5081 -259.781 -37.2513 -252.863 -36.7511C-226.787 -34.9738 -210.639 -19.3929 -197.897 0.70355C-181.987 25.8028 -171.577 57.9124 -155.33 79.9704C-153.986 81.8004 -152.603 83.5645 -151.173 85.243C-125.294 115.621 -77.3581 121.315 -44.9767 104.194C-9.80179 85.5985 9.29105 48.7034 41.936 26.02C60.0011 13.4671 81.9466 -3.45003 105.243 -11.8888C121.312 -17.7078 137.973 -19.4522 154.49 -12.9223C192.847 2.2307 223.713 29.772 258.809 47.6107C266.221 51.3825 273.771 54.3578 281.473 56.4708C345.702 74.1054 417.877 37.9278 478.021 14.3689C493.853 8.16815 509.922 4.32395 527.453 -1.47527C539.754 -5.54327 552.495 -9.44672 566.061 -10.4933"
    stroke="white"
    stroke-miterlimit="10"
  />
<path
    d="M-447.916 19.6481C-433.619 8.97122 -418.124 1.19066 -403.465 -6.20153C-363.625 -26.1598 -322.35 -38.3967 -275.593 -38.1663C-268.879 -38.1334 -262.113 -37.7845 -255.255 -37.225C-229.448 -35.1252 -213.399 -19.6167 -200.605 0.334931C-184.628 25.2498 -173.969 56.9579 -157.636 78.8843C-156.292 80.7011 -154.902 82.4455 -153.472 84.1174C-127.607 114.265 -80.2436 120.446 -47.9148 104.161C-12.8981 86.5266 6.5176 50.902 39.1494 29.0084C57.2474 16.8703 79.1337 0.46658 102.311 -7.80767C118.308 -13.5147 134.844 -15.2986 151.236 -9.11759C189.362 5.25867 220.123 31.3387 254.863 47.9661C262.196 51.4746 269.654 54.2393 277.263 56.1285C340.801 71.9332 412.185 35.6371 472.454 14.6454C489.38 8.74741 506.41 6.4501 525.161 1.07217C538.278 -2.69304 551.837 -6.56356 566.192 -7.65627"
    stroke="white"
    stroke-miterlimit="10"
  />
<path
    d="M-449.794 17.1533C-435.616 6.50276 -419.969 -0.896009 -405.356 -8.09072C-365.576 -27.5092 -324.287 -39.5157 -277.853 -38.8575C-271.166 -38.7653 -264.446 -38.3375 -257.64 -37.7055C-232.104 -35.3358 -216.147 -19.8471 -203.306 -0.0402774C-187.271 24.6903 -176.354 55.9903 -159.929 77.785C-158.579 79.5886 -157.195 81.3199 -155.759 82.9786C-129.913 112.896 -83.1229 119.564 -50.8403 104.115C-15.9817 87.4416 3.75681 53.0808 36.3754 31.9903C54.5064 20.2668 76.3333 4.3766 99.3989 -3.73308C115.316 -9.32823 131.734 -11.1516 148.001 -5.31289C185.897 8.28663 216.545 32.9053 250.936 48.3216C258.19 51.5734 265.562 54.1142 273.066 55.7862C335.912 69.7675 406.637 33.5372 466.894 14.9218C484.945 9.34641 502.912 8.56968 522.874 3.61303C536.815 0.157196 551.184 -3.687 566.324 -4.82578"
    stroke="white"
    stroke-miterlimit="10"
  />
<path
    d="M-451.671 14.6585C-437.612 4.0409 -421.807 -2.98267 -407.247 -9.97332C-367.526 -28.852 -326.224 -40.6216 -280.112 -39.5421C-273.452 -39.3841 -266.778 -38.8838 -260.031 -38.1795C-234.759 -35.5399 -218.907 -20.0709 -206.014 -0.408899C-189.912 24.1374 -178.745 55.0358 -162.228 76.6989C-160.878 78.4828 -159.487 80.2074 -158.051 81.853C-132.225 111.54 -86.0149 118.689 -53.7718 104.082C-19.0779 88.3632 0.989988 55.2793 33.5954 34.9854C51.7593 23.6766 73.527 8.2998 96.474 0.354677C112.312 -5.12857 128.612 -6.99143 144.753 -1.49502C182.418 11.3278 212.961 34.4785 246.997 48.6902C254.171 51.6853 261.451 54.0089 268.863 55.4571C331.024 67.6084 401.182 31.6217 461.333 15.2115C480.538 9.97176 499.414 10.7024 520.595 6.17364C535.353 3.0206 550.545 -0.790684 566.469 -1.97554"
    stroke="white"
    stroke-miterlimit="10"
  />
<path
    d="M-453.542 12.1572C-439.602 1.56586 -423.665 -5.10884 -409.131 -11.8625C-369.515 -30.287 -328.161 -41.7341 -282.366 -40.2267C-275.731 -40.0094 -269.097 -39.4302 -262.41 -38.6534C-237.407 -35.7505 -221.655 -20.2947 -208.709 -0.784111C-192.541 23.5844 -181.084 54.0352 -164.514 75.6062C-163.157 77.3703 -161.767 79.0818 -160.337 80.7208C-134.524 110.184 -88.9006 117.813 -56.6971 104.043C-22.1679 89.2847 -1.77056 57.4713 30.8217 37.9673C49.0251 27.0732 70.7269 12.2098 93.5553 4.42925C109.315 -0.93551 125.495 -2.84444 141.505 2.30968C178.94 14.3557 209.371 36.0452 243.063 49.0457C250.159 51.784 257.347 53.8904 264.666 55.1148C326.155 65.4362 395.819 29.851 455.773 15.4879C476.15 10.6037 495.909 12.822 518.309 8.72107C533.883 5.87083 549.893 2.09246 566.601 0.861522"
    stroke="white"
    stroke-miterlimit="10"
  />
<path
    d="M-455.42 9.66238C-441.598 -0.896007 -425.51 -7.19549 -411.022 -13.7517C-371.466 -31.6496 -330.098 -42.8465 -284.626 -40.9178C-278.018 -40.6348 -271.429 -39.9831 -264.802 -39.1274C-240.063 -35.9546 -224.415 -20.5185 -211.423 -1.15273C-195.196 23.0315 -183.476 53.0742 -166.827 74.5201C-165.47 76.271 -164.08 77.9693 -162.644 79.5886C-136.85 108.822 -91.8064 116.931 -59.6423 104.003C-25.2778 90.1931 -4.54451 59.6633 28.028 40.9557C46.2644 30.4829 67.9069 16.1264 90.6233 8.51044C106.303 3.25757 122.366 1.30914 138.25 6.12098C175.461 17.3837 205.773 37.6184 239.117 49.4077C246.133 51.8893 253.229 53.7719 260.45 54.7791C321.259 63.2705 390.502 28.2251 450.199 15.771C471.769 11.2685 492.397 14.9482 516.016 11.2751C532.407 8.72107 549.234 4.9822 566.732 3.70518"
    stroke="white"
    stroke-miterlimit="10"
  />
<path
    d="M-457.298 7.16101C-443.594 -3.36446 -427.354 -9.28874 -412.913 -15.6409C-373.422 -33.0056 -332.035 -43.9589 -286.885 -41.609C-280.304 -41.2667 -273.761 -40.536 -267.193 -39.6079C-242.724 -36.1652 -227.169 -20.7489 -214.131 -1.52793C-197.838 22.472 -185.861 52.1131 -169.126 73.4208C-167.762 75.1586 -166.372 76.8371 -164.936 78.4499C-139.156 107.452 -94.705 116.043 -62.5739 103.957C-28.3807 91.1015 -7.30478 61.8487 25.2479 43.9311C43.5238 33.8729 65.1004 20.0233 87.6982 12.5784C103.299 7.43748 119.243 5.44955 135.002 9.91909C171.982 20.4051 202.183 39.1785 235.177 49.75C242.115 51.9749 249.124 53.6337 256.246 54.4236C316.391 61.0785 388.091 37.0984 444.632 16.0343C467.776 16.0606 488.885 17.0546 513.723 13.8094C530.932 11.5581 548.575 7.85218 566.858 6.53567"
    stroke="white"
    stroke-miterlimit="10"
  />
<path
    d="M-459.175 4.66623C-445.59 -5.83291 -429.199 -11.382 -414.803 -17.5235C-375.372 -34.3616 -333.972 -45.0582 -289.145 -42.287C-282.589 -41.8789 -276.093 -41.0758 -269.578 -40.0753C-245.379 -36.3693 -229.923 -20.9662 -216.832 -1.88997C-200.473 21.9256 -188.245 51.1587 -171.419 72.3413C-170.055 74.0593 -168.658 75.7313 -167.222 77.3308C-141.462 106.103 -97.5971 115.167 -65.4989 103.931C-31.4836 92.023 -10.0585 64.0539 22.4745 46.9327C40.7833 37.2893 62.3007 23.9531 84.7865 16.6728C100.308 11.6503 116.14 9.6163 131.767 13.7436C168.524 23.4462 198.599 40.7648 231.251 50.1252C238.109 52.0934 245.033 53.535 252.056 54.1011C311.535 58.9129 382.649 35.9069 439.085 16.3239C463.356 17.0941 485.394 19.1873 511.45 16.37C529.483 14.4215 547.936 10.7485 567.009 9.38591"
    stroke="white"
    stroke-miterlimit="10"
  />
<path
    d="M-461.053 2.16487C-447.587 -8.30136 -431.044 -13.4752 -416.694 -19.4193C-377.329 -35.7242 -335.909 -46.1773 -291.405 -42.9847C-284.876 -42.5174 -278.426 -41.6353 -271.969 -40.5624C-248.034 -36.5865 -232.683 -21.2031 -219.54 -2.27834C-203.122 21.3595 -190.637 50.1779 -173.718 71.2354C-172.348 72.9403 -170.958 74.5991 -169.515 76.1855C-143.768 104.727 -100.503 114.265 -68.4309 103.878C-34.5935 92.9183 -12.8127 66.2393 19.6939 49.9014C38.0423 40.6793 59.4938 27.8499 81.861 20.7342C97.3039 15.8236 113.017 13.7501 128.513 17.5285C165.045 26.4478 194.995 42.3117 227.304 50.4609C234.077 52.1724 240.915 53.3902 247.84 53.739C306.66 56.7077 377.187 34.6826 433.504 16.5806C458.895 18.0946 481.875 21.2805 509.151 18.8911C528 17.2389 547.271 13.6053 567.128 12.1967"
    stroke="white"
    stroke-miterlimit="10"
  />
<path
    d="M-462.931 -0.32991C-449.589 -10.7632 -432.888 -15.5619 -418.585 -21.3019C-379.279 -37.0736 -337.845 -47.2765 -293.658 -43.6693C-287.155 -43.1361 -280.751 -42.1817 -274.348 -41.0297C-250.682 -36.7906 -235.431 -21.4138 -222.234 -2.64038C-205.75 20.8132 -193.009 49.2234 -176.011 70.1559C-174.64 71.8476 -173.244 73.4866 -171.807 75.0664C-146.08 103.378 -103.408 113.39 -71.3625 103.852C-37.7029 93.8332 -15.5729 68.451 16.9139 52.903C35.3019 44.1022 56.694 31.7797 78.9427 24.8285C94.3066 20.0299 109.908 17.9103 125.271 21.353C161.58 29.489 191.405 43.8981 223.371 50.8361C230.065 52.2909 236.818 53.2848 243.643 53.4165C301.811 54.5355 371.746 33.4977 427.95 16.8768C454.462 19.1346 478.377 23.4133 506.872 21.4583C526.538 20.1089 546.625 16.5082 567.273 15.0535"
    stroke="white"
    stroke-miterlimit="10"
  />
<path
    d="M-464.809 -2.83128C-451.586 -13.2383 -434.733 -17.6551 -420.476 -23.1911C-381.23 -38.4296 -339.789 -48.3758 -295.918 -44.3605C-289.442 -43.7681 -283.084 -42.7346 -276.739 -41.5102C-253.338 -37.0078 -238.191 -21.6442 -224.949 -3.01559C-208.406 20.2537 -195.407 48.2624 -178.317 69.0566C-176.94 70.7285 -175.543 72.361 -174.107 73.9277C-148.4 102.009 -106.327 112.495 -74.3011 103.806C-40.826 94.7285 -18.3336 70.643 14.1269 55.8783C32.5609 47.4922 53.8806 35.6831 76.0106 28.8965C91.2954 24.2164 106.778 22.0507 122.017 25.1511C158.107 32.4972 187.794 45.4648 219.431 51.185C226.046 52.383 232.72 53.377 239.433 53.0676C296.89 50.4148 366.284 32.2865 422.377 17.1467C450.015 20.1484 474.865 25.5263 504.579 23.9991C525.062 22.9459 545.966 19.3848 567.405 17.884"
    stroke="white"
    stroke-miterlimit="10"
  />
<path
    d="M-466.686 -5.32605C-453.582 -15.7001 -436.578 -19.7418 -422.36 -25.0802C-383.173 -39.7856 -341.719 -49.4817 -298.171 -45.0451C-291.721 -44.3868 -285.409 -43.2809 -279.118 -41.9842C-255.986 -37.2184 -240.932 -21.868 -227.643 -3.3842C-211.034 19.7073 -197.785 47.3013 -180.603 67.9705C-179.226 69.6293 -177.829 71.2486 -176.386 72.8021C-150.692 100.659 -109.225 111.606 -77.2195 103.773C-45.2136 95.9397 -21.0742 72.8481 11.3599 58.8734C29.8335 50.9085 51.0873 39.6063 73.1053 32.9843C88.3111 28.416 103.682 26.2043 118.782 28.969C154.649 35.5317 184.21 47.0512 215.505 51.5536C222.034 52.4949 228.615 53.0413 235.243 52.7385C292.107 50.1318 360.849 31.0885 416.829 17.4364C445.587 21.1884 471.374 27.6525 502.306 26.5598C523.612 25.8093 545.327 22.2811 567.55 20.7342"
    stroke="white"
    stroke-miterlimit="10"
  />
<path
    d="M-468.564 -7.82741C-455.578 -18.1752 -438.416 -21.8416 -424.251 -26.9694C-385.123 -41.1416 -343.657 -50.581 -300.431 -45.7362C-294.007 -45.0187 -287.735 -43.8339 -281.509 -42.4647C-258.648 -37.4357 -243.693 -22.0984 -230.351 -3.76599C-213.676 19.1412 -200.17 46.3271 -182.909 66.8712C-181.526 68.5168 -180.129 70.1164 -178.686 71.6633C-153.011 99.2902 -112.144 110.698 -80.1582 103.727C-47.0586 96.5123 -23.8284 75.0467 8.57283 61.8487C27.0859 54.3117 48.2738 43.5098 70.1733 37.0523C85.3 32.5959 100.559 30.3447 115.527 32.7671C151.176 38.54 180.6 48.6178 211.558 51.8959C218.008 52.5805 224.504 52.9031 231.033 52.383C287.251 47.9069 355.393 29.8708 411.255 17.6997C441.133 22.1955 467.862 29.7523 500.006 29.094C522.13 28.6398 544.662 25.1511 567.675 23.5581"
    stroke="white"
    stroke-miterlimit="10"
  />
<path
    d="M-470.441 -10.3222C-457.574 -20.637 -440.26 -23.9283 -426.142 -28.852C-387.08 -42.4845 -345.593 -51.6737 -302.69 -46.4208C-296.293 -45.6375 -290.067 -44.3802 -283.901 -42.9386C-261.303 -37.6463 -246.453 -22.3222 -233.059 -4.13461C-216.325 18.5883 -202.562 45.3726 -185.208 65.7785C-183.825 67.4044 -182.421 68.9973 -180.985 70.5311C-155.324 97.9276 -115.063 109.796 -83.1029 103.687C-50.1944 97.401 -26.5952 77.2518 5.77961 64.8372C24.3388 57.7215 45.4543 47.4264 67.2352 41.1335C82.2828 36.7956 97.4293 34.4917 112.266 36.5784C147.698 41.5613 176.983 50.1976 207.605 52.258C213.969 52.6858 220.386 52.778 226.81 52.0473C282.389 45.6952 349.919 28.6727 405.675 17.9827C436.673 23.2224 464.344 31.8718 497.707 31.648C520.648 31.4901 543.996 28.0408 567.793 26.4083"
    stroke="white"
    stroke-miterlimit="10"
  />
<path
    d="M-472.319 -12.817C-459.571 -23.0989 -442.105 -26.015 -428.033 -30.7412C-389.03 -43.8405 -347.531 -52.773 -304.951 -47.1054C-298.58 -46.2562 -292.4 -44.9266 -286.286 -43.406C-263.958 -37.8504 -249.207 -22.5394 -235.76 -4.49665C-218.96 18.0419 -204.947 44.4182 -187.501 64.6989C-186.118 66.3117 -184.708 67.8849 -183.271 69.412C-157.63 96.5782 -117.975 108.901 -86.0284 103.661C-53.311 98.2962 -29.3362 79.4702 3.00572 67.8322C21.6045 61.1378 42.654 51.343 64.3229 45.2212C79.2915 40.9952 94.3193 38.6453 109.031 40.3896C144.245 44.5761 173.385 51.784 203.678 52.62C209.957 52.7911 216.295 52.6595 222.62 51.7116C277.559 43.4703 347.309 -1.51476 400.121 18.2658C430.717 29.7259 460.845 33.9914 495.427 34.1955C519.191 34.3403 543.357 30.924 567.938 29.2454"
    stroke="white"
    stroke-miterlimit="10"
  />
<path
    d="M-474.197 -15.3183C-461.567 -25.5739 -443.95 -28.1082 -429.923 -32.6304C-390.98 -45.1899 -349.467 -53.8722 -307.21 -47.7966C-300.866 -46.8816 -294.732 -45.4861 -288.677 -43.8865C-266.613 -38.0676 -251.961 -22.7698 -238.475 -4.87844C-221.608 17.4824 -207.345 43.4505 -189.807 63.5997C-188.417 65.1992 -187.013 66.7593 -185.571 68.2733C-159.942 95.209 -120.9 107.979 -88.9665 103.615C-57.0331 99.2507 -32.0899 81.6687 0.219098 70.8141C18.8639 64.5476 39.8411 55.253 61.3914 49.2958C76.2809 45.1817 91.1968 42.7857 105.77 44.1944C140.767 47.5844 169.769 53.3638 199.732 52.9755C205.932 52.8965 212.184 52.5278 218.41 51.3693C272.704 41.2388 342.263 -1.66616 394.554 18.5356C426.191 30.7594 457.341 36.0978 493.142 36.7363C517.722 37.1774 542.705 33.8005 568.07 32.0759"
    stroke="white"
    stroke-miterlimit="10"
  />
<path
    d="M-476.074 -17.8131C-463.563 -28.0358 -445.794 -30.1949 -431.814 -34.513C-392.923 -46.5393 -351.404 -54.9584 -309.47 -48.4812C-303.151 -47.5069 -297.064 -46.0324 -291.062 -44.3605C-269.268 -38.2848 -254.714 -22.9936 -241.175 -5.24706C-224.25 16.9295 -209.73 42.4895 -192.106 62.5136C-190.716 64.0934 -189.306 65.6468 -187.863 67.1411C-162.254 93.8464 -123.825 107.064 -91.8981 103.575C-59.5694 100.041 -34.837 83.8805 -2.56098 73.796C16.13 67.9573 37.0346 59.163 58.4729 53.3704C73.2834 49.3682 88.0872 46.9195 102.529 47.9991C137.308 50.5926 166.165 54.9502 195.799 53.3309C201.913 52.9952 208.086 52.4028 214.207 51.027C267.862 38.9876 337.157 -1.73198 388.987 18.8121C421.679 31.7665 453.829 38.2108 490.849 39.2838C516.247 40.021 542.047 36.6837 568.202 34.913"
    stroke="white"
    stroke-miterlimit="10"
  />
<path
    d="M-477.952 -20.3145C-465.56 -30.5108 -447.639 -32.2815 -433.705 -36.4088C-394.874 -47.8953 -353.341 -56.0577 -311.73 -49.1723C-305.438 -48.1323 -299.396 -46.5854 -293.454 -44.841C-271.923 -38.5086 -257.475 -23.224 -243.884 -5.62227C-226.892 16.37 -212.121 41.5284 -194.406 61.4143C-193.009 62.9809 -191.599 64.5146 -190.156 66.0023C-164.567 92.4773 -126.744 106.136 -94.8302 103.529C-62.9165 100.923 -37.5846 86.0856 -5.3415 76.7779C13.3956 71.3671 34.2278 63.0731 55.5475 57.445C70.2789 53.5613 84.9708 51.0599 99.2805 51.8038C133.843 53.6008 162.561 56.5366 191.859 53.6864C197.887 53.1005 203.981 52.2711 210.003 50.6847C263.013 36.7363 331.979 -1.71883 383.427 19.0886C417.192 32.7473 450.331 40.2514 488.563 41.8312C514.784 42.812 541.394 39.5668 568.333 37.7501"
    stroke="white"
    stroke-miterlimit="10"
  />
<path
    d="M-479.83 -22.8093C-467.556 -32.9727 -449.484 -34.3682 -435.596 -38.2914C-396.824 -49.2381 -355.285 -57.1438 -313.989 -49.8569C-307.724 -48.751 -301.722 -47.1383 -295.839 -45.315C-274.578 -38.7193 -260.229 -23.4478 -246.585 -5.99089C-229.527 15.817 -214.506 40.5674 -196.698 60.3281C-195.301 61.8816 -193.891 63.4022 -192.449 64.8767C-166.873 91.1278 -129.669 105.214 -97.7617 103.496C-65.8283 101.772 -40.3251 88.3105 -8.12153 79.7664C10.6617 74.7834 31.4214 66.9897 52.6291 61.5262C67.2815 57.7544 81.8612 55.2069 96.0327 55.6151C130.377 56.609 158.951 58.1362 187.919 54.0418C193.869 53.1993 199.877 52.1329 205.793 50.3424C258.157 34.472 326.728 -1.64642 377.86 19.365C412.718 33.6886 446.826 42.3644 486.277 44.3787C513.315 45.6623 540.742 42.45 568.472 40.5871"
    stroke="white"
    stroke-miterlimit="10"
  />
<path
    d="M-481.708 -25.3106C-469.552 -35.4412 -451.322 -36.4614 -437.487 -40.1806C-398.774 -50.5876 -357.222 -58.2365 -316.249 -50.5481C-310.01 -49.3764 -304.054 -47.6913 -298.23 -45.7889C-277.233 -38.9365 -262.99 -23.665 -249.293 -6.36609C-232.176 15.2641 -216.898 39.6063 -198.998 59.2355C-197.594 60.7692 -196.184 62.2832 -194.742 63.7445C-169.186 89.7652 -132.588 104.28 -100.694 103.457C-68.958 102.634 -43.0727 90.5288 -10.9021 82.7549C7.92727 78.2063 28.6145 70.9063 49.7036 65.6073C64.2835 61.9475 78.7448 59.637 92.7844 59.4263C126.912 58.9063 155.347 59.7357 183.979 54.4039C189.843 53.3112 195.772 52.0078 201.59 50.0067C253.308 32.2076 321.418 -1.50818 372.292 19.6481C408.264 34.6036 443.321 44.484 483.984 46.9327C511.845 48.5125 540.083 45.3397 568.597 43.4308"
    stroke="white"
    stroke-miterlimit="10"
  />
<path
    d="M-483.585 -27.8054C-471.548 -37.9096 -453.167 -38.5481 -439.378 -42.0698C-400.724 -51.937 -359.159 -59.3292 -318.509 -51.2326C-312.296 -49.9951 -306.386 -48.2442 -300.622 -46.2628C-279.895 -39.1537 -265.743 -23.8888 -252.007 -6.73471C-234.824 14.7112 -219.302 38.6519 -201.31 58.1493C-199.907 59.6699 -198.49 61.1641 -197.047 62.6189C-171.504 88.4092 -135.493 104.714 -103.638 103.424C-72.1201 102.14 -45.8329 92.7537 -13.6952 85.7433C5.1802 81.6226 25.795 74.8229 46.7655 69.6885C61.2663 66.1471 75.6156 63.4878 89.5234 63.2376C123.433 62.6189 151.73 61.3353 180.027 54.7659C185.805 53.4231 191.649 51.8828 197.374 49.671C248.44 29.9366 316.035 -1.32387 366.719 19.9311C403.818 35.4922 439.809 46.6101 481.691 49.4801C510.37 51.3627 539.424 48.2229 568.729 46.2744"
    stroke="white"
    stroke-miterlimit="10"
  />
<path
    d="M-485.463 -30.3068C-473.551 -40.378 -455.012 -40.6414 -441.262 -43.9589C-402.668 -53.2864 -361.096 -60.4153 -320.762 -51.9238C-314.576 -50.6205 -308.712 -48.7971 -303 -46.7434C-282.537 -39.3841 -268.491 -24.1192 -254.702 -7.10992C-237.46 14.1517 -221.681 37.6908 -203.596 57.05C-202.193 58.5574 -200.777 60.0385 -199.327 61.4801C-173.804 87.0401 -138.432 102.404 -106.557 103.378C-75.2104 104.332 -48.5607 94.972 -16.4626 88.7252C2.45895 85.039 23.0013 78.7329 43.8598 73.7631C58.2815 70.3336 72.5188 67.6216 86.2949 67.0357C119.987 65.6073 148.139 62.9282 176.113 55.1148C181.812 53.5218 187.57 51.7379 193.19 49.3221C243.597 27.6393 306.904 12.1572 361.171 20.201C402.236 26.2899 436.317 48.7166 479.418 52.021C508.914 54.1998 538.785 51.0994 568.874 49.1049"
    stroke="white"
    stroke-miterlimit="10"
  />
<path
    d="M-487.34 -32.8015C-475.547 -42.8465 -456.856 -42.7214 -443.153 -45.8416C-404.611 -54.6227 -363.033 -61.4948 -323.022 -52.6084C-316.862 -51.2392 -311.044 -49.35 -305.392 -47.2173C-285.192 -39.6013 -271.251 -24.343 -257.409 -7.47854C-240.102 13.6053 -224.072 36.7298 -205.895 55.9639C-204.485 57.4516 -203.069 58.9195 -201.62 60.3545C-176.116 85.6841 -141.35 101.462 -109.489 103.345C-78.333 105.182 -51.3078 97.2035 -19.2426 91.7137C-0.274968 88.4619 20.1949 82.6429 40.9348 77.8443C55.2775 74.5267 69.4027 71.762 83.0405 70.8471C116.516 68.609 144.536 64.541 172.167 55.4768C177.78 53.6337 183.459 51.6129 188.98 48.9864C238.722 25.3486 301.554 11.4528 355.604 20.4841C397.822 27.534 432.813 50.8361 477.125 54.575C507.445 57.0566 538.126 53.9892 569.006 51.9486"
    stroke="white"
    stroke-miterlimit="10"
  />
<path
    d="M-489.218 -35.3029C-477.544 -45.315 -458.695 -44.8147 -445.044 -47.7373C-406.562 -55.9721 -364.976 -62.5875 -325.275 -53.3062C-319.142 -51.8712 -313.364 -49.9096 -307.77 -47.7044C-287.841 -39.8317 -273.999 -24.58 -260.104 -7.86691C-242.731 13.0326 -226.458 35.7555 -208.182 54.858C-206.772 56.3325 -205.349 57.7873 -203.906 59.2091C-178.416 84.3083 -144.256 100.495 -112.414 103.286C-81.4561 106.004 -54.0422 99.4152 -22.0166 94.6824C-3.00278 91.8716 17.3946 86.5398 38.0225 81.9057C52.2861 78.7066 66.2994 75.8827 79.8053 74.6386C113.063 71.5843 140.945 66.1339 168.24 55.8125C173.774 53.7193 179.361 51.4549 184.79 48.6244C233.853 23.0249 296.198 10.7353 350.05 20.7408C393.395 28.7912 429.32 52.936 474.852 57.1027C505.988 59.8805 537.487 56.8526 569.157 54.7659"
    stroke="white"
    stroke-miterlimit="10"
  />
<path
    d="M-491.096 -37.7977C-479.54 -47.7768 -460.539 -46.8948 -446.934 -49.6199C-408.512 -57.3149 -366.913 -63.6605 -327.535 -53.9841C-321.428 -52.4833 -315.696 -50.4559 -310.162 -48.1652C-290.496 -40.0423 -276.759 -24.7906 -262.812 -8.22236C-245.379 12.4929 -228.849 34.8142 -210.487 53.7785C-209.078 55.2398 -207.654 56.6814 -206.205 58.0901C-180.735 82.9589 -147.181 99.5469 -115.353 103.259C-84.5787 106.847 -56.7959 101.66 -24.8032 97.6775C-5.74329 95.3077 14.5816 90.463 35.0909 85.9935C49.2755 82.9062 63.1702 80.0231 76.551 78.4565C109.591 74.5859 137.341 67.7533 164.294 56.1812C169.749 53.8378 175.244 51.3298 180.573 48.2953C228.958 20.7342 290.789 10.0573 344.477 21.0238C388.934 30.1077 425.809 55.0555 472.553 59.6567C504.513 62.7374 536.822 59.7423 569.276 57.6096"
    stroke="white"
    stroke-miterlimit="10"
  />
<path
    d="M-492.974 -40.2925C-481.536 -50.2453 -462.384 -48.9814 -448.826 -51.5025C-410.455 -58.6512 -368.857 -64.7334 -329.795 -54.6687C-323.714 -53.1021 -318.028 -51.0023 -312.547 -48.6391C-293.144 -40.2596 -279.507 -25.0144 -265.52 -8.59099C-248.021 11.9399 -231.247 33.8598 -212.787 52.6924C-211.371 54.134 -209.947 55.5624 -208.498 56.9645C-183.041 81.6095 -150.093 98.5924 -118.285 103.227C-86.4764 107.861 -59.5369 103.898 -27.5837 100.672C-8.47769 98.7438 11.7747 94.3862 32.172 90.0812C46.2775 87.1059 60.0602 84.1701 73.3027 82.2743C106.125 77.581 133.744 69.3725 160.354 56.5498C165.723 53.9628 171.132 51.2047 176.37 47.9661C224.069 18.4303 285.366 9.39249 338.909 21.3135C384.461 31.4572 422.297 57.1817 470.267 62.2173C503.043 65.5942 536.176 62.6386 569.414 60.4598"
    stroke="white"
    stroke-miterlimit="10"
  />
<path
    d="M-494.851 -42.7938C-483.532 -52.7137 -464.229 -51.0681 -450.716 -53.3983C-412.405 -59.994 -370.8 -65.8195 -332.055 -55.3665C-326 -53.734 -320.36 -51.5684 -314.938 -49.1262C-295.799 -40.4965 -282.267 -25.2514 -268.227 -8.97277C-250.663 11.3804 -233.639 32.8987 -215.086 51.5931C-213.67 53.0215 -212.24 54.4368 -210.791 55.8257C-185.353 80.2403 -152.998 97.6182 -121.223 103.18C-90.8245 108.506 -62.2906 106.129 -30.3703 103.648C-11.2182 102.16 8.9617 98.2896 29.2404 94.1492C43.2669 91.2858 56.9376 88.2908 70.0483 86.0724C102.647 80.5563 130.147 70.9787 156.414 56.8987C161.705 54.0616 167.021 51.0599 172.16 47.6173C219.161 16.1133 279.912 8.70791 333.343 21.5833C379.974 32.8197 418.793 59.2947 467.974 64.7516C501.568 68.4313 535.517 65.5086 569.539 63.2837"
    stroke="white"
    stroke-miterlimit="10"
  />
<path
    d="M-496.729 -45.2886C-485.528 -55.1822 -466.067 -53.1547 -452.607 -55.2809C-414.355 -61.3303 -372.744 -66.8925 -334.314 -56.0445C-328.292 -54.3462 -322.686 -52.1147 -317.33 -49.5936C-298.454 -40.7138 -285.027 -25.4686 -270.935 -9.3414C-253.311 10.8275 -236.037 31.9443 -217.385 50.507C-215.962 51.9222 -214.532 53.3243 -213.09 54.6935C-187.665 78.8777 -155.91 96.644 -124.161 103.141C-93.9405 109.322 -65.0443 108.367 -33.157 106.636C-13.9587 105.59 6.14875 102.206 26.3155 98.2304C40.2629 95.4855 53.815 92.4246 66.8005 89.8837C99.1753 83.5447 126.556 72.598 152.475 57.2607C157.686 54.1735 162.91 50.9283 167.957 47.2816C214.253 13.7962 274.443 8.04308 327.776 21.8664C375.468 34.2218 415.288 61.4143 465.682 67.3056C500.099 71.2815 534.859 68.3983 569.671 66.1339"
    stroke="white"
    stroke-miterlimit="10"
  />
<path
    d="M-498.606 -47.79C-487.525 -57.6506 -467.912 -55.2414 -454.498 -57.1701C-416.299 -62.6731 -374.687 -67.972 -336.574 -56.7356C-330.579 -54.9649 -325.018 -52.6676 -319.715 -50.0675C-301.096 -40.9376 -287.781 -25.6924 -273.636 -9.71002C-255.947 10.2746 -238.461 31.0227 -219.685 49.4143C-218.262 50.8164 -216.832 52.1987 -215.383 53.5613C-189.978 77.5151 -158.816 95.6698 -127.093 103.101C-97.0504 110.145 -67.7919 110.612 -35.9375 109.618C-16.6997 109.019 3.34189 106.116 23.39 102.305C37.2584 99.672 50.6985 96.5518 63.5522 93.6818C95.703 86.5135 122.972 74.2041 148.534 57.6096C153.667 54.2788 158.799 50.7835 163.753 46.9327C209.338 11.466 268.949 7.37166 322.215 22.1363C370.948 35.6436 411.789 63.5207 463.402 69.8465C498.636 74.1251 534.213 71.2749 569.809 68.9644"
    stroke="white"
    stroke-miterlimit="10"
  />
<path
    d="M-500.484 -50.2848C-489.521 -60.1125 -469.756 -57.3215 -456.388 -59.0593C-418.249 -64.0093 -376.631 -69.045 -338.834 -57.4268C-332.865 -55.5903 -327.344 -53.2272 -322.106 -50.5481C-303.751 -41.168 -290.535 -25.9162 -276.344 -10.0852C-258.588 9.71504 -240.853 30.0617 -221.984 48.3216C-220.561 49.7105 -219.125 51.0797 -217.675 52.4291C-192.29 76.1526 -161.714 94.689 -130.025 103.062C-100.153 110.954 -70.5455 112.857 -38.7175 112.607C-19.4336 112.455 0.535532 110.033 20.4651 106.386C34.2544 103.865 47.5759 100.686 60.2978 97.4931C92.2247 89.4954 119.382 75.8234 144.588 57.965C149.642 54.3841 154.682 50.6452 159.537 46.5904C204.397 9.14894 263.415 6.70682 316.635 22.4127C366.383 37.0918 408.265 65.6402 461.096 72.3939C497.154 76.9688 533.541 74.1581 569.928 71.8015"
    stroke="white"
    stroke-miterlimit="10"
  />
<path
    d="M-502.362 -52.7861C-491.517 -62.5875 -471.595 -59.3884 -458.28 -60.9485C-420.193 -65.2864 -378.581 -70.1179 -341.094 -58.1114C-335.151 -56.209 -329.676 -53.7801 -324.491 -51.022C-306.4 -41.3983 -293.289 -26.14 -279.052 -10.4538C-261.237 9.16868 -243.245 29.1072 -224.283 47.2355C-222.86 48.6046 -221.418 49.9606 -219.968 51.3035C-194.597 74.7965 -164.607 93.7082 -132.957 103.029C-103.257 111.777 -73.2932 115.108 -41.4981 115.595C-22.1747 115.891 -2.2714 113.943 17.5462 110.467C31.2564 108.065 44.4593 104.813 57.0561 101.304C88.7523 92.4772 115.81 77.4427 140.655 58.327C145.629 54.496 150.57 50.5136 155.34 46.2547C199.468 6.83188 257.874 6.04855 311.081 22.6958C364.288 39.343 404.773 67.7598 458.823 74.9479C495.698 79.8256 532.902 77.0478 570.073 74.6451"
    stroke="white"
    stroke-miterlimit="10"
  />
<path
    d="M-504.239 -55.2809C-493.514 -65.0494 -473.439 -61.4751 -460.164 -62.8311C-422.136 -66.6292 -380.518 -71.1843 -343.347 -58.796C-337.43 -56.8278 -331.995 -54.333 -326.876 -51.4959C-309.042 -41.6221 -296.043 -26.3638 -281.753 -10.8291C-263.872 8.60917 -245.629 28.1396 -226.576 46.1428C-225.146 47.4988 -223.71 48.8416 -222.254 50.1713C-196.902 73.434 -167.486 92.7208 -135.882 102.99C-106.346 112.587 -76.0402 117.359 -44.2715 118.584C-24.9019 119.327 -5.07126 117.86 14.6277 114.548C28.2589 112.258 41.3433 108.947 53.8149 105.116C85.2806 95.4525 112.24 79.062 136.722 58.6891C141.624 54.6145 146.459 50.3819 151.144 45.919C194.534 4.51483 252.307 5.39031 305.52 22.9788C357.252 40.0803 401.275 69.8794 456.537 77.502C494.229 82.6759 532.25 79.9375 570.211 77.4888"
    stroke="white"
    stroke-miterlimit="10"
  />
<path
    d="M-506.117 -57.7823C-495.51 -67.5178 -475.284 -63.5683 -462.054 -64.7268C-424.086 -67.9852 -382.488 -72.2112 -345.607 -59.4937C-339.723 -57.4466 -334.321 -54.9057 -329.261 -51.9831C-311.67 -41.8854 -298.797 -26.6008 -284.454 -11.2108C-266.508 8.04307 -248.014 27.1719 -228.875 45.0369C-227.446 46.3798 -226.003 47.7094 -224.553 49.0259C-199.215 72.0648 -170.378 91.7202 -138.82 102.937C-109.443 113.377 -78.8007 119.591 -47.0584 121.552C-27.6493 122.75 -7.88445 121.756 11.7025 118.61C25.2546 116.431 38.2204 113.054 50.5668 108.907C81.8019 98.4081 108.708 80.7077 132.789 59.0314C137.618 54.7198 142.355 50.2305 146.94 45.5569C189.58 2.17146 246.713 4.69915 299.96 23.2356C352.653 41.5745 397.776 71.9792 454.251 80.0231C492.766 85.4998 531.597 82.7943 570.343 80.2996"
    stroke="white"
    stroke-miterlimit="10"
  />
<path
    d="M-507.995 -60.277C-497.513 -69.9863 -477.129 -65.655 -463.945 -66.6094C-426.036 -69.328 -384.425 -73.3039 -347.866 -60.1717C-342.009 -58.0587 -336.653 -55.4455 -331.653 -52.4438C-314.325 -42.0895 -301.557 -26.8114 -287.162 -11.5663C-269.156 7.50331 -250.406 26.224 -231.175 43.964C-229.738 45.2871 -228.296 46.6036 -226.846 47.9135C-201.527 70.722 -173.257 90.746 -141.752 102.917C-112.533 114.206 -81.5612 121.908 -49.8452 124.561C-30.3966 126.239 -10.6977 125.693 8.77072 122.711C22.2438 120.651 35.0843 117.188 47.3056 112.738C78.2903 101.364 105.098 82.3204 128.836 59.4132C133.586 54.8449 138.211 50.1121 142.724 45.241C184.533 -0.19167 241.08 4.05407 294.379 23.5318C348.015 43.1346 394.251 74.112 451.951 82.5903C491.284 88.3632 530.932 85.6972 570.468 83.163"
    stroke="white"
    stroke-miterlimit="10"
  />
<path
    d="M-509.872 -62.7784C-499.509 -72.4547 -478.973 -67.7482 -465.836 -68.4986C-427.993 -70.6775 -386.368 -74.3966 -350.126 -60.8629C-324.175 -51.1734 -308.495 -31.4192 -289.87 -11.9481C-271.798 6.94378 -252.797 25.2564 -233.474 42.8647C-207.002 66.9831 -177.935 88.9951 -144.684 102.871C-97.7421 122.461 -44.9765 134.178 5.85216 126.779C60.1265 118.88 103.319 85.401 138.52 44.8921C179.651 -2.44291 235.441 3.37606 288.819 23.8017C343.377 44.6815 390.753 76.2184 449.665 85.1311C489.821 91.2068 530.28 88.5738 570.6 85.9934"
    stroke="white"
    stroke-miterlimit="10"
  />
<path
    d="M-512.238 -58.3681C-501.96 -67.9852 -481.76 -63.5815 -468.755 -64.4899C-431.366 -67.0373 -390.216 -71.0132 -354.264 -58.0851C-328.55 -48.8169 -312.823 -29.7012 -294.225 -10.8027C-276.153 7.52964 -257.337 25.546 -237.901 42.5816C-224.665 54.1801 -211.061 65.7982 -196.375 75.6918C-180.748 86.2963 -163.816 95.2946 -146.258 102.14C-101.972 119.406 -54.3056 128.767 -6.35601 123.81C-3.11458 123.474 0.126862 123.073 3.36171 122.606C24.7209 119.512 44.4529 112.817 62.5904 103.411C90.6433 88.9359 115.046 68.01 136.649 44.405C155.149 24.0518 176.535 13.941 199.396 10.6234C227.601 6.51593 257.907 12.7628 287.323 23.3935C325.232 37.0918 359.538 55.9244 396.887 68.9184C412.857 74.4872 429.393 79.0489 446.958 81.6819C486.856 87.672 527.144 85.4537 567.062 83.084"
    stroke="white"
    stroke-miterlimit="10"
  />
<path
    d="M-514.603 -53.9644C-504.411 -63.5157 -484.554 -59.4213 -471.674 -60.4811C-434.746 -63.3906 -394.064 -67.6297 -358.401 -55.3138C-332.924 -46.4669 -317.152 -27.9963 -298.579 -9.67053C-280.508 8.10232 -261.856 25.8093 -242.329 42.292C-228.605 53.8707 -214.73 65.9233 -199.531 75.7905C-183.449 86.2304 -165.733 94.9128 -147.846 101.403C-103.243 117.596 -56.9607 124.876 -8.8794 119.65C-5.63138 119.301 -2.38993 118.893 0.851506 118.426C22.2173 115.345 42.0349 108.986 60.2251 100.1C88.3769 86.3489 112.991 66.6276 134.758 43.9179C153.443 24.427 174.842 14.6849 197.861 11.4068C226.164 7.35849 256.503 13.0195 285.821 22.9788C323.427 35.7621 357.357 53.5745 394.475 65.9101C410.327 71.2091 426.778 75.6259 444.25 78.226C483.898 84.1372 524.001 82.3204 563.517 80.1679"
    stroke="white"
    stroke-miterlimit="10"
  />
<path
    d="M-516.968 -49.5541C-506.862 -59.0461 -487.347 -55.2875 -474.586 -56.4658C-438.126 -59.8426 -397.905 -64.2397 -362.532 -52.5294C-337.292 -44.1103 -321.474 -26.2717 -302.934 -8.51858C-284.863 8.69474 -266.363 26.0792 -246.756 42.0155C-232.539 53.5745 -218.413 66.0879 -202.687 75.9024C-186.17 86.2107 -167.651 94.5376 -149.427 100.686C-104.522 115.819 -59.6158 121.006 -11.3896 115.51C-8.14154 115.141 -4.89349 114.733 -1.64546 114.265C19.7335 111.198 39.6367 105.195 57.8665 96.8151C86.1302 83.8212 110.896 65.2255 132.881 43.4505C151.717 24.7956 173.161 15.4484 196.332 12.2098C224.728 8.2208 255.107 13.2959 284.319 22.5905C321.622 34.4588 355.183 51.2508 392.064 62.9348C407.797 67.9573 424.162 72.2359 441.535 74.8031C480.927 80.6353 520.852 79.2266 559.966 77.2848"
    stroke="white"
    stroke-miterlimit="10"
  />
<path
    d="M-519.333 -45.1504C-509.319 -54.5766 -490.134 -51.1405 -477.504 -52.457C-441.506 -56.2288 -401.752 -60.8563 -366.669 -49.7516C-341.667 -41.7538 -325.802 -24.5602 -307.289 -7.3798C-289.218 9.27401 -270.849 26.3294 -251.183 41.7325C-236.459 53.2717 -222.103 66.2524 -205.836 76.0077C-189.57 85.7631 -169.568 94.1624 -151.002 99.955C-105.813 114.042 -62.2578 117.122 -13.8932 111.356C-10.6451 110.974 -7.39053 110.553 -4.13592 110.092C17.2497 107.038 37.2517 101.383 55.5144 93.5107C83.8967 81.2738 108.807 63.8103 131.01 42.97C149.99 25.1445 171.488 16.1923 194.811 12.9997C223.305 9.06995 253.703 13.5592 282.823 22.1889C319.81 33.1489 353.015 48.9074 389.659 59.9398C405.273 64.6924 421.553 68.8262 438.834 71.3605C477.975 77.107 517.722 76.1131 556.435 74.3819"
    stroke="white"
    stroke-miterlimit="10"
  />
<path
    d="M-521.698 -40.7401C-511.77 -50.1005 -492.927 -46.9803 -480.423 -48.4482C-444.892 -52.6084 -405.599 -57.4729 -370.813 -46.9737C-346.055 -39.3973 -330.17 -22.8027 -311.651 -6.23445C-293.131 10.3338 -275.323 26.5663 -255.617 41.4494C-240.378 52.9623 -225.799 66.4104 -208.998 76.1131C-191.612 86.1514 -171.505 93.7938 -152.59 99.2243C-107.117 112.278 -64.9192 113.232 -16.4097 107.202C-13.1551 106.801 -9.90044 106.38 -6.64583 105.912C14.7529 102.871 34.8406 97.5721 53.1495 90.1997C81.6438 78.7197 106.699 62.3951 129.119 42.4763C148.245 25.4868 169.802 16.9295 193.276 13.7765C221.862 9.90592 252.294 13.8094 281.322 21.7677C317.992 31.8192 350.835 46.5509 387.248 56.9316C402.744 61.4143 418.938 65.4033 436.12 67.8981C475.004 73.5656 514.573 72.9732 552.884 71.4592"
    stroke="white"
    stroke-miterlimit="10"
  />
<path
    d="M-524.063 -36.3364C-514.221 -45.6375 -495.721 -42.8333 -483.341 -44.4395C-448.272 -48.9946 -409.421 -54.1685 -374.951 -44.1959C-350.416 -37.0999 -334.505 -21.0781 -316.012 -5.09566C-297.98 10.4852 -279.783 26.7836 -260.051 41.1664C-244.285 52.6529 -229.501 66.575 -212.161 76.225C-194.346 86.1383 -173.442 93.4317 -154.177 98.5003C-108.442 110.533 -67.581 109.355 -18.9265 103.062C-15.6719 102.647 -12.4107 102.213 -9.14948 101.752C12.2559 98.7241 32.4423 93.7806 50.7841 86.915C79.4036 76.1986 104.591 60.9996 127.235 42.009C146.505 25.8488 168.115 17.6931 191.74 14.5795C220.426 10.7682 250.87 14.0924 279.813 21.3793C316.16 30.5224 348.673 44.1417 384.83 53.9497C400.214 58.123 416.315 62.0067 433.405 64.4686C472.039 70.0571 511.424 69.8728 549.333 68.5695"
    stroke="white"
    stroke-miterlimit="10"
  />
<path
    d="M-526.429 -31.9261C-516.678 -41.1614 -498.508 -38.6732 -486.253 -40.4241C-451.652 -45.3676 -413.262 -50.7916 -379.082 -41.4181C-354.784 -34.75 -338.834 -19.3534 -320.36 -3.9503C-301.887 11.4528 -284.217 27.0008 -264.472 40.8833C-248.179 52.3435 -233.184 66.7395 -215.303 76.3303C-197.061 86.1119 -175.365 93.0697 -155.745 97.7696C-109.746 108.795 -70.2162 105.471 -21.43 98.9084C-18.1688 98.4805 -14.9076 98.0395 -11.6398 97.5787C9.77872 94.5639 30.0575 89.9759 48.4322 83.6106C77.1703 73.6512 102.489 59.5843 125.357 41.5284C144.766 26.2043 166.435 18.4369 190.212 15.3694C218.99 11.6108 249.454 14.3689 278.311 20.9712C314.335 29.2191 346.499 41.7851 382.425 50.9546C397.69 54.8515 413.706 58.5969 430.704 61.0259C469.081 66.5289 508.295 66.7527 545.802 65.6666"
    stroke="white"
    stroke-miterlimit="10"
  />
<path
    d="M-528.801 -27.5224C-519.136 -36.6984 -501.308 -34.5262 -489.179 -36.4219C-455.038 -41.7604 -417.116 -47.4279 -383.226 -38.6468C-359.165 -32.4132 -343.176 -17.642 -324.722 -2.8181C-306.268 12.0058 -288.644 27.1917 -268.906 40.5937C-252.073 52.021 -236.887 66.8975 -218.466 76.429C-199.795 86.0856 -177.309 92.7076 -157.333 97.039C-111.083 107.064 -72.878 101.581 -23.9468 94.7548C-20.6856 94.3072 -17.4178 93.8596 -14.1434 93.4054C7.28166 90.4038 27.6592 86.1778 46.0669 80.3061C74.9302 71.1103 100.374 58.1691 123.473 41.0413C143.014 26.5532 164.748 19.1807 188.684 16.1593C217.56 12.46 248.031 14.6388 276.815 20.5696C312.504 27.9223 344.332 39.4352 380.021 47.9596C395.167 51.58 411.097 55.1806 427.996 57.5832C466.123 63.0072 505.152 63.6392 542.257 62.7637"
    stroke="white"
    stroke-miterlimit="10"
  />
<path
    d="M-531.166 -23.1121C-521.586 -32.2223 -504.101 -30.366 -492.097 -32.4066C-458.425 -38.1334 -420.964 -44.0445 -387.363 -35.8624C-363.54 -30.0566 -347.504 -15.9108 -329.083 -1.66617C-311.064 12.2625 -293.065 27.3891 -273.34 40.3172C-255.96 51.7116 -240.589 67.0752 -221.622 76.5409C-202.529 86.0724 -179.252 92.3587 -158.914 96.3149C-112.421 105.359 -75.5331 97.7038 -26.457 90.6078C-23.1958 90.147 -19.9214 89.6928 -16.6404 89.232C4.79787 86.2436 25.2743 82.3731 43.7149 77.0083C72.7033 68.5761 98.2659 56.767 121.602 40.5674C141.274 26.9086 163.075 19.9377 187.162 16.9558C216.13 13.3157 246.614 14.9218 275.319 20.1681C310.672 26.6256 342.164 37.0852 377.616 44.9711C392.644 48.315 408.488 51.7774 425.295 54.1406C463.165 59.479 502.016 60.5256 538.719 59.8608"
    stroke="white"
    stroke-miterlimit="10"
  />
<path
    d="M-533.531 -18.7083C-524.037 -27.7593 -506.895 -26.2124 -495.016 -28.3978C-461.811 -34.5064 -424.805 -40.6743 -391.507 -33.0846C-367.921 -27.7133 -351.846 -14.1861 -333.445 -0.527389C-315.432 12.8483 -297.479 27.5603 -277.774 40.0342C-259.84 51.3891 -244.292 67.2464 -224.784 76.6462C-205.263 86.0527 -181.203 92.0099 -160.502 95.5842C-113.765 103.661 -78.1883 93.8201 -28.9738 86.4542C-25.706 85.9737 -22.4316 85.5129 -19.1506 85.0587C2.29426 82.0834 22.8695 78.5749 41.343 73.7039C70.4567 66.0352 96.1312 55.3517 119.704 40.0803C139.508 27.2575 161.382 20.675 185.613 17.7391C214.681 14.1582 245.165 15.1983 273.798 19.76C308.814 25.3354 339.97 34.7287 375.185 41.9695C390.094 45.0369 405.853 48.3611 422.561 50.6913C460.18 55.9508 498.853 57.3989 535.155 56.9513"
    stroke="white"
    stroke-miterlimit="10"
  />
<path
    d="M-535.896 -14.298C-526.495 -23.2832 -509.688 -22.0523 -497.928 -24.3825C-465.184 -30.8729 -428.645 -37.2974 -395.638 -30.3002C-372.289 -25.3567 -356.168 -12.4615 -337.793 0.624555C-319.78 13.4473 -301.867 27.7314 -282.194 39.7643C-263.701 51.0665 -247.981 67.4307 -227.933 76.7647C-207.99 86.0527 -183.146 91.6742 -162.083 94.8667C-115.115 101.982 -80.8431 89.943 -31.4837 82.3138C-28.2159 81.8201 -24.9349 81.3528 -21.6474 80.8986C-0.189328 77.9364 20.4847 74.7834 38.9846 70.4126C68.2234 63.5075 94.01 53.9497 117.827 39.6129C137.756 27.6195 159.702 21.4385 184.092 18.5422C213.251 15.0206 243.742 15.4945 272.309 19.365C306.976 24.065 337.803 32.3919 372.787 38.9876C387.577 41.7786 403.251 44.9645 419.867 47.2618C457.229 52.4423 495.724 54.2985 531.624 54.0616"
    stroke="white"
    stroke-miterlimit="10"
  />
<path
    d="M-538.261 -9.89433C-528.945 -18.8137 -512.475 -17.8987 -500.846 -20.3803C-468.57 -27.2591 -432.493 -33.9272 -399.775 -27.5355C-376.664 -23.0199 -360.496 -10.7501 -342.154 1.75017C-324.149 14.02 -306.255 27.8697 -286.628 39.4615C-267.002 51.0534 -251.691 67.5821 -231.089 76.8503C-210.718 86.0198 -185.09 91.3187 -163.664 94.1229C-116.466 100.297 -83.4982 86.0461 -34.0004 78.1471C-30.7326 77.6336 -27.4451 77.1597 -24.1509 76.7055C-2.68629 73.7565 18.0932 70.9655 36.626 67.095C65.9966 60.9535 91.8819 52.5147 115.949 39.1126C135.997 27.9487 158.022 22.1692 182.563 19.3124C211.822 15.85 242.306 15.7644 270.807 18.9438C305.125 22.7682 335.629 30.0222 370.375 35.9728C385.048 38.4873 400.635 41.535 417.152 43.7994C454.258 48.8943 492.575 51.1653 528.073 51.1389"
    stroke="white"
    stroke-miterlimit="10"
  />
<path
    d="M-540.626 -5.48403C-531.396 -14.3441 -515.268 -13.7385 -503.765 -16.365C-471.957 -23.6189 -436.34 -30.5437 -403.913 -24.7511C-381.045 -20.6634 -364.825 -9.02544 -346.509 2.90211C-328.503 14.6256 -310.636 28.0211 -291.056 39.1916C-271.475 50.3622 -255.387 67.7664 -234.245 76.9688C-213.452 86.0198 -187.04 90.9962 -165.246 93.4054C-117.817 98.6451 -86.1467 82.1756 -36.5106 74.0132C-33.2362 73.4866 -29.9486 73.0061 -26.6479 72.5519C-5.17009 69.6161 15.7082 67.1872 34.2674 63.8103C63.7697 58.439 89.7473 51.1192 114.065 38.6519C134.231 28.3107 156.335 22.9328 181.028 20.122C210.379 16.7123 240.863 16.0804 269.298 18.5554C303.267 21.5175 333.441 27.6919 367.957 32.9975C382.511 35.2355 398.013 38.145 414.438 40.3699C451.293 45.3858 489.432 48.0583 524.522 48.2492"
    stroke="white"
    stroke-miterlimit="10"
  />
<path
    d="M-542.992 -1.08031C-533.854 -9.87458 -518.062 -9.58495 -506.684 -12.3562C-475.343 -19.9919 -440.195 -27.1669 -408.05 -21.9733C-385.42 -18.3134 -369.16 -7.30081 -350.864 4.0409C-332.858 15.2115 -315.004 28.1527 -295.483 38.902C-275.277 50.0265 -259.089 67.9376 -237.401 77.0675C-216.186 86 -188.99 90.6605 -166.827 92.6681C-119.174 96.9863 -88.802 78.2853 -39.0209 69.8531C-35.7465 69.3067 -32.4524 68.8196 -29.145 68.372C-7.66064 65.4494 13.3231 63.3824 31.9086 60.4993C61.5361 55.9047 87.6126 49.6908 112.187 38.1582C132.466 28.6398 154.655 23.67 179.506 20.8988C208.956 17.5483 239.426 16.3634 267.809 18.1407C301.422 20.2405 331.274 25.3288 365.559 29.9892C379.987 31.9508 395.411 34.7221 411.736 36.9141C448.334 41.851 486.296 44.9316 520.99 45.3331"
    stroke="white"
    stroke-miterlimit="10"
  />
<path
    d="M-545.357 3.32998C-536.305 -5.40504 -520.855 -5.42479 -509.596 -8.34085C-478.723 -16.3518 -444.036 -23.7835 -412.188 -19.1889C-389.801 -15.9568 -373.488 -5.57619 -355.226 5.19284C-337.22 15.8105 -319.372 28.2844 -299.917 38.6321C-279.124 49.6842 -262.792 68.1284 -240.556 77.186C-218.321 86.2436 -190.947 90.3511 -168.408 91.9506C-120.538 95.3538 -91.4504 74.4082 -41.5309 65.7127C-38.2566 65.1531 -34.9558 64.6595 -31.6485 64.2118C-10.1575 61.3024 10.9316 59.6041 29.5435 57.2146C59.3094 53.3902 85.4715 48.2821 110.296 37.6908C130.687 28.9953 152.962 24.4336 177.964 21.7018C207.506 18.4106 237.97 16.6859 266.294 17.7457C299.545 18.9964 329.086 22.992 363.135 27.0074C377.445 28.6925 392.782 31.3255 409.016 33.4846C445.363 38.3359 483.14 41.8312 517.432 42.45"
    stroke="white"
    stroke-miterlimit="10"
  />
<path
    d="M-547.722 7.73369C-538.756 -0.935506 -523.649 -1.26464 -512.514 -4.33868C-482.103 -12.7248 -447.883 -20.4132 -416.325 -16.4242C-394.176 -13.62 -377.81 -3.86473 -359.58 6.31845C-341.575 16.3766 -323.727 28.3831 -304.338 38.3293C-282.952 49.2958 -266.488 68.2864 -243.706 77.2782C-220.923 86.2699 -192.89 90.0154 -169.983 91.2068C-121.888 93.7148 -94.0989 70.5113 -44.0345 61.5459C-40.7536 60.9732 -37.4528 60.4664 -34.1389 60.0188C-12.6348 57.1224 8.55315 55.7928 27.198 53.8904C57.0956 50.8427 83.3368 46.8339 108.432 37.1905C128.928 29.3112 151.302 25.1577 176.449 22.472C206.09 19.24 236.626 14.9942 264.805 17.3244C297.588 20.0364 326.919 20.6289 360.737 23.9925C374.928 25.4078 390.18 27.896 406.314 30.0222C442.405 34.7945 480.011 38.6914 513.894 39.5273"
    stroke="white"
    stroke-miterlimit="10"
  />
<path
    d="M-550.087 12.144C-541.206 3.53404 -526.442 2.89553 -515.433 -0.323327C-485.489 -9.0781 -451.731 -17.0298 -420.463 -13.6398C-398.557 -11.2635 -382.139 -2.14011 -363.935 7.47039C-345.929 16.9756 -328.082 28.5016 -308.765 38.0594C-286.786 48.9338 -270.19 68.4773 -246.855 77.3967C-224.382 85.9869 -194.834 89.7126 -171.557 90.4959C-123.245 92.1152 -96.7472 66.6474 -46.5445 57.4121C-43.2635 56.8197 -39.9562 56.3128 -36.6357 55.8652C-15.125 52.982 6.16836 52.021 24.8396 50.6057C54.869 48.3348 81.1957 45.4187 106.554 36.7232C127.156 29.6601 149.622 25.9212 174.927 23.2751C204.66 20.1023 235.144 15.2707 263.316 16.9295C295.789 18.845 324.752 18.2921 358.339 21.0107C372.411 22.1494 387.577 24.4994 403.62 26.5861C439.46 31.2794 476.882 35.5844 510.37 36.631"
    stroke="white"
    stroke-miterlimit="10"
  />
<path
    d="M-552.452 16.5477C-543.664 8.00358 -529.229 7.05569 -518.351 3.68543C-488.875 -5.44454 -455.585 -13.653 -424.6 -10.862C-402.931 -8.91353 -386.467 -0.422065 -368.297 8.60917C-350.284 17.5614 -332.437 28.5938 -313.199 37.7698C-290.621 48.5454 -273.9 68.655 -250.017 77.4954C-227.123 85.9737 -196.718 87.8366 -173.145 89.7587C-124.767 93.7016 -99.4023 62.7505 -49.0613 53.2519C-45.7803 52.6463 -42.4664 52.1263 -39.1393 51.6853C-17.6154 48.8153 3.7834 48.2229 22.4744 47.3013C52.6355 45.8137 79.0348 43.9771 104.663 36.2427C125.364 29.9892 147.928 26.6716 173.386 24.065C203.211 20.9448 233.629 17.6272 261.8 16.528C293.964 15.2707 322.558 15.9487 355.914 18.0156C369.861 18.8779 384.942 21.0897 400.892 23.1434C436.476 27.7512 473.719 32.4643 506.806 33.7281"
    stroke="white"
    stroke-miterlimit="10"
  />
<path
    d="M-554.818 20.958C-546.115 12.4797 -532.022 11.2224 -521.263 7.70078C-492.255 -1.79782 -459.426 -10.263 -428.731 -8.07755C-407.306 -6.55041 -390.782 1.30256 -372.645 9.76112C-354.507 18.2197 -336.772 28.6925 -317.62 37.4999C-294.435 48.1636 -277.589 68.8459 -253.166 77.6139C-229.85 85.9803 -198.694 87.5469 -174.72 89.0412C-126.059 92.0757 -102.051 58.88 -51.5648 49.1181C-48.2773 48.4927 -44.9633 47.9727 -41.6297 47.5317C-20.0991 44.6749 1.40502 44.4511 20.1289 44.0166C50.4285 43.3123 76.9002 42.5553 102.799 35.7753C123.605 30.3315 146.262 27.4286 171.87 24.8746C201.794 21.8137 232.193 17.9761 260.311 16.1396C292.107 14.0661 320.397 13.6185 353.516 15.0403C367.345 15.6327 382.34 17.6997 398.198 19.7205C433.531 24.2493 470.596 29.3705 503.274 30.845"
    stroke="white"
    stroke-miterlimit="10"
  />
<path
    d="M-557.183 25.3617C-548.565 16.9427 -534.816 15.376 -524.182 11.703C-495.635 1.84233 -463.28 -6.89269 -432.875 -5.3063C-411.687 -4.20702 -395.118 3.01402 -377.006 10.8933C-358.895 18.7726 -341.12 28.7583 -322.054 37.2037C-298.263 47.7423 -281.298 69.0171 -256.322 77.706C-232.585 85.9605 -200.678 87.2441 -176.307 88.2973C-127.363 90.4169 -104.713 54.9831 -54.0816 44.9513C-50.794 44.3128 -47.4735 43.7797 -44.1398 43.3386C-22.5961 40.495 -0.986579 40.2251 17.7571 40.6924C48.1818 41.4626 74.7326 41.0874 100.901 35.275C121.806 30.6277 144.562 28.1593 170.329 25.6448C200.345 22.6431 230.73 18.2921 258.803 15.7183C290.235 12.8352 318.209 11.2619 351.098 12.0255C364.808 12.3481 379.718 14.2702 395.477 16.2581C430.553 20.7079 467.441 26.2372 499.723 27.9223"
    stroke="white"
    stroke-miterlimit="10"
  />
<path
    d="M-559.548 29.7654C-551.016 21.4122 -537.609 19.5362 -527.101 15.7117C-499.022 5.48905 -467.128 -3.50927 -437.013 -2.53506C-416.068 -1.85706 -399.44 4.72548 -381.368 12.0321C-363.296 19.3387 -345.462 28.8307 -326.487 36.9207C-302.084 47.3211 -285.008 69.2014 -259.485 77.8114C-235.332 85.9605 -202.647 88.4948 -177.895 87.5733C-128.687 85.7301 -107.368 51.0994 -56.5984 40.8044C-53.3108 40.1461 -49.9837 39.6129 -46.6435 39.1719C-25.0932 36.3414 -3.37817 36.868 15.3919 37.4012C45.9549 38.2701 72.5716 39.6458 99.017 34.8011C120.02 30.9569 142.882 28.9163 168.794 26.4413C198.909 23.4989 229.274 18.6475 257.294 15.3168C288.358 11.6306 316.022 8.55651 348.68 9.03703C362.265 9.23451 377.095 10.867 392.762 12.8154C427.588 17.1796 464.291 23.1171 496.172 25.0194"
    stroke="white"
    stroke-miterlimit="10"
  />
<path
    d="M-561.913 34.1757C-553.474 25.8817 -540.396 23.7095 -530.019 19.7271C-502.401 9.14236 -470.982 -0.119272 -441.15 0.24935C-420.45 0.506069 -403.768 6.44351 -385.723 13.1774C-367.697 19.9048 -349.797 28.8965 -330.915 36.6376C-305.893 46.8932 -288.71 69.3857 -262.64 77.9167C-238.066 85.9539 -204.598 88.2052 -179.477 86.8426C-130.045 84.1569 -110.023 47.2157 -59.1152 36.6508C-55.821 35.9793 -52.4939 35.433 -49.1471 34.9985C-27.5836 32.1812 -5.7698 33.083 13.0332 34.0967C43.7346 35.7555 70.4172 38.1845 97.1392 34.314C118.242 31.2597 141.202 29.6535 167.265 27.2246C197.472 24.3414 227.831 18.9898 255.792 14.9087C286.493 10.4259 313.841 6.58175 346.269 6.04198C359.735 5.81818 374.48 7.45723 390.048 9.37274C424.617 13.658 461.149 20.0035 492.621 22.1165"
    stroke="white"
    stroke-miterlimit="10"
  />
<path
    d="M-564.278 38.5794C-555.924 30.3513 -543.189 27.8697 -532.938 23.7358C-505.781 12.7891 -474.829 3.26415 -445.287 3.02718C-424.824 2.86261 -408.09 8.16155 -390.077 14.3228C-372.052 20.4906 -354.132 28.9624 -335.342 36.3611C-309.7 46.4587 -292.413 69.5832 -265.789 78.0286C-240.794 85.9605 -206.541 87.9287 -181.051 86.1185C-131.388 82.5969 -112.671 43.3386 -61.6185 32.5038C-58.3244 31.8126 -54.9907 31.2662 -51.6372 30.8318C-30.0672 28.0276 -8.14799 29.3047 10.6813 30.7989C41.5145 33.2476 68.2696 36.7232 95.2618 33.84C116.463 31.5756 139.522 30.4105 165.743 28.0211C196.049 25.1971 226.388 19.3584 254.303 14.5071C284.642 9.2345 311.674 4.24495 343.871 3.04692C357.219 2.55323 371.878 4.04747 387.353 5.93008C421.672 10.1297 458.019 16.89 489.096 19.2136"
    stroke="white"
    stroke-miterlimit="10"
  />
<path
    d="M-566.644 42.9897C-558.375 34.8208 -545.983 32.0364 -535.85 27.7446C-509.161 16.4424 -478.677 6.65415 -449.418 5.80501C-429.199 5.21916 -412.405 9.87302 -394.432 15.4616C-376.4 21.0699 -358.467 29.0084 -339.769 36.0715C-313.508 45.998 -296.115 69.7609 -268.945 78.1273C-243.534 85.9539 -208.491 87.6391 -182.632 85.3813C-132.739 81.0302 -115.32 39.4418 -64.1287 28.3436C-60.8345 27.6393 -57.4943 27.0798 -54.1342 26.6453C-32.551 23.8477 -10.5329 25.5065 8.32273 27.4879C39.2877 30.7331 66.1151 35.2487 93.384 33.3463C114.684 31.8653 137.842 31.1478 164.215 28.7978C194.613 26.0266 224.946 19.7139 252.801 14.0924C282.784 8.04307 309.493 1.89498 341.459 0.0452889C354.682 -0.718285 369.262 0.62455 384.639 2.48082C418.7 6.60149 454.87 13.7633 485.545 16.3042"
    stroke="white"
    stroke-miterlimit="10"
  />
<path
    d="M-569.009 47.3935C-560.833 39.2904 -548.77 36.2032 -538.769 31.7534C-512.541 20.0957 -482.524 10.0376 -453.562 8.58284C-433.587 7.57571 -416.734 11.5845 -398.794 16.6069C-380.755 21.6492 -362.802 29.0545 -344.203 35.795C-317.31 45.5372 -299.825 69.9584 -272.101 78.2392C-246.268 85.9605 -210.435 87.3692 -184.213 84.6572C-134.083 79.4833 -117.975 35.5646 -66.6388 24.2032C-63.338 23.4857 -59.9978 22.9196 -56.6378 22.4852C-35.048 19.7007 -12.9245 21.7413 5.95755 24.1966C37.0543 28.2383 63.9608 33.7808 91.4932 32.879C112.892 32.1746 136.149 31.9048 162.673 29.6009C193.17 26.8889 223.49 20.0957 251.286 13.6975C280.913 6.87796 307.299 -0.435235 339.035 -2.94318C352.139 -3.97664 366.633 -2.77862 381.918 -0.961836C415.729 3.07984 451.721 10.6498 481.988 13.4013"
    stroke="white"
    stroke-miterlimit="10"
  />
<path
    d="M-571.374 51.8038C-563.284 43.7665 -551.563 40.3699 -541.687 35.7687C-515.914 23.7556 -486.379 13.4342 -457.7 11.3607C-437.961 9.93226 -421.062 13.2959 -403.149 17.7457C-385.103 22.2284 -367.137 29.0874 -348.631 35.5054C-321.111 45.0501 -303.527 70.1427 -275.257 78.3445C-249.009 85.9605 -212.378 87.0927 -185.795 83.9331C-135.427 77.943 -120.623 31.6875 -69.149 20.0562C-65.8482 19.319 -62.5014 18.7463 -59.1348 18.3184C-37.5318 15.5472 -15.3095 17.9695 3.60546 20.8988C34.8273 25.7369 61.8393 33.4846 89.6221 32.3984C111.107 31.5559 134.482 32.6552 161.158 30.3908C191.747 27.738 222.066 20.4775 249.803 13.2959C279.075 5.71285 305.138 -2.76545 336.643 -5.93165C349.629 -7.23499 364.037 -6.18178 379.23 -4.39792C412.784 -0.441815 448.598 7.5428 478.463 10.5049"
    stroke="white"
    stroke-miterlimit="10"
  />
<path
    d="M-573.739 56.2075C-565.734 48.2294 -554.35 44.5366 -544.606 39.7775C-519.294 27.4155 -490.226 16.8242 -461.837 14.1385C-442.342 12.2954 -425.384 15.0074 -407.51 18.8911C-389.465 22.8077 -371.472 29.1269 -353.065 35.2289C-324.913 44.563 -307.237 70.3336 -278.419 78.4564C-251.75 85.9671 -214.329 86.8294 -187.382 83.209C-136.778 76.4027 -123.285 27.8104 -71.6724 15.9092C-68.3651 15.1588 -65.0182 14.5795 -61.645 14.1517C-40.0354 11.3936 -17.7077 14.1977 1.23362 17.6075C32.5873 23.2487 59.6585 30.8318 87.7312 31.9311C109.334 32.7737 132.788 33.4187 159.616 31.1938C190.304 28.6003 220.617 20.8856 248.288 12.901C277.217 4.56092 302.951 -5.08908 334.219 -8.92012C347.086 -10.4933 361.409 -9.58495 376.502 -7.834C409.806 -3.95688 445.436 4.42926 474.905 7.60863"
    stroke="white"
    stroke-miterlimit="10"
  />
<path
    d="M-576.111 60.6178C-568.192 52.7056 -557.143 48.71 -547.525 43.7862C-522.667 31.0754 -494.08 20.2142 -465.975 16.9163C-446.717 14.6585 -429.706 16.7188 -411.865 20.0299C-393.813 23.3804 -375.807 29.1467 -357.492 34.9393C-328.708 44.0495 -310.939 70.5179 -281.569 78.5552C-254.478 85.9605 -216.266 86.5595 -188.957 82.4718C-138.109 74.8624 -125.934 23.9136 -74.176 11.749C-70.8687 10.9789 -67.5152 10.393 -64.1354 9.96517C-42.5127 7.22026 -20.0861 10.4062 -1.11846 14.2899C30.3604 20.7342 57.5173 29.3244 85.8535 31.4308C107.562 33.0435 131.108 34.1428 158.087 31.964C188.868 29.4297 219.194 21.2608 246.786 12.4797C275.372 3.38922 300.77 -7.43905 331.807 -11.9283C344.549 -13.7714 358.793 -13.0079 373.794 -11.2898C406.841 -7.49171 442.3 1.30256 471.36 4.69256"
    stroke="white"
    stroke-miterlimit="10"
  />
<path
    d="M-578.476 65.0215C-570.649 57.1685 -559.937 52.8767 -550.443 47.795C-526.04 34.7353 -497.928 23.6108 -470.112 19.6942C-451.098 17.0151 -434.028 18.4237 -416.22 21.1752C-398.161 23.9596 -380.142 29.173 -361.919 34.6629C-332.502 43.5295 -314.642 70.722 -284.724 78.6671C-257.218 85.9737 -218.202 86.3028 -190.545 81.7477C-139.446 73.3418 -128.588 20.0365 -76.6925 7.60205C-73.3852 6.81873 -70.0251 6.2263 -66.6387 5.79843C-45.0094 3.06668 -22.4841 6.63441 -3.47686 10.9921C28.1337 18.2394 55.3763 27.8368 83.9761 30.9569C105.796 33.3332 129.429 34.8998 156.566 32.7671C187.445 30.292 217.778 21.6755 245.297 12.0848C273.541 2.24386 298.603 -9.76268 329.409 -14.9168C342.033 -17.0298 356.191 -16.411 371.093 -14.7325C403.89 -11.0199 439.164 -1.81756 467.823 1.78967"
    stroke="white"
    stroke-miterlimit="10"
  />
<path
    d="M-580.841 69.4318C-573.1 61.6447 -562.724 57.05 -553.362 51.8104C-529.413 38.4083 -501.775 27.0074 -474.256 22.4786C-455.479 19.3848 -438.356 20.1352 -420.588 22.3206C-402.819 24.506 -384.491 29.1928 -366.36 34.3798C-336.304 42.9897 -318.364 70.9129 -287.887 78.7724C-259.959 85.9737 -220.146 86.0395 -192.132 81.0236C-140.783 71.8212 -131.25 16.1593 -79.2092 3.45505C-75.8953 2.65198 -72.5353 2.05297 -69.1489 1.63169C-47.5064 -1.0869 -24.8822 2.8692 -5.84863 7.70078C25.8871 15.7512 53.2285 26.3491 82.0852 30.4829C104.018 33.6228 127.735 35.6568 155.024 33.5636C185.996 31.1412 216.348 22.0902 243.782 11.6898C271.215 1.2894 296.415 -12.0863 326.985 -17.8987C339.49 -20.275 353.562 -19.8076 368.373 -18.162C400.912 -14.5284 436.008 -4.91793 464.272 -1.10006"
    stroke="white"
    stroke-miterlimit="10"
  />
<path
    d="M-583.207 73.8355C-575.551 66.1076 -565.51 61.2168 -556.28 55.8191C-532.786 42.0748 -505.623 30.4039 -478.394 25.2498C-459.861 21.7413 -442.685 21.8335 -424.943 23.4594C-407.201 25.0853 -388.826 29.1993 -370.787 34.0967C-340.092 42.4368 -322.067 71.1037 -291.042 78.8777C-262.7 85.9803 -222.076 85.7828 -193.714 80.293C-142.108 70.3007 -133.905 12.2691 -81.7194 -0.698532C-78.4055 -1.51477 -75.0389 -2.12036 -71.6459 -2.54823C-49.9968 -5.25365 -27.2738 -0.915759 -8.20733 4.38976C23.647 13.2499 51.0938 24.8351 80.2008 29.9892C102.245 33.8927 126.049 36.3875 153.489 34.3403C184.559 31.9772 214.925 22.4917 242.273 11.2751C269.858 -0.0402828 294.228 -14.4231 324.567 -20.9069C336.953 -23.5531 350.94 -23.2306 365.652 -21.6178C397.941 -18.0633 432.859 -8.04464 460.714 -4.01613"
    stroke="white"
    stroke-miterlimit="10"
  />
<path
    d="M-585.572 78.2458C-578.002 70.5837 -568.291 65.3901 -559.192 59.8279C-536.146 45.7413 -509.464 33.8005 -482.524 28.0277C-464.229 24.1045 -447 23.5384 -429.291 24.5981C-411.582 25.6579 -393.154 29.1993 -375.208 33.8137C-343.874 41.8641 -325.763 71.3012 -294.192 78.9831C-265.427 85.9869 -224.007 85.5327 -195.288 79.5623C-143.419 68.7801 -136.547 8.38537 -84.2296 -4.84553C-80.9157 -5.67493 -77.5425 -6.29368 -74.143 -6.71496C-52.4807 -9.40722 -29.6654 -4.68097 -10.566 1.09191C21.4135 10.7617 48.9657 23.3343 78.3231 29.5153C100.486 34.1757 124.375 37.1445 151.967 35.1368C183.13 32.8329 213.528 22.913 240.784 10.8736C268.053 -1.17248 292.067 -16.7468 322.169 -23.8954C334.436 -26.8114 348.337 -26.6337 362.957 -25.0539C394.989 -21.5849 429.729 -11.1582 457.183 -6.90586"
    stroke="white"
    stroke-miterlimit="10"
  />
<path
    d="M-587.937 82.6495C-580.459 75.0533 -571.078 69.5634 -562.111 63.8366C-539.513 49.4077 -513.312 37.1971 -486.662 30.8055C-468.603 26.4742 -451.329 25.2432 -433.653 25.7435C-415.976 26.2438 -397.503 29.2059 -379.642 33.5307C-347.669 41.2783 -329.472 71.4921 -297.347 79.0884C-268.161 85.9934 -225.937 85.2825 -196.87 78.8316C-144.736 67.2661 -139.202 4.50167 -86.7398 -8.9991C-83.4193 -9.84825 -80.0461 -10.467 -76.6399 -10.8883C-54.9711 -13.5674 -32.057 -8.45275 -12.9181 -2.20593C19.1801 8.27347 46.8443 21.8335 76.4455 29.0348C98.7336 34.4588 122.695 37.8949 150.438 35.9267C181.7 33.682 212.131 23.3409 239.282 10.472C266.432 -2.39682 289.893 -19.0704 319.757 -26.8904C331.906 -30.0698 345.722 -30.0435 360.242 -28.5032C392.024 -25.1132 426.58 -14.2783 453.638 -9.81534"
    stroke="white"
    stroke-miterlimit="10"
  />
<path
    d="M-590.302 87.0598C-582.91 79.5228 -573.864 73.7368 -565.03 67.852C-542.873 53.0874 -517.159 40.6069 -490.806 33.5899C-472.985 28.8439 -455.657 26.9547 -438.014 26.8889C-420.371 26.823 -401.851 29.1993 -384.076 33.2542C-351.47 40.6793 -333.181 71.6962 -300.51 79.2003C-270.909 86 -227.867 85.039 -198.457 78.1076C-146.061 65.7587 -141.857 0.617971 -89.2565 -13.1461C-85.936 -14.0084 -82.5562 -14.6403 -79.1435 -15.055C-57.4614 -17.721 -34.4552 -12.218 -15.2832 -5.50379C16.9335 5.78526 44.7163 20.3327 74.5612 28.5608C96.968 34.7418 121.009 38.6453 148.903 36.7232C180.257 34.5378 210.734 23.7753 237.773 10.0705C264.811 -3.63434 287.712 -21.394 317.34 -29.8789C329.37 -33.3216 343.1 -33.4466 357.528 -31.9392C389.053 -28.6282 423.437 -17.3853 450.087 -12.7117"
    stroke="white"
    stroke-miterlimit="10"
  />
<path
    d="M-592.667 91.4635C-585.361 83.9923 -576.645 77.9101 -567.948 71.8607C-546.233 56.7604 -521 44.0035 -494.943 36.3677C-477.359 31.2136 -459.986 28.653 -442.369 28.0342C-424.29 27.3957 -406.199 29.1993 -388.503 32.9711C-355.258 40.0605 -336.89 71.9397 -303.665 79.3056C-273.656 86.0527 -229.798 84.7954 -200.038 77.3835C-147.365 64.2579 -144.512 -3.25914 -91.7665 -17.2931C-88.446 -18.1752 -85.0596 -18.8071 -81.6469 -19.2284C-59.9582 -21.8811 -36.8531 -15.9963 -17.6483 -8.80821C14.687 3.29048 42.595 18.8187 72.6771 28.0737C95.2157 35.0051 119.322 39.3891 147.375 37.5065C178.828 35.3803 209.351 24.1966 236.277 9.66238C262.631 -4.56906 285.564 -23.6716 314.935 -32.8805C326.853 -36.5668 340.491 -36.863 354.82 -35.3885C386.095 -32.163 420.295 -20.512 446.543 -15.6211"
    stroke="white"
    stroke-miterlimit="10"
  />
<path
    d="M-595.032 95.8738C-587.818 88.4619 -579.425 82.09 -570.86 75.8695C-549.586 60.4335 -524.821 47.4461 -499.074 39.139C-481.714 33.5965 -464.308 30.3118 -446.724 29.1664C-428.645 27.9223 -410.547 29.1796 -392.93 32.6815C-359.047 39.4154 -340.593 72.1175 -306.815 79.4109C-276.377 86.0461 -231.715 84.5519 -201.613 76.6528C-148.663 62.7571 -147.161 -7.14283 -94.2701 -21.4467C-90.943 -22.3419 -87.5566 -22.987 -84.1373 -23.4017C-62.442 -26.0413 -39.2579 -19.7286 -19.9937 -12.1061C12.4338 0.861535 40.4933 17.3113 70.806 27.5998C93.4763 35.2882 117.649 40.1461 145.853 38.303C177.398 36.2295 207.981 24.6376 234.782 9.26085C261.583 -6.11596 283.397 -26.0084 312.53 -35.869C324.33 -39.8317 337.882 -40.2661 352.119 -38.8246C383.137 -35.6781 417.159 -23.6189 443.011 -18.5174"
    stroke="white"
    stroke-miterlimit="10"
  />
<path
    d="M-597.398 100.278C-590.269 92.9314 -582.199 86.2699 -573.779 79.8783C-552.92 64.1394 -528.669 50.8295 -503.212 41.9168C-486.095 35.953 -468.636 32.0298 -451.078 30.3118C-433 28.5082 -414.896 29.1664 -397.358 32.3985C-362.842 38.7638 -344.289 72.2952 -309.971 79.5162C-279.111 86.0395 -233.639 84.3149 -203.194 75.9222C-149.967 61.2497 -149.809 -11.0331 -96.7868 -25.6003C-93.4598 -26.5152 -90.0668 -27.1603 -86.6409 -27.575C-64.9325 -30.2015 -41.6495 -23.5202 -22.359 -15.4105C10.1938 -1.653 38.3982 15.7381 68.9217 27.1127C91.737 35.512 115.969 40.8833 144.318 39.0863C175.962 37.0721 206.604 25.0721 233.273 8.85272C259.047 -6.82029 281.21 -28.3518 310.112 -38.8706C321.793 -43.1032 335.26 -43.6825 349.398 -42.2804C380.159 -39.2195 414.01 -26.7456 439.454 -21.4335"
    stroke="white"
    stroke-miterlimit="10"
  />
<path
    d="M-599.763 104.688C-551.787 55.0621 -471.72 20.2274 -401.785 32.122C-366.636 38.0989 -347.992 72.4861 -313.12 79.6281C-281.839 86.0395 -235.549 84.0845 -204.775 75.1981C-151.265 59.7555 -152.464 -14.9102 -99.297 -29.7407C-74.9203 -36.5404 -47.098 -28.6611 -24.7175 -18.7018C32.3172 6.67391 76.0371 43.9969 142.79 39.8894C174.525 37.9344 205.24 25.5197 231.778 8.45778C257.274 -7.93931 279.042 -30.682 307.708 -41.8525C344.378 -56.1432 399.337 -32.3934 435.916 -24.3232"
    stroke="white"
    stroke-miterlimit="10"
  />
</svg>
