<svg
  width="1440"
  height="186"
  viewBox="0 0 1440 186"
  fill="none"
  xmlns="http://www.w3.org/2000/svg"
>
<path
    d="M-62.7473 177.098C41.5632 101.248 141.338 58.5136 272.436 62.0852C382.052 65.069 391.181 209.457 446.396 276.062C490.944 329.794 577.155 336.236 633.139 301.108C694.553 262.579 725.232 190.537 781.33 146.107C833.4 104.865 906.195 40.3393 977.802 73.591C1045.27 104.933 1098.96 162.281 1161.66 201.229C1285.05 277.882 1438.27 213.741 1549.23 144.706C1584.25 122.915 1618.19 88.0016 1661.26 84.43"
    stroke="white"
    stroke-miterlimit="10"
  />
<path
    d="M-65.9712 172.804C-40.6091 154.256 -15.0433 138.309 10.4319 124.226C79.2559 86.261 150.059 63.7014 232.526 61.1019C244.234 60.7402 256.157 60.7967 268.341 61.2601C314.472 62.9781 342.742 89.7648 364.359 125.04C391.35 169.074 407.923 226.298 435.344 264.85C437.64 268.072 440.005 271.168 442.459 274.107C486.984 327.454 572.166 334.631 628.105 301.029C689.214 264.059 720.504 194.335 776.556 151.216C807.439 127.549 845.391 95.8455 885.98 80.4968C913.978 69.9177 943.209 67.1034 972.213 80.1125C1039.3 110.075 1092.78 164.994 1154.88 201.828C1168.02 209.638 1181.47 215.854 1195.17 220.635C1309.1 260.16 1438.94 200.958 1539.66 145.169C1561.67 132.974 1583.79 118.36 1607.65 106.266C1624.52 97.6764 1642.23 90.8498 1661.47 89.2787"
    stroke="white"
    stroke-miterlimit="10"
  />
<path
    d="M-69.1953 168.52C-44.0368 150.029 -18.2109 134.726 7.18521 120.993C75.9073 83.9554 146.722 61.8253 228.646 59.9265C240.309 59.6779 252.153 59.8587 264.234 60.4464C309.913 62.6052 338.002 89.3806 359.71 124.407C386.814 168.124 403.816 224.659 431.396 262.986C433.692 266.184 436.056 269.247 438.522 272.174C483.014 325.126 567.279 333.23 623.071 300.973C683.976 265.743 715.775 198.144 771.782 156.359C802.733 133.426 840.572 102.57 880.968 87.5157C908.83 77.1288 937.869 74.2354 966.648 86.668C1033.34 115.263 1086.61 167.74 1148.13 202.461C1161.12 209.83 1174.42 215.685 1187.96 220.07C1300.64 256.611 1428.15 195.974 1530.11 145.655C1553.77 133.98 1577.79 122.056 1603.73 110.652C1622.02 102.604 1641.12 95.8117 1661.71 94.1615"
    stroke="white"
    stroke-miterlimit="10"
  />
<path
    d="M-72.4194 164.225C-47.4645 145.78 -21.3784 131.132 3.93848 117.738C72.5475 81.6158 143.396 59.9378 224.766 58.7284C236.383 58.5928 248.159 58.8866 260.128 59.61C305.354 62.2209 333.262 88.9736 355.06 123.751C382.266 167.152 399.71 222.986 427.448 261.087C429.744 264.263 432.12 267.303 434.586 270.208C479.054 322.764 562.347 331.704 618.037 300.871C678.693 267.292 710.945 201.772 767.008 161.445C797.97 139.179 835.753 109.25 875.946 94.4779C903.672 84.2831 932.484 81.3671 961.071 93.1668C1027.33 120.519 1080.45 170.43 1141.38 203.038C1154.23 209.977 1167.36 215.436 1180.75 219.449C1292.23 252.859 1417.79 191.294 1520.58 146.096C1545.96 134.929 1571.81 125.673 1599.82 114.992C1619.52 107.476 1640.01 100.728 1661.96 99.0102"
    stroke="white"
    stroke-miterlimit="10"
  />
<path
    d="M-75.6433 159.941C-50.892 141.552 -24.5457 127.549 0.70327 114.506C69.2105 79.3101 140.071 57.892 220.897 57.553C232.469 57.5078 244.166 57.9486 256.044 58.8075C300.818 61.8592 328.545 88.612 350.422 123.118C377.742 166.214 395.615 221.347 423.511 259.222C425.819 262.364 428.194 265.393 430.649 268.275C475.084 320.436 557.392 330.212 612.992 300.815C673.388 268.885 706.171 205.535 762.223 166.587C793.242 145.034 830.923 115.986 870.923 101.497C898.514 91.5054 927.123 88.5103 955.482 99.7222C1021.34 125.74 1074.34 173.03 1134.6 203.659C1147.33 210.135 1160.29 215.244 1173.52 218.872C1283.8 249.151 1407.73 187.033 1510.99 146.582C1538.18 135.935 1565.77 129.335 1595.87 119.377C1616.99 112.392 1638.87 105.69 1662.16 103.893"
    stroke="white"
    stroke-miterlimit="10"
  />
<path
    d="M-78.8672 155.647C-54.3195 137.314 -27.7131 123.955 -2.54323 111.262C65.8621 76.9931 136.734 55.982 217.017 56.3776C228.544 56.4341 240.162 57.0331 251.938 57.9938C296.248 61.5993 323.805 88.2277 345.773 122.485C373.205 165.265 391.509 219.709 419.552 257.357C421.86 260.476 424.247 263.472 426.701 266.342C471.113 318.107 552.437 328.72 607.947 300.758C668.071 270.479 701.409 209.31 757.438 171.719C788.513 150.877 826.093 122.711 865.889 108.504C893.356 98.7051 921.749 95.6421 949.894 106.255C1015.36 130.94 1068.18 175.72 1127.83 204.27C1140.42 210.294 1153.22 215.041 1166.29 218.285C1275.38 245.422 1397.95 183.1 1501.44 147.057C1530.5 136.93 1559.74 132.985 1591.93 123.751C1614.46 117.286 1637.74 110.64 1662.39 108.764"
    stroke="white"
    stroke-miterlimit="10"
  />
<path
    d="M-82.0913 151.363C-57.7473 133.076 -30.8806 120.372 -5.78998 108.018C62.5136 74.676 133.408 54.0605 213.137 55.1907C224.619 55.3489 236.157 56.0836 247.843 57.1686C291.689 61.2375 319.087 87.8321 341.135 121.841C368.669 164.304 387.414 218.047 415.615 255.469C417.934 258.566 420.31 261.539 422.776 264.387C467.154 315.756 547.494 327.206 602.924 300.679C662.777 272.05 696.669 213.051 752.676 176.839C783.807 156.709 821.285 129.425 860.889 115.5C888.22 105.893 916.41 102.763 944.34 112.788C1009.41 136.139 1062.03 178.41 1121.08 204.88C1133.54 210.463 1146.2 214.826 1159.08 217.697C1266.99 241.703 1388.43 179.495 1491.89 147.531C1522.88 137.958 1553.73 136.625 1588.01 128.114C1611.95 122.18 1636.62 115.579 1662.61 113.624"
    stroke="white"
    stroke-miterlimit="10"
  />
<path
    d="M-85.3154 147.079C-61.175 128.848 -34.0368 116.789 -9.0367 104.786C59.165 72.3704 130.082 52.1617 209.256 54.0152C220.693 54.2865 232.152 55.1455 243.736 56.3548C287.13 60.8871 314.347 87.4478 336.486 121.208C364.133 163.355 383.307 216.408 411.667 253.604C413.986 256.667 416.373 259.629 418.839 262.454C463.183 313.428 542.528 325.702 597.89 300.622C657.46 273.632 691.918 216.826 747.902 181.981C779.09 162.564 816.466 136.161 855.866 122.519C883.061 113.104 911.048 109.906 938.763 119.343C1003.44 141.36 1055.88 181.111 1114.32 205.513C1126.64 210.655 1139.14 214.645 1151.86 217.132C1258.6 237.996 1379.06 176.206 1482.34 148.029C1515.32 139.032 1547.73 140.287 1584.09 132.51C1609.43 127.097 1635.52 120.553 1662.86 118.518"
    stroke="white"
    stroke-miterlimit="10"
  />
<path
    d="M-88.5281 142.784C-64.5913 124.599 -37.2269 113.138 -12.272 101.542C55.7487 69.9065 126.756 50.2516 205.388 52.8399C216.779 53.2129 228.171 54.2075 239.652 55.5412C282.583 60.5255 309.63 87.0636 331.859 120.564C359.619 162.405 379.291 214.69 407.742 251.728C410.072 254.757 412.459 257.696 414.914 260.51C459.235 311.1 537.573 324.199 592.867 300.555C652.155 275.215 687.178 220.59 743.14 187.101C774.395 168.396 811.658 142.875 850.855 129.515C877.914 120.304 905.697 117.026 933.186 125.876C997.462 146.559 1049.71 183.801 1107.56 206.123C1119.75 210.825 1132.09 214.442 1144.66 216.544C1250.24 234.266 1369.85 173.165 1472.79 148.503C1507.78 140.117 1541.71 143.926 1580.17 136.885C1606.91 131.991 1634.4 125.503 1663.09 123.389"
    stroke="white"
    stroke-miterlimit="10"
  />
<path
    d="M-91.752 138.501C-68.0188 120.372 -40.3942 109.555 -15.5185 98.2982C52.4004 67.5669 123.43 48.3415 201.508 51.6531C212.854 52.1391 224.166 53.2581 235.546 54.7274C278.024 60.1752 304.891 86.6793 327.198 119.931C355.06 161.456 375.185 213.04 403.771 249.863C406.102 252.87 408.488 255.786 410.955 258.566C455.242 308.76 532.584 322.685 587.811 300.487C646.816 276.774 682.415 224.354 738.343 192.232C769.656 174.25 806.816 149.6 845.821 136.523C872.744 127.504 900.324 124.158 927.598 132.42C991.489 151.759 1043.54 186.502 1100.79 206.745C1112.84 211.006 1125.02 214.238 1137.42 215.968C1241.83 230.548 1360.72 170.374 1463.22 148.989C1500.26 141.259 1535.68 147.577 1576.23 141.27C1604.38 136.885 1633.27 130.465 1663.31 128.272"
    stroke="white"
    stroke-miterlimit="10"
  />
<path
    d="M-94.9761 134.206C-71.4465 116.133 -43.5618 105.961 -18.7652 95.0543C49.0406 65.2386 120.104 46.4314 197.627 50.4664C208.928 51.0541 220.161 52.3086 231.44 53.9023C273.454 59.8134 300.162 86.2837 322.549 119.287C350.524 160.495 371.09 211.39 399.823 247.976C402.165 250.96 404.552 253.842 407.018 256.611C451.283 306.409 527.607 321.159 582.777 300.408C641.487 278.334 677.675 228.106 733.569 197.341C764.95 180.071 801.997 156.291 840.798 143.508C867.586 134.681 894.962 131.267 922.021 138.942C985.516 156.946 1037.37 189.181 1094.02 207.332C1105.94 211.153 1117.97 214.001 1130.2 215.357C1233.47 226.784 1356.58 185.609 1453.66 149.442C1493.4 149.487 1529.65 151.193 1572.3 145.621C1601.84 141.756 1632.14 135.393 1663.53 133.132"
    stroke="white"
    stroke-miterlimit="10"
  />
<path
    d="M-98.2 129.922C-74.874 111.895 -46.7291 102.367 -22.0117 91.8219C45.6923 62.9103 116.779 44.5439 193.747 49.3022C205.003 50.003 216.157 51.3819 227.345 53.0998C268.895 59.4631 295.434 85.9107 317.911 118.665C345.999 159.557 366.995 209.751 395.887 246.122C398.228 249.072 400.626 251.943 403.092 254.69C447.323 304.092 522.641 319.656 577.754 300.363C636.159 279.917 672.947 231.893 728.807 202.495C760.244 185.937 797.19 163.038 835.799 150.538C862.45 141.914 889.634 138.422 916.466 145.508C979.578 162.168 1031.22 191.905 1087.28 207.977C1099.06 211.356 1110.95 213.831 1123.01 214.803C1225.13 223.065 1347.24 183.564 1444.14 149.939C1485.81 151.261 1523.65 154.855 1568.39 150.018C1599.35 146.672 1631.04 140.366 1663.79 138.026"
    stroke="white"
    stroke-miterlimit="10"
  />
<path
    d="M-101.424 125.627C-78.3018 107.657 -49.8966 98.7729 -25.2585 88.5668C42.3324 60.5707 113.453 42.6225 189.867 48.1042C201.078 48.9067 212.152 50.4212 223.238 52.2635C264.336 59.0901 290.694 85.5039 313.262 117.998C341.452 158.585 362.889 208.067 391.938 244.224C394.291 247.151 396.678 249.999 399.156 252.723C443.364 301.73 517.652 318.107 572.72 300.272C630.82 281.454 668.218 235.645 724.033 207.592C755.538 191.758 792.37 169.729 830.776 157.511C857.292 149.08 884.272 145.52 910.878 152.007C973.605 167.322 1025.03 194.561 1080.51 208.553C1092.13 211.492 1103.88 213.583 1115.77 214.182C1216.76 219.279 1337.86 181.461 1434.56 150.38C1478.15 152.979 1517.61 158.45 1564.45 154.347C1596.81 151.51 1629.9 145.271 1663.99 142.852"
    stroke="white"
    stroke-miterlimit="10"
  />
<path
    d="M-104.648 121.344C-81.7406 103.429 -53.064 95.1899 -28.505 85.3342C38.9841 58.2536 110.127 40.7349 185.998 46.9286C197.164 47.8441 208.159 49.483 219.155 51.4609C259.788 58.7397 285.976 85.1421 308.635 117.377C336.938 157.647 358.816 206.428 388.002 242.37C390.355 245.275 392.753 248.089 395.219 250.801C439.394 299.413 512.663 316.604 567.686 300.227C625.481 283.025 663.479 239.443 719.259 212.746C750.832 197.635 787.563 176.477 825.765 164.541C852.145 156.302 878.932 152.663 905.312 158.574C967.654 172.544 1018.87 197.285 1073.75 209.197C1085.25 211.695 1096.84 213.402 1108.56 213.628C1208.44 215.549 1328.52 179.427 1425.02 150.888C1470.54 154.765 1511.61 162.111 1560.53 158.755C1594.3 156.438 1628.79 150.255 1664.24 147.757"
    stroke="white"
    stroke-miterlimit="10"
  />
<path
    d="M-107.872 117.049C-85.1683 99.1797 -56.2315 91.5958 -31.7517 82.0905C35.6355 55.9254 106.79 38.8475 182.118 45.7419C193.238 46.7592 204.155 48.5336 215.048 50.6359C255.23 58.3667 281.236 84.7465 303.974 116.732C332.379 156.686 354.698 204.778 384.042 240.482C386.407 243.353 388.805 246.156 391.271 248.846C435.412 297.062 507.652 315.067 562.641 300.148C620.118 284.562 658.739 243.206 714.474 217.855C746.126 203.456 782.732 183.179 820.73 171.526C846.975 163.49 873.559 159.772 899.724 165.095C961.693 177.709 1012.67 199.975 1066.99 209.796C1078.35 211.853 1089.8 213.56 1101.33 213.029C1199.99 208.474 1319.14 177.347 1415.45 151.352C1462.91 156.506 1505.58 165.74 1556.59 163.117C1591.76 161.309 1627.66 155.194 1664.47 152.617"
    stroke="white"
    stroke-miterlimit="10"
  />
<path
    d="M-111.096 112.765C-88.5958 94.9526 -59.3988 88.0129 -34.9869 78.8466C32.2985 53.5971 103.475 36.9486 178.25 44.5664C189.324 45.6967 200.161 47.5955 210.965 49.8221C250.682 58.005 276.531 84.3622 299.348 116.099C327.866 155.748 350.615 203.128 380.117 238.617C382.482 241.466 384.88 244.246 387.357 246.913C431.475 294.745 502.675 313.541 557.63 300.091C612.585 286.641 654.033 246.993 709.723 222.998C741.443 209.322 777.936 189.915 815.742 178.545C841.851 170.701 868.242 166.904 894.17 171.651C955.754 182.919 1006.51 202.698 1060.25 210.429C1071.46 212.045 1082.76 212.984 1094.14 212.464C1191.77 207.988 1309.81 175.29 1405.93 151.849C1455.3 158.291 1499.58 169.39 1552.69 167.514C1589.28 166.226 1626.56 160.167 1664.72 157.511"
    stroke="white"
    stroke-miterlimit="10"
  />
<path
    d="M-114.32 108.47C-92.0236 90.7029 -62.5551 84.4075 -38.2337 75.6029C28.95 51.2688 100.149 35.0612 174.369 43.3798C185.399 44.6117 196.168 46.6462 206.858 48.9971C246.112 57.6321 271.791 83.9667 294.698 115.444C323.329 154.776 346.52 201.455 376.158 236.73C378.533 239.556 380.932 242.302 383.409 244.958C427.493 292.394 497.663 311.981 552.584 300.012C609.417 287.625 649.304 250.768 704.938 228.106C736.725 215.165 773.106 196.618 810.708 185.53C836.681 177.878 862.88 174.013 888.582 178.172C949.792 188.084 1000.31 205.388 1053.47 211.017C1064.54 212.192 1075.7 212.746 1086.91 211.853C1183.44 204.168 1300.44 173.199 1396.36 152.301C1447.66 160.021 1493.55 172.996 1548.74 171.866C1586.73 171.086 1625.42 165.095 1664.93 162.36"
    stroke="white"
    stroke-miterlimit="10"
  />
<path
    d="M-117.544 104.187C-95.4511 86.4759 -65.7224 80.8247 -41.4801 72.3705C25.5904 48.9632 96.8238 33.185 170.489 42.2043C181.474 43.5493 192.164 45.7081 202.752 48.1833C241.553 57.2705 267.051 83.5825 290.049 114.811C318.782 153.827 342.413 199.816 372.21 234.854C374.586 237.646 376.995 240.381 379.461 243.014C423.522 290.055 492.652 310.433 547.528 299.944C604.033 289.151 644.553 254.554 700.142 233.238C732.008 221.02 768.264 203.343 805.663 192.538C831.5 185.089 857.507 181.134 882.982 184.716C943.819 193.272 994.102 208.101 1046.68 211.639C1057.61 212.373 1068.63 212.532 1079.66 211.277C1175.09 200.37 1291.04 171.142 1386.77 152.787C1440 161.784 1487.51 176.635 1544.8 176.251C1584.19 175.98 1624.28 170.057 1665.14 167.254"
    stroke="white"
    stroke-miterlimit="10"
  />
<path
    d="M-120.768 99.9031C-98.8788 82.2488 -68.89 77.2418 -44.7269 69.1267C22.2418 46.6349 93.4978 31.2975 166.609 41.0289C177.548 42.4869 188.159 44.77 198.657 47.3809C236.994 56.9201 262.322 83.2095 285.411 114.189C314.257 152.889 338.318 198.178 368.273 233C370.649 235.769 373.07 238.471 375.536 241.093C419.563 287.738 487.652 308.896 542.505 299.899C598.682 290.688 639.847 258.363 695.379 238.38C727.314 226.886 763.456 210.068 800.663 199.556C826.364 192.3 852.167 188.265 877.428 191.26C937.892 198.449 987.926 210.825 1039.94 212.26C1050.72 212.554 1061.6 212.328 1072.46 210.701C1166.8 196.55 1286.56 119.309 1377.24 153.273C1429.77 172.951 1481.5 180.275 1540.88 180.625C1581.68 180.874 1623.18 175.008 1665.38 172.126"
    stroke="white"
    stroke-miterlimit="10"
  />
<path
    d="M-123.992 95.6081C-102.306 77.999 -72.0573 73.6475 -47.9734 65.8828C18.8935 44.3178 90.1722 29.4099 162.729 39.842C173.623 41.4131 184.155 43.8092 194.551 46.5557C232.435 56.547 257.594 82.8138 280.75 113.534C309.71 151.928 334.201 196.516 364.314 231.113C366.701 233.859 369.11 236.538 371.588 239.137C415.593 285.387 482.629 307.313 537.46 299.82C592.29 292.326 635.119 262.138 690.594 243.5C722.608 232.74 758.626 216.781 795.629 206.553C821.194 199.489 846.805 195.374 871.828 197.793C931.919 203.614 981.716 213.537 1033.16 212.871C1043.81 212.735 1054.54 212.102 1065.23 210.113C1158.46 192.718 1277.89 119.049 1367.68 153.736C1422 174.725 1475.49 183.891 1536.96 184.988C1579.16 185.745 1622.06 179.947 1665.61 176.985"
    stroke="white"
    stroke-miterlimit="10"
  />
<path
    d="M-127.216 91.3246C-105.734 73.772 -75.2248 70.0648 -51.2202 62.6504C15.5562 42.0009 86.8462 27.5451 158.849 38.6667C169.697 40.3394 180.15 42.8712 190.455 45.742C227.876 56.1741 252.865 82.4296 276.112 112.901C305.173 150.979 330.106 194.866 360.366 229.248C362.753 231.96 365.174 234.628 367.651 237.193C411.622 283.047 477.606 305.743 532.426 299.752C587.935 293.683 630.401 265.935 685.82 248.62C717.913 238.595 753.807 223.495 790.617 213.549C816.047 206.677 841.466 202.472 866.262 204.326C925.98 208.779 975.528 216.261 1026.41 213.481C1036.91 212.905 1047.51 211.887 1058.02 209.525C1150.14 188.853 1269.13 118.936 1358.12 154.211C1414.25 176.454 1469.46 187.519 1533.02 189.362C1576.63 190.628 1620.93 184.897 1665.84 181.857"
    stroke="white"
    stroke-miterlimit="10"
  />
<path
    d="M-130.44 87.0297C-109.162 69.5222 -78.3921 66.4819 -54.4667 59.3953C12.2079 39.6726 83.5205 25.6576 154.969 37.4799C165.772 39.2657 176.146 41.9218 186.349 44.9169C223.318 55.7898 248.126 82.034 271.463 112.257C300.637 150.018 325.999 193.216 356.418 227.36C358.816 230.05 361.237 232.684 363.714 235.238C407.651 280.696 472.595 304.149 527.392 299.673C582.189 295.197 625.684 269.722 681.047 253.74C713.219 244.45 748.988 230.209 785.595 220.545C810.889 213.877 836.115 209.582 860.686 210.859C920.03 213.944 969.34 218.985 1019.65 214.091C1030 213.085 1040.46 211.661 1050.8 208.937C1141.82 184.988 1260.24 118.959 1348.57 154.686C1406.55 178.138 1463.45 191.023 1529.09 193.736C1574.12 195.42 1619.81 189.848 1666.06 186.728"
    stroke="white"
    stroke-miterlimit="10"
  />
<path
    d="M-133.664 82.746C-112.589 65.2951 -81.5597 62.899 -57.7134 56.1627C8.85936 37.3668 80.1833 23.7927 151.089 36.3044C161.847 38.2032 172.152 40.9723 182.254 44.1031C218.759 55.4281 243.397 81.6497 266.825 111.624C296.112 149.069 321.904 191.566 352.481 225.495C354.879 228.163 357.3 230.774 359.778 233.305C403.692 278.379 467.572 302.567 522.358 299.617C577.188 296.655 620.978 273.542 676.273 258.871C708.524 250.315 744.169 236.933 780.583 227.552C805.742 221.076 830.776 216.702 855.108 217.403C914.079 219.11 963.141 221.732 1012.88 214.702C1023.1 213.255 1033.41 211.424 1043.57 208.35C1133.48 181.1 1251.22 119.083 1339.01 155.161C1398.87 179.755 1457.43 194.651 1525.17 198.11C1571.59 200.314 1618.69 194.798 1666.3 191.599"
    stroke="white"
    stroke-miterlimit="10"
  />
<path
    d="M-136.888 78.4512C-116.017 61.0568 -84.7157 59.3049 -60.9599 52.919C5.51105 35.0499 76.8576 21.9165 147.209 35.1177C157.921 37.1296 168.148 40.023 178.148 43.2894C214.2 55.0552 238.657 81.2768 262.175 110.979C291.565 148.119 317.798 189.916 348.533 223.619C350.943 226.253 353.364 228.852 355.841 231.361C399.721 276.04 462.561 300.962 517.324 299.549C571.815 298.136 616.261 277.351 671.499 264.003C703.829 256.193 739.35 243.658 775.561 234.56C800.595 228.276 825.425 224.309 849.532 223.947C908.129 223.054 956.953 224.478 1006.12 215.323C1016.18 213.447 1026.37 211.209 1036.35 207.773C1125.16 177.212 1242.1 119.321 1329.46 155.647C1391.22 181.326 1451.41 198.291 1521.23 202.495C1569.07 205.208 1617.56 199.76 1666.52 196.482"
    stroke="white"
    stroke-miterlimit="10"
  />
<path
    d="M-140.112 74.1674C-119.445 56.8183 -87.8833 55.7219 -64.2066 49.6751C2.1625 32.7328 73.5317 20.0402 143.328 33.9422C153.996 36.067 164.143 39.0735 174.041 42.4755C209.63 54.6821 233.929 80.8924 257.515 110.346C287.017 147.17 313.669 188.277 344.563 221.754C346.972 224.365 349.404 226.931 351.882 229.429C395.739 273.711 457.572 301.707 512.267 299.492C566.385 297.288 611.521 281.171 666.702 269.134C699.112 262.059 734.508 250.383 770.515 241.567C795.414 235.487 820.052 230.92 843.932 230.491C902.156 229.429 950.742 227.225 999.329 215.945C1009.25 213.639 1019.28 210.994 1029.11 207.197C1116.8 173.312 1232.86 119.637 1319.88 156.132C1383.58 182.851 1445.38 201.941 1517.3 206.869C1566.54 210.101 1616.42 204.71 1666.74 201.365"
    stroke="white"
    stroke-miterlimit="10"
  />
<path
    d="M-143.336 69.8725C-122.883 52.5799 -91.0506 52.1278 -67.4418 46.4314C-1.17451 30.4158 70.206 18.1753 139.46 32.7554C150.082 34.9933 160.15 38.1241 169.958 41.6504C205.094 54.2865 229.211 80.4968 252.888 109.702C282.492 146.209 309.585 186.626 340.637 219.867C343.047 222.455 345.479 224.998 347.968 227.473C391.791 271.361 452.527 297.74 507.256 299.413C561.08 301.052 606.838 284.98 661.951 274.254C694.44 267.925 729.712 257.097 765.527 248.564C790.289 242.675 814.735 238.018 838.389 237.013C896.24 234.56 944.577 229.96 992.609 216.544C1002.39 213.809 1012.28 210.746 1021.93 206.598C1108.48 169.368 1217.18 142.784 1310.36 156.596C1380.87 167.051 1439.39 205.558 1513.39 211.232C1564.04 214.973 1615.33 209.649 1666.99 206.225"
    stroke="white"
    stroke-miterlimit="10"
  />
<path
    d="M-146.56 65.589C-126.311 48.3415 -94.2181 48.5562 -70.6886 43.1989C-4.51174 28.1215 66.8801 16.3218 135.58 31.58C146.157 33.9309 156.145 37.1747 165.851 40.8367C200.535 53.9136 224.471 80.1125 248.239 109.069C277.956 145.271 305.479 184.976 336.689 218.002C339.11 220.556 341.542 223.077 344.031 225.541C387.821 269.032 447.516 296.124 502.222 299.357C555.718 302.51 602.121 288.811 657.177 279.385C689.746 273.802 724.893 263.811 760.504 255.571C785.131 249.875 809.384 245.128 832.801 243.557C890.278 239.714 938.39 232.729 985.833 217.166C995.471 214.001 1005.22 210.531 1014.7 206.021C1100.11 165.434 1208 141.575 1300.8 157.082C1373.29 169.187 1433.37 209.197 1509.46 215.617C1561.52 219.878 1614.2 214.611 1667.22 211.107"
    stroke="white"
    stroke-miterlimit="10"
  />
<path
    d="M-149.784 61.294C-129.739 44.1031 -97.3741 44.962 -73.9351 39.9438C-7.86006 25.8045 63.5431 14.4456 131.711 30.3819C142.243 32.8459 152.163 36.214 161.768 40.0003C195.987 53.518 219.754 79.7057 243.612 108.402C273.442 144.288 301.384 183.303 332.764 216.103C335.185 218.635 337.628 221.133 340.106 223.574C383.873 266.67 442.527 294.463 497.199 299.255C550.356 303.923 597.426 292.609 652.415 284.483C685.062 279.656 720.085 270.502 755.504 262.545C779.995 257.052 804.056 252.203 827.246 250.067C884.351 244.822 932.224 235.464 979.091 217.742C988.593 214.148 998.186 210.26 1007.51 205.4C1091.75 161.445 1198.8 140.343 1291.26 157.523C1365.69 171.346 1427.37 212.803 1505.55 219.957C1559.02 224.727 1613.1 219.528 1667.48 215.945"
    stroke="white"
    stroke-miterlimit="10"
  />
<path
    d="M-153.008 57.0105C-133.166 39.876 -100.542 41.3905 -77.1818 36.7113C-11.2086 23.4988 60.2171 12.6033 127.831 29.2178C138.317 31.7948 148.159 35.2759 157.661 39.2092C191.428 53.1563 215.014 79.344 238.962 107.792C268.895 143.361 297.277 181.687 328.805 214.25C331.225 216.759 333.669 219.234 336.158 221.653C379.891 264.353 437.504 292.835 492.154 299.21C544.994 305.37 592.698 296.463 647.63 289.625C680.356 285.556 715.255 277.238 750.47 269.563C774.825 264.263 798.683 259.312 821.658 256.622C878.389 249.976 926.036 238.245 972.315 218.375C981.682 214.351 991.116 210.045 1000.27 204.835C1083.35 157.511 1189.51 139.179 1281.69 158.009C1358.03 173.606 1421.34 216.442 1501.61 224.343C1556.48 229.632 1611.96 224.49 1667.68 220.828"
    stroke="white"
    stroke-miterlimit="10"
  />
<path
    d="M-156.232 52.7268C-136.594 35.6376 -103.709 37.8076 -80.4283 33.4788C-14.5456 21.2044 56.8801 10.761 123.951 28.0424C134.392 30.7323 144.154 34.3378 153.566 38.3954C186.881 52.7833 210.297 78.9597 234.313 107.159C264.359 142.411 293.16 180.048 324.857 212.385C327.289 214.86 329.732 217.312 332.221 219.72C375.932 262.036 432.504 291.196 487.12 299.153C541.736 307.11 587.992 300.306 642.856 294.768C675.662 291.456 710.436 283.974 745.459 276.582C769.678 271.474 793.344 266.433 816.081 263.178C872.439 255.119 919.86 241.025 965.55 219.008C974.77 214.566 984.057 209.83 993.051 204.269C1074.95 153.556 1180.2 138.037 1272.14 158.506C1350.35 175.923 1415.32 220.093 1497.68 228.739C1553.96 234.537 1610.85 229.463 1667.92 225.721"
    stroke="white"
    stroke-miterlimit="10"
  />
<path
    d="M-159.456 48.432C-140.022 31.3992 -106.877 34.2248 -83.6751 30.2238C-17.8942 18.8988 53.5429 8.89616 120.07 26.8444C130.466 29.6474 140.15 33.3659 149.46 37.5591C182.322 52.3765 205.557 78.5529 229.664 106.504C259.822 141.451 289.053 178.398 320.909 210.497C323.341 212.95 325.796 215.38 328.284 217.765C371.961 259.685 427.516 289.524 482.075 299.074C534.27 308.218 583.263 304.138 638.071 299.877C670.956 297.322 705.605 290.676 740.425 283.567C764.508 278.651 787.981 273.508 810.493 269.699C866.466 260.228 913.683 243.783 958.786 219.607C967.869 214.736 976.998 209.582 985.822 203.671C1066.52 149.577 1170.83 136.862 1262.58 158.969C1342.65 178.263 1409.3 223.721 1493.74 233.091C1551.42 239.409 1609.72 234.39 1668.13 230.57"
    stroke="white"
    stroke-miterlimit="10"
  />
<path
    d="M-162.68 44.1483C-143.449 27.1607 -110.033 30.6419 -86.9216 26.9912C-21.2425 16.6043 50.2059 7.05376 116.19 25.6801C126.53 28.5961 136.157 32.4277 145.353 36.7565C177.763 52.0034 200.818 78.1798 225.015 105.871C255.275 140.501 284.936 176.759 316.961 208.632C319.404 211.062 321.859 213.47 324.336 215.82C367.99 257.346 422.516 287.851 477.03 299.006C528.919 309.619 578.535 307.98 633.286 305.008C666.25 303.211 700.775 297.401 735.402 290.575C759.35 285.861 782.619 280.606 804.916 276.243C860.505 265.359 907.518 246.563 952.021 220.228C960.969 214.928 969.94 209.356 978.605 203.094C1058.1 145.599 1161.45 135.72 1253.02 159.455C1334.91 180.67 1403.28 227.36 1489.81 237.476C1548.9 244.303 1608.59 239.352 1668.36 235.464"
    stroke="white"
    stroke-miterlimit="10"
  />
<path
    d="M-165.904 39.8534C-146.877 22.9224 -113.2 27.0591 -90.1683 23.7475C-24.5797 14.2987 46.8686 5.20022 112.31 24.4934C122.604 27.5338 132.152 31.4783 141.258 35.9428C173.227 51.6192 196.089 77.7956 220.376 105.238C250.75 139.552 280.773 175.177 313.013 206.756C315.456 209.163 317.911 211.537 320.4 213.877C364.02 255.006 417.527 286.178 471.995 298.938C523.579 311.032 573.817 311.834 628.512 310.128C661.544 309.099 695.956 304.115 730.379 297.571C754.192 293.05 777.269 287.693 799.339 282.765C854.543 270.456 901.364 249.321 945.256 220.828C954.068 215.109 962.881 209.107 971.387 202.495C1049.66 141.598 1152.01 134.568 1243.47 159.919C1327.15 183.111 1397.27 230.977 1485.89 241.839C1546.39 249.185 1607.48 244.291 1668.6 240.324"
    stroke="white"
    stroke-miterlimit="10"
  />
<path
    d="M-169.128 35.5697C-150.304 18.6953 -116.367 23.4875 -93.4148 20.5036C-27.928 12.0042 43.5316 3.35789 108.43 23.3066C118.679 26.46 128.159 30.5176 137.152 35.1176C168.668 51.2236 191.361 77.4113 215.727 104.594C246.214 138.591 276.666 173.527 309.065 204.88C311.508 207.265 313.974 209.615 316.463 211.932C360.049 252.666 412.55 284.494 466.962 298.871C518.251 312.422 569.089 315.689 623.739 315.259C656.85 314.999 691.137 310.84 725.357 304.578C749.033 300.25 771.907 294.79 793.751 289.309C848.57 275.576 895.199 252.101 938.48 221.438C947.157 215.289 955.811 208.87 964.148 201.907C1041.17 137.619 1142.51 133.426 1233.89 160.394C1319.31 185.598 1391.22 234.616 1481.93 246.213C1543.85 254.068 1606.32 249.242 1668.8 245.195"
    stroke="white"
    stroke-miterlimit="10"
  />
<path
    d="M-172.352 31.2748C-153.732 14.4455 -119.524 19.9385 -96.6616 17.2598C-31.2653 9.81155 40.1831 1.51558 104.55 22.1312C114.754 25.3976 124.154 29.5682 133.057 34.3039C164.12 50.828 186.632 77.027 211.078 103.961C241.666 137.653 272.56 171.888 305.117 203.015C307.56 205.366 310.038 207.694 312.526 210C356.09 250.338 407.583 282.81 461.928 298.814C512.923 313.835 564.372 319.554 618.965 320.39C652.143 320.899 686.318 317.553 720.345 311.586C743.886 307.46 766.556 301.877 788.185 295.853C842.608 280.696 889.068 254.882 931.726 222.059C940.267 215.481 948.752 208.643 956.942 201.331C1032.71 133.641 1132.99 132.296 1224.35 160.879C1315.71 189.463 1385.22 238.256 1478.03 250.598C1541.35 258.973 1605.23 254.203 1669.05 250.078"
    stroke="white"
    stroke-miterlimit="10"
  />
<path
    d="M-175.576 26.9912C-157.16 10.2185 -122.691 16.3557 -99.8968 14.0274C-34.6023 7.50588 36.8574 -0.315384 100.681 20.9557C110.84 24.3352 120.172 28.6188 128.962 33.4901C159.584 50.4437 181.903 76.6427 206.44 103.316C237.141 136.692 268.465 170.227 301.18 201.139C303.635 203.467 306.101 205.773 308.601 208.056C352.131 247.998 402.64 281.115 456.905 298.746C507.618 315.225 559.654 323.419 614.202 325.522C647.46 326.799 681.51 324.278 715.334 318.593C738.739 314.66 761.205 308.975 782.62 302.397C836.647 285.805 882.937 257.662 924.973 222.681C933.39 215.685 941.693 208.417 949.736 200.754C1024.24 129.662 1123.44 131.166 1214.81 161.366C1303.63 190.729 1379.22 241.895 1474.11 254.983C1538.82 263.867 1604.11 259.165 1669.29 254.961"
    stroke="white"
    stroke-miterlimit="10"
  />
<path
    d="M-178.8 22.6963C-160.587 5.98004 -125.859 12.7615 -103.144 10.7723C-37.9508 5.17757 33.4749 -2.07858 96.8011 19.7577C106.903 23.2727 116.179 27.6354 124.867 32.6537C155.071 49.9916 177.175 76.2358 201.802 102.661C232.616 135.72 264.37 168.565 297.232 199.24C299.687 201.546 302.164 203.829 304.653 206.089C348.16 245.648 397.674 279.397 451.86 298.656C502.301 316.581 554.915 327.251 609.417 330.619C642.743 332.676 676.68 330.969 710.311 325.567C733.581 321.826 755.843 316.028 777.042 308.907C830.674 290.88 876.873 260.488 918.22 223.269C926.512 215.866 934.645 208.157 942.518 200.133C1015.73 125.639 1113.83 129.979 1205.26 161.806C1295.73 193.295 1373.21 245.501 1470.18 259.312C1536.31 268.716 1602.99 264.07 1669.51 259.787"
    stroke="white"
    stroke-miterlimit="10"
  />
<path
    d="M-182.024 18.4128C-164.026 1.74171 -129.026 9.1787 -106.39 7.53985C-41.2991 2.87195 30.1492 -3.9547 92.9211 18.5936C102.978 22.2217 112.175 26.7087 120.761 31.8626C150.512 49.6413 172.435 75.8742 197.152 102.051C228.069 134.794 260.264 166.938 293.284 197.398C295.75 199.669 298.228 201.93 300.716 204.179C344.189 243.342 392.73 277.724 446.826 298.622C496.996 318.006 550.175 331.229 604.632 335.784C638.026 338.666 671.85 337.728 705.277 332.608C728.411 329.071 750.459 323.126 771.443 315.485C824.645 295.955 870.674 263.257 911.432 223.924C919.589 216.081 927.53 207.954 935.279 199.59C1007.07 121.581 1104.16 128.871 1195.68 162.315C1287.77 195.974 1367.16 249.163 1466.23 263.72C1533.77 273.632 1601.84 269.055 1669.73 264.703"
    stroke="white"
    stroke-miterlimit="10"
  />
<path
    d="M-185.248 14.1178C-167.454 -2.49672 -132.193 5.5845 -109.637 4.29602C-44.659 0.554927 26.812 -5.83093 89.0408 17.4068C133.6 34.044 160.523 67.9625 192.503 101.395C223.533 133.833 256.157 165.276 289.336 195.51C334.789 236.922 384.699 274.717 441.792 298.543C522.392 332.179 612.992 352.297 700.266 339.593C793.457 326.03 867.62 268.546 928.061 198.991C998.684 117.716 1094.48 127.707 1186.13 162.778C1279.81 198.63 1361.15 252.779 1462.31 268.083C1531.25 278.515 1600.72 273.994 1669.95 269.563"
    stroke="white"
    stroke-miterlimit="10"
  />
<path
    d="M-189.309 21.6904C-171.662 5.1776 -136.978 12.7389 -114.648 11.1792C-50.4508 6.80515 20.2057 -0.0215012 81.9368 22.1764C126.089 38.0902 153.091 70.9124 185.026 103.362C216.055 134.839 248.363 165.773 281.734 195.024C304.461 214.939 327.821 234.888 353.036 251.875C379.868 270.083 408.941 285.534 439.088 297.288C515.129 326.934 596.974 343.007 679.304 334.496C684.87 333.919 690.436 333.23 695.99 332.427C732.664 327.115 766.545 315.621 797.687 299.47C845.855 274.616 887.756 238.685 924.849 198.155C956.614 163.208 993.333 145.847 1032.59 140.151C1081.01 133.098 1133.05 143.824 1183.56 162.078C1248.65 185.598 1307.55 217.934 1371.68 240.245C1399.1 249.807 1427.5 257.639 1457.66 262.16C1526.16 272.446 1595.34 268.637 1663.88 264.568"
    stroke="white"
    stroke-miterlimit="10"
  />
<path
    d="M-193.37 29.2517C-175.87 12.852 -141.775 19.882 -119.659 18.0624C-56.254 13.0667 13.5994 5.78795 74.8327 26.9348C118.577 42.1252 145.659 73.8397 177.548 105.306C208.578 135.822 240.603 166.226 274.133 194.527C297.696 214.408 321.52 235.102 347.617 252.045C375.23 269.97 405.649 284.878 436.362 296.022C512.946 323.826 592.415 336.327 674.972 327.353C680.549 326.754 686.114 326.053 691.68 325.25C728.366 319.961 762.393 309.043 793.626 293.785C841.964 270.174 884.226 236.312 921.602 197.319C953.684 163.852 990.426 147.125 1029.95 141.496C1078.55 134.545 1130.64 144.265 1180.98 161.366C1245.55 183.315 1303.81 213.899 1367.54 235.08C1394.76 244.178 1423.01 251.762 1453.01 256.227C1521.09 266.376 1589.94 263.257 1657.79 259.561"
    stroke="white"
    stroke-miterlimit="10"
  />
<path
    d="M-197.431 36.8244C-180.078 20.5263 -146.571 26.98 -124.659 24.9569C-62.0573 19.1587 7.00415 11.6087 67.7398 31.7157C111.077 46.1715 138.238 76.801 170.071 107.284C201.1 136.839 232.865 166.689 266.53 194.052C290.942 213.899 315.196 235.385 342.198 252.237C370.558 269.937 402.357 284.234 433.647 294.791C510.751 320.775 587.856 329.681 670.662 320.244C676.239 319.611 681.816 318.91 687.393 318.107C724.101 312.84 758.275 302.533 789.576 288.145C838.106 265.834 880.629 233.904 918.378 196.516C950.72 164.485 987.541 148.436 1027.33 142.875C1076.08 136.026 1128.24 144.74 1178.4 160.699C1242.45 181.077 1300.08 209.909 1363.4 229.971C1390.42 238.595 1418.52 245.942 1448.35 250.349C1515.98 260.363 1584.54 257.945 1651.7 254.61"
    stroke="white"
    stroke-miterlimit="10"
  />
<path
    d="M-201.492 44.3857C-184.298 28.2006 -151.356 34.1005 -129.671 31.84C-67.8605 25.3637 0.397847 17.4181 60.6357 36.4853C103.566 50.2177 130.806 79.7396 162.593 109.239C193.623 137.834 225.162 167.118 258.929 193.566C284.212 213.379 308.861 235.668 336.791 252.418C364.721 269.168 399.065 283.59 430.943 293.536C508.534 317.723 583.32 323.013 666.363 313.112C671.94 312.456 677.528 311.733 683.117 310.942C719.836 305.697 754.18 295.989 785.538 282.471C834.271 261.46 877.043 231.474 915.166 195.691C947.756 165.084 984.668 149.713 1024.71 144.231C1073.64 137.484 1125.83 145.192 1175.83 160.009C1239.34 178.828 1296.36 205.886 1359.27 224.829C1386.08 232.989 1414.04 240.087 1443.71 244.438C1510.92 254.305 1579.16 252.599 1645.63 249.626"
    stroke="white"
    stroke-miterlimit="10"
  />
<path
    d="M-205.553 51.9583C-188.506 35.8863 -156.153 41.2436 -134.682 38.7232C-73.6749 31.5801 -6.20846 23.2276 53.5204 41.2549C96.0319 54.264 123.306 82.7574 155.105 111.206C186.904 139.654 217.481 167.525 251.316 193.08C277.481 212.848 302.515 235.939 331.361 252.599C361.214 269.835 395.74 282.957 428.217 292.281C506.294 314.694 578.75 316.333 662.042 305.98C667.63 305.29 673.218 304.567 678.807 303.765C715.549 298.543 750.04 289.444 781.477 276.786C830.403 257.074 873.423 229.044 911.919 194.843C944.758 165.672 981.772 150.979 1022.08 145.565C1071.16 138.919 1123.41 145.621 1173.26 159.286C1236.22 176.545 1292.61 201.84 1355.13 219.663C1381.74 227.36 1409.55 234.21 1439.05 238.493C1505.81 248.225 1573.76 247.207 1639.54 244.608"
    stroke="white"
    stroke-miterlimit="10"
  />
<path
    d="M-209.615 59.5196C-192.714 43.5493 -160.949 48.3641 -139.694 45.6063C-79.4783 37.7851 -12.7698 28.9014 46.4161 46.0245C88.543 58.2085 115.862 85.7186 147.616 113.161C178.577 139.914 209.822 167.898 243.702 192.594C270.773 212.317 296.157 236.221 325.931 252.791C356.52 269.812 392.414 282.335 425.491 291.038C504.02 311.699 574.179 309.676 657.72 298.871C663.309 298.159 668.908 297.413 674.508 296.621C711.261 291.422 745.922 282.934 777.416 271.146C826.556 252.746 869.803 226.648 908.683 194.041C941.772 166.293 978.876 152.29 1019.44 146.944C1068.7 140.4 1120.97 146.107 1170.66 158.619C1233.07 174.318 1288.9 197.703 1350.98 214.543C1377.4 221.709 1405.04 228.378 1434.39 232.605C1500.72 242.2 1568.35 241.884 1633.44 239.646"
    stroke="white"
    stroke-miterlimit="10"
  />
<path
    d="M-213.676 67.0922C-196.934 51.2349 -165.734 55.5072 -144.693 52.5007C-85.2814 44.0126 -19.3647 34.6995 39.3234 50.7941C81.0431 62.2434 108.43 88.6797 140.15 115.127C171.869 141.575 202.209 168.271 236.112 192.108C264.087 211.786 289.834 236.504 320.535 252.972C351.859 269.767 389.11 281.714 422.798 289.783C501.781 308.715 569.654 303.007 653.422 291.739C659.021 291.004 664.621 290.247 670.232 289.456C707.008 284.279 741.827 276.401 773.377 265.472C822.721 248.371 866.195 224.218 905.459 193.216C938.785 166.904 975.992 153.567 1016.82 148.3C1066.23 141.846 1118.54 146.582 1168.09 157.918C1229.94 172.08 1285.17 193.656 1346.85 209.401C1373.06 216.092 1400.56 222.523 1429.75 226.693C1495.64 236.142 1562.97 236.527 1627.38 234.662"
    stroke="white"
    stroke-miterlimit="10"
  />
<path
    d="M-217.748 74.6535C-201.153 58.8979 -170.542 62.6277 -149.716 59.3726C-91.096 50.2064 -25.9825 40.475 32.2079 55.5524C73.5203 66.2558 100.975 91.6184 132.661 117.071C164.347 142.524 194.607 168.599 228.499 191.611C257.401 211.232 283.476 236.775 315.105 253.141C347.164 269.722 385.773 281.092 420.072 288.529C499.484 305.742 565.084 296.328 649.1 284.607C654.7 283.838 660.311 283.07 665.933 282.29C702.721 277.136 737.71 269.88 769.316 259.798C818.875 244.009 862.563 221.788 902.224 192.379C935.776 167.503 973.096 154.844 1014.19 149.656C1063.77 143.304 1116.09 147.045 1165.52 157.229C1226.8 169.854 1281.45 189.622 1342.72 204.258C1368.73 210.474 1396.08 216.657 1425.1 220.782C1490.56 230.095 1557.58 231.181 1621.29 229.677"
    stroke="white"
    stroke-miterlimit="10"
  />
<path
    d="M-221.809 82.2261C-205.361 66.5835 -175.338 69.7708 -154.728 66.2671C-96.9104 56.434 -32.5888 46.2844 25.1038 60.3333C66.009 70.302 93.5431 94.5909 125.172 119.049C156.111 142.965 187.017 168.938 220.885 191.136C250.727 210.701 277.119 237.08 309.687 253.333C342.47 269.699 382.436 280.493 417.357 287.286C497.188 302.815 560.525 289.67 644.791 277.486C650.39 276.695 656.012 275.915 661.646 275.124C698.456 269.993 733.615 263.347 765.278 254.136C815.052 239.657 858.943 219.381 899.012 191.566C932.79 168.113 970.222 156.144 1011.58 151.024C1061.32 144.774 1113.66 147.531 1162.95 156.539C1223.65 167.627 1277.72 185.587 1338.6 199.127C1364.4 204.868 1391.6 210.814 1420.46 214.871C1485.49 224.037 1552.19 225.834 1615.21 224.693"
    stroke="white"
    stroke-miterlimit="10"
  />
<path
    d="M-225.87 89.7874C-209.569 74.2466 -180.135 76.9026 -159.739 73.1502C-102.725 62.6616 -39.1838 52.0712 17.9885 65.1029C58.4864 74.3257 86.0884 97.5521 117.684 121.005C148.611 143.971 179.437 169.232 213.272 190.65C244.064 210.147 270.761 237.374 304.257 253.514C337.775 269.665 379.088 279.894 414.631 286.031C494.88 299.899 555.967 283.002 640.469 270.355C646.08 269.53 651.702 268.738 657.336 267.958C694.157 262.85 729.486 256.826 761.205 248.462C811.194 235.295 855.278 216.951 895.754 190.729C929.758 168.712 967.315 157.41 1008.92 152.369C1058.83 146.22 1111.17 148.006 1160.34 155.839C1220.46 165.412 1273.96 181.54 1334.42 193.973C1360.02 199.24 1387.08 204.948 1415.77 208.949C1480.36 217.979 1546.76 220.466 1609.09 219.697"
    stroke="white"
    stroke-miterlimit="10"
  />
<path
    d="M-229.932 97.36C-213.789 81.9322 -184.931 84.0457 -164.739 80.0447C-108.517 68.9005 -45.779 57.8694 10.8955 69.8838C50.9862 78.3719 78.6674 100.513 110.217 122.983C141.145 145 171.903 169.526 205.682 190.187C237.435 209.593 264.426 237.691 298.85 253.717C333.092 269.665 375.751 279.317 411.916 284.799C492.561 297.017 551.408 276.345 636.159 263.245C641.77 262.398 647.404 261.595 653.048 260.815C689.893 255.729 725.391 250.315 757.155 242.811C807.359 230.954 851.636 214.543 892.53 189.927C926.749 169.334 964.43 158.721 1006.31 153.748C1056.38 147.701 1108.73 148.515 1157.78 155.16C1217.3 163.23 1270.24 177.528 1330.3 188.853C1355.7 193.645 1382.61 199.116 1411.14 203.06C1475.29 211.955 1541.39 215.142 1603.03 214.735"
    stroke="white"
    stroke-miterlimit="10"
  />
<path
    d="M-233.993 104.921C-217.997 89.6066 -189.716 91.1777 -169.75 86.9167C-114.331 75.1056 -52.3853 63.6563 3.79148 74.6309C43.475 82.3844 71.2353 103.452 102.729 124.915C133.645 145.983 164.369 169.763 198.069 189.667C231.768 209.57 258.058 237.951 293.431 253.864C328.409 269.609 372.413 278.707 409.201 283.522C490.242 294.124 546.849 269.654 631.838 256.091C637.449 255.209 643.094 254.396 648.75 253.616C685.605 248.552 721.284 243.76 753.106 237.114C803.536 226.569 847.982 212.079 889.305 189.068C923.729 169.899 961.546 159.975 1003.68 155.07C1053.92 149.125 1106.26 148.978 1155.2 154.437C1214.13 161.004 1266.5 173.459 1326.16 183.677C1351.36 187.994 1378.12 193.227 1406.48 197.115C1470.19 205.863 1535.98 209.763 1596.93 209.717"
    stroke="white"
    stroke-miterlimit="10"
  />
<path
    d="M-238.054 112.494C-222.205 97.281 -194.513 98.3208 -174.761 93.8111C-120.146 81.3559 -58.9916 69.4657 -3.31256 79.4119C35.9524 86.4306 63.8032 106.413 95.2513 126.893C126.168 147.023 156.847 170.023 190.467 189.203C224.087 208.384 251.711 238.267 288.013 254.068C323.714 269.609 369.065 278.153 406.486 282.29C487.923 291.287 542.301 263.008 627.528 248.993C633.15 248.089 638.795 247.264 644.463 246.484C681.341 241.443 717.189 237.273 749.056 231.474C799.712 222.252 844.317 209.683 886.07 188.277C920.697 170.521 958.65 161.286 1001.05 156.46C1051.44 150.606 1103.79 149.521 1152.61 153.77C1210.94 158.856 1262.75 169.458 1322.01 178.568C1347 182.411 1373.62 187.406 1401.82 191.227C1465.1 199.839 1530.59 204.428 1590.84 204.756"
    stroke="white"
    stroke-miterlimit="10"
  />
<path
    d="M-242.115 120.055C-226.425 104.955 -199.309 105.453 -179.773 100.694C-125.96 87.5834 -65.6092 75.2638 -10.4166 84.1814C28.4411 90.4656 56.3598 109.374 87.774 128.849C118.69 148.029 149.347 170.249 182.865 188.706C217.56 207.807 245.354 238.561 282.594 254.237C319.02 269.575 365.717 277.577 403.771 281.024C485.593 288.439 537.743 256.328 623.218 241.85C628.84 240.912 634.496 240.076 640.175 239.307C677.065 234.289 713.094 230.74 745.006 225.789C795.878 217.9 840.651 207.231 882.846 187.429C917.665 171.086 955.765 162.552 998.435 157.794C1049 152.041 1101.32 150.007 1150.05 153.058C1207.77 156.664 1259.02 165.401 1317.89 173.403C1342.67 176.771 1369.15 181.529 1397.18 185.293C1460.02 193.77 1525.2 199.059 1584.77 199.749"
    stroke="white"
    stroke-miterlimit="10"
  />
<path
    d="M-246.176 127.628C-230.633 112.63 -204.106 112.596 -184.773 107.589C-131.764 93.8337 -72.2045 81.0733 -17.5209 88.9624C20.9182 94.5119 48.9274 112.336 80.2851 130.827C111.202 149.057 141.847 170.475 175.252 188.243C210.953 207.219 238.996 238.889 277.175 254.441C315.354 269.993 362.357 277.046 401.056 279.792C483.251 285.636 533.195 249.671 618.908 234.741C624.53 233.78 630.198 232.932 635.876 232.164C672.777 227.168 708.988 224.252 740.945 220.149C792.054 213.583 836.975 204.812 879.6 186.626C914.611 171.696 952.858 163.863 995.788 159.173C1046.51 153.522 1098.82 150.561 1147.45 152.38C1204.54 154.528 1255.27 161.388 1313.73 168.283C1338.3 171.176 1364.64 175.697 1392.51 179.404C1454.92 187.734 1519.78 193.736 1578.66 194.798"
    stroke="white"
    stroke-miterlimit="10"
  />
<path
    d="M-250.237 135.189C-234.841 120.304 -208.902 119.739 -189.784 114.461C-137.567 100.061 -78.8108 86.8601 -24.6249 93.7093C13.407 98.5242 41.5067 115.274 72.8078 132.759C103.724 150.029 134.369 170.645 167.661 187.723C204.381 206.553 232.65 239.16 271.768 254.599C310.886 270.038 359.02 276.469 398.353 278.515C480.932 282.821 528.647 242.98 614.609 227.586C620.243 226.603 625.91 225.733 631.601 224.964C668.524 219.991 704.904 217.708 736.918 214.442C788.253 209.209 833.31 202.325 876.398 185.767C911.591 172.238 950.007 165.107 993.186 160.495C1044.08 154.946 1096.51 147.656 1144.9 151.657C1201.19 156.313 1251.55 157.331 1309.61 163.106C1333.98 165.536 1360.17 169.808 1387.87 173.459C1449.84 181.653 1514.41 188.344 1572.59 189.78"
    stroke="white"
    stroke-miterlimit="10"
  />
<path
    d="M-254.298 142.762C-239.049 127.978 -213.698 126.882 -194.795 121.355C-143.381 106.323 -85.4171 92.6695 -31.729 98.4903C5.88436 102.57 34.0746 118.236 65.3304 134.737C96.2469 151.058 126.892 170.848 160.059 187.259C197.797 205.931 226.293 239.488 266.361 254.803C304.947 269.552 355.683 275.949 395.649 277.294C478.602 280.075 524.1 236.346 610.3 220.488C615.933 219.471 621.612 218.601 627.313 217.832C664.248 212.882 700.809 211.232 732.868 208.802C784.429 204.902 829.633 199.895 873.174 184.965C908.548 172.837 947.123 166.418 990.573 161.874C1041.63 156.426 1093.97 148.13 1142.34 150.979C1198.1 154.268 1247.83 153.318 1305.5 157.986C1329.66 159.941 1355.7 163.976 1383.25 167.559C1444.78 175.618 1509.04 183.01 1566.54 184.807"
    stroke="white"
    stroke-miterlimit="10"
  />
<path
    d="M-258.359 150.323C-243.269 135.653 -218.484 134.025 -199.807 128.238C-149.196 112.562 -92.0349 98.4677 -38.8332 103.26C-1.62715 106.605 26.6423 121.186 57.8415 136.692C88.7693 152.064 119.414 171.007 152.446 186.762C191.213 205.264 219.924 239.793 260.931 254.972C300.241 269.53 352.447 272.728 392.923 276.028C475.989 282.799 519.541 229.655 605.978 213.345C611.612 212.306 617.302 211.413 623.014 210.655C659.972 205.728 696.714 204.71 728.807 203.128C780.594 200.574 825.923 197.42 869.927 184.14C905.471 173.403 944.215 167.706 987.926 163.23C1039.14 157.873 1091.37 152.177 1139.74 150.289C1194.96 148.13 1244.06 149.295 1301.33 152.844C1325.28 154.324 1351.17 158.122 1378.56 161.648C1439.66 169.56 1503.61 177.652 1560.42 179.822"
    stroke="white"
    stroke-miterlimit="10"
  />
<path
    d="M-262.42 157.896C-247.477 143.338 -223.28 141.179 -204.807 135.133C-154.999 118.823 -98.6299 104.288 -45.926 108.041C-9.13845 110.663 19.2328 124.147 50.3755 138.67C81.5182 153.194 111.971 171.176 144.856 186.299C184.664 204.609 213.589 240.121 255.524 255.175C295.558 269.541 349.054 272.231 390.219 274.796C473.772 280.007 514.993 223.009 601.679 206.247C607.324 205.174 613.014 204.281 618.738 203.523C655.707 198.618 692.63 198.234 724.78 197.488C776.805 196.279 822.258 194.979 866.726 183.337C902.45 173.99 941.353 169.006 985.324 164.621C1036.7 159.365 1088.9 152.776 1137.18 149.622C1191.77 146.062 1240.35 145.294 1297.22 147.735C1320.96 148.752 1346.71 152.301 1373.93 155.771C1434.6 163.547 1498.25 172.34 1554.35 174.872"
    stroke="white"
    stroke-miterlimit="10"
  />
<path
    d="M-266.481 165.457C-251.685 151.001 -228.076 148.311 -209.818 142.005C-160.802 125.074 -105.248 110.075 -53.0413 112.799C-16.661 114.687 11.7894 127.085 42.8868 140.614C73.9843 154.143 104.505 171.289 137.243 185.79C178.091 203.885 207.22 240.415 250.105 255.334C290.863 269.507 345.649 271.711 387.493 273.519C471.532 277.159 510.423 216.318 597.358 199.093C603.003 197.997 608.705 197.081 614.429 196.324C651.42 191.441 688.524 190.978 720.707 191.78C772.947 193.103 818.536 192.458 863.468 182.478C899.362 174.499 938.435 170.261 982.677 165.943C1034.22 160.789 1086.39 153.318 1134.59 148.899C1188.56 143.949 1236.59 141.247 1293.06 142.558C1316.6 143.112 1342.2 146.412 1369.26 149.826C1429.49 157.466 1492.83 166.96 1548.26 169.854"
    stroke="white"
    stroke-miterlimit="10"
  />
<path
    d="M-270.543 173.018C-255.893 158.676 -232.873 155.454 -214.83 148.888C-166.617 131.335 -111.854 115.885 -60.1456 117.557C-24.1839 118.722 4.36834 130.024 35.3979 142.57C66.4275 155.115 97.0498 171.413 129.629 185.304C171.53 203.162 200.851 240.731 244.675 255.515C286.146 269.507 342.266 273.858 384.766 272.276C469.258 269.111 505.864 209.649 593.037 191.973C598.682 190.842 604.394 189.927 610.13 189.17C647.132 184.309 684.417 185.214 716.646 186.129C769.124 187.621 814.825 189.983 860.233 181.665C896.296 175.064 935.55 171.56 980.041 167.311C1031.75 162.258 1083.89 153.929 1132 148.21C1185.34 141.88 1232.84 136.602 1288.91 137.427C1312.24 137.766 1337.7 140.569 1364.6 143.915C1424.4 151.408 1487.42 161.603 1542.16 164.869"
    stroke="white"
    stroke-miterlimit="10"
  />
<path
    d="M-274.604 180.591C-260.113 166.35 -237.658 162.62 -219.841 155.782C-172.42 137.608 -118.472 121.705 -67.2496 122.338C-31.7065 122.779 -3.06378 132.974 27.9206 144.536C58.871 156.087 89.6064 171.526 122.027 184.818C164.991 202.427 194.494 241.048 239.257 255.695C281.451 269.496 338.918 273.361 382.051 271.021C466.928 266.41 501.306 202.981 588.716 184.841C594.372 183.688 600.084 182.75 605.831 182.004C642.856 177.166 680.311 178.715 712.596 180.455C765.312 183.304 811.126 187.474 857.009 180.828C893.242 175.584 932.665 172.826 977.417 168.656C1029.28 163.705 1081.41 154.516 1129.42 147.509C1182.14 139.812 1229.09 133.211 1284.77 132.284C1307.89 131.9 1333.21 134.714 1359.94 138.003C1419.3 145.361 1482.02 156.257 1536.06 159.885"
    stroke="white"
    stroke-miterlimit="10"
  />
<path
    d="M-278.665 188.152C-264.321 174.024 -242.454 169.763 -224.852 162.665C-178.223 143.869 -125.078 127.515 -74.3537 127.108C-39.2177 126.825 -10.4845 135.924 20.4432 146.503C51.3936 157.093 82.163 171.639 114.426 184.343C158.453 201.681 188.136 241.387 233.849 255.888C276.768 269.507 335.581 272.886 379.348 269.778C464.62 263.731 496.758 196.324 584.417 177.72C590.073 176.533 595.797 175.595 601.555 174.849C638.591 170.034 676.227 172.227 708.558 174.793C761.499 178.997 807.439 184.965 853.785 180.015C890.188 176.126 929.781 174.126 974.804 170.023C1026.84 165.174 1078.93 155.149 1126.86 146.819C1178.96 137.766 1225.37 129.199 1280.65 127.142C1303.57 126.294 1328.74 128.86 1355.32 132.092C1414.24 139.303 1476.65 150.911 1530.01 154.901"
    stroke="white"
    stroke-miterlimit="10"
  />
<path
    d="M-282.726 195.725C-268.529 181.699 -247.251 176.918 -229.852 169.548C-184.026 150.142 -131.684 133.336 -81.4464 131.878C-46.729 130.872 -17.894 138.862 12.9659 148.458C43.9276 158.088 74.7196 171.719 106.824 183.846C151.915 200.89 181.779 241.692 228.431 256.057C272.062 269.496 332.232 272.389 376.633 268.512C462.301 261.041 492.211 189.633 580.107 170.577C585.763 169.368 591.499 168.407 597.268 167.661C634.327 162.857 672.133 165.706 704.508 169.108C757.676 174.68 803.74 182.433 850.561 179.167C887.134 176.624 926.896 175.392 972.18 171.357C1024.37 166.599 1076.46 155.76 1124.28 146.107C1175.77 135.72 1221.63 125.164 1276.51 121.988C1299.22 120.677 1324.25 122.983 1350.65 126.17C1409.14 133.245 1471.24 145.542 1523.91 149.905"
    stroke="white"
    stroke-miterlimit="10"
  />
<path
    d="M-286.787 203.286C-272.749 189.373 -252.036 184.072 -234.864 176.432C-189.83 156.415 -138.291 139.145 -88.562 136.647C-54.2632 134.918 -25.3264 141.801 5.47696 150.425C36.45 159.082 67.276 171.798 99.2105 183.371C145.387 200.099 175.41 242.031 223.012 256.249C267.368 269.507 328.895 271.926 373.918 267.269C459.993 258.385 487.652 182.976 575.797 163.468C581.464 162.236 587.2 161.264 592.969 160.518C630.039 155.737 668.026 159.241 700.447 163.456C753.841 170.396 800.04 179.913 847.314 178.364C884.057 177.155 923.989 176.692 969.532 172.736C1021.9 168.079 1073.96 156.415 1121.68 145.429C1172.55 133.72 1217.86 121.163 1272.35 116.857C1294.85 115.082 1319.74 117.139 1345.98 120.259C1404.04 127.198 1465.84 140.196 1517.8 144.921"
    stroke="white"
    stroke-miterlimit="10"
  />
<path
    d="M-290.848 210.859C-276.957 197.059 -256.832 191.227 -239.875 183.326C-195.621 162.699 -144.908 144.977 -95.666 141.417C-61.7744 138.964 -32.7584 144.74 -2.00035 152.38C28.984 160.077 59.8326 171.854 91.6088 182.874C138.86 199.263 169.053 242.347 217.594 256.43C262.662 269.507 325.558 271.451 371.203 266.026C457.685 255.741 483.104 176.319 571.487 156.347C577.154 155.081 582.901 154.098 588.682 153.363C625.775 148.605 663.931 152.764 696.409 157.794C750.017 166.101 796.398 179.404 844.102 177.539C880.991 176.093 921.127 177.98 966.93 174.092C1019.45 169.537 1071.51 157.071 1119.14 144.74C1169.4 131.719 1214.15 117.162 1268.24 111.725C1290.54 109.488 1315.28 111.296 1341.37 114.359C1398.98 121.152 1460.47 134.861 1511.75 139.948"
    stroke="white"
    stroke-miterlimit="10"
  />
<path
    d="M-294.909 218.42C-281.165 204.722 -261.617 198.381 -244.886 190.209C-201.424 168.983 -151.515 150.798 -102.77 146.186C-69.297 143.022 -40.1792 147.678 -9.48901 154.347C21.4953 161.072 52.3892 171.922 83.9957 182.399C132.333 198.426 162.684 242.675 212.164 256.622C257.956 269.518 322.21 270.999 368.477 264.783C455.367 253.096 478.534 169.662 567.154 149.227C572.833 147.938 578.58 146.944 584.372 146.209C621.476 141.473 659.813 146.288 692.336 152.143C746.171 161.829 792.654 174.849 840.855 176.737C877.948 178.184 918.22 179.291 964.283 175.471C1016.98 171.018 1069.02 157.771 1116.54 144.062C1166.21 129.741 1210.39 113.172 1264.08 106.594C1286.17 103.893 1310.77 105.453 1336.68 108.459C1393.87 115.116 1455.04 129.515 1505.64 134.974"
    stroke="white"
    stroke-miterlimit="10"
  />
<path
    d="M-298.982 225.993C-285.384 212.407 -266.414 205.547 -249.898 197.092C-207.216 175.268 -158.132 156.619 -109.874 150.956C-76.8085 147.079 -47.6002 150.617 -16.9665 156.302C14.0291 162.055 44.9456 171.956 76.3937 181.902C125.817 197.545 156.326 242.992 206.756 256.792C253.273 269.507 318.884 270.535 365.773 263.517C453.081 250.451 473.986 162.971 562.856 142.084C568.534 140.761 574.292 139.755 580.096 139.021C617.223 134.308 655.73 139.778 688.298 146.446C742.348 157.511 788.977 172.261 837.631 175.878C874.905 178.647 915.335 180.534 961.659 176.793C1014.51 172.442 1066.58 158.416 1113.96 143.338C1163.04 127.73 1206.65 109.137 1259.94 101.429C1281.82 98.2642 1306.28 99.5753 1332.03 102.525C1388.78 109.047 1449.66 124.147 1499.56 129.967"
    stroke="white"
    stroke-miterlimit="10"
  />
<path
    d="M-303.043 233.554C-289.604 220.07 -271.21 212.701 -254.909 203.976C-213.008 181.552 -164.739 162.451 -116.978 155.726C-84.3311 151.126 -55.021 153.544 -24.4439 158.269C6.56311 163.05 37.5022 172.001 68.792 181.427C119.301 196.652 149.969 243.342 201.338 256.984C248.567 269.53 315.558 270.095 363.047 262.273C450.785 247.84 469.428 156.313 558.535 134.963C564.213 133.618 569.983 132.601 575.797 131.866C612.935 127.176 651.612 133.302 684.248 140.784C738.524 153.228 785.301 169.707 834.407 175.064C871.873 179.144 912.45 181.834 959.046 178.172C1012.07 173.923 1064.15 159.128 1111.4 142.66C1159.9 125.763 1202.93 105.147 1255.82 96.2976C1277.5 92.6695 1301.81 93.732 1327.4 96.6141C1383.71 102.989 1444.27 118.789 1493.48 124.983"
    stroke="white"
    stroke-miterlimit="10"
  />
<path
    d="M-307.104 241.127C-293.812 227.756 -275.995 219.867 -259.92 210.87C-218.8 187.858 -171.345 168.283 -124.094 160.507C-91.8539 155.194 -62.4533 156.483 -31.9441 160.235C-1.43486 163.988 30.0359 172.035 61.1673 180.941C112.774 195.725 143.577 243.67 195.908 257.165C243.861 269.53 312.221 269.643 360.321 261.03C448.488 245.229 464.857 149.656 554.213 127.843C559.903 126.464 565.672 125.435 571.487 124.712C608.648 120.044 647.494 126.837 680.175 135.133C734.667 148.956 781.613 167.152 831.16 174.25C868.819 179.642 909.543 183.134 956.399 179.54C1009.58 175.381 1061.69 159.84 1108.8 141.982C1155.9 124.124 1199.17 101.158 1251.66 91.1776C1273.13 87.0974 1297.29 87.8999 1322.72 90.7255C1378.6 96.9644 1438.86 113.466 1487.39 120.021"
    stroke="white"
    stroke-miterlimit="10"
  />
<path
    d="M-311.165 248.688C-298.02 235.419 -280.78 227.021 -264.932 217.753C-224.592 194.154 -177.952 174.115 -131.198 165.265C-99.3765 159.241 -69.8854 159.399 -39.4214 162.191C-8.95747 164.982 22.5925 172.046 53.5655 180.455C106.269 194.775 137.22 243.997 190.489 257.346C239.155 269.541 308.906 269.202 357.606 259.776C446.215 242.618 460.299 142.976 549.903 120.711C555.593 119.309 561.374 118.269 567.2 117.535C604.372 112.889 643.388 120.338 676.126 129.448C730.82 144.661 777.947 164.553 827.925 173.403C865.776 180.105 906.647 184.389 953.763 180.873C1007.11 176.816 1059.25 160.529 1106.21 141.27C1153.57 121.841 1195.42 97.1452 1247.51 86.0124C1268.78 81.4688 1292.79 82.0226 1318.05 84.7917C1373.49 90.895 1433.45 108.097 1481.28 115.014"
    stroke="white"
    stroke-miterlimit="10"
  />
<path
    d="M-315.226 256.261C-302.228 243.105 -285.554 234.187 -269.932 224.636C-230.361 200.449 -184.547 179.947 -138.291 170.035C-106.876 163.298 -77.2949 162.326 -46.8875 164.146C-16.4801 165.966 15.1604 172.046 45.9751 179.969C99.7763 193.792 130.874 244.337 185.082 257.526C234.472 269.552 305.592 268.772 354.902 258.521C443.964 240.008 455.762 136.308 545.593 113.59C551.283 112.166 557.075 111.104 562.912 110.38C600.107 105.758 639.282 113.873 672.076 123.785C726.986 140.388 774.294 161.976 824.701 172.589C862.756 180.591 903.774 185.688 951.15 182.241C1004.66 178.285 1056.85 161.253 1103.65 140.58C1150.47 119.897 1191.71 93.1556 1243.39 80.8812C1264.45 75.8742 1288.32 76.1794 1313.43 78.8919C1368.43 84.8483 1428.08 102.751 1475.21 110.053"
    stroke="white"
    stroke-miterlimit="10"
  />
<path
    d="M-319.287 263.822C-306.448 250.779 -290.339 241.353 -274.943 231.52C-236.142 206.745 -191.153 185.779 -145.395 174.804C-114.388 167.367 -84.727 165.254 -54.3761 166.113C-24.0253 166.972 7.69437 172.058 38.362 179.483C93.2605 192.786 124.505 244.664 179.664 257.707C229.777 269.563 302.277 268.343 352.187 257.266C441.701 237.408 451.204 129.64 541.283 106.458C546.985 105 552.777 103.938 558.625 103.215C595.831 98.6146 635.175 107.397 668.037 118.123C723.151 136.116 770.651 159.399 821.477 171.764C859.747 181.077 900.889 186.977 948.525 183.597C1002.2 179.743 1054.45 161.987 1101.07 139.891C1147.69 117.795 1187.97 89.1658 1239.25 75.7385C1260.11 70.2795 1283.83 70.3247 1308.76 72.9694C1363.34 78.7902 1422.67 97.3939 1469.13 105.057"
    stroke="white"
    stroke-miterlimit="10"
  />
<path
    d="M-323.348 271.394C-310.656 258.453 -295.124 248.518 -279.954 238.414C-241.911 213.063 -197.759 191.633 -152.51 179.585C-121.911 171.436 -92.1593 168.192 -61.865 168.079C-31.5707 167.966 0.228082 172.046 30.7486 179.009C86.7331 191.758 118.136 245.015 174.234 257.899C225.06 269.575 298.963 267.925 349.461 256.023C439.427 234.82 446.645 122.971 536.962 99.338C542.663 97.8573 548.467 96.7723 554.326 96.0603C591.555 91.4828 631.057 100.932 663.976 112.46C719.293 131.844 766.997 156.822 818.242 170.95C856.715 181.563 897.993 188.265 945.89 184.965C999.725 181.213 1052.06 162.733 1098.48 139.202C1144.91 115.67 1184.23 85.176 1235.1 70.6072C1255.76 64.6961 1279.33 64.4813 1304.1 67.0696C1358.23 72.7547 1417.27 92.0592 1463.03 100.084"
    stroke="white"
    stroke-miterlimit="10"
  />
<path
    d="M-327.409 278.956C-314.864 266.128 -299.898 255.684 -284.966 245.297C-247.68 219.37 -204.354 197.465 -159.614 184.355C-129.422 175.505 -99.5914 171.108 -69.3424 170.046C-38.3015 168.949 -7.23796 172.046 23.1468 178.523C80.2286 190.695 111.767 245.433 168.815 258.08C220.343 269.665 295.648 267.506 346.746 254.78C437.188 232.243 442.086 116.314 532.652 92.2174C538.353 90.7029 544.168 89.6179 550.028 88.8945C587.268 84.3397 626.94 94.444 659.915 106.786C715.436 127.56 763.355 154.222 815.007 170.114C853.706 182.015 895.097 189.542 943.265 186.31C997.27 182.659 1049.68 163.457 1095.91 138.501C1141.16 114.065 1180.54 81.2654 1230.97 65.4534C1251.43 59.124 1274.85 58.6154 1299.45 61.1471C1353.15 66.6853 1411.88 86.6906 1456.94 95.0883"
    stroke="white"
    stroke-miterlimit="10"
  />
<path
    d="M-331.47 286.528C-319.084 273.802 -304.672 262.861 -289.966 252.18C-253.438 225.676 -210.915 203.377 -166.707 189.113C-136.899 179.596 -107.012 173.956 -76.8197 171.99C-45.7788 169.854 -14.704 172.012 15.545 178.025C73.7241 189.588 105.41 245.738 163.408 258.261C215.671 269.654 292.357 267.088 344.042 253.525C434.959 229.666 437.538 109.646 528.353 85.0856C534.066 83.5485 539.881 82.4408 545.752 81.7288C583.003 77.1965 622.811 88.0355 655.888 101.124C711.567 123.389 759.746 151.634 811.794 169.3C850.719 182.501 892.224 190.842 940.652 187.678C994.815 184.117 1047.33 164.214 1093.35 137.811C1139.36 111.409 1176.82 77.253 1226.84 60.322C1247.1 53.518 1270.37 52.772 1294.82 55.2473C1348.08 60.6498 1406.49 81.3558 1450.88 90.1152"
    stroke="white"
    stroke-miterlimit="10"
  />
<path
    d="M-335.532 294.09C-323.292 281.476 -309.434 270.038 -294.977 259.064C-259.163 232.04 -217.522 209.186 -173.811 193.883C-144.422 183.643 -114.445 176.906 -84.2973 173.956C-53.2564 170.86 -22.1703 171.99 7.94302 177.539C67.2081 188.469 99.0635 246.043 157.989 258.442C210.976 269.643 289.053 266.681 341.327 252.271C432.719 227.078 432.991 102.966 524.032 77.9538C529.745 76.3828 535.57 75.2751 541.453 74.5631C578.727 70.0534 618.704 81.5254 651.827 95.4499C707.721 119.072 756.149 148.933 808.558 168.463C847.733 182.885 889.339 192.108 938.016 189.023C992.349 185.564 1044.96 164.96 1090.75 137.111C1135.01 110.2 1173.06 73.2294 1222.69 55.1682C1242.75 47.9007 1265.87 46.9061 1290.14 49.3135C1342.96 54.5691 1401.08 75.9872 1444.77 85.1082"
    stroke="white"
    stroke-miterlimit="10"
  />
<path
    d="M-339.593 301.662C-257.217 216.453 -119.739 156.641 0.341267 177.065C60.6923 187.327 92.7061 246.371 152.582 258.634C206.293 269.643 285.773 266.286 338.612 251.027C430.491 224.512 428.432 96.3089 519.722 70.8445C561.577 59.1692 609.349 72.6981 647.777 89.7987C745.707 133.369 820.776 197.454 935.392 190.401C989.883 187.045 1042.62 165.728 1088.19 136.432C1131.97 108.278 1169.34 69.2283 1218.56 50.0481C1281.52 25.5106 1375.89 66.2897 1438.7 80.1464"
    stroke="white"
    stroke-miterlimit="10"
  />
</svg>
