<svg
  width="250"
  height="66"
  viewBox="0 0 250 66"
  fill="none"
  xmlns="http://www.w3.org/2000/svg"
>
<path
    d="M94.0069 12.4974C93.3071 13.0281 92.4268 13.295 91.3691 13.295C90.6218 13.295 89.9727 13.1743 89.4248 12.9328C88.877 12.6913 88.4147 12.3512 88.041 11.9159C87.6674 11.4806 87.3887 10.9594 87.2019 10.3557C87.0151 9.75192 86.9106 9.09097 86.8852 8.37917C86.8852 7.66738 86.9929 7.01278 87.2114 6.42173C87.4299 5.83069 87.7339 5.31591 88.1234 4.88057C88.516 4.44523 88.9783 4.10522 89.5167 3.86372C90.0518 3.62222 90.6408 3.50146 91.2805 3.50146C92.1133 3.50146 92.8004 3.67306 93.3514 4.01942C93.8992 4.36261 94.3394 4.80113 94.6719 5.33497C95.0044 5.86564 95.2324 6.44716 95.3591 7.07633C95.4857 7.70551 95.5364 8.30291 95.5142 8.87171H88.5192C88.5065 9.28163 88.554 9.67248 88.6649 10.0411C88.7725 10.4097 88.9467 10.737 89.1905 11.0198C89.4312 11.3026 89.7383 11.5314 90.112 11.6998C90.4856 11.8682 90.9258 11.954 91.4325 11.954C92.0816 11.954 92.6168 11.8015 93.0316 11.4996C93.4464 11.1978 93.7219 10.737 93.8549 10.1205H95.3717C95.1659 11.1723 94.7162 11.9636 94.0164 12.4974H94.0069ZM93.6364 6.47575C93.4971 6.14846 93.3103 5.86882 93.0759 5.63367C92.8416 5.39853 92.5629 5.21105 92.2431 5.07123C91.9233 4.93141 91.5718 4.8615 91.1855 4.8615C90.7991 4.8615 90.4286 4.93141 90.1088 5.07123C89.789 5.21105 89.5167 5.40171 89.2855 5.64321C89.0575 5.88471 88.877 6.16752 88.744 6.48529C88.611 6.80623 88.5319 7.14624 88.5097 7.50849H93.8771C93.8517 7.14624 93.7726 6.79988 93.6333 6.47575H93.6364Z"
    fill="white"
  />
<mask
    id="mask0_46_1895"
    style="mask-type:luminance"
    maskUnits="userSpaceOnUse"
    x="86"
    y="3"
    width="10"
    height="11"
  >
<path
      d="M94.0069 12.4974C93.3071 13.0281 92.4268 13.295 91.3691 13.295C90.6218 13.295 89.9727 13.1743 89.4248 12.9328C88.877 12.6913 88.4147 12.3512 88.041 11.9159C87.6674 11.4806 87.3887 10.9594 87.2019 10.3557C87.0151 9.75192 86.9106 9.09097 86.8852 8.37917C86.8852 7.66738 86.9929 7.01278 87.2114 6.42173C87.4299 5.83069 87.7339 5.31591 88.1234 4.88057C88.516 4.44523 88.9783 4.10522 89.5167 3.86372C90.0518 3.62222 90.6408 3.50146 91.2805 3.50146C92.1133 3.50146 92.8004 3.67306 93.3514 4.01942C93.8992 4.36261 94.3394 4.80113 94.6719 5.33497C95.0044 5.86564 95.2324 6.44716 95.3591 7.07633C95.4857 7.70551 95.5364 8.30291 95.5142 8.87171H88.5192C88.5065 9.28163 88.554 9.67248 88.6649 10.0411C88.7725 10.4097 88.9467 10.737 89.1905 11.0198C89.4312 11.3026 89.7383 11.5314 90.112 11.6998C90.4856 11.8682 90.9258 11.954 91.4325 11.954C92.0816 11.954 92.6168 11.8015 93.0316 11.4996C93.4464 11.1978 93.7219 10.737 93.8549 10.1205H95.3717C95.1659 11.1723 94.7162 11.9636 94.0164 12.4974H94.0069ZM93.6364 6.47575C93.4971 6.14846 93.3103 5.86882 93.0759 5.63367C92.8416 5.39853 92.5629 5.21105 92.2431 5.07123C91.9233 4.93141 91.5718 4.8615 91.1855 4.8615C90.7991 4.8615 90.4286 4.93141 90.1088 5.07123C89.789 5.21105 89.5167 5.40171 89.2855 5.64321C89.0575 5.88471 88.877 6.16752 88.744 6.48529C88.611 6.80623 88.5319 7.14624 88.5097 7.50849H93.8771C93.8517 7.14624 93.7726 6.79988 93.6333 6.47575H93.6364Z"
      fill="white"
    />
</mask>
<g mask="url(#mask0_46_1895)">
<path d="M95.9322 7.34668H87.9587V9.22468H95.9322V7.34668Z" fill="white" />
<path
      d="M89.7985 13.7113L95.0329 13.6319L95.72 9.93945H93.7726L93.2026 10.4574H89.2032L89.7985 13.7113Z"
      fill="white"
    />
<path
      d="M93.6142 13.6702C93.6142 13.6702 85.6756 11.2997 90.2355 4.91892C91.7998 2.72951 90.1405 3.03139 88.7028 4.20077C86.4736 6.01521 86.3342 8.36668 86.3342 8.36668L87.1227 11.7255L89.6275 13.6988L93.6142 13.667V13.6702Z"
      fill="white"
    />
<path
      opacity="0.15"
      d="M90.9765 11.1471C90.9765 11.1471 88.8453 10.1843 88.8517 10.2796C88.9625 11.6778 91.3755 13.543 93.6364 10.7213C93.7789 10.5433 92.8258 10.3018 92.8258 10.3018C92.8258 10.3018 91.6731 10.3018 90.9765 11.1471Z"
      fill="white"
    />
<path
      d="M92.8796 6.09781C92.8796 6.09781 85.3589 3.24745 87.984 13.095C87.984 13.095 84.2379 6.24398 88.174 4.03233C92.1608 1.7889 95.302 4.12448 95.302 4.12448L92.8764 6.09781H92.8796Z"
      fill="white"
    />
<path
      d="M93.1298 5.91353C92.8638 5.61483 92.1165 5.24622 91.7333 5.135C90.7453 4.83948 88.858 4.93481 87.6167 5.15089C86.6034 5.32884 88.136 3.51757 89.3203 3.30149C90.91 3.01232 93.5509 3.4 93.5509 3.4L95.9987 5.21762L95.8847 9.13885C95.8847 9.13885 94.2381 8.47154 93.6428 7.00664C93.5288 6.72701 93.3293 6.14232 93.1298 5.91671V5.91353Z"
      fill="white"
    />
<path
      opacity="0.1"
      d="M95.549 7.4958C94.7827 5.37312 92.7181 2.46874 86.7902 4.34673C86.5274 4.42935 88.1012 3.30128 88.2848 3.26633C91.4926 2.66257 95.226 3.07249 96.0778 7.27971L95.549 7.4958Z"
      fill="white"
    />
<path
      d="M89.7985 9.34838C89.1937 9.45324 88.5287 9.8854 88.4685 9.01473C88.4083 8.14405 88.5603 7.13673 88.7092 7.07635C88.8612 7.01598 89.6307 7.12084 90.1436 7.12084C90.986 7.12084 90.4318 8.40779 93.3292 9.16725C94.2982 9.42147 89.7953 9.34838 89.7953 9.34838H89.7985Z"
      fill="white"
    />
</g>
<path
    d="M70.3999 3.71779V5.20494H70.4347C71.0744 4.06734 72.0845 3.49854 73.4715 3.49854C74.0858 3.49854 74.5988 3.58433 75.0073 3.75275C75.4158 3.92116 75.7483 4.15949 76.0016 4.46137C76.2549 4.76324 76.4323 5.12232 76.5336 5.54177C76.6349 5.95804 76.6888 6.42198 76.6888 6.93041V13.0982H75.153V6.74928C75.153 6.16777 74.9851 5.71019 74.6463 5.37018C74.3075 5.03334 73.8452 4.86175 73.253 4.86175C72.7843 4.86175 72.3759 4.93484 72.0339 5.08101C71.6919 5.22718 71.4037 5.43055 71.1757 5.69748C70.9477 5.9644 70.7736 6.27581 70.6596 6.63171C70.5456 6.98761 70.4886 7.37846 70.4886 7.80109V13.0982H68.9528V3.71779H70.3999Z"
    fill="white"
  />
<mask
    id="mask1_46_1895"
    style="mask-type:luminance"
    maskUnits="userSpaceOnUse"
    x="68"
    y="3"
    width="9"
    height="11"
  >
<path
      d="M70.3999 3.71779V5.20494H70.4347C71.0744 4.06734 72.0845 3.49854 73.4715 3.49854C74.0858 3.49854 74.5988 3.58433 75.0073 3.75275C75.4158 3.92116 75.7483 4.15949 76.0016 4.46137C76.2549 4.76324 76.4323 5.12232 76.5336 5.54177C76.6349 5.95804 76.6888 6.42198 76.6888 6.93041V13.0982H75.153V6.74928C75.153 6.16777 74.9851 5.71019 74.6463 5.37018C74.3075 5.03334 73.8452 4.86175 73.253 4.86175C72.7843 4.86175 72.3759 4.93484 72.0339 5.08101C71.6919 5.22718 71.4037 5.43055 71.1757 5.69748C70.9477 5.9644 70.7736 6.27581 70.6596 6.63171C70.5456 6.98761 70.4886 7.37846 70.4886 7.80109V13.0982H68.9528V3.71779H70.3999Z"
      fill="white"
    />
</mask>
<g mask="url(#mask1_46_1895)">
<path
      d="M74.8712 13.3273L77.1131 13.3114V5.44353L74.5387 4.69678L74.8712 13.3273Z"
      fill="white"
    />
<path
      d="M71.0206 13.378C71.0206 13.378 71.8154 10.7501 74.3708 3.11731C74.982 1.28698 68.5158 3.60032 68.5158 3.60032L68.6329 13.3462L71.0237 13.378H71.0206Z"
      fill="white"
    />
<path
      d="M73.6615 5.33518C74.3423 5.34154 68.8989 3.60336 70.0579 13.6924C70.0579 13.6924 69.3074 14.5282 68.6298 13.3429C68.5918 13.2762 68.6044 3.98785 68.6551 3.95608C68.8958 3.80355 69.1681 3.66691 69.4721 3.54934C75.2986 1.26142 77.8636 4.82358 77.8636 4.82358L73.6615 5.33836V5.33518Z"
      fill="white"
    />
<path
      d="M71.7805 5.92003C71.7805 5.92003 70.6849 6.88604 70.0547 5.5546C68.9464 3.20949 73.7122 2.79004 73.7122 2.79004L77.2049 3.64801L77.3253 12.787C77.3253 12.787 75.6026 7.3182 75.438 6.82567C74.6431 4.4456 71.7552 5.37348 71.7805 5.92321V5.92003Z"
      fill="white"
    />
<path
      opacity="0.1"
      d="M77.0719 5.63412C75.7324 4.49016 72.664 2.70114 68.7628 5.74852C68.7343 5.77076 68.7216 3.52415 68.7628 3.51462C71.1092 2.84731 74.4278 2.65665 76.9168 3.78472C76.9674 3.80697 76.9769 3.87687 77.0054 3.92454C77.3157 4.43296 77.1099 5.66272 77.0719 5.63094V5.63412Z"
      fill="white"
    />
</g>
<path
    d="M68.0503 13.0599C67.7843 13.2156 67.4169 13.295 66.9483 13.295C66.5493 13.295 66.2358 13.1838 65.9983 12.9582C65.764 12.7357 65.6468 12.3703 65.6468 11.8619C65.2257 12.3703 64.7348 12.7357 64.1743 12.9582C63.6139 13.1806 63.009 13.295 62.3567 13.295C61.9356 13.295 61.5334 13.2473 61.1534 13.1488C60.7734 13.0535 60.4441 12.901 60.1686 12.6944C59.8899 12.4879 59.6714 12.221 59.5099 11.8873C59.3484 11.5537 59.2661 11.1533 59.2661 10.6798C59.2661 10.1491 59.3579 9.71379 59.5384 9.37378C59.7189 9.03377 59.9564 8.76049 60.2509 8.54759C60.5454 8.33469 60.8842 8.1758 61.2642 8.06776C61.6442 7.95972 62.0337 7.86757 62.4295 7.79448C62.8507 7.70869 63.2529 7.64513 63.6329 7.60382C64.0128 7.56251 64.3453 7.50214 64.6367 7.4227C64.9248 7.34326 65.156 7.22886 65.3238 7.07951C65.4916 6.92698 65.5771 6.70772 65.5771 6.41856C65.5771 6.08172 65.5138 5.80845 65.3872 5.6019C65.2605 5.39535 65.099 5.23964 64.8995 5.1316C64.7 5.02356 64.4783 4.95048 64.2313 4.91235C63.9843 4.87739 63.7405 4.85833 63.4999 4.85833C62.8507 4.85833 62.306 4.98225 61.8722 5.23011C61.4384 5.47797 61.2041 5.94509 61.1661 6.63464H59.6303C59.6556 6.05313 59.7759 5.56377 59.9913 5.16656C60.2098 4.76617 60.4979 4.44523 60.8589 4.19737C61.2199 3.94951 61.6316 3.77157 62.0971 3.66353C62.5594 3.55548 63.0565 3.50146 63.5885 3.50146C64.0097 3.50146 64.4277 3.53324 64.8457 3.59362C65.2605 3.65399 65.6373 3.77792 65.9761 3.9654C66.3118 4.15288 66.5841 4.41345 66.79 4.75346C66.9958 5.09029 67.0971 5.53199 67.0971 6.07537V10.8895C67.0971 11.2518 67.1193 11.5155 67.1604 11.6871C67.2016 11.8555 67.3441 11.9413 67.5848 11.9413C67.7178 11.9413 67.8729 11.9159 68.0534 11.8682V13.0662L68.0503 13.0599ZM65.555 8.25207C65.3618 8.39506 65.1085 8.5031 64.795 8.56665C64.4815 8.63339 64.1522 8.68741 63.8102 8.72872C63.4682 8.77002 63.1199 8.81769 62.7715 8.87171C62.4232 8.92573 62.1097 9.01153 61.8311 9.13228C61.5524 9.25303 61.3276 9.42462 61.1534 9.64706C60.9792 9.8695 60.8906 10.1746 60.8906 10.559C60.8906 10.8133 60.9412 11.0262 61.0457 11.2009C61.1471 11.3757 61.2801 11.5155 61.4447 11.6267C61.6062 11.7348 61.7962 11.8142 62.0147 11.8619C62.23 11.9096 62.4612 11.935 62.7019 11.935C63.2085 11.935 63.6424 11.8651 64.0033 11.7284C64.3643 11.5886 64.6588 11.417 64.89 11.2041C65.118 10.9944 65.289 10.7656 65.3967 10.5177C65.5043 10.2699 65.5581 10.0379 65.5581 9.82183V8.25207H65.555Z"
    fill="white"
  />
<mask
    id="mask2_46_1895"
    style="mask-type:luminance"
    maskUnits="userSpaceOnUse"
    x="59"
    y="3"
    width="10"
    height="11"
  >
<path
      d="M68.0503 13.0599C67.7843 13.2156 67.4169 13.295 66.9483 13.295C66.5493 13.295 66.2358 13.1838 65.9983 12.9582C65.764 12.7357 65.6468 12.3703 65.6468 11.8619C65.2257 12.3703 64.7348 12.7357 64.1743 12.9582C63.6139 13.1806 63.009 13.295 62.3567 13.295C61.9356 13.295 61.5334 13.2473 61.1534 13.1488C60.7734 13.0535 60.4441 12.901 60.1686 12.6944C59.8899 12.4879 59.6714 12.221 59.5099 11.8873C59.3484 11.5537 59.2661 11.1533 59.2661 10.6798C59.2661 10.1491 59.3579 9.71379 59.5384 9.37378C59.7189 9.03377 59.9564 8.76049 60.2509 8.54759C60.5454 8.33469 60.8842 8.1758 61.2642 8.06776C61.6442 7.95972 62.0337 7.86757 62.4295 7.79448C62.8507 7.70869 63.2529 7.64513 63.6329 7.60382C64.0128 7.56251 64.3453 7.50214 64.6367 7.4227C64.9248 7.34326 65.156 7.22886 65.3238 7.07951C65.4916 6.92698 65.5771 6.70772 65.5771 6.41856C65.5771 6.08172 65.5138 5.80845 65.3872 5.6019C65.2605 5.39535 65.099 5.23964 64.8995 5.1316C64.7 5.02356 64.4783 4.95048 64.2313 4.91235C63.9843 4.87739 63.7405 4.85833 63.4999 4.85833C62.8507 4.85833 62.306 4.98225 61.8722 5.23011C61.4384 5.47797 61.2041 5.94509 61.1661 6.63464H59.6303C59.6556 6.05313 59.7759 5.56377 59.9913 5.16656C60.2098 4.76617 60.4979 4.44523 60.8589 4.19737C61.2199 3.94951 61.6316 3.77157 62.0971 3.66353C62.5594 3.55548 63.0565 3.50146 63.5885 3.50146C64.0097 3.50146 64.4277 3.53324 64.8457 3.59362C65.2605 3.65399 65.6373 3.77792 65.9761 3.9654C66.3118 4.15288 66.5841 4.41345 66.79 4.75346C66.9958 5.09029 67.0971 5.53199 67.0971 6.07537V10.8895C67.0971 11.2518 67.1193 11.5155 67.1604 11.6871C67.2016 11.8555 67.3441 11.9413 67.5848 11.9413C67.7178 11.9413 67.8729 11.9159 68.0534 11.8682V13.0662L68.0503 13.0599ZM65.555 8.25207C65.3618 8.39506 65.1085 8.5031 64.795 8.56665C64.4815 8.63339 64.1522 8.68741 63.8102 8.72872C63.4682 8.77002 63.1199 8.81769 62.7715 8.87171C62.4232 8.92573 62.1097 9.01153 61.8311 9.13228C61.5524 9.25303 61.3276 9.42462 61.1534 9.64706C60.9792 9.8695 60.8906 10.1746 60.8906 10.559C60.8906 10.8133 60.9412 11.0262 61.0457 11.2009C61.1471 11.3757 61.2801 11.5155 61.4447 11.6267C61.6062 11.7348 61.7962 11.8142 62.0147 11.8619C62.23 11.9096 62.4612 11.935 62.7019 11.935C63.2085 11.935 63.6424 11.8651 64.0033 11.7284C64.3643 11.5886 64.6588 11.417 64.89 11.2041C65.118 10.9944 65.289 10.7656 65.3967 10.5177C65.5043 10.2699 65.5581 10.0379 65.5581 9.82183V8.25207H65.555Z"
      fill="white"
    />
</mask>
<g mask="url(#mask2_46_1895)">
<path
      d="M67.3251 4.48975C67.3251 4.48975 65.7038 6.69822 63.9368 7.04776C62.1699 7.39731 61.0109 7.60068 61.0109 7.60068L61.85 9.37381C61.85 9.37381 63.2402 9.17044 63.9052 8.93847C64.5702 8.7065 66.7424 8.41416 67.4391 7.66105L67.3219 4.49292L67.3251 4.48975Z"
      fill="white"
    />
<path
      d="M68.5696 11.4964C64.3675 11.1787 60.1084 8.90348 64.4277 3.09471C64.5353 2.94854 61.8089 3.03434 61.5651 3.17098C59.3294 4.43251 57.9963 7.48306 58.9811 11.3503C59.6778 14.0831 64.4403 13.8384 68.3954 13.384C68.5506 13.3649 68.6456 11.4996 68.5696 11.4933V11.4964Z"
      fill="white"
    />
<path
      d="M67.7019 9.69167C67.7019 9.69167 62.4264 16.1264 59.0128 6.93028C58.9779 6.83813 58.6834 9.87279 58.6929 9.98083C58.8101 11.2011 58.8069 12.0781 60.6341 13.2665C63.7627 15.3002 67.0591 11.0326 67.7019 9.69167Z"
      fill="white"
    />
<path
      d="M60.8367 13.3556C60.8367 13.3556 60.6816 12.0941 64.0508 11.3791C64.0508 11.3791 65.5581 9.92694 65.4473 5.72607C65.4473 5.72607 69.0604 8.88149 68.3669 13.2412C68.3669 13.2412 64.8805 14.6045 60.8367 13.3588V13.3556Z"
      fill="white"
    />
<path
      d="M59.6176 5.44325C61.0426 5.00156 63.1262 4.44547 64.8077 5.30344C65.9065 5.86588 67.0085 8.1824 67.4138 11.2615C67.4264 11.3632 67.4898 5.65616 67.4676 5.59578C67.2681 5.01109 67.1003 4.26434 66.5145 3.87984C64.5797 2.6056 62.1161 3.15216 60.5201 3.8576C60.4378 3.89573 59.5226 5.47185 59.6144 5.44325H59.6176Z"
      fill="white"
    />
<path
      opacity="0.2"
      d="M59.3516 4.84576C59.3516 4.84576 66.7044 -0.200364 68.4556 9.97133C68.4556 9.97133 69.1871 4.76632 66.1028 2.85654C63.0185 0.946771 59.9057 3.83844 59.3516 4.84576Z"
      fill="white"
    />
<path
      opacity="0.2"
      d="M59.2281 11.2422C59.5543 9.62793 60.5359 7.88339 63.1927 7.48301C63.4619 7.4417 63.6139 7.2002 63.6139 7.2002C63.6139 7.2002 61.2136 7.36861 60.2858 7.97872C57.2553 9.97429 59.2091 11.3312 59.2249 11.2422H59.2281Z"
      fill="white"
    />
<path
      opacity="0.3"
      d="M65.4726 8.5C65.4726 8.5 65.8115 13.5016 61.0711 10.5051C61.0711 10.5051 61.1851 12.7898 63.8957 12.1638C65.9096 11.6967 65.65 9.11329 65.4758 8.5H65.4726Z"
      fill="white"
    />
</g>
<path
    d="M51.6979 3.71779V5.20494H51.7328C52.3724 4.06734 53.3826 3.49854 54.7695 3.49854C55.3839 3.49854 55.8968 3.58433 56.3053 3.75275C56.7138 3.92116 57.0463 4.15949 57.2996 4.46137C57.553 4.76324 57.7303 5.12232 57.8316 5.54177C57.933 5.95804 57.9868 6.42198 57.9868 6.93041V13.0982H56.451V6.74928C56.451 6.16777 56.2832 5.71019 55.9443 5.37018C55.6055 5.03334 55.1432 4.86175 54.551 4.86175C54.0824 4.86175 53.6739 4.93484 53.3319 5.08101C52.9899 5.22718 52.7017 5.43055 52.4737 5.69748C52.2458 5.9644 52.0716 6.27581 51.9576 6.63171C51.8436 6.98761 51.7866 7.37846 51.7866 7.80109V13.0982H50.2508V3.71779H51.6979Z"
    fill="white"
  />
<mask
    id="mask3_46_1895"
    style="mask-type:luminance"
    maskUnits="userSpaceOnUse"
    x="50"
    y="3"
    width="8"
    height="11"
  >
<path
      d="M51.6979 3.71779V5.20494H51.7328C52.3724 4.06734 53.3826 3.49854 54.7695 3.49854C55.3839 3.49854 55.8968 3.58433 56.3053 3.75275C56.7138 3.92116 57.0463 4.15949 57.2996 4.46137C57.553 4.76324 57.7303 5.12232 57.8316 5.54177C57.933 5.95804 57.9868 6.42198 57.9868 6.93041V13.0982H56.451V6.74928C56.451 6.16777 56.2832 5.71019 55.9443 5.37018C55.6055 5.03334 55.1432 4.86175 54.551 4.86175C54.0824 4.86175 53.6739 4.93484 53.3319 5.08101C52.9899 5.22718 52.7017 5.43055 52.4737 5.69748C52.2458 5.9644 52.0716 6.27581 51.9576 6.63171C51.8436 6.98761 51.7866 7.37846 51.7866 7.80109V13.0982H50.2508V3.71779H51.6979Z"
      fill="white"
    />
</mask>
<g mask="url(#mask3_46_1895)">
<path
      d="M56.147 13.3776L58.3889 13.3585V5.49382L55.8145 4.74707L56.147 13.3776Z"
      fill="white"
    />
<path
      d="M52.2964 13.4253C52.2964 13.4253 53.0912 10.7974 55.6467 3.16468C56.2578 1.33434 49.7916 3.64768 49.7916 3.64768L49.9088 13.3936L52.2996 13.4253H52.2964Z"
      fill="white"
    />
<path
      d="M54.9373 5.38596C55.6182 5.39232 50.1748 3.65414 51.3337 13.7432C51.3337 13.7432 50.5833 14.5789 49.9056 13.3937C49.8676 13.3269 49.8803 4.03864 49.9309 4.00686C50.1716 3.85433 50.4439 3.71769 50.7479 3.60012C56.5745 1.3122 59.1394 4.87436 59.1394 4.87436L54.9373 5.38914V5.38596Z"
      fill="white"
    />
<path
      d="M53.0564 5.97033C53.0564 5.97033 51.9607 6.93634 51.3306 5.6049C50.2223 3.25978 54.988 2.84033 54.988 2.84033L58.4808 3.6983L58.6011 12.8373C58.6011 12.8373 57.1476 7.29541 56.983 6.80287C56.1881 4.42281 53.0342 5.42695 53.0564 5.9735V5.97033Z"
      fill="white"
    />
<path
      opacity="0.1"
      d="M58.3478 5.68441C57.0083 4.54046 53.9399 2.75143 50.0386 5.79881C50.0101 5.82105 49.9974 3.57445 50.0386 3.56491C52.3851 2.89761 55.7037 2.70695 58.1926 3.83502C58.2433 3.85726 58.2528 3.92717 58.2813 3.97483C58.5916 4.48326 58.3858 5.71301 58.3478 5.68124V5.68441Z"
      fill="white"
    />
</g>
<path
    d="M48.5218 3.71786V13.0951H46.986V3.71786H48.5218ZM48.7118 1.15667C48.7118 1.68416 48.2843 2.11315 47.7587 2.11315C47.233 2.11315 46.8055 1.68416 46.8055 1.15667C46.8055 0.62918 47.233 0.200195 47.7587 0.200195C48.2843 0.200195 48.7118 0.62918 48.7118 1.15667Z"
    fill="white"
  />
<mask
    id="mask4_46_1895"
    style="mask-type:luminance"
    maskUnits="userSpaceOnUse"
    x="46"
    y="0"
    width="3"
    height="14"
  >
<path
      d="M48.5218 3.71786V13.0951H46.986V3.71786H48.5218ZM48.7118 1.15667C48.7118 1.68416 48.2843 2.11315 47.7587 2.11315C47.233 2.11315 46.8055 1.68416 46.8055 1.15667C46.8055 0.62918 47.233 0.200195 47.7587 0.200195C48.2843 0.200195 48.7118 0.62918 48.7118 1.15667Z"
      fill="white"
    />
</mask>
<g mask="url(#mask4_46_1895)">
<path d="M48.8734 -0.314453H46.5111V13.5274H48.8734V-0.314453Z" fill="white" />
<path
      d="M45.9569 13.4353L47.8157 3.18733L48.0785 2.65666L47.3249 2.25627L47.6384 -0.314453L48.5662 0.171729L49.1837 13.3972L45.9569 13.4353Z"
      fill="white"
    />
<path
      d="M46.5744 14.1723L48.5884 4.8999L48.9399 13.8482L46.5744 14.1723Z"
      fill="white"
    />
<path
      opacity="0.2"
      d="M47.0557 0.362322C47.7904 0.52756 48.5345 0.931123 49.19 1.73507C49.2217 1.7732 49.6618 0.912057 49.6302 0.867569C49.3167 0.422697 48.905 0.0286673 48.3667 -0.2605C48.2115 -0.343119 48.0564 -0.413027 47.9012 -0.473403C47.7461 -0.530601 46.9987 0.349611 47.0557 0.362322Z"
      fill="white"
    />
<path
      opacity="0.15"
      d="M48.6897 4.65206C48.6675 4.64888 47.1761 3.47314 47.1761 3.47314L48.791 3.54623L48.6897 4.64888V4.65206Z"
      fill="white"
    />
</g>
<path
    d="M40.8682 5.07766V3.71762H42.442V2.31945C42.442 1.55681 42.6605 0.981657 43.1006 0.587627C43.5408 0.193597 44.1836 -0.00341797 45.0259 -0.00341797C45.1716 -0.00341797 45.3362 0.00929267 45.5231 0.0315363C45.7099 0.0569576 45.8746 0.0919118 46.0202 0.139577V1.48055C45.8872 1.43288 45.7416 1.39793 45.5864 1.38204C45.4312 1.36298 45.2856 1.35344 45.1526 1.35344C44.7789 1.35344 44.4908 1.42653 44.2849 1.5727C44.0791 1.71887 43.9778 1.99533 43.9778 2.40843V3.71444H45.7859V5.07448H43.9778V13.0917H42.442V5.07766H40.8682Z"
    fill="white"
  />
<mask
    id="mask5_46_1895"
    style="mask-type:luminance"
    maskUnits="userSpaceOnUse"
    x="40"
    y="-1"
    width="7"
    height="15"
  >
<path
      d="M40.8682 5.07766V3.71762H42.442V2.31945C42.442 1.55681 42.6605 0.981657 43.1006 0.587627C43.5408 0.193597 44.1836 -0.00341797 45.0259 -0.00341797C45.1716 -0.00341797 45.3362 0.00929267 45.5231 0.0315363C45.7099 0.0569576 45.8746 0.0919118 46.0202 0.139577V1.48055C45.8872 1.43288 45.7416 1.39793 45.5864 1.38204C45.4312 1.36298 45.2856 1.35344 45.1526 1.35344C44.7789 1.35344 44.4908 1.42653 44.2849 1.5727C44.0791 1.71887 43.9778 1.99533 43.9778 2.40843V3.71444H45.7859V5.07448H43.9778V13.0917H42.442V5.07766H40.8682Z"
      fill="white"
    />
</mask>
<g mask="url(#mask5_46_1895)">
<path d="M46.5712 -0.82666H39.9594V13.9336H46.5712V-0.82666Z" fill="white" />
<path
      opacity="0.36"
      d="M42.1601 5.31569L42.4483 5.06148C42.4483 5.06148 43.1228 -0.203902 45.0259 -0.257923L42.4483 -0.369141L40.865 3.02778L40.5895 5.20447L42.1601 5.31569Z"
      fill="white"
    />
<path
      opacity="0.2"
      d="M46.8404 0.139505C46.8404 0.139505 43.9366 -0.143307 43.9271 2.14779C43.9271 2.14779 42.8061 11.7507 42.765 13.1425C42.7238 14.5343 42.7143 13.5429 42.7143 13.5429L44.6301 13.3427L44.9119 10.5432L44.5129 5.23647L44.9784 5.31909L46.986 1.45506L46.8372 0.139505H46.8404Z"
      fill="white"
    />
<path
      opacity="0.15"
      d="M46.2514 5.06496C46.2197 5.05861 43.8828 3.2251 43.8828 3.2251L46.4097 3.34267L46.2514 5.06814V5.06496Z"
      fill="white"
    />
<path
      d="M44.1519 13.1998C44.1393 13.2316 43.1323 13.4318 43.1323 13.4318L44.1393 7.23535L44.1488 13.1998H44.1519Z"
      fill="white"
    />
<path
      opacity="0.2"
      d="M42.6763 0.746356C43.7498 0.485788 44.9879 0.562052 46.3559 1.27385C46.4192 1.30562 46.4762 -0.232363 46.4065 -0.276851C45.7162 -0.702657 44.9277 -0.995002 44.0348 -1.04267C43.7751 -1.05538 43.5249 -1.0522 43.2874 -1.03313C43.05 -1.01407 42.5971 0.762244 42.6795 0.743178L42.6763 0.746356Z"
      fill="white"
    />
</g>
<path
    d="M83.7883 5.36356C83.402 5.03626 82.8826 4.8742 82.2335 4.8742C81.6793 4.8742 81.2138 4.97588 80.8402 5.18243C80.4665 5.38898 80.1689 5.65908 79.944 5.99909C79.7224 6.3391 79.5609 6.72677 79.4659 7.16847C79.3677 7.61016 79.3202 8.06775 79.3202 8.53804C79.3202 8.97338 79.3709 9.39601 79.4754 9.80911C79.5767 10.219 79.7382 10.5876 79.9535 10.9054C80.172 11.2263 80.4539 11.4837 80.8022 11.6776C81.1505 11.8714 81.5685 11.9667 82.0498 11.9667C82.8098 11.9667 83.402 11.7665 83.8295 11.3693C84.2569 10.9689 84.5198 10.4065 84.6148 9.682H86.1886C86.0207 10.8418 85.5901 11.7379 84.8966 12.3671C84.2031 12.9963 83.2595 13.3109 82.0657 13.3109C81.3532 13.3109 80.723 13.1965 80.1752 12.9677C79.6274 12.7389 79.1682 12.4116 78.8009 11.989C78.4336 11.5663 78.1549 11.0611 77.9681 10.4732C77.7812 9.88537 77.6862 9.24348 77.6862 8.54122C77.6862 7.83895 77.7781 7.18436 77.9586 6.57107C78.1391 5.96096 78.4146 5.42711 78.7819 4.97588C79.1492 4.52148 79.6115 4.16558 80.1657 3.90501C80.7199 3.64444 81.3658 3.51416 82.1005 3.51416C82.6293 3.51416 83.1265 3.57771 83.592 3.70482C84.0575 3.83193 84.4659 4.02894 84.8206 4.29586C85.1753 4.56279 85.4698 4.89644 85.6978 5.30318C85.9257 5.70992 86.0714 6.18975 86.1316 6.74584H84.5419C84.4216 6.1548 84.1683 5.69403 83.782 5.36674L83.7883 5.36356Z"
    fill="white"
  />
<mask
    id="mask6_46_1895"
    style="mask-type:luminance"
    maskUnits="userSpaceOnUse"
    x="77"
    y="3"
    width="10"
    height="11"
  >
<path
      d="M83.7883 5.36356C83.402 5.03626 82.8826 4.8742 82.2335 4.8742C81.6793 4.8742 81.2138 4.97588 80.8402 5.18243C80.4665 5.38898 80.1689 5.65908 79.944 5.99909C79.7224 6.3391 79.5609 6.72677 79.4659 7.16847C79.3677 7.61016 79.3202 8.06775 79.3202 8.53804C79.3202 8.97338 79.3709 9.39601 79.4754 9.80911C79.5767 10.219 79.7382 10.5876 79.9535 10.9054C80.172 11.2263 80.4539 11.4837 80.8022 11.6776C81.1505 11.8714 81.5685 11.9667 82.0498 11.9667C82.8098 11.9667 83.402 11.7665 83.8295 11.3693C84.2569 10.9689 84.5198 10.4065 84.6148 9.682H86.1886C86.0207 10.8418 85.5901 11.7379 84.8966 12.3671C84.2031 12.9963 83.2595 13.3109 82.0657 13.3109C81.3532 13.3109 80.723 13.1965 80.1752 12.9677C79.6274 12.7389 79.1682 12.4116 78.8009 11.989C78.4336 11.5663 78.1549 11.0611 77.9681 10.4732C77.7812 9.88537 77.6862 9.24348 77.6862 8.54122C77.6862 7.83895 77.7781 7.18436 77.9586 6.57107C78.1391 5.96096 78.4146 5.42711 78.7819 4.97588C79.1492 4.52148 79.6115 4.16558 80.1657 3.90501C80.7199 3.64444 81.3658 3.51416 82.1005 3.51416C82.6293 3.51416 83.1265 3.57771 83.592 3.70482C84.0575 3.83193 84.4659 4.02894 84.8206 4.29586C85.1753 4.56279 85.4698 4.89644 85.6978 5.30318C85.9257 5.70992 86.0714 6.18975 86.1316 6.74584H84.5419C84.4216 6.1548 84.1683 5.69403 83.782 5.36674L83.7883 5.36356Z"
      fill="white"
    />
</mask>
<g mask="url(#mask6_46_1895)">
<path
      d="M80.552 13.6129L85.7579 13.5303L86.4989 9.25L84.4564 9.29131L83.9371 10.3749H79.9599L80.552 13.6129Z"
      fill="white"
    />
<path
      d="M84.3456 13.5715C84.3456 13.5715 76.4481 11.2136 80.9858 4.86786C82.5438 2.68799 80.8908 2.98986 79.4627 4.15289C77.2429 5.9578 77.1068 8.29656 77.1068 8.29656L77.8921 11.6395L80.381 13.6032L84.3456 13.5747V13.5715Z"
      fill="white"
    />
<path
      opacity="0.1"
      d="M83.174 11.188C83.174 11.188 81.3468 11.0323 81.3975 11.1117C82.1226 12.2207 83.4368 12.7164 85.8212 11.2134C86.0081 11.0958 85.0074 10.3745 85.0074 10.3745C85.0074 10.3745 83.8643 10.3745 83.174 11.188Z"
      fill="white"
    />
<path
      d="M83.6173 6.03727C83.6173 6.03727 76.1346 3.2028 78.7502 12.9995C78.7502 12.9995 75.0263 6.18662 78.9402 3.9845C82.9048 1.75378 86.0302 4.07348 86.0302 4.07348L83.6173 6.03727Z"
      fill="white"
    />
<path
      d="M83.8643 5.85285C83.8643 5.85285 82.5121 5.64313 82.2936 5.31583C81.7521 4.50552 80.8338 3.78737 79.659 4.22589C78.8294 4.53412 79.5039 3.92083 80.077 3.25353C81.1252 2.0333 84.2854 3.34886 84.2854 3.34886L86.7174 5.15694L86.3976 7.07625L84.3741 6.93643L83.8643 5.84967V5.85285Z"
      fill="white"
    />
<path
      opacity="0.1"
      d="M86.5781 5.63347C85.2386 4.43232 81.7838 2.22384 77.5722 6.35162C77.3854 6.53275 78.2056 4.86766 78.3481 4.75962C80.8212 2.90069 84.2221 1.75037 86.9295 5.22356"
      fill="white"
    />
</g>
<path
    d="M13.4961 10.8453C13.8824 11.2203 14.4334 11.4078 15.1554 11.4078C15.6715 11.4078 16.118 11.2775 16.4917 11.0201C16.8653 10.7595 17.0933 10.4862 17.1757 10.1971H19.4303C19.0693 11.3188 18.5151 12.1227 17.771 12.6057C17.0237 13.0887 16.1243 13.3302 15.0635 13.3302C14.3289 13.3302 13.6671 13.2127 13.0781 12.9775C12.4891 12.7424 11.9888 12.4055 11.5803 11.9734C11.1718 11.538 10.8551 11.0201 10.6335 10.4163C10.4118 9.81257 10.301 9.14844 10.301 8.42393C10.301 7.69942 10.415 7.07343 10.643 6.46967C10.871 5.86592 11.1971 5.34478 11.6183 4.90308C12.0394 4.46139 12.5398 4.11502 13.1256 3.86081C13.7082 3.6066 14.3542 3.47949 15.0667 3.47949C15.8615 3.47949 16.5518 3.63202 17.1408 3.94025C17.7298 4.24849 18.2143 4.66158 18.5943 5.17954C18.9743 5.6975 19.2466 6.29172 19.4144 6.95267C19.5823 7.61681 19.6424 8.30954 19.5949 9.03404H12.8659C12.9007 9.86659 13.1129 10.4703 13.4961 10.8453ZM16.3903 5.91993C16.0832 5.5831 15.6177 5.41469 14.9907 5.41469C14.5822 5.41469 14.2434 5.4846 13.9711 5.62124C13.6987 5.76105 13.4834 5.93265 13.3219 6.13602C13.1604 6.34256 13.0464 6.55865 12.9799 6.78744C12.9134 7.01623 12.8754 7.22278 12.8627 7.4039H17.03C16.9097 6.75248 16.6975 6.25677 16.3903 5.91993Z"
    fill="white"
  />
<path
    d="M25.887 3.73019V5.4493H24.0092V10.0855C24.0092 10.5209 24.082 10.81 24.2245 10.953C24.3702 11.0992 24.6583 11.1691 25.089 11.1691C25.2346 11.1691 25.3708 11.1627 25.5038 11.15C25.6368 11.1373 25.7635 11.1182 25.8838 11.096V13.0884C25.6685 13.1265 25.4278 13.1488 25.1618 13.1615C24.8958 13.1742 24.6393 13.1806 24.386 13.1806C23.9902 13.1806 23.6133 13.152 23.2587 13.0979C22.904 13.0439 22.5905 12.939 22.3214 12.7802C22.0522 12.6245 21.8369 12.3988 21.6817 12.1097C21.5266 11.8205 21.4474 11.4392 21.4474 10.9689V5.44613H19.8958V3.72701H21.4474V0.924316H24.0092V3.73019H25.887Z"
    fill="white"
  />
<path d="M29.8294 3.73047V13.0919H27.2676V3.73047H29.8294Z" fill="white" />
<path
    d="M33.9871 0.165039V7.09869L37.2171 3.73037H40.2475L36.7294 7.17178L40.6433 13.0918H37.5401L34.9783 8.90996L33.9871 9.86961V13.0918H31.4254V0.165039H33.9871Z"
    fill="white"
  />
<path
    d="M6.71003 0.203125V4.50568C6.02288 3.99725 5.19956 3.69855 4.30974 3.69855C1.92846 3.70173 0 5.83394 0 8.46186C0 11.0898 1.92846 13.222 4.30974 13.222C5.19956 13.222 6.02288 12.9233 6.71003 12.4149V13.0917H9.20848V0.203125H6.71003ZM4.35408 11.1947C3.15393 11.1947 2.18179 9.97125 2.18179 8.46186C2.18179 6.95248 3.15393 5.72908 4.35408 5.72908C5.55422 5.72908 6.5232 6.95248 6.5232 8.46186C6.5232 9.97125 5.55105 11.1947 4.35408 11.1947Z"
    fill="white"
  />
<path
    d="M29.8927 1.382C29.8927 2.12557 29.2911 2.72932 28.5501 2.72932C27.8091 2.72932 27.2074 2.12557 27.2074 1.382C27.2074 0.638423 27.8059 0.034668 28.5501 0.034668C29.2942 0.034668 29.8927 0.638423 29.8927 1.382Z"
    fill="white"
  />
<path
    d="M0 45.1765V24.5566H10.9786C13.8159 24.5566 15.909 25.0619 17.2611 26.0724C18.6101 27.0829 19.2878 28.3762 19.2878 29.946C19.2878 30.9882 18.9996 31.9161 18.4233 32.7296C17.847 33.5462 17.0078 34.1881 15.9122 34.6584C14.8165 35.1287 13.4644 35.3639 11.8621 35.3639L12.4479 33.7719C14.0534 33.7719 15.4372 33.9975 16.6025 34.4487C17.7678 34.8999 18.6671 35.5545 19.3036 36.4093C19.9401 37.2641 20.2567 38.2905 20.2567 39.4885C20.2567 41.2743 19.5189 42.6693 18.0401 43.6703C16.5613 44.6712 14.4049 45.1733 11.5676 45.1733H0V45.1765ZM6.81136 40.3147H10.9786C11.7418 40.3147 12.3149 40.178 12.6949 39.9016C13.0781 39.6251 13.2681 39.2247 13.2681 38.694C13.2681 38.1634 13.0781 37.763 12.6949 37.4865C12.3117 37.2101 11.7418 37.0734 10.9786 37.0734H6.33954V32.4785H10.0381C10.8203 32.4785 11.3934 32.3451 11.7544 32.0813C12.1154 31.8176 12.2959 31.4395 12.2959 30.9469C12.2959 30.4544 12.1154 30.054 11.7544 29.7966C11.3934 29.5424 10.8203 29.4121 10.0381 29.4121H6.80819V40.3115L6.81136 40.3147Z"
    fill="white"
  />
<path
    d="M32.5242 45.647C29.3734 45.647 26.9161 44.7922 25.1555 43.0826C23.3948 41.3731 22.5145 38.9771 22.5145 35.8948V24.5537H29.4431V35.6882C29.4431 37.2612 29.728 38.3734 30.2949 39.0311C30.8617 39.6889 31.6248 40.0194 32.5843 40.0194C33.5438 40.0194 34.3323 39.6889 34.8896 39.0311C35.4469 38.3734 35.7256 37.258 35.7256 35.6882V24.5537H42.5369V35.8948C42.5369 38.9771 41.6566 41.3731 39.896 43.0826C38.1354 44.7922 35.6781 45.647 32.5273 45.647H32.5242Z"
    fill="white"
  />
<path
    d="M53.3667 45.6469C51.6441 45.6469 49.9816 45.4499 48.3762 45.059C46.7707 44.665 45.4502 44.1565 44.4116 43.5274L46.644 38.459C47.6225 39.0278 48.715 39.4854 49.9183 39.8286C51.1216 40.1718 52.2901 40.3433 53.4269 40.3433C54.0919 40.3433 54.6144 40.2989 54.9975 40.2099C55.3807 40.1209 55.6594 39.9938 55.8335 39.8254C56.0109 39.6602 56.0963 39.4568 56.0963 39.2216C56.0963 38.8498 55.8905 38.5543 55.4789 38.3382C55.0672 38.1222 54.5257 37.941 53.8481 37.7917C53.1736 37.6455 52.4326 37.4866 51.6314 37.3214C50.8303 37.1562 50.0228 36.9337 49.209 36.6573C48.3952 36.3808 47.6542 36.0186 46.9765 35.5673C46.3021 35.1161 45.7574 34.5219 45.3457 33.7847C44.9341 33.0474 44.7283 32.1291 44.7283 31.0296C44.7283 29.7522 45.0861 28.5892 45.7986 27.5374C46.5142 26.4888 47.5782 25.6467 48.9968 25.0175C50.4155 24.3883 52.1824 24.0737 54.2946 24.0737C55.6847 24.0737 57.0527 24.2199 58.4048 24.5154C59.7538 24.8109 60.9697 25.2622 62.0464 25.8691L59.9628 30.9057C58.9463 30.3941 57.9615 30.0128 57.0115 29.7554C56.0615 29.5012 55.1369 29.3709 54.2376 29.3709C53.5726 29.3709 53.0437 29.4313 52.6511 29.5488C52.2584 29.6664 51.9798 29.8253 51.8151 30.0191C51.6473 30.2161 51.5649 30.4322 51.5649 30.6674C51.5649 31.0201 51.7708 31.2997 52.1824 31.5063C52.5941 31.7128 53.1356 31.8844 53.8132 32.0211C54.4877 32.1577 55.2319 32.307 56.0457 32.4628C56.8563 32.6216 57.6638 32.8345 58.4681 33.111C59.2693 33.3875 60.0103 33.7497 60.6848 34.2009C61.3592 34.6522 61.9039 35.2432 62.3156 35.9677C62.7272 36.6954 62.933 37.5979 62.933 38.6783C62.933 39.9366 62.5752 41.0901 61.8627 42.1387C61.1471 43.1905 60.0863 44.0326 58.6771 44.6713C57.268 45.31 55.4979 45.6278 53.3636 45.6278L53.3667 45.6469Z"
    fill="white"
  />
<path d="M64.9913 45.1765V24.5566H71.9199V45.1765H64.9913Z" fill="white" />
<path
    d="M75.2669 45.1765V24.5566H80.9605L91.4103 37.1052H88.7693V24.5566H95.5205V45.1765H89.827L79.3772 32.6279H82.0181V45.1765H75.2669Z"
    fill="white"
  />
<path
    d="M105.679 39.9333H115.955V45.1765H98.8708V24.5566H115.575V29.7998H105.682V39.9333H105.679ZM105.21 32.2148H114.368V37.2228H105.21V32.2148Z"
    fill="white"
  />
<path
    d="M126.287 45.6469C124.565 45.6469 122.902 45.4499 121.297 45.059C119.691 44.665 118.371 44.1565 117.332 43.5274L119.565 38.459C120.543 39.0278 121.636 39.4854 122.839 39.8286C124.042 40.1718 125.211 40.3433 126.347 40.3433C127.012 40.3433 127.535 40.2989 127.918 40.2099C128.301 40.1209 128.58 39.9938 128.754 39.8254C128.931 39.6602 129.017 39.4568 129.017 39.2216C129.017 38.8498 128.811 38.5543 128.399 38.3382C127.988 38.1222 127.446 37.941 126.769 37.7917C126.094 37.6455 125.353 37.4866 124.552 37.3214C123.751 37.1562 122.943 36.9337 122.129 36.6573C121.316 36.3808 120.575 36.0186 119.897 35.5673C119.223 35.1161 118.678 34.5219 118.266 33.7847C117.855 33.0474 117.649 32.1291 117.649 31.0296C117.649 29.7522 118.007 28.5892 118.719 27.5374C119.435 26.4888 120.499 25.6467 121.917 25.0175C123.336 24.3883 125.103 24.0737 127.215 24.0737C128.605 24.0737 129.973 24.2199 131.325 24.5154C132.674 24.8109 133.89 25.2622 134.967 25.8691L132.883 30.9057C131.867 30.3941 130.882 30.0128 129.932 29.7554C128.982 29.5012 128.057 29.3709 127.158 29.3709C126.493 29.3709 125.964 29.4313 125.572 29.5488C125.179 29.6664 124.9 29.8253 124.736 30.0191C124.568 30.2161 124.485 30.4322 124.485 30.6674C124.485 31.0201 124.691 31.2997 125.103 31.5063C125.515 31.7128 126.056 31.8844 126.734 32.0211C127.408 32.1577 128.152 32.307 128.966 32.4628C129.777 32.6216 130.584 32.8345 131.389 33.111C132.19 33.3875 132.931 33.7497 133.605 34.2009C134.28 34.6522 134.824 35.2432 135.236 35.9677C135.648 36.6954 135.854 37.5979 135.854 38.6783C135.854 39.9366 135.496 41.0901 134.783 42.1387C134.068 43.1905 133.007 44.0326 131.598 44.6713C130.188 45.31 128.418 45.6278 126.284 45.6278L126.287 45.6469Z"
    fill="white"
  />
<path
    d="M145.572 45.6469C143.849 45.6469 142.187 45.4499 140.581 45.059C138.976 44.665 137.655 44.1565 136.617 43.5274L138.849 38.459C139.828 39.0278 140.92 39.4854 142.123 39.8286C143.327 40.1718 144.495 40.3433 145.632 40.3433C146.297 40.3433 146.823 40.2989 147.203 40.2099C147.586 40.1209 147.864 39.9938 148.039 39.8254C148.216 39.6602 148.305 39.4568 148.305 39.2216C148.305 38.8498 148.099 38.5543 147.687 38.3382C147.275 38.1222 146.734 37.941 146.059 37.7917C145.385 37.6455 144.644 37.4866 143.843 37.3214C143.042 37.1562 142.234 36.9337 141.42 36.6573C140.607 36.3808 139.866 36.0186 139.188 35.5673C138.513 35.1161 137.969 34.5219 137.557 33.7847C137.145 33.0474 136.94 32.1291 136.94 31.0296C136.94 29.7522 137.297 28.5892 138.01 27.5374C138.726 26.4888 139.79 25.6467 141.208 25.0175C142.627 24.3883 144.394 24.0737 146.506 24.0737C147.896 24.0737 149.264 24.2199 150.616 24.5154C151.968 24.8109 153.181 25.2622 154.258 25.8691L152.174 30.9057C151.158 30.3941 150.173 30.0128 149.223 29.7554C148.273 29.5012 147.348 29.3709 146.449 29.3709C145.784 29.3709 145.255 29.4313 144.863 29.5488C144.47 29.6664 144.191 29.8253 144.027 30.0191C143.859 30.2161 143.776 30.4322 143.776 30.6674C143.776 31.0201 143.982 31.2997 144.394 31.5063C144.805 31.7128 145.347 31.8844 146.025 32.0211C146.699 32.1577 147.443 32.307 148.254 32.4628C149.065 32.6216 149.872 32.8345 150.676 33.111C151.478 33.3875 152.219 33.7497 152.893 34.2009C153.567 34.6522 154.112 35.2432 154.521 35.9677C154.932 36.6954 155.138 37.5979 155.138 38.6783C155.138 39.9366 154.78 41.0901 154.068 42.1387C153.352 43.1905 152.291 44.0326 150.882 44.6713C149.473 45.31 147.703 45.6278 145.569 45.6278L145.572 45.6469Z"
    fill="white"
  />
<path
    d="M166.003 45.1765V24.5566H175.895C177.814 24.5566 179.47 24.8712 180.87 25.5004C182.27 26.1296 183.349 27.0289 184.113 28.1951C184.876 29.3644 185.259 30.7435 185.259 32.3324C185.259 33.9212 184.876 35.2971 184.113 36.457C183.349 37.6168 182.266 38.5129 180.87 39.1516C179.47 39.7903 177.811 40.1081 175.895 40.1081H169.847L172.928 37.1338V45.1765H166H166.003ZM172.931 37.8996L169.85 34.7474H175.458C176.418 34.7474 177.127 34.5313 177.586 34.0992C178.045 33.667 178.276 33.0791 178.276 32.3324C178.276 31.5856 178.045 30.9978 177.586 30.5656C177.127 30.1334 176.418 29.9174 175.458 29.9174H169.85L172.931 26.7651V37.8996Z"
    fill="white"
  />
<path
    d="M187.52 45.1765V24.5566H194.448V39.7872H203.723V45.1765H187.52Z"
    fill="white"
  />
<path
    d="M203.695 45.1765L212.678 24.5566H219.49L228.473 45.1765H221.311L214.677 27.8551H217.378L210.744 45.1765H203.698H203.695ZM209.037 41.5825L210.797 36.5746H220.25L222.01 41.5825H209.034H209.037Z"
    fill="white"
  />
<path
    d="M229.588 45.1765V24.5566H235.282L245.731 37.1052H243.09V24.5566H249.842V45.1765H244.145L233.695 32.6279H236.336V45.1765H229.585H229.588Z"
    fill="white"
  />
<path
    d="M4.9589 65.9997C4.25275 65.9997 3.59726 65.8822 2.98927 65.6534C2.38445 65.4214 1.8588 65.0909 1.4123 64.6619C0.96898 64.233 0.620654 63.7309 0.373659 63.1526C0.123497 62.5742 0 61.9419 0 61.2491C0 60.5564 0.123497 59.9241 0.373659 59.3457C0.620654 58.7674 0.972147 58.2653 1.4218 57.8363C1.87146 57.4073 2.39712 57.0769 2.99877 56.8449C3.60043 56.6129 4.25908 56.4985 4.97473 56.4985C5.76955 56.4985 6.4852 56.6352 7.12802 56.9116C7.76767 57.1881 8.306 57.5916 8.74299 58.1255L7.38135 59.387C7.06785 59.028 6.71953 58.7579 6.3332 58.5799C5.95004 58.402 5.53205 58.3098 5.07606 58.3098C4.64857 58.3098 4.25591 58.3797 3.89809 58.5195C3.54026 58.6593 3.22993 58.8595 2.97027 59.1233C2.70744 59.387 2.50478 59.6953 2.36228 60.0543C2.21979 60.4134 2.14696 60.8106 2.14696 61.2491C2.14696 61.6877 2.21979 62.0849 2.36228 62.4439C2.50478 62.803 2.70744 63.1144 2.97027 63.375C3.2331 63.6387 3.54026 63.8389 3.89809 63.9787C4.25591 64.1186 4.64857 64.1885 5.07606 64.1885C5.52889 64.1885 5.94688 64.0995 6.3332 63.9184C6.71636 63.7404 7.06469 63.464 7.38135 63.0985L8.74299 64.3601C8.306 64.8939 7.76767 65.3007 7.12802 65.5803C6.48837 65.8599 5.76638 65.9997 4.96206 65.9997H4.9589Z"
    fill="white"
  />
<path
    d="M22.2676 65.9997C21.5424 65.9997 20.8742 65.8822 20.2599 65.6438C19.6456 65.4087 19.1136 65.075 18.664 64.6461C18.2143 64.2171 17.866 63.715 17.6158 63.1367C17.3657 62.5583 17.2422 61.9292 17.2422 61.246C17.2422 60.5628 17.3657 59.9336 17.6158 59.3553C17.8628 58.7769 18.2143 58.2749 18.6703 57.8459C19.1231 57.4169 19.6551 57.0832 20.2663 56.8481C20.8774 56.6129 21.5392 56.4922 22.2549 56.4922C22.9705 56.4922 23.645 56.6098 24.2498 56.8481C24.8547 57.0832 25.3835 57.4169 25.8331 57.8459C26.2828 58.2749 26.6343 58.7769 26.8876 59.3489C27.141 59.9209 27.2676 60.5532 27.2676 61.246C27.2676 61.9387 27.141 62.5615 26.8876 63.143C26.6343 63.7245 26.2828 64.2298 25.8331 64.6524C25.3835 65.0782 24.8547 65.4087 24.2498 65.6438C23.645 65.879 22.9832 65.9997 22.2676 65.9997ZM22.2549 64.1885C22.6634 64.1885 23.0434 64.1186 23.3854 63.9788C23.7305 63.8389 24.0313 63.6387 24.2942 63.375C24.557 63.1113 24.7597 62.803 24.9022 62.4439C25.0447 62.0849 25.1175 61.6877 25.1175 61.2491C25.1175 60.8106 25.0447 60.4134 24.9022 60.0543C24.7597 59.6953 24.557 59.3839 24.3005 59.1233C24.044 58.8595 23.74 58.6594 23.3917 58.5195C23.0434 58.3797 22.6634 58.3098 22.2549 58.3098C21.8464 58.3098 21.4664 58.3797 21.1244 58.5195C20.7792 58.6594 20.4784 58.8595 20.2156 59.1233C19.9528 59.387 19.7501 59.6953 19.6076 60.0543C19.4651 60.4134 19.3923 60.8106 19.3923 61.2491C19.3923 61.6877 19.4651 62.0753 19.6076 62.4376C19.7501 62.7998 19.9528 63.1144 20.2093 63.375C20.4658 63.6387 20.7698 63.8389 21.1181 63.9788C21.4664 64.1186 21.8464 64.1885 22.2549 64.1885Z"
    fill="white"
  />
<path
    d="M36.7104 65.8407V56.6509H38.4647L42.3628 63.1365H41.435L45.2697 56.6509H47.0082L47.0335 65.8407H45.0449L45.0322 59.711H45.3996L42.3375 64.8715H41.3812L38.2557 59.711H38.699V65.8407H36.7104Z"
    fill="white"
  />
<path
    d="M57.0526 65.8407V56.6509H61.0172C61.8374 56.6509 62.5435 56.7843 63.1357 57.0513C63.7278 57.3182 64.187 57.6995 64.51 58.2016C64.833 58.7036 64.9945 59.2947 64.9945 59.9874C64.9945 60.6802 64.833 61.2617 64.51 61.7606C64.187 62.2594 63.7278 62.6439 63.1357 62.9109C62.5435 63.1778 61.8374 63.3113 61.0172 63.3113H58.2306L59.1711 62.3516V65.8439H57.0526V65.8407ZM59.1711 62.5836L58.2306 61.5731H60.9001C61.5556 61.5731 62.0432 61.4333 62.3662 61.1536C62.6892 60.874 62.8507 60.4831 62.8507 59.9842C62.8507 59.4854 62.6892 59.0818 62.3662 58.8022C62.0432 58.5225 61.5556 58.3827 60.9001 58.3827H58.2306L59.1711 57.3722V62.5836Z"
    fill="white"
  />
<path
    d="M76.4544 64.1343H81.4387V65.8407H74.3486V56.6509H81.2708V58.3573H76.4576V64.1343H76.4544ZM76.2961 60.3529H80.704V62.0084H76.2961V60.3529Z"
    fill="white"
  />
<path
    d="M92.8733 65.8407V58.3827H89.9442V56.6509H97.924V58.3827H94.9949V65.8407H92.8764H92.8733Z"
    fill="white"
  />
<path d="M106.914 65.8407V56.6509H109.032V65.8407H106.914Z" fill="white" />
<path
    d="M120.952 65.8407V58.3827H118.022V56.6509H126.002V58.3827H123.073V65.8407H120.955H120.952Z"
    fill="white"
  />
<path d="M134.989 65.8407V56.6509H137.108V65.8407H134.989Z" fill="white" />
<path
    d="M151.576 65.9997C150.851 65.9997 150.182 65.8822 149.568 65.6438C148.954 65.4055 148.422 65.075 147.972 64.6461C147.522 64.2171 147.174 63.715 146.924 63.1367C146.677 62.5583 146.55 61.9292 146.55 61.246C146.55 60.5628 146.674 59.9336 146.924 59.3553C147.174 58.7769 147.522 58.2749 147.978 57.8459C148.431 57.4169 148.963 57.0832 149.574 56.8481C150.186 56.6129 150.847 56.4922 151.563 56.4922C152.279 56.4922 152.953 56.6098 153.558 56.8481C154.163 57.0832 154.692 57.4169 155.141 57.8459C155.591 58.2749 155.942 58.7769 156.196 59.3489C156.449 59.9209 156.576 60.5532 156.576 61.246C156.576 61.9387 156.449 62.5615 156.196 63.143C155.942 63.7245 155.591 64.2298 155.141 64.6524C154.692 65.0782 154.166 65.4087 153.558 65.6438C152.95 65.879 152.291 65.9997 151.576 65.9997ZM151.563 64.1885C151.972 64.1885 152.352 64.1186 152.694 63.9788C153.036 63.8389 153.343 63.6387 153.602 63.375C153.865 63.1113 154.068 62.803 154.21 62.4439C154.353 62.0849 154.426 61.6877 154.426 61.2491C154.426 60.8106 154.353 60.4134 154.21 60.0543C154.068 59.6953 153.865 59.3839 153.609 59.1233C153.352 58.8595 153.048 58.6594 152.7 58.5195C152.352 58.3797 151.972 58.3098 151.563 58.3098C151.155 58.3098 150.775 58.3797 150.433 58.5195C150.087 58.6594 149.787 58.8595 149.524 59.1233C149.261 59.387 149.058 59.6953 148.916 60.0543C148.773 60.4134 148.7 60.8106 148.7 61.2491C148.7 61.6877 148.773 62.0753 148.916 62.4376C149.058 62.7998 149.261 63.1144 149.517 63.375C149.774 63.6387 150.078 63.8389 150.426 63.9788C150.775 64.1186 151.155 64.1885 151.563 64.1885Z"
    fill="white"
  />
<path
    d="M166.019 65.8407V56.6509H167.773L173.175 63.2668H172.323V56.6509H174.416V65.8407H172.675L167.26 59.2248H168.112V65.8407H166.019Z"
    fill="white"
  />
<path
    d="M195.338 65.8409V64.4618L198.872 61.1125C199.151 60.8583 199.357 60.6327 199.486 60.4293C199.616 60.2291 199.708 60.0448 199.756 59.8796C199.803 59.7143 199.828 59.5618 199.828 59.4188C199.828 59.0502 199.705 58.7706 199.455 58.5704C199.208 58.3734 198.84 58.2749 198.362 58.2749C197.979 58.2749 197.624 58.3479 197.295 58.4973C196.969 58.6466 196.69 58.8786 196.465 59.1932L194.92 58.1954C195.268 57.6711 195.756 57.2548 196.386 56.9466C197.013 56.6415 197.738 56.4858 198.559 56.4858C199.239 56.4858 199.835 56.5971 200.345 56.8195C200.854 57.0419 201.25 57.3565 201.535 57.7569C201.817 58.1605 201.96 58.6403 201.96 59.1996C201.96 59.4983 201.921 59.7938 201.849 60.0861C201.776 60.3785 201.627 60.6867 201.405 61.0108C201.184 61.335 200.858 61.6972 200.43 62.1008L197.501 64.8717L197.096 64.0963H202.263V65.8282H195.341L195.338 65.8409Z"
    fill="white"
  />
<path
    d="M214.911 65.9997C214.16 65.9997 213.489 65.8123 212.897 65.4405C212.305 65.0687 211.836 64.5285 211.497 63.8199C211.158 63.1113 210.987 62.2533 210.987 61.246C210.987 60.2387 211.158 59.3807 211.497 58.6721C211.836 57.9634 212.305 57.4232 212.897 57.0515C213.489 56.6797 214.16 56.4922 214.911 56.4922C215.661 56.4922 216.342 56.6797 216.931 57.0515C217.52 57.4232 217.986 57.9634 218.325 58.6721C218.663 59.3807 218.834 60.2387 218.834 61.246C218.834 62.2533 218.663 63.1113 218.325 63.8199C217.986 64.5285 217.52 65.0687 216.931 65.4405C216.342 65.8123 215.668 65.9997 214.911 65.9997ZM214.911 64.2012C215.269 64.2012 215.579 64.0995 215.845 63.8993C216.111 63.6991 216.32 63.3782 216.472 62.9397C216.624 62.5011 216.7 61.9387 216.7 61.246C216.7 60.5532 216.624 59.9908 216.472 59.5523C216.32 59.1138 216.111 58.796 215.845 58.5926C215.579 58.3893 215.269 58.2907 214.911 58.2907C214.553 58.2907 214.255 58.3924 213.989 58.5926C213.723 58.7928 213.514 59.1138 213.362 59.5523C213.21 59.9908 213.134 60.5532 213.134 61.246C213.134 61.9387 213.21 62.5011 213.362 62.9397C213.514 63.3782 213.723 63.6959 213.989 63.8993C214.255 64.0995 214.563 64.2012 214.911 64.2012Z"
    fill="white"
  />
<path
    d="M227.587 65.8409V64.4618L231.121 61.1125C231.399 60.8583 231.605 60.6327 231.735 60.4293C231.865 60.2291 231.957 60.0448 232.004 59.8796C232.052 59.7143 232.077 59.5618 232.077 59.4188C232.077 59.0502 231.954 58.7706 231.703 58.5704C231.456 58.3734 231.089 58.2749 230.611 58.2749C230.228 58.2749 229.873 58.3479 229.544 58.4973C229.218 58.6466 228.939 58.8786 228.714 59.1932L227.169 58.1954C227.517 57.6711 228.005 57.2548 228.635 56.9466C229.262 56.6415 229.987 56.4858 230.807 56.4858C231.488 56.4858 232.083 56.5971 232.593 56.8195C233.103 57.0419 233.499 57.3565 233.784 57.7569C234.066 58.1605 234.208 58.6403 234.208 59.1996C234.208 59.4983 234.17 59.7938 234.097 60.0861C234.025 60.3785 233.876 60.6867 233.654 61.0108C233.432 61.335 233.106 61.6972 232.679 62.1008L229.75 64.8717L229.344 64.0963H234.512V65.8282H227.59L227.587 65.8409Z"
    fill="white"
  />
<path
    d="M246.203 65.9998C245.567 65.9998 244.933 65.914 244.306 65.7424C243.679 65.5708 243.147 65.3293 242.71 65.0147L243.534 63.3878C243.882 63.642 244.287 63.8422 244.75 63.9915C245.212 64.1409 245.678 64.214 246.149 64.214C246.681 64.214 247.099 64.1091 247.407 63.8994C247.711 63.6896 247.866 63.4005 247.866 63.0319C247.866 62.6633 247.73 62.4059 247.46 62.2057C247.191 62.0055 246.754 61.9038 246.153 61.9038H245.184V60.4993L247.736 57.5981L247.97 58.3607H243.17V56.6543H249.579V58.0334L247.039 60.9346L245.966 60.3181H246.58C247.704 60.3181 248.556 60.5724 249.132 61.0808C249.709 61.5892 249.997 62.2406 249.997 63.0382C249.997 63.5562 249.861 64.0392 249.592 64.4904C249.322 64.9416 248.908 65.3071 248.35 65.5867C247.793 65.8663 247.077 66.0062 246.203 66.0062V65.9998Z"
    fill="white"
  />
</svg>
