<svg
  width="55"
  height="55"
  viewBox="0 0 55 55"
  fill="none"
  xmlns="http://www.w3.org/2000/svg"
>
<rect
    y="0.65686"
    width="55"
    height="54"
    rx="27"
    fill="url(#paint0_linear_3178_881)"
  />
<path
    d="M32.7463 15.6569H22.2661C17.7139 15.6569 15 18.2609 15 22.6289V32.6729C15 37.0529 17.7139 39.6569 22.2661 39.6569H32.7338C37.2861 39.6569 40 37.0529 40 32.6849V22.6289C40.0125 18.2609 37.2986 15.6569 32.7463 15.6569ZM26.1931 34.2689C25.8304 34.6169 25.1426 34.9529 24.6423 35.0249L21.5658 35.4449C21.4532 35.4569 21.3407 35.4689 21.2281 35.4689C20.7153 35.4689 20.2401 35.3009 19.9024 34.9769C19.4897 34.5809 19.3147 34.0049 19.4147 33.3689L19.8524 30.4169C19.9275 29.9249 20.2651 29.2769 20.6403 28.9289L26.2181 23.5769C26.3181 23.8289 26.4182 24.0809 26.5558 24.3689C26.6808 24.6209 26.8184 24.8849 26.9685 25.1249C27.0935 25.3289 27.2311 25.5209 27.3437 25.6649C27.4812 25.8689 27.6438 26.0609 27.7438 26.1689C27.8064 26.2529 27.8564 26.3129 27.8814 26.3369C28.1941 26.6969 28.5568 27.0329 28.8694 27.2849C28.957 27.3689 29.007 27.4169 29.032 27.4289C29.2196 27.5729 29.4072 27.7169 29.5698 27.8249C29.7699 27.9689 29.97 28.1009 30.1826 28.2089C30.4327 28.3529 30.7078 28.4849 30.983 28.6169C31.2706 28.7369 31.5332 28.8449 31.7959 28.9289L26.1931 34.2689ZM34.2221 26.5649L33.0715 27.6809C32.9965 27.7529 32.8964 27.7889 32.7964 27.7889C32.7589 27.7889 32.7088 27.7889 32.6838 27.7769C30.145 27.0809 28.119 25.1369 27.3937 22.7009C27.3562 22.5689 27.3937 22.4249 27.4937 22.3409L28.6568 21.2249C30.5578 19.4009 32.3712 19.4369 34.2346 21.2249C35.1851 22.1369 35.6478 23.0129 35.6478 23.9249C35.6353 24.7889 35.1726 25.6529 34.2221 26.5649Z"
    fill="white"
  />
<defs>
<linearGradient
      id="paint0_linear_3178_881"
      x1="49.5455"
      y1="50.8319"
      x2="8.87897"
      y2="3.62706"
      gradientUnits="userSpaceOnUse"
    >
<stop stop-color="#007CBD" />
<stop offset="1" stop-color="#3EB7DD" />
</linearGradient>
</defs>
</svg>
