<svg
  width="55"
  height="55"
  viewBox="0 0 55 55"
  fill="none"
  xmlns="http://www.w3.org/2000/svg"
>
<rect
    y="0.65686"
    width="55"
    height="54"
    rx="27"
    fill="url(#paint0_linear_3178_900)"
  />
<path
    d="M39.5929 16.4709H15.4071C14.9113 16.4709 14.5001 16.0598 14.5001 15.564C14.5001 15.0681 14.9113 14.657 15.4071 14.657H39.5929C40.0887 14.657 40.4999 15.0681 40.4999 15.564C40.4999 16.0598 40.0887 16.4709 39.5929 16.4709Z"
    fill="white"
  />
<path
    d="M33.1477 40.161C32.9905 40.4754 32.664 40.6568 32.3375 40.6568C32.2045 40.6568 32.0594 40.6205 31.9385 40.5601L27.5004 38.3471L23.0622 40.5601C22.9413 40.6205 22.7962 40.6568 22.6631 40.6568C22.3366 40.6568 22.0101 40.4754 21.8529 40.161C21.6231 39.7015 21.8045 39.1573 22.2641 38.9396L26.5934 36.775V33.7034H28.4073V36.775L32.7366 38.9396C33.1961 39.1573 33.3775 39.7015 33.1477 40.161Z"
    fill="white"
  />
<path
    d="M16.6164 15.564V30.1964C16.6164 32.4941 17.8257 33.7033 20.1233 33.7033H34.8767C37.1743 33.7033 38.3836 32.4941 38.3836 30.1964V15.564H16.6164ZM33.5223 23.5211L29.713 26.7015C29.3623 26.9918 28.9149 27.1127 28.4916 27.0401C28.0563 26.9676 27.6814 26.7015 27.4516 26.3146L26.1819 24.1983L22.6386 27.149C22.4693 27.2941 22.2638 27.3546 22.0582 27.3546C21.8042 27.3546 21.5382 27.2457 21.3568 27.0281C21.0303 26.6411 21.0907 26.0727 21.4777 25.7462L25.287 22.5658C25.6377 22.2755 26.0851 22.1546 26.5084 22.2272C26.9437 22.2997 27.3186 22.5658 27.5484 22.9527L28.8181 25.069L32.3613 22.1183C32.7483 21.7918 33.3167 21.8523 33.6432 22.2393C33.9576 22.6262 33.9092 23.1946 33.5223 23.5211Z"
    fill="white"
  />
<defs>
<linearGradient
      id="paint0_linear_3178_900"
      x1="49.5455"
      y1="50.8319"
      x2="8.87897"
      y2="3.62706"
      gradientUnits="userSpaceOnUse"
    >
<stop stop-color="#007CBD" />
<stop offset="1" stop-color="#3EB7DD" />
</linearGradient>
</defs>
</svg>
