<svg
  width="55"
  height="55"
  viewBox="0 0 55 55"
  fill="none"
  xmlns="http://www.w3.org/2000/svg"
>
<rect
    y="0.65686"
    width="55"
    height="54"
    rx="27"
    fill="url(#paint0_linear_3178_890)"
  />
<path
    d="M27.5 12.657C19.235 12.657 12.5 19.392 12.5 27.6569C12.5 35.9219 19.235 42.6569 27.5 42.6569C35.765 42.6569 42.4999 35.9219 42.4999 27.6569C42.4999 19.392 35.765 12.657 27.5 12.657ZM34.67 24.207L26.165 32.7119C25.955 32.9219 25.67 33.0419 25.37 33.0419C25.07 33.0419 24.785 32.9219 24.575 32.7119L20.33 28.4669C19.895 28.0319 19.895 27.3119 20.33 26.8769C20.765 26.4419 21.485 26.4419 21.92 26.8769L25.37 30.3269L33.08 22.617C33.515 22.182 34.235 22.182 34.67 22.617C35.105 23.052 35.105 23.757 34.67 24.207Z"
    fill="white"
  />
<defs>
<linearGradient
      id="paint0_linear_3178_890"
      x1="49.5455"
      y1="50.8319"
      x2="8.87897"
      y2="3.62706"
      gradientUnits="userSpaceOnUse"
    >
<stop stop-color="#007CBD" />
<stop offset="1" stop-color="#3EB7DD" />
</linearGradient>
</defs>
</svg>
