<svg width="192" height="50" viewBox="0 0 192 50" fill="none" xmlns="http://www.w3.org/2000/svg">
<g clip-path="url(#clip0_87_1927)">
<path d="M72.1973 9.46801C71.6598 9.87003 70.9838 10.0722 70.1715 10.0722C69.5975 10.0722 69.099 9.98077 68.6783 9.79781C68.2575 9.61486 67.9025 9.35727 67.6155 9.02747C67.3285 8.69767 67.1145 8.30287 66.971 7.84548C66.8276 7.38809 66.7473 6.88737 66.7278 6.34813C66.7278 5.80889 66.8105 5.31298 66.9783 4.86522C67.1461 4.41746 67.3796 4.02747 67.6787 3.69767C67.9803 3.36787 68.3354 3.11028 68.7488 2.92733C69.1598 2.74437 69.6121 2.65289 70.1034 2.65289C70.743 2.65289 71.2707 2.78289 71.6939 3.04529C72.1146 3.30528 72.4527 3.63749 72.708 4.04192C72.9634 4.44394 73.1385 4.88448 73.2357 5.36113C73.333 5.83778 73.3719 6.29035 73.3549 6.72126H67.9827C67.973 7.03181 68.0095 7.32791 68.0946 7.60715C68.1773 7.8864 68.311 8.13436 68.4983 8.34861C68.6831 8.56286 68.919 8.73619 69.206 8.86377C69.493 8.99136 69.831 9.05636 70.2201 9.05636C70.7187 9.05636 71.1297 8.94081 71.4483 8.71211C71.7668 8.48342 71.9784 8.13436 72.0806 7.66734H73.2455C73.0874 8.46416 72.7421 9.06358 72.2046 9.46801H72.1973ZM71.9128 4.90614C71.8058 4.65819 71.6623 4.44634 71.4823 4.2682C71.3023 4.09006 71.0883 3.94803 70.8427 3.84211C70.5971 3.73619 70.3271 3.68323 70.0304 3.68323C69.7337 3.68323 69.4492 3.73619 69.2036 3.84211C68.9579 3.94803 68.7488 4.09247 68.5713 4.27543C68.3962 4.45838 68.2575 4.67263 68.1554 4.91336C68.0533 5.1565 67.9925 5.41409 67.9754 5.68852H72.0976C72.0781 5.41409 72.0173 5.15169 71.9103 4.90614H71.9128Z" fill="white"/>
<mask id="mask0_87_1927" style="mask-type:luminance" maskUnits="userSpaceOnUse" x="66" y="2" width="8" height="9">
<path d="M72.1973 9.46801C71.6598 9.87003 70.9838 10.0722 70.1715 10.0722C69.5975 10.0722 69.099 9.98077 68.6783 9.79781C68.2575 9.61486 67.9025 9.35727 67.6155 9.02747C67.3285 8.69767 67.1145 8.30287 66.971 7.84548C66.8276 7.38809 66.7473 6.88737 66.7278 6.34813C66.7278 5.80889 66.8105 5.31298 66.9783 4.86522C67.1461 4.41746 67.3796 4.02747 67.6787 3.69767C67.9803 3.36787 68.3354 3.11028 68.7488 2.92733C69.1598 2.74437 69.6121 2.65289 70.1034 2.65289C70.743 2.65289 71.2707 2.78289 71.6939 3.04529C72.1146 3.30528 72.4527 3.63749 72.708 4.04192C72.9634 4.44394 73.1385 4.88448 73.2357 5.36113C73.333 5.83778 73.3719 6.29035 73.3549 6.72126H67.9827C67.973 7.03181 68.0095 7.32791 68.0946 7.60715C68.1773 7.8864 68.311 8.13436 68.4983 8.34861C68.6831 8.56286 68.919 8.73619 69.206 8.86377C69.493 8.99136 69.831 9.05636 70.2201 9.05636C70.7187 9.05636 71.1297 8.94081 71.4483 8.71211C71.7668 8.48342 71.9784 8.13436 72.0806 7.66734H73.2455C73.0874 8.46416 72.7421 9.06358 72.2046 9.46801H72.1973ZM71.9128 4.90614C71.8058 4.65819 71.6623 4.44634 71.4823 4.2682C71.3023 4.09006 71.0883 3.94803 70.8427 3.84211C70.5971 3.73619 70.3271 3.68323 70.0304 3.68323C69.7337 3.68323 69.4492 3.73619 69.2036 3.84211C68.9579 3.94803 68.7488 4.09247 68.5713 4.27543C68.3962 4.45838 68.2575 4.67263 68.1554 4.91336C68.0533 5.1565 67.9925 5.41409 67.9754 5.68852H72.0976C72.0781 5.41409 72.0173 5.15169 71.9103 4.90614H71.9128Z" fill="white"/>
</mask>
<g mask="url(#mask0_87_1927)">
<path d="M73.6759 5.56573H67.5523V6.98846H73.6759V5.56573Z" fill="white"/>
<path d="M68.9652 10.3876L72.9852 10.3274L73.513 7.53009H72.0173L71.5796 7.92248H68.508L68.9652 10.3876Z" fill="white"/>
<path d="M71.8957 10.3563C71.8957 10.3563 65.7988 8.56047 69.3008 3.72657C70.5022 2.06793 69.2279 2.29663 68.1238 3.18252C66.4117 4.5571 66.3047 6.33851 66.3047 6.33851L66.9102 8.88305L68.8339 10.378L71.8957 10.3539V10.3563Z" fill="white"/>
<path opacity="0.15" d="M69.8699 8.44488C69.8699 8.44488 68.2332 7.71546 68.2381 7.78768C68.3232 8.8469 70.1763 10.26 71.9128 8.1223C72.0222 7.98749 71.2902 7.80453 71.2902 7.80453C71.2902 7.80453 70.4049 7.80454 69.8699 8.44488Z" fill="white"/>
<path d="M71.3315 4.61964C71.3315 4.61964 65.5557 2.46027 67.5717 9.92055C67.5717 9.92055 64.6947 4.73037 67.7177 3.05488C70.7795 1.35531 73.192 3.12469 73.192 3.12469L71.3291 4.61964H71.3315Z" fill="white"/>
<path d="M71.5236 4.48004C71.3194 4.25375 70.7454 3.9745 70.4511 3.89025C69.6924 3.66636 68.2429 3.73858 67.2896 3.90228C66.5114 4.03709 67.6885 2.66492 68.598 2.50122C69.8188 2.28216 71.8471 2.57585 71.8471 2.57585L73.727 3.95284L73.6394 6.92347C73.6394 6.92347 72.3748 6.41793 71.9176 5.30816C71.8301 5.09631 71.6768 4.65337 71.5236 4.48245V4.48004Z" fill="white"/>
<path opacity="0.1" d="M73.3816 5.67888C72.7931 4.0708 71.2075 1.87051 66.6549 3.29323C66.453 3.35582 67.6617 2.50122 67.8028 2.47474C70.2663 2.01735 73.1336 2.3279 73.7878 5.51519L73.3816 5.67888Z" fill="white"/>
<path d="M68.9652 7.08235C68.5007 7.16179 67.99 7.48919 67.9438 6.82958C67.8976 6.16998 68.0144 5.40686 68.1287 5.36112C68.2454 5.31538 68.8364 5.39482 69.2303 5.39482C69.8772 5.39482 69.4516 6.36978 71.6769 6.94513C72.4211 7.13772 68.9628 7.08235 68.9628 7.08235H68.9652Z" fill="white"/>
</g>
<path d="M54.0671 2.81662V3.94324H54.0939C54.5851 3.08142 55.3609 2.65051 56.4261 2.65051C56.8979 2.65051 57.2919 2.71551 57.6056 2.8431C57.9193 2.97069 58.1747 3.15123 58.3692 3.37993C58.5638 3.60863 58.7 3.88065 58.7778 4.19842C58.8556 4.51378 58.897 4.86525 58.897 5.25042V9.92302H57.7175V5.1132C57.7175 4.67266 57.5886 4.32601 57.3284 4.06842C57.0681 3.81325 56.7131 3.68325 56.2583 3.68325C55.8984 3.68325 55.5847 3.73862 55.322 3.84936C55.0594 3.96009 54.838 4.11416 54.6629 4.31638C54.4878 4.51859 54.3541 4.75451 54.2665 5.02413C54.179 5.29375 54.1352 5.58985 54.1352 5.91002V9.92302H52.9557V2.81662H54.0671Z" fill="white"/>
<mask id="mask1_87_1927" style="mask-type:luminance" maskUnits="userSpaceOnUse" x="52" y="2" width="7" height="8">
<path d="M54.0671 2.81662V3.94324H54.0939C54.5851 3.08142 55.3609 2.65051 56.4261 2.65051C56.8979 2.65051 57.2919 2.71551 57.6056 2.8431C57.9193 2.97069 58.1747 3.15123 58.3692 3.37993C58.5638 3.60863 58.7 3.88065 58.7778 4.19842C58.8556 4.51378 58.897 4.86525 58.897 5.25042V9.92302H57.7175V5.1132C57.7175 4.67266 57.5886 4.32601 57.3284 4.06842C57.0681 3.81325 56.7131 3.68325 56.2583 3.68325C55.8984 3.68325 55.5847 3.73862 55.322 3.84936C55.0594 3.96009 54.838 4.11416 54.6629 4.31638C54.4878 4.51859 54.3541 4.75451 54.2665 5.02413C54.179 5.29375 54.1352 5.58985 54.1352 5.91002V9.92302H52.9557V2.81662H54.0671Z" fill="white"/>
</mask>
<g mask="url(#mask1_87_1927)">
<path d="M57.5011 10.0963L59.2229 10.0843V4.12376L57.2457 3.55804L57.5011 10.0963Z" fill="white"/>
<path d="M54.5438 10.1349C54.5438 10.1349 55.1542 8.14401 57.1168 2.36163C57.5862 0.975019 52.6201 2.72755 52.6201 2.72755L52.7101 10.1108L54.5462 10.1349H54.5438Z" fill="white"/>
<path d="M56.572 4.04196C57.0949 4.04678 52.9144 2.72998 53.8045 10.3732C53.8045 10.3732 53.2281 11.0063 52.7077 10.1084C52.6785 10.0579 52.6882 3.02126 52.7271 2.99719C52.912 2.88164 53.1211 2.77812 53.3546 2.68905C57.8294 0.955782 59.7992 3.65439 59.7992 3.65439L56.572 4.04437V4.04196Z" fill="white"/>
<path d="M55.1275 4.48492C55.1275 4.48492 54.286 5.21674 53.8021 4.20808C52.9509 2.43147 56.611 2.11371 56.611 2.11371L59.2934 2.76368L59.3858 9.68713C59.3858 9.68713 58.0628 5.54414 57.9364 5.171C57.326 3.36792 55.108 4.07086 55.1275 4.48732V4.48492Z" fill="white"/>
<path opacity="0.1" d="M59.1912 4.26825C58.1625 3.40161 55.806 2.04629 52.8098 4.35491C52.7879 4.37176 52.7782 2.66979 52.8098 2.66257C54.6119 2.15703 57.1606 2.01259 59.0721 2.86719C59.111 2.88404 59.1183 2.937 59.1402 2.97311C59.3785 3.35828 59.2204 4.28991 59.1912 4.26584V4.26825Z" fill="white"/>
</g>
<path d="M52.2626 9.89411C52.0583 10.0121 51.7762 10.0722 51.4163 10.0722C51.1099 10.0722 50.8691 9.98799 50.6867 9.81707C50.5067 9.64856 50.4168 9.37172 50.4168 8.98655C50.0933 9.37172 49.7164 9.64856 49.2859 9.81707C48.8555 9.98558 48.391 10.0722 47.89 10.0722C47.5665 10.0722 47.2577 10.0361 46.9658 9.96151C46.674 9.88929 46.4211 9.77374 46.2095 9.61727C45.9955 9.46079 45.8277 9.25857 45.7036 9.00581C45.5796 8.75304 45.5164 8.44972 45.5164 8.09103C45.5164 7.689 45.5869 7.3592 45.7255 7.10162C45.8642 6.84403 46.0466 6.637 46.2727 6.47571C46.4989 6.31442 46.7591 6.19406 47.0509 6.11221C47.3428 6.03036 47.6419 5.96055 47.9459 5.90518C48.2694 5.84018 48.5782 5.79204 48.87 5.76074C49.1619 5.72945 49.4172 5.68371 49.641 5.62352C49.8623 5.56334 50.0398 5.47668 50.1687 5.36353C50.2976 5.24798 50.3633 5.08188 50.3633 4.86281C50.3633 4.60764 50.3146 4.40061 50.2173 4.24413C50.1201 4.08765 49.996 3.9697 49.8428 3.88785C49.6896 3.806 49.5194 3.75063 49.3297 3.72174C49.14 3.69526 48.9527 3.68082 48.7679 3.68082C48.2694 3.68082 47.8511 3.7747 47.5179 3.96247C47.1847 4.15024 47.0047 4.50412 46.9756 5.02651H45.7961C45.8155 4.58597 45.9079 4.21524 46.0733 3.91433C46.2411 3.61101 46.4624 3.36787 46.7397 3.1801C47.0169 2.99232 47.3331 2.85751 47.6906 2.77567C48.0456 2.69382 48.4274 2.65289 48.836 2.65289C49.1594 2.65289 49.4805 2.67697 49.8015 2.72271C50.1201 2.76844 50.4095 2.86233 50.6697 3.00436C50.9275 3.14639 51.1366 3.34379 51.2947 3.60138C51.4528 3.85655 51.5306 4.19117 51.5306 4.60282V8.24991C51.5306 8.52434 51.5476 8.72415 51.5792 8.85414C51.6109 8.98173 51.7203 9.04673 51.9051 9.04673C52.0073 9.04673 52.1264 9.02747 52.265 8.99136V9.89892L52.2626 9.89411ZM50.3462 6.25183C50.1979 6.36016 50.0033 6.44201 49.7626 6.49016C49.5218 6.54071 49.2689 6.58164 49.0062 6.61293C48.7436 6.64423 48.4761 6.68034 48.2086 6.72126C47.941 6.76219 47.7003 6.82718 47.4863 6.91866C47.2723 7.01014 47.0996 7.14013 46.9658 7.30865C46.8321 7.47716 46.764 7.70826 46.764 7.99955C46.764 8.19213 46.8029 8.35342 46.8831 8.48583C46.961 8.61823 47.0631 8.72415 47.1896 8.80841C47.3136 8.89025 47.4595 8.95044 47.6273 8.98655C47.7927 9.02266 47.9702 9.04192 48.1551 9.04192C48.5442 9.04192 48.8773 8.98896 49.1546 8.88544C49.4318 8.77952 49.658 8.64952 49.8355 8.48823C50.0106 8.32935 50.142 8.15602 50.2246 7.96825C50.3073 7.78048 50.3487 7.60475 50.3487 7.44105V6.25183H50.3462Z" fill="white"/>
<mask id="mask2_87_1927" style="mask-type:luminance" maskUnits="userSpaceOnUse" x="45" y="2" width="8" height="9">
<path d="M52.2626 9.89411C52.0583 10.0121 51.7762 10.0722 51.4163 10.0722C51.1099 10.0722 50.8691 9.98799 50.6867 9.81707C50.5067 9.64856 50.4168 9.37172 50.4168 8.98655C50.0933 9.37172 49.7164 9.64856 49.2859 9.81707C48.8555 9.98558 48.391 10.0722 47.89 10.0722C47.5665 10.0722 47.2577 10.0361 46.9658 9.96151C46.674 9.88929 46.4211 9.77374 46.2095 9.61727C45.9955 9.46079 45.8277 9.25857 45.7036 9.00581C45.5796 8.75304 45.5164 8.44972 45.5164 8.09103C45.5164 7.689 45.5869 7.3592 45.7255 7.10162C45.8642 6.84403 46.0466 6.637 46.2727 6.47571C46.4989 6.31442 46.7591 6.19406 47.0509 6.11221C47.3428 6.03036 47.6419 5.96055 47.9459 5.90518C48.2694 5.84018 48.5782 5.79204 48.87 5.76074C49.1619 5.72945 49.4172 5.68371 49.641 5.62352C49.8623 5.56334 50.0398 5.47668 50.1687 5.36353C50.2976 5.24798 50.3633 5.08188 50.3633 4.86281C50.3633 4.60764 50.3146 4.40061 50.2173 4.24413C50.1201 4.08765 49.996 3.9697 49.8428 3.88785C49.6896 3.806 49.5194 3.75063 49.3297 3.72174C49.14 3.69526 48.9527 3.68082 48.7679 3.68082C48.2694 3.68082 47.8511 3.7747 47.5179 3.96247C47.1847 4.15024 47.0047 4.50412 46.9756 5.02651H45.7961C45.8155 4.58597 45.9079 4.21524 46.0733 3.91433C46.2411 3.61101 46.4624 3.36787 46.7397 3.1801C47.0169 2.99232 47.3331 2.85751 47.6906 2.77567C48.0456 2.69382 48.4274 2.65289 48.836 2.65289C49.1594 2.65289 49.4805 2.67697 49.8015 2.72271C50.1201 2.76844 50.4095 2.86233 50.6697 3.00436C50.9275 3.14639 51.1366 3.34379 51.2947 3.60138C51.4528 3.85655 51.5306 4.19117 51.5306 4.60282V8.24991C51.5306 8.52434 51.5476 8.72415 51.5792 8.85414C51.6109 8.98173 51.7203 9.04673 51.9051 9.04673C52.0073 9.04673 52.1264 9.02747 52.265 8.99136V9.89892L52.2626 9.89411ZM50.3462 6.25183C50.1979 6.36016 50.0033 6.44201 49.7626 6.49016C49.5218 6.54071 49.2689 6.58164 49.0062 6.61293C48.7436 6.64423 48.4761 6.68034 48.2086 6.72126C47.941 6.76219 47.7003 6.82718 47.4863 6.91866C47.2723 7.01014 47.0996 7.14013 46.9658 7.30865C46.8321 7.47716 46.764 7.70826 46.764 7.99955C46.764 8.19213 46.8029 8.35342 46.8831 8.48583C46.961 8.61823 47.0631 8.72415 47.1896 8.80841C47.3136 8.89025 47.4595 8.95044 47.6273 8.98655C47.7927 9.02266 47.9702 9.04192 48.1551 9.04192C48.5442 9.04192 48.8773 8.98896 49.1546 8.88544C49.4318 8.77952 49.658 8.64952 49.8355 8.48823C50.0106 8.32935 50.142 8.15602 50.2246 7.96825C50.3073 7.78048 50.3487 7.60475 50.3487 7.44105V6.25183H50.3462Z" fill="white"/>
</mask>
<g mask="url(#mask2_87_1927)">
<path d="M51.7057 3.40155C51.7057 3.40155 50.4605 5.07464 49.1035 5.33944C47.7465 5.60425 46.8564 5.75832 46.8564 5.75832L47.5009 7.1016C47.5009 7.1016 48.5685 6.94753 49.0792 6.7718C49.5899 6.59606 51.2582 6.37459 51.7932 5.80405L51.7033 3.40396L51.7057 3.40155Z" fill="white"/>
<path d="M52.6615 8.70969C49.4343 8.46896 46.1633 6.74532 49.4805 2.34474C49.5632 2.23401 47.4692 2.299 47.282 2.40252C45.565 3.35823 44.5412 5.66925 45.2975 8.59896C45.8325 10.6693 49.4902 10.4839 52.5277 10.1396C52.6469 10.1252 52.7198 8.7121 52.6615 8.70729V8.70969Z" fill="white"/>
<path d="M51.9951 7.34236C51.9951 7.34236 47.9435 12.2172 45.3218 5.2504C45.2951 5.18059 45.0689 7.47958 45.0762 7.56142C45.1662 8.48583 45.1638 9.15025 46.567 10.0506C48.9698 11.5913 51.5014 8.35825 51.9951 7.34236Z" fill="white"/>
<path d="M46.7226 10.118C46.7226 10.118 46.6035 9.16228 49.1911 8.62063C49.1911 8.62063 50.3487 7.52049 50.2636 4.33801C50.2636 4.33801 53.0384 6.72848 52.5058 10.0313C52.5058 10.0313 49.8282 11.0641 46.7226 10.1204V10.118Z" fill="white"/>
<path d="M45.7863 4.12377C46.8807 3.78915 48.4809 3.36787 49.7723 4.01785C50.6162 4.44394 51.4625 6.19888 51.7738 8.53157C51.7835 8.6086 51.8322 4.28506 51.8151 4.23932C51.6619 3.79637 51.533 3.23065 51.0831 2.93937C49.5972 1.97403 47.7051 2.38809 46.4794 2.92252C46.4162 2.95141 45.7134 4.14543 45.7839 4.12377H45.7863Z" fill="white"/>
<path opacity="0.2" d="M45.5821 3.67119C45.5821 3.67119 51.2291 -0.151632 52.5739 7.55419C52.5739 7.55419 53.1357 3.61101 50.767 2.16421C48.3983 0.71741 46.0077 2.90807 45.5821 3.67119Z" fill="white"/>
<path opacity="0.2" d="M45.4872 8.51713C45.7377 7.29421 46.4916 5.97259 48.532 5.66927C48.7387 5.63797 48.8555 5.45502 48.8555 5.45502C48.8555 5.45502 47.012 5.58261 46.2995 6.04481C43.9721 7.55661 45.4726 8.58453 45.4848 8.51713H45.4872Z" fill="white"/>
<path opacity="0.3" d="M50.283 6.43958C50.283 6.43958 50.5432 10.2287 46.9026 7.95859C46.9026 7.95859 46.9901 9.68945 49.0719 9.21521C50.6186 8.86134 50.4192 6.90419 50.2854 6.43958H50.283Z" fill="white"/>
</g>
<path d="M39.704 2.81662V3.94324H39.7308C40.222 3.08142 40.9978 2.65051 42.063 2.65051C42.5348 2.65051 42.9288 2.71551 43.2425 2.8431C43.5562 2.97069 43.8116 3.15123 44.0061 3.37993C44.2007 3.60863 44.3369 3.88065 44.4147 4.19842C44.4925 4.51378 44.5339 4.86525 44.5339 5.25042V9.92302H43.3544V5.1132C43.3544 4.67266 43.2255 4.32601 42.9653 4.06842C42.705 3.81325 42.35 3.68325 41.8952 3.68325C41.5353 3.68325 41.2216 3.73862 40.9589 3.84936C40.6963 3.96009 40.475 4.11416 40.2999 4.31638C40.1247 4.51859 39.991 4.75451 39.9034 5.02413C39.8159 5.29375 39.7721 5.58985 39.7721 5.91002V9.92302H38.5926V2.81662H39.704Z" fill="white"/>
<mask id="mask3_87_1927" style="mask-type:luminance" maskUnits="userSpaceOnUse" x="38" y="2" width="7" height="8">
<path d="M39.704 2.81662V3.94324H39.7308C40.222 3.08142 40.9978 2.65051 42.063 2.65051C42.5348 2.65051 42.9288 2.71551 43.2425 2.8431C43.5562 2.97069 43.8116 3.15123 44.0061 3.37993C44.2007 3.60863 44.3369 3.88065 44.4147 4.19842C44.4925 4.51378 44.5339 4.86525 44.5339 5.25042V9.92302H43.3544V5.1132C43.3544 4.67266 43.2255 4.32601 42.9653 4.06842C42.705 3.81325 42.35 3.68325 41.8952 3.68325C41.5353 3.68325 41.2216 3.73862 40.9589 3.84936C40.6963 3.96009 40.475 4.11416 40.2999 4.31638C40.1247 4.51859 39.991 4.75451 39.9034 5.02413C39.8159 5.29375 39.7721 5.58985 39.7721 5.91002V9.92302H38.5926V2.81662H39.704Z" fill="white"/>
</mask>
<g mask="url(#mask3_87_1927)">
<path d="M43.1209 10.1349L44.8427 10.1205V4.16234L42.8655 3.59662L43.1209 10.1349Z" fill="white"/>
<path d="M40.1637 10.171C40.1637 10.171 40.7741 8.18015 42.7367 2.39777C43.206 1.01115 38.24 2.76368 38.24 2.76368L38.33 10.1469L40.1661 10.171H40.1637Z" fill="white"/>
<path d="M42.1919 4.08048C42.7148 4.08529 38.5343 2.76849 39.4244 10.4117C39.4244 10.4117 38.848 11.0448 38.3275 10.1469C38.2984 10.0964 38.3081 3.05977 38.347 3.0357C38.5318 2.92015 38.741 2.81664 38.9744 2.72756C43.4492 0.994295 45.4191 3.6929 45.4191 3.6929L42.1919 4.08288V4.08048Z" fill="white"/>
<path d="M40.7473 4.52343C40.7473 4.52343 39.9059 5.25525 39.4219 4.24659C38.5707 2.46999 42.2308 2.15222 42.2308 2.15222L44.9133 2.8022L45.0057 9.72565C45.0057 9.72565 43.8894 5.52728 43.763 5.15415C43.1525 3.35107 40.7303 4.11178 40.7473 4.52584V4.52343Z" fill="white"/>
<path opacity="0.1" d="M44.8111 4.30676C43.7824 3.44013 41.4258 2.08481 38.4297 4.39343C38.4078 4.41028 38.3981 2.7083 38.4297 2.70108C40.2318 2.19554 42.7804 2.0511 44.692 2.9057C44.7309 2.92255 44.7382 2.97552 44.76 3.01162C44.9984 3.3968 44.8403 4.32843 44.8111 4.30435V4.30676Z" fill="white"/>
</g>
<path d="M37.2648 2.81657V9.92057H36.0853V2.81657H37.2648ZM37.4107 0.876275C37.4107 1.27589 37.0824 1.60088 36.6787 1.60088C36.275 1.60088 35.9467 1.27589 35.9467 0.876275C35.9467 0.47666 36.275 0.151672 36.6787 0.151672C37.0824 0.151672 37.4107 0.47666 37.4107 0.876275Z" fill="white"/>
<mask id="mask4_87_1927" style="mask-type:luminance" maskUnits="userSpaceOnUse" x="35" y="0" width="3" height="10">
<path d="M37.2648 2.81657V9.92057H36.0853V2.81657H37.2648ZM37.4107 0.876275C37.4107 1.27589 37.0824 1.60088 36.6787 1.60088C36.275 1.60088 35.9467 1.27589 35.9467 0.876275C35.9467 0.47666 36.275 0.151672 36.6787 0.151672C37.0824 0.151672 37.4107 0.47666 37.4107 0.876275Z" fill="white"/>
</mask>
<g mask="url(#mask4_87_1927)">
<path d="M37.5347 -0.238342H35.7205V10.2479H37.5347V-0.238342Z" fill="white"/>
<path d="M35.2949 10.1781L36.7224 2.41452L36.9243 2.0125L36.3455 1.70918L36.5863 -0.238342L37.2988 0.129977L37.773 10.1492L35.2949 10.1781Z" fill="white"/>
<path d="M35.7691 10.7367L37.3159 3.7121L37.5858 10.4911L35.7691 10.7367Z" fill="white"/>
<path opacity="0.2" d="M36.1388 0.27443C36.703 0.399611 37.2745 0.70534 37.7779 1.31439C37.8022 1.34328 38.1403 0.690897 38.116 0.657194C37.8752 0.32017 37.559 0.0216621 37.1456 -0.197404C37.0265 -0.259994 36.9073 -0.312955 36.7881 -0.358694C36.669 -0.402026 36.095 0.264801 36.1388 0.27443Z" fill="white"/>
<path opacity="0.15" d="M37.3937 3.52434C37.3766 3.52193 36.2312 2.63123 36.2312 2.63123L37.4715 2.68659L37.3937 3.52193V3.52434Z" fill="white"/>
</g>
<path d="M31.3867 3.84692V2.81659H32.5954V1.75737C32.5954 1.17961 32.7632 0.743888 33.1013 0.445381C33.4393 0.146873 33.933 -0.00238037 34.5799 -0.00238037C34.6918 -0.00238037 34.8182 0.0072489 34.9617 0.0241001C35.1052 0.0433587 35.2317 0.0698392 35.3435 0.105949V1.12184C35.2414 1.08573 35.1295 1.05925 35.0104 1.04721C34.8912 1.03277 34.7793 1.02554 34.6772 1.02554C34.3902 1.02554 34.1689 1.08091 34.0108 1.19165C33.8527 1.30239 33.7749 1.51182 33.7749 1.82477V2.81418H35.1636V3.84451H33.7749V9.91818H32.5954V3.84692H31.3867Z" fill="white"/>
<mask id="mask5_87_1927" style="mask-type:luminance" maskUnits="userSpaceOnUse" x="31" y="-1" width="5" height="11">
<path d="M31.3867 3.84692V2.81659H32.5954V1.75737C32.5954 1.17961 32.7632 0.743888 33.1013 0.445381C33.4393 0.146873 33.933 -0.00238037 34.5799 -0.00238037C34.6918 -0.00238037 34.8182 0.0072489 34.9617 0.0241001C35.1052 0.0433587 35.2317 0.0698392 35.3435 0.105949V1.12184C35.2414 1.08573 35.1295 1.05925 35.0104 1.04721C34.8912 1.03277 34.7793 1.02554 34.6772 1.02554C34.3902 1.02554 34.1689 1.08091 34.0108 1.19165C33.8527 1.30239 33.7749 1.51182 33.7749 1.82477V2.81418H35.1636V3.84451H33.7749V9.91818H32.5954V3.84692H31.3867Z" fill="white"/>
</mask>
<g mask="url(#mask5_87_1927)">
<path d="M35.7667 -0.625854H30.6888V10.5561H35.7667V-0.625854Z" fill="white"/>
<path opacity="0.36" d="M32.379 4.02746L32.6003 3.83487C32.6003 3.83487 33.1183 -0.154055 34.5799 -0.19498L32.6003 -0.279236L31.3843 2.29419L31.1727 3.9432L32.379 4.02746Z" fill="white"/>
<path opacity="0.2" d="M35.9734 0.105933C35.9734 0.105933 33.7433 -0.108318 33.736 1.62736C33.736 1.62736 32.8751 8.90228 32.8435 9.95668C32.8119 11.0111 32.8046 10.26 32.8046 10.26L34.2759 10.1083L34.4923 7.98749L34.1859 3.96727L34.5434 4.02986L36.0853 1.10256L35.971 0.105933H35.9734Z" fill="white"/>
<path opacity="0.15" d="M35.5211 3.83732C35.4967 3.8325 33.702 2.44348 33.702 2.44348L35.6427 2.53255L35.5211 3.83973V3.83732Z" fill="white"/>
<path d="M33.9087 10C33.899 10.0241 33.1256 10.1758 33.1256 10.1758L33.899 5.48151L33.9063 10H33.9087Z" fill="white"/>
<path opacity="0.2" d="M32.7754 0.565749C33.5998 0.368348 34.5507 0.426124 35.6013 0.965364C35.6499 0.989437 35.6937 -0.175705 35.6402 -0.209408C35.1101 -0.531989 34.5045 -0.753462 33.8187 -0.789572C33.6193 -0.799201 33.4271 -0.796794 33.2447 -0.78235C33.0624 -0.767906 32.7146 0.577785 32.7778 0.563341L32.7754 0.565749Z" fill="white"/>
</g>
<path d="M64.3494 4.0636C64.0527 3.81564 63.6539 3.69287 63.1553 3.69287C62.7297 3.69287 62.3722 3.7699 62.0852 3.92638C61.7983 4.08285 61.5697 4.28748 61.397 4.54506C61.2268 4.80264 61.1027 5.09634 61.0298 5.43095C60.9544 5.76557 60.9179 6.11222 60.9179 6.46851C60.9179 6.79831 60.9568 7.11848 61.0371 7.43143C61.1149 7.74198 61.2389 8.02123 61.4043 8.26196C61.5721 8.5051 61.7885 8.70009 62.0561 8.84694C62.3236 8.99378 62.6446 9.066 63.0142 9.066C63.5979 9.066 64.0527 8.91434 64.381 8.61343C64.7093 8.3101 64.9112 7.88401 64.9841 7.33514H66.1928C66.0639 8.21381 65.7332 8.89268 65.2006 9.36932C64.668 9.84597 63.9433 10.0843 63.0264 10.0843C62.4792 10.0843 61.9953 9.99764 61.5745 9.82431C61.1538 9.65098 60.8012 9.40303 60.5191 9.08285C60.237 8.76268 60.023 8.37992 59.8795 7.93456C59.736 7.48921 59.663 7.00293 59.663 6.47091C59.663 5.9389 59.7336 5.44299 59.8722 4.97838C60.0108 4.51617 60.2224 4.11174 60.5045 3.7699C60.7866 3.42566 61.1417 3.15604 61.5672 2.95864C61.9928 2.76124 62.4889 2.66254 63.0532 2.66254C63.4593 2.66254 63.8411 2.71068 64.1986 2.80698C64.5561 2.90327 64.8698 3.05252 65.1422 3.25474C65.4146 3.45695 65.6408 3.70972 65.8159 4.01786C65.991 4.32599 66.1028 4.6895 66.149 5.11078H64.9282C64.8358 4.66302 64.6412 4.31396 64.3445 4.066L64.3494 4.0636Z" fill="white"/>
<mask id="mask6_87_1927" style="mask-type:luminance" maskUnits="userSpaceOnUse" x="59" y="2" width="8" height="9">
<path d="M64.3494 4.0636C64.0527 3.81564 63.6539 3.69287 63.1553 3.69287C62.7297 3.69287 62.3722 3.7699 62.0852 3.92638C61.7983 4.08285 61.5697 4.28748 61.397 4.54506C61.2268 4.80264 61.1027 5.09634 61.0298 5.43095C60.9544 5.76557 60.9179 6.11222 60.9179 6.46851C60.9179 6.79831 60.9568 7.11848 61.0371 7.43143C61.1149 7.74198 61.2389 8.02123 61.4043 8.26196C61.5721 8.5051 61.7885 8.70009 62.0561 8.84694C62.3236 8.99378 62.6446 9.066 63.0142 9.066C63.5979 9.066 64.0527 8.91434 64.381 8.61343C64.7093 8.3101 64.9112 7.88401 64.9841 7.33514H66.1928C66.0639 8.21381 65.7332 8.89268 65.2006 9.36932C64.668 9.84597 63.9433 10.0843 63.0264 10.0843C62.4792 10.0843 61.9953 9.99764 61.5745 9.82431C61.1538 9.65098 60.8012 9.40303 60.5191 9.08285C60.237 8.76268 60.023 8.37992 59.8795 7.93456C59.736 7.48921 59.663 7.00293 59.663 6.47091C59.663 5.9389 59.7336 5.44299 59.8722 4.97838C60.0108 4.51617 60.2224 4.11174 60.5045 3.7699C60.7866 3.42566 61.1417 3.15604 61.5672 2.95864C61.9928 2.76124 62.4889 2.66254 63.0532 2.66254C63.4593 2.66254 63.8411 2.71068 64.1986 2.80698C64.5561 2.90327 64.8698 3.05252 65.1422 3.25474C65.4146 3.45695 65.6408 3.70972 65.8159 4.01786C65.991 4.32599 66.1028 4.6895 66.149 5.11078H64.9282C64.8358 4.66302 64.6412 4.31396 64.3445 4.066L64.3494 4.0636Z" fill="white"/>
</mask>
<g mask="url(#mask6_87_1927)">
<path d="M61.864 10.313L65.8621 10.2504L66.4312 7.00775L64.8625 7.03905L64.4637 7.85994H61.4092L61.864 10.313Z" fill="white"/>
<path d="M64.7774 10.2817C64.7774 10.2817 58.7121 8.49545 62.1971 3.68804C63.3936 2.03662 62.1242 2.26532 61.0274 3.14639C59.3226 4.51375 59.218 6.28554 59.218 6.28554L59.8211 8.81804L61.7326 10.3058L64.7774 10.2841V10.2817Z" fill="white"/>
<path opacity="0.1" d="M63.8776 8.4762C63.8776 8.4762 62.4744 8.35824 62.5133 8.41842C63.0702 9.25858 64.0795 9.63412 65.9107 8.49546C66.0542 8.40639 65.2857 7.85992 65.2857 7.85992C65.2857 7.85992 64.4078 7.85992 63.8776 8.4762Z" fill="white"/>
<path d="M64.2181 4.57392C64.2181 4.57392 58.4714 2.42659 60.4802 9.84835C60.4802 9.84835 57.6202 4.68706 60.6261 3.01879C63.6709 1.32885 66.0712 3.08619 66.0712 3.08619L64.2181 4.57392Z" fill="white"/>
<path d="M64.4078 4.43432C64.4078 4.43432 63.3693 4.27543 63.2015 4.02748C62.7857 3.41361 62.0804 2.86956 61.1781 3.20177C60.541 3.43528 61.059 2.97067 61.4992 2.46513C62.3041 1.54072 64.7312 2.53735 64.7312 2.53735L66.599 3.90711L66.3533 5.36114L64.7993 5.25521L64.4078 4.43191V4.43432Z" fill="white"/>
<path opacity="0.1" d="M66.492 4.26819C65.4632 3.35822 62.81 1.68514 59.5755 4.81224C59.432 4.94946 60.0619 3.68802 60.1713 3.60618C62.0707 2.19789 64.6826 1.32645 66.7619 3.95764" fill="white"/>
</g>
<path d="M10.365 8.21615C10.6617 8.50021 11.0848 8.64225 11.6393 8.64225C12.0357 8.64225 12.3786 8.54354 12.6656 8.34855C12.9526 8.15115 13.1277 7.94412 13.1909 7.72506H14.9224C14.6452 8.57484 14.2196 9.18389 13.6481 9.5498C13.0742 9.91572 12.3835 10.0987 11.5688 10.0987C11.0046 10.0987 10.4963 10.0096 10.044 9.83146C9.59161 9.65332 9.20736 9.39814 8.89364 9.07075C8.57992 8.74094 8.33672 8.34855 8.16649 7.89116C7.99625 7.43377 7.91113 6.93064 7.91113 6.38177C7.91113 5.8329 7.99868 5.35866 8.17378 4.90127C8.34888 4.44388 8.59937 4.04908 8.92282 3.71446C9.24627 3.37985 9.63052 3.11745 10.0804 2.92486C10.5279 2.73228 11.024 2.63599 11.5712 2.63599C12.1816 2.63599 12.7118 2.75154 13.1641 2.98505C13.6165 3.21856 13.9886 3.53151 14.2804 3.9239C14.5722 4.31629 14.7814 4.76646 14.9103 5.26718C15.0392 5.77031 15.0854 6.29511 15.0489 6.84398H9.88101C9.90776 7.4747 10.0707 7.93209 10.365 8.21615ZM12.5878 4.48481C12.3519 4.22963 11.9944 4.10204 11.5129 4.10204C11.1991 4.10204 10.9389 4.155 10.7298 4.25852C10.5206 4.36444 10.3552 4.49444 10.2312 4.6485C10.1072 4.80498 10.0196 4.96868 9.96856 5.142C9.91749 5.31533 9.88831 5.47181 9.87858 5.60902H13.079C12.9866 5.11552 12.8237 4.73998 12.5878 4.48481Z" fill="white"/>
<path d="M19.8812 2.82622V4.12858H18.439V7.64086C18.439 7.97066 18.495 8.18973 18.6044 8.29806C18.7163 8.4088 18.9376 8.46176 19.2683 8.46176C19.3802 8.46176 19.4848 8.45694 19.5869 8.44731C19.6891 8.43768 19.7863 8.42324 19.8788 8.40639V9.91578C19.7134 9.94466 19.5286 9.96151 19.3243 9.97114C19.12 9.98077 18.923 9.98559 18.7284 9.98559C18.4244 9.98559 18.135 9.96392 17.8627 9.923C17.5903 9.88207 17.3495 9.80263 17.1428 9.68227C16.9361 9.56431 16.7707 9.39339 16.6516 9.17432C16.5324 8.95526 16.4716 8.66638 16.4716 8.31009V4.12618H15.2799V2.82382H16.4716V0.700562H18.439V2.82622H19.8812Z" fill="white"/>
<path d="M22.909 2.82617V9.91813H20.9415V2.82617H22.909Z" fill="white"/>
<path d="M26.1021 0.125183V5.37795L28.5827 2.82619H30.9101L28.2082 5.43332L31.2141 9.91815H28.8308L26.8633 6.75012L26.1021 7.47713V9.91815H24.1347V0.125183H26.1021Z" fill="white"/>
<path d="M5.1533 0.154053V3.41356C4.62557 3.02839 3.99326 2.8021 3.30988 2.8021C1.48106 2.80451 0 4.41982 0 6.41067C0 8.40153 1.48106 10.0168 3.30988 10.0168C3.99326 10.0168 4.62557 9.79055 5.1533 9.40538V9.91814H7.07211V0.154053H5.1533ZM3.34393 8.48097C2.42222 8.48097 1.67561 7.55415 1.67561 6.41067C1.67561 5.2672 2.42222 4.34038 3.34393 4.34038C4.26564 4.34038 5.00982 5.2672 5.00982 6.41067C5.00982 7.55415 4.26321 8.48097 3.34393 8.48097Z" fill="white"/>
<path d="M22.9576 1.04719C22.9576 1.6105 22.4955 2.0679 21.9265 2.0679C21.3574 2.0679 20.8953 1.6105 20.8953 1.04719C20.8953 0.48388 21.355 0.0264893 21.9265 0.0264893C22.498 0.0264893 22.9576 0.48388 22.9576 1.04719Z" fill="white"/>
<path d="M0 34.2248V18.6038H8.43157C10.6106 18.6038 12.2181 18.9865 13.2566 19.7521C14.2926 20.5176 14.813 21.4974 14.813 22.6866C14.813 23.4762 14.5917 24.1791 14.1491 24.7954C13.7065 25.4141 13.062 25.9003 12.2205 26.2566C11.3791 26.6129 10.3406 26.7911 9.11008 26.7911L9.55999 25.585C10.793 25.585 11.8558 25.7559 12.7507 26.0977C13.6457 26.4396 14.3363 26.9355 14.8252 27.5831C15.314 28.2306 15.5572 29.0082 15.5572 29.9157C15.5572 31.2687 14.9905 32.3255 13.8548 33.0838C12.7191 33.8421 11.0629 34.2224 8.88391 34.2224H0V34.2248ZM5.23112 30.5417H8.43157C9.01767 30.5417 9.45785 30.4381 9.74969 30.2287C10.044 30.0193 10.1899 29.7159 10.1899 29.3139C10.1899 28.9119 10.044 28.6086 9.74969 28.3991C9.45542 28.1897 9.01767 28.0862 8.43157 28.0862H4.86876V24.6052H7.70928C8.30997 24.6052 8.75015 24.5041 9.0274 24.3043C9.30464 24.1045 9.44326 23.818 9.44326 23.4449C9.44326 23.0717 9.30464 22.7684 9.0274 22.5734C8.75015 22.3808 8.30997 22.2821 7.70928 22.2821H5.22869V30.5392L5.23112 30.5417Z" fill="white"/>
<path d="M24.9786 34.5812C22.5588 34.5812 20.6716 33.9336 19.3194 32.6385C17.9673 31.3433 17.2912 29.5282 17.2912 27.1931V18.6014H22.6123V27.0366C22.6123 28.2282 22.8311 29.0708 23.2665 29.5691C23.7018 30.0674 24.2879 30.3178 25.0248 30.3178C25.7617 30.3178 26.3672 30.0674 26.7952 29.5691C27.2233 29.0708 27.4373 28.2258 27.4373 27.0366V18.6014H32.6684V27.1931C32.6684 29.5282 31.9923 31.3433 30.6401 32.6385C29.288 33.9336 27.4008 34.5812 24.981 34.5812H24.9786Z" fill="white"/>
<path d="M40.9856 34.5811C39.6627 34.5811 38.3859 34.4319 37.1529 34.1358C35.9199 33.8373 34.9058 33.4521 34.1081 32.9755L35.8226 29.1358C36.5741 29.5667 37.4131 29.9133 38.3373 30.1733C39.2614 30.4333 40.1588 30.5633 41.0319 30.5633C41.5426 30.5633 41.9438 30.5296 42.2381 30.4622C42.5324 30.3948 42.7464 30.2985 42.8801 30.1709C43.0163 30.0458 43.082 29.8917 43.082 29.7135C43.082 29.4319 42.9239 29.208 42.6078 29.0443C42.2916 28.8806 41.8757 28.7434 41.3553 28.6302C40.8373 28.5195 40.2682 28.3991 39.6529 28.274C39.0377 28.1488 38.4175 27.9803 37.7925 27.7708C37.1675 27.5614 36.5984 27.287 36.078 26.9451C35.56 26.6033 35.1417 26.1531 34.8255 25.5946C34.5094 25.0361 34.3513 24.3404 34.3513 23.5075C34.3513 22.5397 34.6261 21.6587 35.1733 20.8618C35.7229 20.0674 36.54 19.4295 37.6296 18.9528C38.7191 18.4762 40.0761 18.2379 41.6982 18.2379C42.7658 18.2379 43.8164 18.3486 44.8549 18.5725C45.8909 18.7964 46.8248 19.1382 47.6516 19.598L46.0514 23.4136C45.2707 23.026 44.5144 22.7371 43.7848 22.5421C43.0552 22.3496 42.3451 22.2509 41.6544 22.2509C41.1437 22.2509 40.7376 22.2966 40.436 22.3857C40.1345 22.4747 39.9205 22.5951 39.794 22.7419C39.6651 22.8912 39.6019 23.0549 39.6019 23.233C39.6019 23.5003 39.7599 23.7121 40.0761 23.8686C40.3922 24.025 40.8081 24.155 41.3286 24.2586C41.8466 24.3621 42.4181 24.4752 43.0431 24.5932C43.6657 24.7135 44.2858 24.8748 44.9035 25.0843C45.5188 25.2937 46.0879 25.5681 46.6059 25.91C47.1239 26.2518 47.5422 26.6996 47.8583 27.2484C48.1745 27.7997 48.3326 28.4834 48.3326 29.3019C48.3326 30.2552 48.0578 31.129 47.5106 31.9235C46.9609 32.7203 46.1462 33.3582 45.064 33.8421C43.9818 34.326 42.6223 34.5667 40.9832 34.5667L40.9856 34.5811Z" fill="white"/>
<path d="M49.9133 34.2248V18.6038H55.2344V34.2248H49.9133Z" fill="white"/>
<path d="M57.805 34.2248V18.6038H62.1777L70.2031 28.1103H68.1749V18.6038H73.3598V34.2248H68.9871L60.9617 24.7183H62.9899V34.2248H57.805Z" fill="white"/>
<path d="M81.1615 30.2528H89.0531V34.2248H75.9328V18.6038H88.7613V22.5758H81.1639V30.2528H81.1615ZM80.8015 24.4054H87.8347V28.1993H80.8015V24.4054Z" fill="white"/>
<path d="M96.9886 34.5811C95.6656 34.5811 94.3888 34.4319 93.1558 34.1358C91.9228 33.8373 90.9087 33.4521 90.111 32.9755L91.8255 29.1358C92.577 29.5667 93.416 29.9133 94.3402 30.1733C95.2643 30.4333 96.1617 30.5633 97.0348 30.5633C97.5455 30.5633 97.9468 30.5296 98.241 30.4622C98.5353 30.3948 98.7493 30.2985 98.8831 30.1709C99.0193 30.0458 99.0849 29.8917 99.0849 29.7135C99.0849 29.4319 98.9268 29.208 98.6107 29.0443C98.2945 28.8806 97.8787 28.7434 97.3582 28.6302C96.8402 28.5195 96.2711 28.3991 95.6559 28.274C95.0406 28.1488 94.4204 27.9803 93.7954 27.7708C93.1704 27.5614 92.6013 27.287 92.0809 26.9451C91.5629 26.6033 91.1446 26.1531 90.8285 25.5946C90.5123 25.0361 90.3542 24.3404 90.3542 23.5075C90.3542 22.5397 90.629 21.6587 91.1762 20.8618C91.7258 20.0674 92.543 19.4295 93.6325 18.9528C94.722 18.4762 96.079 18.2379 97.7011 18.2379C98.7688 18.2379 99.8194 18.3486 100.858 18.5725C101.894 18.7964 102.828 19.1382 103.655 19.598L102.054 23.4136C101.274 23.026 100.517 22.7371 99.7878 22.5421C99.0582 22.3496 98.348 22.2509 97.6574 22.2509C97.1467 22.2509 96.7405 22.2966 96.439 22.3857C96.1374 22.4747 95.9234 22.5951 95.7969 22.7419C95.668 22.8912 95.6048 23.0549 95.6048 23.233C95.6048 23.5003 95.7629 23.7121 96.079 23.8686C96.3952 24.025 96.811 24.155 97.3315 24.2586C97.8495 24.3621 98.421 24.4752 99.046 24.5932C99.6686 24.7135 100.289 24.8748 100.906 25.0843C101.522 25.2937 102.091 25.5681 102.609 25.91C103.127 26.2518 103.545 26.6996 103.861 27.2484C104.177 27.7997 104.335 28.4834 104.335 29.3019C104.335 30.2552 104.061 31.129 103.514 31.9235C102.964 32.7203 102.149 33.3582 101.067 33.8421C99.9847 34.326 98.6253 34.5667 96.9861 34.5667L96.9886 34.5811Z" fill="white"/>
<path d="M111.799 34.5811C110.476 34.5811 109.199 34.4319 107.966 34.1358C106.733 33.8373 105.719 33.4521 104.922 32.9755L106.636 29.1358C107.388 29.5667 108.227 29.9133 109.151 30.1733C110.075 30.4333 110.972 30.5633 111.845 30.5633C112.356 30.5633 112.76 30.5296 113.052 30.4622C113.346 30.3948 113.56 30.2985 113.694 30.1709C113.83 30.0458 113.898 29.8917 113.898 29.7135C113.898 29.4319 113.74 29.208 113.424 29.0443C113.108 28.8806 112.692 28.7434 112.174 28.6302C111.656 28.5195 111.087 28.3991 110.471 28.274C109.856 28.1488 109.236 27.9803 108.611 27.7708C107.986 27.5614 107.417 27.287 106.896 26.9451C106.378 26.6033 105.96 26.1531 105.644 25.5946C105.328 25.0361 105.17 24.3404 105.17 23.5075C105.17 22.5397 105.444 21.6587 105.992 20.8618C106.541 20.0674 107.358 19.4295 108.448 18.9528C109.537 18.4762 110.894 18.2379 112.517 18.2379C113.584 18.2379 114.635 18.3486 115.673 18.5725C116.712 18.7964 117.643 19.1382 118.47 19.598L116.87 23.4136C116.089 23.026 115.333 22.7371 114.603 22.5421C113.874 22.3496 113.163 22.2509 112.473 22.2509C111.962 22.2509 111.556 22.2966 111.254 22.3857C110.953 22.4747 110.739 22.5951 110.612 22.7419C110.483 22.8912 110.42 23.0549 110.42 23.233C110.42 23.5003 110.578 23.7121 110.894 23.8686C111.211 24.025 111.626 24.155 112.147 24.2586C112.665 24.3621 113.236 24.4752 113.859 24.5932C114.482 24.7135 115.102 24.8748 115.719 25.0843C116.335 25.2937 116.904 25.5681 117.422 25.91C117.94 26.2518 118.358 26.6996 118.672 27.2484C118.988 27.7997 119.146 28.4834 119.146 29.3019C119.146 30.2552 118.871 31.129 118.324 31.9235C117.774 32.7203 116.96 33.3582 115.878 33.8421C114.795 34.326 113.436 34.5667 111.797 34.5667L111.799 34.5811Z" fill="white"/>
<path d="M127.49 34.2248V18.6038H135.088C136.561 18.6038 137.833 18.8421 138.908 19.3187C139.983 19.7954 140.812 20.4767 141.398 21.3601C141.985 22.246 142.279 23.2908 142.279 24.4945C142.279 25.6981 141.985 26.7405 141.398 27.6192C140.812 28.4978 139.981 29.1767 138.908 29.6606C137.833 30.1444 136.559 30.3852 135.088 30.3852H130.442L132.809 28.1319V34.2248H127.488H127.49ZM132.811 28.7121L130.445 26.324H134.752C135.489 26.324 136.034 26.1603 136.386 25.8329C136.739 25.5055 136.916 25.0602 136.916 24.4945C136.916 23.9287 136.739 23.4834 136.386 23.156C136.034 22.8286 135.489 22.6649 134.752 22.6649H130.445L132.811 20.2768V28.7121Z" fill="white"/>
<path d="M144.015 34.2248V18.6038H149.336V30.142H156.459V34.2248H144.015Z" fill="white"/>
<path d="M156.438 34.2248L163.337 18.6038H168.568L175.468 34.2248H169.967L164.872 21.1026H166.946L161.851 34.2248H156.44H156.438ZM160.54 31.5022L161.892 27.7082H169.152L170.504 31.5022H160.538H160.54Z" fill="white"/>
<path d="M176.324 34.2248V18.6038H180.696L188.722 28.1103H186.693V18.6038H191.878V34.2248H187.503L179.478 24.7183H181.506V34.2248H176.321H176.324Z" fill="white"/>
<path d="M3.80843 50.0001C3.26611 50.0001 2.7627 49.911 2.29576 49.7377C1.83126 49.5619 1.42755 49.3116 1.08465 48.9866C0.744177 48.6616 0.476662 48.2812 0.28697 47.8431C0.094846 47.405 0 46.9259 0 46.4011C0 45.8763 0.094846 45.3973 0.28697 44.9591C0.476662 44.521 0.746609 44.1407 1.09195 43.8157C1.43728 43.4907 1.84099 43.2403 2.30306 43.0646C2.76513 42.8888 3.27097 42.8022 3.82059 42.8022C4.43101 42.8022 4.98063 42.9057 5.47432 43.1151C5.96557 43.3246 6.379 43.6303 6.71461 44.0347L5.66888 44.9904C5.42811 44.7184 5.1606 44.5138 4.8639 44.379C4.56963 44.2442 4.24862 44.1744 3.89842 44.1744C3.5701 44.1744 3.26854 44.2273 2.99373 44.3332C2.71892 44.4392 2.48059 44.5908 2.28117 44.7906C2.07932 44.9904 1.92367 45.2239 1.81423 45.496C1.7048 45.768 1.64886 46.0689 1.64886 46.4011C1.64886 46.7333 1.7048 47.0342 1.81423 47.3063C1.92367 47.5783 2.07932 47.8142 2.28117 48.0116C2.48302 48.2114 2.71892 48.3631 2.99373 48.469C3.26854 48.5749 3.5701 48.6279 3.89842 48.6279C4.24618 48.6279 4.5672 48.5605 4.8639 48.4233C5.15817 48.2885 5.42568 48.079 5.66888 47.8022L6.71461 48.7579C6.379 49.1623 5.96557 49.4705 5.47432 49.6823C4.98307 49.8941 4.42858 50.0001 3.81087 50.0001H3.80843Z" fill="white"/>
<path d="M17.1015 50.0001C16.5446 50.0001 16.0314 49.911 15.5596 49.7304C15.0878 49.5523 14.6793 49.2995 14.3339 48.9745C13.9886 48.6496 13.7211 48.2692 13.5289 47.8311C13.3368 47.3929 13.242 46.9163 13.242 46.3987C13.242 45.8811 13.3368 45.4045 13.5289 44.9664C13.7186 44.5282 13.9886 44.1479 14.3388 43.8229C14.6866 43.4979 15.0951 43.2451 15.5645 43.067C16.0339 42.8888 16.5421 42.7974 17.0917 42.7974C17.6414 42.7974 18.1594 42.8864 18.6239 43.067C19.0884 43.2451 19.4945 43.4979 19.8399 43.8229C20.1852 44.1479 20.4551 44.5282 20.6497 44.9615C20.8442 45.3949 20.9415 45.8739 20.9415 46.3987C20.9415 46.9235 20.8442 47.3953 20.6497 47.8359C20.4551 48.2764 20.1852 48.6592 19.8399 48.9794C19.4945 49.3019 19.0884 49.5523 18.6239 49.7304C18.1594 49.9086 17.6511 50.0001 17.1015 50.0001ZM17.0917 48.6279C17.4055 48.6279 17.6973 48.5749 17.96 48.469C18.225 48.3631 18.4561 48.2114 18.6579 48.0116C18.8598 47.8118 19.0154 47.5783 19.1249 47.3063C19.2343 47.0342 19.2902 46.7333 19.2902 46.4011C19.2902 46.0689 19.2343 45.768 19.1249 45.496C19.0154 45.2239 18.8598 44.988 18.6628 44.7906C18.4658 44.5908 18.2323 44.4392 17.9648 44.3332C17.6973 44.2273 17.4055 44.1744 17.0917 44.1744C16.778 44.1744 16.4862 44.2273 16.2235 44.3332C15.9585 44.4392 15.7274 44.5908 15.5256 44.7906C15.3237 44.9904 15.1681 45.2239 15.0586 45.496C14.9492 45.768 14.8933 46.0689 14.8933 46.4011C14.8933 46.7333 14.9492 47.027 15.0586 47.3015C15.1681 47.5759 15.3237 47.8142 15.5207 48.0116C15.7177 48.2114 15.9512 48.3631 16.2187 48.469C16.4862 48.5749 16.778 48.6279 17.0917 48.6279Z" fill="white"/>
<path d="M28.1936 49.8797V42.9177H29.5409L32.5346 47.8311H31.8221L34.7672 42.9177H36.1023L36.1218 49.8797H34.5945L34.5848 45.236H34.8669L32.5152 49.1455H31.7807L29.3804 45.236H29.7209V49.8797H28.1936Z" fill="white"/>
<path d="M43.8164 49.8797V42.9177H46.8612C47.4911 42.9177 48.0334 43.0188 48.4882 43.221C48.943 43.4233 49.2956 43.7121 49.5437 44.0925C49.7917 44.4729 49.9158 44.9206 49.9158 45.4454C49.9158 45.9702 49.7917 46.4107 49.5437 46.7887C49.2956 47.1666 48.943 47.4579 48.4882 47.6601C48.0334 47.8624 47.4911 47.9635 46.8612 47.9635H44.7211L45.4434 47.2365V49.8821H43.8164V49.8797ZM45.4434 47.4122L44.7211 46.6467H46.7713C47.2747 46.6467 47.6492 46.5407 47.8972 46.3289C48.1453 46.1171 48.2693 45.821 48.2693 45.443C48.2693 45.0651 48.1453 44.7593 47.8972 44.5475C47.6492 44.3356 47.2747 44.2297 46.7713 44.2297H44.7211L45.4434 43.4642V47.4122Z" fill="white"/>
<path d="M58.717 48.587H62.5449V49.8797H57.0997V42.9177H62.416V44.2105H58.7194V48.587H58.717ZM58.5954 45.7222H61.9807V46.9765H58.5954V45.7222Z" fill="white"/>
<path d="M71.3266 49.8797V44.2297H69.0771V42.9177H75.2056V44.2297H72.956V49.8797H71.3291H71.3266Z" fill="white"/>
<path d="M82.1099 49.8797V42.9177H83.7369V49.8797H82.1099Z" fill="white"/>
<path d="M92.8908 49.8797V44.2297H90.6412V42.9177H96.7697V44.2297H94.5202V49.8797H92.8932H92.8908Z" fill="white"/>
<path d="M103.672 49.8797V42.9177H105.299V49.8797H103.672Z" fill="white"/>
<path d="M116.41 50.0001C115.853 50.0001 115.34 49.911 114.868 49.7304C114.396 49.5499 113.988 49.2995 113.643 48.9745C113.297 48.6496 113.03 48.2692 112.838 47.8311C112.648 47.3929 112.551 46.9163 112.551 46.3987C112.551 45.8811 112.645 45.4045 112.838 44.9664C113.03 44.5282 113.297 44.1479 113.647 43.8229C113.995 43.4979 114.404 43.2451 114.873 43.067C115.343 42.8888 115.851 42.7974 116.4 42.7974C116.95 42.7974 117.468 42.8864 117.933 43.067C118.397 43.2451 118.803 43.4979 119.149 43.8229C119.494 44.1479 119.764 44.5282 119.958 44.9615C120.153 45.3949 120.25 45.8739 120.25 46.3987C120.25 46.9235 120.153 47.3953 119.958 47.8359C119.764 48.2764 119.494 48.6592 119.149 48.9794C118.803 49.3019 118.399 49.5523 117.933 49.7304C117.466 49.9086 116.96 50.0001 116.41 50.0001ZM116.4 48.6279C116.714 48.6279 117.006 48.5749 117.269 48.469C117.531 48.3631 117.767 48.2114 117.967 48.0116C118.168 47.8118 118.324 47.5783 118.434 47.3063C118.543 47.0342 118.599 46.7333 118.599 46.4011C118.599 46.0689 118.543 45.768 118.434 45.496C118.324 45.2239 118.168 44.988 117.971 44.7906C117.774 44.5908 117.541 44.4392 117.273 44.3332C117.006 44.2273 116.714 44.1744 116.4 44.1744C116.087 44.1744 115.795 44.2273 115.532 44.3332C115.267 44.4392 115.036 44.5908 114.834 44.7906C114.632 44.9904 114.477 45.2239 114.367 45.496C114.258 45.768 114.202 46.0689 114.202 46.4011C114.202 46.7333 114.258 47.027 114.367 47.3015C114.477 47.5759 114.632 47.8142 114.829 48.0116C115.026 48.2114 115.26 48.3631 115.527 48.469C115.795 48.5749 116.087 48.6279 116.4 48.6279Z" fill="white"/>
<path d="M127.502 49.8797V42.9177H128.85L132.998 47.9298H132.344V42.9177H133.952V49.8797H132.614L128.456 44.8677H129.11V49.8797H127.502Z" fill="white"/>
<path d="M150.02 49.8797V48.8349L152.734 46.2976C152.948 46.105 153.106 45.9341 153.206 45.78C153.305 45.6284 153.376 45.4887 153.412 45.3636C153.449 45.2384 153.468 45.1228 153.468 45.0145C153.468 44.7352 153.373 44.5234 153.181 44.3717C152.992 44.2225 152.709 44.1479 152.342 44.1479C152.048 44.1479 151.776 44.2032 151.523 44.3164C151.272 44.4295 151.058 44.6053 150.885 44.8436L149.699 44.0877C149.966 43.6905 150.341 43.3751 150.825 43.1416C151.306 42.9105 151.863 42.7925 152.493 42.7925C153.016 42.7925 153.473 42.8768 153.865 43.0453C154.256 43.2138 154.56 43.4521 154.779 43.7555C154.995 44.0612 155.105 44.4247 155.105 44.8484C155.105 45.0747 155.076 45.2986 155.02 45.52C154.964 45.7415 154.85 45.975 154.679 46.2206C154.509 46.4661 154.259 46.7405 153.93 47.0463L151.681 49.1455L151.369 48.5581H155.338V49.8701H150.022L150.02 49.8797Z" fill="white"/>
<path d="M165.052 50.0001C164.475 50.0001 163.96 49.858 163.505 49.5764C163.05 49.2947 162.69 48.8855 162.43 48.3486C162.17 47.8118 162.038 47.1618 162.038 46.3987C162.038 45.6356 162.17 44.9856 162.43 44.4488C162.69 43.912 163.05 43.5027 163.505 43.2211C163.96 42.9394 164.475 42.7974 165.052 42.7974C165.628 42.7974 166.151 42.9394 166.603 43.2211C167.056 43.5027 167.413 43.912 167.673 44.4488C167.933 44.9856 168.065 45.6356 168.065 46.3987C168.065 47.1618 167.933 47.8118 167.673 48.3486C167.413 48.8855 167.056 49.2947 166.603 49.5764C166.151 49.858 165.633 50.0001 165.052 50.0001ZM165.052 48.6375C165.326 48.6375 165.565 48.5605 165.769 48.4088C165.973 48.2572 166.134 48.014 166.251 47.6818C166.367 47.3496 166.426 46.9235 166.426 46.3987C166.426 45.8739 166.367 45.4478 166.251 45.1156C166.134 44.7834 165.973 44.5427 165.769 44.3886C165.565 44.2345 165.326 44.1599 165.052 44.1599C164.777 44.1599 164.548 44.2369 164.344 44.3886C164.14 44.5403 163.979 44.7834 163.862 45.1156C163.746 45.4478 163.687 45.8739 163.687 46.3987C163.687 46.9235 163.746 47.3496 163.862 47.6818C163.979 48.014 164.14 48.2548 164.344 48.4088C164.548 48.5605 164.784 48.6375 165.052 48.6375Z" fill="white"/>
<path d="M174.787 49.8797V48.8349L177.501 46.2976C177.715 46.105 177.873 45.9341 177.973 45.78C178.072 45.6284 178.143 45.4887 178.179 45.3636C178.216 45.2384 178.235 45.1228 178.235 45.0145C178.235 44.7352 178.14 44.5234 177.948 44.3717C177.759 44.2225 177.476 44.1479 177.109 44.1479C176.815 44.1479 176.543 44.2032 176.29 44.3164C176.039 44.4295 175.825 44.6053 175.652 44.8436L174.466 44.0877C174.733 43.6905 175.108 43.3751 175.592 43.1416C176.073 42.9105 176.63 42.7925 177.26 42.7925C177.783 42.7925 178.24 42.8768 178.632 43.0453C179.023 43.2138 179.327 43.4521 179.546 43.7555C179.762 44.0612 179.872 44.4247 179.872 44.8484C179.872 45.0747 179.843 45.2986 179.787 45.52C179.731 45.7415 179.617 45.975 179.446 46.2206C179.276 46.4661 179.026 46.7405 178.697 47.0463L176.448 49.1455L176.136 48.5581H180.105V49.8701H174.789L174.787 49.8797Z" fill="white"/>
<path d="M189.084 50C188.595 50 188.109 49.935 187.627 49.805C187.146 49.675 186.737 49.4921 186.402 49.2538L187.034 48.0212C187.301 48.2138 187.613 48.3655 187.968 48.4786C188.323 48.5917 188.68 48.6471 189.043 48.6471C189.451 48.6471 189.772 48.5677 190.008 48.4088C190.242 48.2499 190.361 48.0308 190.361 47.7516C190.361 47.4723 190.256 47.2774 190.05 47.1257C189.843 46.974 189.507 46.897 189.045 46.897H188.301V45.833L190.261 43.6351L190.441 44.2128H186.754V42.9201H191.677V43.9649L189.726 46.1628L188.902 45.6957H189.373C190.237 45.6957 190.891 45.8883 191.334 46.2735C191.776 46.6587 191.998 47.1522 191.998 47.7564C191.998 48.1488 191.893 48.5147 191.686 48.8566C191.48 49.1984 191.161 49.4752 190.733 49.6871C190.305 49.8989 189.755 50.0048 189.084 50.0048V50Z" fill="white"/>
</g>
<defs>
<clipPath id="clip0_87_1927">
<rect width="192" height="50" fill="white"/>
</clipPath>
</defs>
</svg>
