<svg
  width="21"
  height="22"
  viewBox="0 0 21 22"
  fill="none"
  xmlns="http://www.w3.org/2000/svg"
>
<path
    d="M20.4691 2.5L20.968 2.46692C20.9547 2.26635 20.8226 2.09324 20.6327 2.0275C20.4427 1.96176 20.2319 2.01616 20.0974 2.1656L20.4691 2.5ZM19.5428 6.72701C19.5428 6.45086 19.3189 6.22701 19.0428 6.22701C18.7666 6.22701 18.5428 6.45086 18.5428 6.72701H19.5428ZM10.5 8V8.5H11V8H10.5ZM1.92637 2.5L2.39462 2.32468C2.32485 2.13834 2.15124 2.0111 1.95255 2.00069C1.75385 1.99027 1.56789 2.09865 1.47902 2.27667L1.92637 2.5ZM7.5 15.5L7.85383 15.8533C7.97619 15.7307 8.02642 15.5536 7.98661 15.385C7.94679 15.2165 7.8226 15.0806 7.65833 15.0257L7.5 15.5ZM0.5 18.2143V17.7143C0.279732 17.7143 0.0854109 17.8584 0.0215057 18.0692C-0.0423996 18.28 0.0391667 18.5078 0.222353 18.6301L0.5 18.2143ZM17.9515 3.89054L17.5806 4.22589L17.7608 4.42513L18.0264 4.38491L17.9515 3.89054ZM19.9702 2.53308C20.0446 3.65499 19.9783 4.36395 19.7838 4.91243C19.5929 5.45047 19.2609 5.88419 18.6968 6.4247L19.3887 7.14673C20.0033 6.5578 20.4605 5.9957 20.7262 5.24676C20.9882 4.50827 21.0458 3.63909 20.968 2.46692L19.9702 2.53308ZM19.5428 7.76785V6.78571H18.5428V7.76785H19.5428ZM19.5428 6.78571V6.72701H18.5428V6.78571H19.5428ZM10 7V8H11V7H10ZM14.8223 2C12.125 2 10 4.35065 10 7H11C11 4.85063 12.7282 3 14.8223 3V2ZM18.5428 7.76785C18.5428 14.0599 13.2624 19.5 7 19.5V20.5C13.8342 20.5 19.5428 14.5925 19.5428 7.76785H18.5428ZM1.45811 2.67532C2.22305 4.7183 5.10161 8.5 10.5 8.5V7.5C5.62855 7.5 3.05605 4.09122 2.39462 2.32468L1.45811 2.67532ZM1.47902 2.27667C0.00554863 5.22816 -0.242404 8.09715 0.775073 10.5321C1.79256 12.967 4.03467 14.8702 7.34167 15.9743L7.65833 15.0257C4.54668 13.9869 2.57561 12.2473 1.69776 10.1465C0.819895 8.04571 0.994452 5.48613 2.37372 2.72333L1.47902 2.27667ZM7.14617 15.1467C6.26646 16.0278 3.76165 17.7143 0.5 17.7143V18.7143C4.08491 18.7143 6.83174 16.877 7.85383 15.8533L7.14617 15.1467ZM18.3224 3.5552C17.4594 2.60084 16.2107 2 14.8223 2V3C15.916 3 16.8991 3.47214 17.5806 4.22589L18.3224 3.5552ZM18.0264 4.38491C19.0619 4.22808 20.0775 3.68292 20.8409 2.8344L20.0974 2.1656C19.4829 2.84872 18.6743 3.27537 17.8766 3.39618L18.0264 4.38491ZM0.222353 18.6301C2.47016 20.131 4.63313 20.5 7 20.5V19.5C4.75713 19.5 2.80895 19.1548 0.777647 17.7985L0.222353 18.6301Z"
    fill="#F2F2F2"
  />
</svg>
