<svg width="22" height="20" viewBox="0 0 22 20" fill="none" xmlns="http://www.w3.org/2000/svg">
<path d="M20.9691 1.15686L21.9669 1.09071C21.9403 0.689564 21.6761 0.343349 21.2962 0.21186C20.9163 0.0803705 20.4946 0.189175 20.2257 0.488054L20.9691 1.15686ZM20.5428 5.38387C20.5428 4.83158 20.0951 4.38387 19.5428 4.38387C18.9905 4.38387 18.5428 4.83158 18.5428 5.38387H20.5428ZM11 6.65686V7.65686H12V6.65686H11ZM2.42637 1.15686L3.36287 0.806212C3.22334 0.43354 2.87612 0.179068 2.47873 0.158232C2.08133 0.137396 1.70941 0.354163 1.53166 0.710199L2.42637 1.15686ZM8 14.1569L8.70766 14.8634C8.95238 14.6183 9.05284 14.264 8.97321 13.927C8.89358 13.5899 8.6452 13.318 8.31667 13.2083L8 14.1569ZM1 16.8711V15.8711C0.559465 15.8711 0.170822 16.1594 0.0430113 16.581C-0.0847992 17.0026 0.0783335 17.4582 0.444707 17.7028L1 16.8711ZM18.4515 2.5474L17.7098 3.21809L18.0701 3.61658L18.6013 3.53613L18.4515 2.5474ZM19.9713 1.22301C20.044 2.3198 19.9734 2.94865 19.8125 3.40213C19.6591 3.83471 19.3897 4.20425 18.8509 4.72055L20.2346 6.1646C20.8745 5.55146 21.3944 4.92518 21.6974 4.07079C21.9931 3.23729 22.0463 2.288 21.9669 1.09071L19.9713 1.22301ZM20.5428 6.42471V5.44257H18.5428V6.42471H20.5428ZM20.5428 5.44257V5.38387H18.5428V5.44257H20.5428ZM10 5.65686V6.65686H12V5.65686H10ZM15.3223 0.15686C12.3235 0.15686 10 2.75752 10 5.65686H12C12 3.75749 13.5298 2.15686 15.3223 2.15686V0.15686ZM18.5428 6.42471C18.5428 12.4505 13.4765 17.6569 7.5 17.6569V19.6569C14.6201 19.6569 20.5428 13.5157 20.5428 6.42471H18.5428ZM1.48986 1.50751C2.30654 3.6887 5.33814 7.65686 11 7.65686V5.65686C6.39202 5.65686 3.97256 2.43455 3.36287 0.806212L1.48986 1.50751ZM1.53166 0.710199C0.0110971 3.75603 -0.273553 6.77974 0.813732 9.38171C1.90104 11.9837 4.27867 13.9688 7.68333 15.1054L8.31667 13.2083C5.30268 12.2021 3.46713 10.5443 2.6591 8.61059C1.85104 6.67684 1.9889 4.27197 3.32107 1.60352L1.53166 0.710199ZM7.29234 13.4503C6.48383 14.2601 4.10002 15.8711 1 15.8711V17.8711C4.74654 17.8711 7.61438 15.9584 8.70766 14.8634L7.29234 13.4503ZM19.1933 1.87672C18.2396 0.822046 16.858 0.15686 15.3223 0.15686V2.15686C16.2687 2.15686 17.1189 2.56466 17.7098 3.21809L19.1933 1.87672ZM18.6013 3.53613C19.7557 3.36129 20.8748 2.75688 21.7126 1.82567L20.2257 0.488054C19.6856 1.08848 18.9805 1.45588 18.3018 1.55868L18.6013 3.53613ZM0.444707 17.7028C2.80076 19.2759 5.07113 19.6569 7.5 19.6569V17.6569C5.31913 17.6569 3.47834 17.3235 1.55529 16.0395L0.444707 17.7028Z" fill="#007CBD"/>
</svg>
