<svg
  width="39"
  height="38"
  viewBox="0 0 39 38"
  fill="none"
  xmlns="http://www.w3.org/2000/svg"
>
<path
    d="M19.8336 0C14.8217 0.0605685 10.032 2.08179 6.4878 5.63194C2.94356 9.18209 0.925702 13.9797 0.865234 19C0.925702 24.0203 2.94356 28.8179 6.4878 32.3681C10.032 35.9182 14.8217 37.9394 19.8336 38C24.8456 37.9394 29.6352 35.9182 33.1794 32.3681C36.7237 28.8179 38.7415 24.0203 38.802 19C38.7415 13.9797 36.7237 9.18209 33.1794 5.63194C29.6352 2.08179 24.8456 0.0605685 19.8336 0ZM30.6727 20.3571H21.1885V29.8571H18.4787V20.3571H8.99454V17.6429H18.4787V8.14286H21.1885V17.6429H30.6727V20.3571Z"
    fill="#1B85E8"
  />
</svg>
