<svg width="22" height="22" viewBox="0 0 22 22" fill="none" xmlns="http://www.w3.org/2000/svg">
<path fill-rule="evenodd" clip-rule="evenodd" d="M3.00042 10.6569C3.00042 8.97572 3.49893 7.33233 4.43293 5.93451C5.36692 4.5367 6.69444 3.44723 8.24761 2.80388C9.80078 2.16054 11.5098 1.99221 13.1587 2.32019C14.8075 2.64816 16.3221 3.45771 17.5108 4.64645C18.6996 5.8352 19.5091 7.34975 19.8371 8.99859C20.1651 10.6474 19.9967 12.3565 19.3534 13.9097C18.71 15.4628 17.6206 16.7904 16.2228 17.7244C14.8249 18.6583 13.1816 19.1569 11.5004 19.1569C9.89226 19.1597 8.31665 18.7039 6.95842 17.8429C6.8376 17.7664 6.7018 17.7168 6.56017 17.6973C6.41855 17.6778 6.27439 17.6889 6.13742 17.7299L3.25742 18.5889L4.34242 16.0519C4.40548 15.9042 4.43205 15.7434 4.41986 15.5833C4.40768 15.4232 4.3571 15.2683 4.27242 15.1319C3.43835 13.7885 2.99767 12.2381 3.00042 10.6569ZM11.5004 0.15686C5.70142 0.15686 1.00042 4.85786 1.00042 10.6569C1.00042 12.4949 1.47342 14.2249 2.30542 15.7299L0.580417 19.7639C0.505757 19.9386 0.482431 20.131 0.513172 20.3185C0.543914 20.5061 0.627449 20.6809 0.753994 20.8227C0.88054 20.9645 1.04486 21.0672 1.2277 21.119C1.41055 21.1707 1.60435 21.1693 1.78642 21.1149L6.28642 19.7729C7.87344 20.6823 9.67128 21.1595 11.5004 21.1569C17.2994 21.1569 22.0004 16.4559 22.0004 10.6569C22.0004 4.85786 17.2994 0.15686 11.5004 0.15686ZM13.7934 12.8389L12.4784 13.7649C11.7539 13.348 11.0886 12.8358 10.5004 12.2419C9.86895 11.6113 9.32296 10.9005 8.87642 10.1279L9.71142 9.41886C9.88541 9.27124 10.0037 9.06856 10.0466 8.84447C10.0895 8.62037 10.0545 8.38833 9.94742 8.18686L8.88342 6.18686C8.81261 6.05404 8.71274 5.93891 8.59124 5.85006C8.46974 5.76122 8.32975 5.70094 8.18171 5.67374C8.03367 5.64653 7.8814 5.6531 7.73625 5.69294C7.5911 5.73279 7.45682 5.80489 7.34342 5.90386L7.02742 6.17886C6.26842 6.84086 5.81942 7.92886 6.19142 9.03086C6.78992 10.774 7.78032 12.3566 9.08642 13.6569C10.8994 15.4699 12.7414 16.1839 13.8194 16.4619C14.6874 16.6849 15.5084 16.3859 16.0874 15.9139L16.6784 15.4319C16.803 15.3303 16.9013 15.2001 16.9649 15.0524C17.0285 14.9048 17.0555 14.744 17.0438 14.5836C17.032 14.4233 16.9817 14.2681 16.8972 14.1314C16.8127 13.9946 16.6965 13.8802 16.5584 13.7979L14.8804 12.7979C14.7145 12.6989 14.5234 12.65 14.3303 12.6573C14.1373 12.6646 13.9504 12.7276 13.7924 12.8389H13.7934Z" fill="#007CBD"/>
</svg>
